G04*
G04 #@! TF.GenerationSoftware,Altium Limited,Altium Designer,24.1.2 (44)*
G04*
G04 Layer_Color=32896*
%FSLAX44Y44*%
%MOMM*%
G71*
G04*
G04 #@! TF.SameCoordinates,6BD88CD4-1E97-4B61-92EF-30D8DD190105*
G04*
G04*
G04 #@! TF.FilePolarity,Positive*
G04*
G01*
G75*
G36*
X161922Y22069D02*
X162116Y21986D01*
X162255Y21875D01*
X162310Y21847D01*
X162449Y21653D01*
X162532Y21430D01*
X162560Y21264D01*
Y21236D01*
Y21208D01*
X162532Y20958D01*
X162421Y20764D01*
X162338Y20625D01*
X162310Y20570D01*
X162088Y20431D01*
X161866Y20348D01*
X161699Y20320D01*
X156869D01*
X156591Y20348D01*
X156397Y20459D01*
X156286Y20542D01*
X156230Y20570D01*
X156091Y20792D01*
X156008Y20986D01*
X155980Y21153D01*
Y21181D01*
Y21208D01*
X156008Y21486D01*
X156091Y21680D01*
X156202Y21791D01*
X156230Y21847D01*
X156425Y21986D01*
X156647Y22069D01*
X156813Y22097D01*
X161644D01*
X161922Y22069D01*
D02*
G37*
G36*
X152593D02*
X152788Y21986D01*
X152927Y21875D01*
X152982Y21847D01*
X153121Y21653D01*
X153204Y21430D01*
X153232Y21264D01*
Y21236D01*
Y21208D01*
X153204Y20958D01*
X153093Y20764D01*
X153010Y20625D01*
X152982Y20570D01*
X152760Y20431D01*
X152538Y20348D01*
X152371Y20320D01*
X147541D01*
X147263Y20348D01*
X147069Y20459D01*
X146958Y20542D01*
X146902Y20570D01*
X146763Y20792D01*
X146680Y20986D01*
X146652Y21153D01*
Y21181D01*
Y21208D01*
X146680Y21486D01*
X146763Y21680D01*
X146874Y21791D01*
X146902Y21847D01*
X147097Y21986D01*
X147319Y22069D01*
X147485Y22097D01*
X152316D01*
X152593Y22069D01*
D02*
G37*
G36*
X307971D02*
X308166Y21986D01*
X308305Y21875D01*
X308360Y21847D01*
X308499Y21653D01*
X308582Y21430D01*
X308610Y21264D01*
Y21236D01*
Y21208D01*
X308582Y20958D01*
X308471Y20764D01*
X308388Y20625D01*
X308360Y20570D01*
X308138Y20431D01*
X307916Y20348D01*
X307749Y20320D01*
X302919D01*
X302641Y20348D01*
X302447Y20459D01*
X302336Y20542D01*
X302280Y20570D01*
X302141Y20792D01*
X302058Y20986D01*
X302030Y21153D01*
Y21181D01*
Y21208D01*
X302058Y21486D01*
X302141Y21680D01*
X302253Y21791D01*
X302280Y21847D01*
X302475Y21986D01*
X302697Y22069D01*
X302863Y22097D01*
X307694D01*
X307971Y22069D01*
D02*
G37*
G36*
X298643D02*
X298838Y21986D01*
X298976Y21875D01*
X299032Y21847D01*
X299171Y21653D01*
X299254Y21430D01*
X299282Y21264D01*
Y21236D01*
Y21208D01*
X299254Y20958D01*
X299143Y20764D01*
X299060Y20625D01*
X299032Y20570D01*
X298810Y20431D01*
X298588Y20348D01*
X298421Y20320D01*
X293591D01*
X293313Y20348D01*
X293119Y20459D01*
X293008Y20542D01*
X292952Y20570D01*
X292813Y20792D01*
X292730Y20986D01*
X292702Y21153D01*
Y21181D01*
Y21208D01*
X292730Y21486D01*
X292813Y21680D01*
X292924Y21791D01*
X292952Y21847D01*
X293146Y21986D01*
X293369Y22069D01*
X293535Y22097D01*
X298366D01*
X298643Y22069D01*
D02*
G37*
G36*
X637832Y389073D02*
X638091Y388976D01*
X638285Y388878D01*
X638318Y388814D01*
X638350D01*
X638545Y388522D01*
X638642Y388231D01*
Y388101D01*
X638674Y387972D01*
Y387907D01*
Y387874D01*
Y372103D01*
X638609Y371714D01*
X638512Y371423D01*
X638415Y371261D01*
X638350Y371196D01*
X638059Y371034D01*
X637767Y370937D01*
X637638D01*
X637541Y370905D01*
X637444D01*
X637055Y370937D01*
X636796Y371067D01*
X636634Y371164D01*
X636569Y371196D01*
X636407Y371488D01*
X636310Y371779D01*
X636278Y371909D01*
Y372006D01*
Y372071D01*
Y372103D01*
Y384124D01*
X630934Y374338D01*
X630772Y374111D01*
X630643Y373917D01*
X630513Y373819D01*
X630481Y373787D01*
X630254Y373690D01*
X630060Y373625D01*
X629898Y373593D01*
X629833D01*
X629542Y373625D01*
X629347Y373690D01*
X629218Y373722D01*
X629185Y373755D01*
X629023Y373917D01*
X628894Y374111D01*
X628797Y374273D01*
X628764Y374338D01*
X623421Y384203D01*
Y385219D01*
X622870D01*
X623421Y384203D01*
Y372103D01*
X623388Y371714D01*
X623259Y371423D01*
X623162Y371261D01*
X623129Y371196D01*
X622838Y371034D01*
X622546Y370937D01*
X622417D01*
X622320Y370905D01*
X622223D01*
X621834Y370937D01*
X621575Y371067D01*
X621413Y371164D01*
X621348Y371196D01*
X621186Y371488D01*
X621089Y371779D01*
X621057Y371909D01*
Y372006D01*
Y372071D01*
Y372103D01*
Y387874D01*
X621121Y388296D01*
X621219Y388587D01*
X621316Y388749D01*
X621381Y388814D01*
X621640Y389008D01*
X621899Y389105D01*
X622028Y389137D01*
X622223D01*
X622579Y389105D01*
X622838Y389040D01*
X623000Y388976D01*
X623064Y388943D01*
X623259Y388749D01*
X623421Y388522D01*
X623550Y388328D01*
X623583Y388296D01*
Y388263D01*
X629818Y376614D01*
X636083Y388263D01*
X636278Y388587D01*
X636440Y388781D01*
X636569Y388911D01*
X636634Y388943D01*
X636893Y389073D01*
X637152Y389105D01*
X637346Y389137D01*
X637444D01*
X637832Y389073D01*
D02*
G37*
G36*
X469463D02*
X469754Y388976D01*
X469916Y388846D01*
X469981Y388814D01*
Y388781D01*
X470143Y388490D01*
X470240Y388166D01*
Y388036D01*
X470272Y387907D01*
Y387842D01*
Y387810D01*
Y372135D01*
X470207Y371714D01*
X470110Y371423D01*
X470013Y371261D01*
X469948Y371196D01*
X469657Y371034D01*
X469365Y370937D01*
X469236D01*
X469139Y370905D01*
X469041D01*
X468653Y370937D01*
X468394Y371067D01*
X468232Y371164D01*
X468167Y371196D01*
X467973Y371488D01*
X467876Y371779D01*
X467843Y371909D01*
Y372038D01*
Y372103D01*
Y372135D01*
Y384641D01*
X458031Y371650D01*
X457771Y371390D01*
X457577Y371196D01*
X457448Y371099D01*
X457383Y371067D01*
X457156Y370970D01*
X456897Y370937D01*
X456703Y370905D01*
X456638D01*
X456314Y370937D01*
X456055Y371067D01*
X455926Y371164D01*
X455861Y371196D01*
X455699Y371488D01*
X455602Y371779D01*
X455569Y371909D01*
Y372006D01*
Y372071D01*
Y372103D01*
Y387874D01*
X455634Y388263D01*
X455731Y388555D01*
X455828Y388717D01*
X455893Y388781D01*
X456023Y388911D01*
X456152Y388976D01*
X456444Y389105D01*
X456573D01*
X456703Y389137D01*
X456994D01*
X457189Y389073D01*
X457480Y388976D01*
X457642Y388846D01*
X457707Y388814D01*
Y388781D01*
X457901Y388490D01*
X457998Y388198D01*
Y388069D01*
X458031Y387972D01*
Y387907D01*
Y387874D01*
Y375419D01*
X457383Y374564D01*
X458031D01*
Y375419D01*
X467843Y388360D01*
X468070Y388652D01*
X468264Y388846D01*
X468394Y388943D01*
X468426Y388976D01*
X468620Y389073D01*
X468847Y389105D01*
X469041Y389137D01*
X469301D01*
X469463Y389073D01*
D02*
G37*
G36*
X421079Y389137D02*
X421759Y389073D01*
X422375Y388976D01*
X422925Y388846D01*
X423379Y388717D01*
X423703Y388619D01*
X423832Y388587D01*
X423929Y388555D01*
X423962Y388522D01*
X423994D01*
X424577Y388263D01*
X425095Y387972D01*
X425581Y387680D01*
X425969Y387389D01*
X426293Y387130D01*
X426520Y386903D01*
X426650Y386773D01*
X426714Y386709D01*
X427103Y386255D01*
X427427Y385737D01*
X427718Y385251D01*
X427977Y384798D01*
X428139Y384409D01*
X428301Y384086D01*
X428334Y383956D01*
X428366Y383859D01*
X428398Y383826D01*
Y383794D01*
X428593Y383146D01*
X428722Y382499D01*
X428852Y381851D01*
X428917Y381268D01*
X428949Y380750D01*
Y380555D01*
X428981Y380361D01*
Y380199D01*
Y380102D01*
Y380037D01*
Y380005D01*
X428949Y379001D01*
X428819Y378062D01*
X428657Y377220D01*
X428560Y376831D01*
X428463Y376507D01*
X428398Y376184D01*
X428301Y375924D01*
X428204Y375698D01*
X428139Y375471D01*
X428074Y375341D01*
X428010Y375212D01*
X427977Y375147D01*
Y375115D01*
X427556Y374370D01*
X427071Y373755D01*
X426585Y373204D01*
X426099Y372751D01*
X425678Y372394D01*
X425322Y372135D01*
X425192Y372071D01*
X425095Y372006D01*
X425030Y371941D01*
X424998D01*
X424253Y371585D01*
X423443Y371293D01*
X422666Y371099D01*
X421921Y370970D01*
X421598Y370937D01*
X421306Y370905D01*
X421015Y370872D01*
X420788D01*
X420593Y370840D01*
X420334D01*
X419784Y370872D01*
X419233Y370905D01*
X418748Y370970D01*
X418294Y371067D01*
X417906Y371132D01*
X417646Y371196D01*
X417452Y371229D01*
X417387Y371261D01*
X416869Y371423D01*
X416416Y371650D01*
X415995Y371844D01*
X415606Y372038D01*
X415315Y372233D01*
X415121Y372394D01*
X414958Y372492D01*
X414926Y372524D01*
X414700Y372718D01*
X414538Y372945D01*
X414473Y373075D01*
X414440Y373139D01*
X414376Y373431D01*
Y373657D01*
X414408Y373787D01*
Y373852D01*
X414473Y374078D01*
X414602Y374273D01*
X414700Y374402D01*
X414732Y374435D01*
X414926Y374564D01*
X415153Y374629D01*
X415315Y374661D01*
X415379D01*
X415671Y374629D01*
X415930Y374564D01*
X416124Y374467D01*
X416157Y374435D01*
X416189D01*
X416869Y374014D01*
X417193Y373852D01*
X417485Y373722D01*
X417744Y373593D01*
X417970Y373528D01*
X418100Y373496D01*
X418132Y373463D01*
X418909Y373301D01*
X419266Y373237D01*
X419590Y373204D01*
X419881D01*
X420075Y373172D01*
X420270D01*
X420982Y373204D01*
X421598Y373301D01*
X422148Y373431D01*
X422634Y373560D01*
X423022Y373690D01*
X423314Y373819D01*
X423476Y373917D01*
X423541Y373949D01*
X423994Y374273D01*
X424415Y374661D01*
X424739Y375050D01*
X425030Y375406D01*
X425257Y375762D01*
X425419Y376022D01*
X425516Y376216D01*
X425548Y376248D01*
Y376281D01*
X425775Y376896D01*
X425937Y377511D01*
X426067Y378159D01*
X426131Y378742D01*
X426196Y379228D01*
Y379454D01*
X426228Y379649D01*
Y379811D01*
Y379908D01*
Y379973D01*
Y380005D01*
X426196Y380782D01*
X426131Y381527D01*
X426002Y382142D01*
X425872Y382693D01*
X425775Y383146D01*
X425646Y383470D01*
X425613Y383567D01*
X425581Y383665D01*
X425548Y383697D01*
Y383729D01*
X425257Y384280D01*
X424933Y384733D01*
X424609Y385122D01*
X424285Y385446D01*
X423994Y385705D01*
X423767Y385899D01*
X423605Y385996D01*
X423541Y386029D01*
X423022Y386288D01*
X422472Y386482D01*
X421921Y386644D01*
X421403Y386741D01*
X420950Y386806D01*
X420593Y386838D01*
X420270D01*
X419460Y386773D01*
X419104Y386741D01*
X418812Y386676D01*
X418553Y386612D01*
X418327Y386579D01*
X418197Y386514D01*
X418165D01*
X417776Y386385D01*
X417420Y386255D01*
X417128Y386093D01*
X416837Y385964D01*
X416610Y385834D01*
X416448Y385705D01*
X416319Y385640D01*
X416286Y385608D01*
X416124Y385510D01*
X415962Y385413D01*
X415703Y385349D01*
X415509Y385316D01*
X415444D01*
X415185Y385381D01*
X414958Y385446D01*
X414829Y385543D01*
X414797Y385575D01*
X414635Y385770D01*
X414505Y385996D01*
X414473Y386126D01*
X414440Y386190D01*
X414408Y386450D01*
X414440Y386709D01*
X414473Y386871D01*
X414505Y386903D01*
Y386935D01*
X414635Y387194D01*
X414829Y387421D01*
X414991Y387551D01*
X415023Y387615D01*
X415056D01*
X415444Y387874D01*
X415865Y388101D01*
X416286Y388296D01*
X416642Y388457D01*
X416999Y388587D01*
X417258Y388684D01*
X417420Y388717D01*
X417452Y388749D01*
X417485D01*
X418003Y388878D01*
X418489Y389008D01*
X418974Y389073D01*
X419428Y389105D01*
X419784Y389137D01*
X420075Y389170D01*
X420334D01*
X421079Y389137D01*
D02*
G37*
G36*
X551299D02*
X552012Y389073D01*
X552627Y388976D01*
X553178Y388846D01*
X553631Y388717D01*
X553987Y388619D01*
X554117Y388587D01*
X554214Y388555D01*
X554246Y388522D01*
X554279D01*
X554862Y388263D01*
X555380Y387972D01*
X555866Y387680D01*
X556254Y387389D01*
X556578Y387130D01*
X556837Y386903D01*
X556967Y386773D01*
X557032Y386709D01*
X557420Y386255D01*
X557776Y385737D01*
X558068Y385251D01*
X558327Y384798D01*
X558521Y384409D01*
X558651Y384086D01*
X558716Y383956D01*
X558748Y383859D01*
X558780Y383826D01*
Y383794D01*
X558975Y383146D01*
X559104Y382499D01*
X559234Y381851D01*
X559299Y381268D01*
X559331Y380750D01*
Y380523D01*
X559363Y380329D01*
Y380167D01*
Y380070D01*
Y380005D01*
Y379973D01*
X559331Y378969D01*
X559201Y378030D01*
X559039Y377188D01*
X558942Y376799D01*
X558845Y376475D01*
X558780Y376151D01*
X558683Y375892D01*
X558586Y375665D01*
X558521Y375439D01*
X558456Y375309D01*
X558392Y375180D01*
X558359Y375115D01*
Y375082D01*
X557938Y374370D01*
X557453Y373722D01*
X556934Y373204D01*
X556449Y372751D01*
X555995Y372394D01*
X555639Y372135D01*
X555509Y372071D01*
X555412Y372006D01*
X555348Y371941D01*
X555315D01*
X554538Y371585D01*
X553696Y371293D01*
X552854Y371099D01*
X552077Y370970D01*
X551720Y370937D01*
X551396Y370905D01*
X551105Y370872D01*
X550846D01*
X550652Y370840D01*
X550360D01*
X549324Y370872D01*
X548838Y370937D01*
X548417Y370970D01*
X548028Y371034D01*
X547769Y371067D01*
X547575Y371099D01*
X547510D01*
X546960Y371196D01*
X546474Y371326D01*
X546053Y371423D01*
X545664Y371553D01*
X545373Y371617D01*
X545146Y371714D01*
X544984Y371747D01*
X544952Y371779D01*
X544693Y371909D01*
X544531Y372071D01*
X544434Y372200D01*
X544401Y372265D01*
X544304Y372524D01*
X544272Y372783D01*
X544239Y372977D01*
Y373010D01*
Y373042D01*
Y379422D01*
X544272Y379778D01*
X544369Y380037D01*
X544498Y380199D01*
X544531Y380232D01*
X544758Y380394D01*
X545017Y380491D01*
X545211Y380523D01*
X549712D01*
X550069Y380491D01*
X550295Y380394D01*
X550457Y380296D01*
X550522Y380264D01*
X550684Y380070D01*
X550781Y379811D01*
X550814Y379616D01*
Y379584D01*
Y379552D01*
X550781Y379228D01*
X550652Y379001D01*
X550555Y378871D01*
X550522Y378807D01*
X550263Y378645D01*
X550004Y378580D01*
X549810Y378548D01*
X546442D01*
Y373746D01*
X546668Y373657D01*
X547025Y373560D01*
X547348Y373463D01*
X547640Y373398D01*
X547834Y373334D01*
X547964Y373301D01*
X548028D01*
X548838Y373204D01*
X549227Y373139D01*
X549551D01*
X549842Y373107D01*
X550263D01*
X550846Y373139D01*
X551364Y373172D01*
X551882Y373269D01*
X552336Y373366D01*
X552757Y373528D01*
X553178Y373657D01*
X553502Y373819D01*
X553825Y373981D01*
X554117Y374143D01*
X554344Y374305D01*
X554570Y374467D01*
X554732Y374597D01*
X554862Y374694D01*
X554959Y374791D01*
X554991Y374823D01*
X555024Y374856D01*
X555315Y375212D01*
X555542Y375568D01*
X555769Y375989D01*
X555930Y376410D01*
X556222Y377252D01*
X556416Y378062D01*
X556481Y378451D01*
X556513Y378807D01*
X556546Y379131D01*
X556578Y379422D01*
X556610Y379649D01*
Y379811D01*
Y379940D01*
Y379973D01*
X556578Y380750D01*
X556513Y381495D01*
X556384Y382110D01*
X556254Y382660D01*
X556157Y383114D01*
X556028Y383438D01*
X555995Y383535D01*
X555963Y383632D01*
X555930Y383665D01*
Y383697D01*
X555639Y384247D01*
X555315Y384733D01*
X554991Y385122D01*
X554667Y385478D01*
X554344Y385737D01*
X554117Y385899D01*
X553955Y386029D01*
X553890Y386061D01*
X553340Y386320D01*
X552789Y386514D01*
X552239Y386676D01*
X551720Y386773D01*
X551235Y386838D01*
X550878Y386871D01*
X550069D01*
X549615Y386806D01*
X549227Y386773D01*
X548871Y386709D01*
X548579Y386644D01*
X548352Y386612D01*
X548190Y386547D01*
X548158D01*
X547737Y386417D01*
X547348Y386255D01*
X546992Y386093D01*
X546701Y385931D01*
X546442Y385770D01*
X546215Y385640D01*
X546085Y385575D01*
X546053Y385543D01*
X545761Y385413D01*
X545535Y385349D01*
X545373Y385316D01*
X545308D01*
X545081Y385381D01*
X544887Y385510D01*
X544758Y385608D01*
X544725Y385640D01*
X544563Y385834D01*
X544466Y386029D01*
X544434Y386158D01*
X544401Y386223D01*
X544369Y386482D01*
Y386709D01*
X544401Y386838D01*
Y386903D01*
X544498Y387162D01*
X544660Y387356D01*
X544790Y387486D01*
X544822Y387518D01*
X544855D01*
X545308Y387810D01*
X545794Y388101D01*
X546247Y388296D01*
X546668Y388490D01*
X547025Y388619D01*
X547316Y388717D01*
X547510Y388749D01*
X547543Y388781D01*
X547575D01*
X548126Y388911D01*
X548644Y389008D01*
X549162Y389073D01*
X549615Y389137D01*
X550004D01*
X550295Y389170D01*
X550555D01*
X551299Y389137D01*
D02*
G37*
G36*
X503337Y388878D02*
X503661Y388749D01*
X503791Y388684D01*
X503888Y388619D01*
X503920Y388587D01*
X503952Y388555D01*
X504082Y388393D01*
X504147Y388231D01*
X504276Y387907D01*
Y387745D01*
X504309Y387615D01*
Y387551D01*
Y387518D01*
Y372459D01*
X504276Y372233D01*
X504244Y372006D01*
X504114Y371682D01*
X504050Y371585D01*
X504017Y371488D01*
X503952Y371455D01*
Y371423D01*
X503791Y371293D01*
X503629Y371229D01*
X503272Y371099D01*
X503111D01*
X502981Y371067D01*
X497994D01*
X497184Y371099D01*
X496439Y371164D01*
X495759Y371261D01*
X495209Y371358D01*
X494723Y371455D01*
X494529Y371520D01*
X494367Y371553D01*
X494237Y371585D01*
X494140Y371617D01*
X494108Y371650D01*
X494075D01*
X493460Y371876D01*
X492909Y372168D01*
X492423Y372459D01*
X492002Y372718D01*
X491646Y372977D01*
X491387Y373172D01*
X491258Y373301D01*
X491193Y373366D01*
X490772Y373819D01*
X490416Y374273D01*
X490092Y374759D01*
X489833Y375212D01*
X489638Y375601D01*
X489509Y375892D01*
X489444Y376022D01*
X489412Y376119D01*
X489379Y376151D01*
Y376184D01*
X489185Y376831D01*
X489023Y377479D01*
X488926Y378127D01*
X488829Y378742D01*
X488796Y379228D01*
Y379454D01*
X488764Y379649D01*
Y379811D01*
Y379908D01*
Y379973D01*
Y380005D01*
X488796Y380782D01*
X488861Y381527D01*
X488991Y382239D01*
X489153Y382887D01*
X489314Y383470D01*
X489541Y384021D01*
X489735Y384506D01*
X489962Y384960D01*
X490189Y385349D01*
X490416Y385705D01*
X490642Y385964D01*
X490804Y386223D01*
X490966Y386417D01*
X491096Y386547D01*
X491160Y386612D01*
X491193Y386644D01*
X491679Y387065D01*
X492164Y387389D01*
X492715Y387713D01*
X493265Y387972D01*
X493816Y388198D01*
X494399Y388393D01*
X494949Y388522D01*
X495500Y388652D01*
X495986Y388749D01*
X496472Y388814D01*
X496893Y388878D01*
X497281Y388911D01*
X497573Y388943D01*
X503111D01*
X503337Y388878D01*
D02*
G37*
G36*
X484262D02*
X484586Y388749D01*
X484716Y388684D01*
X484813Y388619D01*
X484845Y388587D01*
X484878Y388555D01*
X485007Y388393D01*
X485072Y388231D01*
X485202Y387907D01*
Y387745D01*
X485234Y387615D01*
Y387551D01*
Y387518D01*
Y372459D01*
X485202Y372233D01*
X485169Y372006D01*
X485040Y371682D01*
X484975Y371585D01*
X484943Y371488D01*
X484878Y371455D01*
Y371423D01*
X484716Y371293D01*
X484554Y371229D01*
X484198Y371099D01*
X484036D01*
X483906Y371067D01*
X474547D01*
X474191Y371099D01*
X473932Y371196D01*
X473802Y371293D01*
X473737Y371326D01*
X473575Y371553D01*
X473478Y371811D01*
X473446Y372006D01*
Y372071D01*
Y372103D01*
X473478Y372459D01*
X473575Y372686D01*
X473705Y372848D01*
X473737Y372880D01*
X473996Y373042D01*
X474255Y373139D01*
X474450Y373172D01*
X482708D01*
Y379066D01*
X475098D01*
X474741Y379098D01*
X474482Y379195D01*
X474320Y379292D01*
X474288Y379325D01*
X474126Y379584D01*
X474061Y379843D01*
X474029Y380037D01*
Y380102D01*
Y380135D01*
X474061Y380491D01*
X474158Y380717D01*
X474255Y380879D01*
X474288Y380912D01*
X474515Y381074D01*
X474774Y381171D01*
X475000Y381203D01*
X482708D01*
Y386806D01*
X474547D01*
X474191Y386838D01*
X473932Y386968D01*
X473802Y387065D01*
X473737Y387097D01*
X473575Y387356D01*
X473478Y387615D01*
X473446Y387810D01*
Y387874D01*
Y387907D01*
X473478Y388263D01*
X473575Y388490D01*
X473705Y388652D01*
X473737Y388684D01*
X473996Y388846D01*
X474255Y388911D01*
X474450Y388943D01*
X484036D01*
X484262Y388878D01*
D02*
G37*
G36*
X410230D02*
X410554Y388749D01*
X410684Y388684D01*
X410781Y388619D01*
X410813Y388587D01*
X410846Y388555D01*
X410975Y388393D01*
X411040Y388231D01*
X411170Y387907D01*
Y387745D01*
X411202Y387615D01*
Y387551D01*
Y387518D01*
Y372459D01*
X411170Y372233D01*
X411137Y372006D01*
X411008Y371682D01*
X410943Y371585D01*
X410910Y371488D01*
X410846Y371455D01*
Y371423D01*
X410684Y371293D01*
X410522Y371229D01*
X410165Y371099D01*
X410004D01*
X409874Y371067D01*
X403429D01*
X402425Y371132D01*
X401551Y371261D01*
X401130Y371358D01*
X400774Y371455D01*
X400450Y371585D01*
X400159Y371714D01*
X399899Y371811D01*
X399673Y371941D01*
X399478Y372038D01*
X399317Y372135D01*
X399187Y372200D01*
X399090Y372265D01*
X399058Y372330D01*
X399025D01*
X398734Y372589D01*
X398507Y372848D01*
X398280Y373139D01*
X398118Y373463D01*
X397827Y374046D01*
X397633Y374661D01*
X397535Y375180D01*
X397471Y375406D01*
Y375601D01*
X397438Y375762D01*
Y375892D01*
Y375957D01*
Y375989D01*
X397471Y376669D01*
X397600Y377252D01*
X397762Y377770D01*
X397956Y378191D01*
X398183Y378548D01*
X398345Y378807D01*
X398475Y378936D01*
X398507Y379001D01*
X398928Y379390D01*
X399414Y379714D01*
X399899Y379973D01*
X400385Y380167D01*
X400714Y380268D01*
X400353Y380426D01*
X399899Y380685D01*
X399543Y380944D01*
X399252Y381171D01*
X399025Y381365D01*
X398896Y381495D01*
X398863Y381527D01*
X398539Y381980D01*
X398313Y382434D01*
X398118Y382887D01*
X398021Y383341D01*
X397956Y383697D01*
X397892Y384021D01*
Y384215D01*
Y384247D01*
Y384280D01*
X397924Y384798D01*
X397989Y385284D01*
X398118Y385705D01*
X398248Y386061D01*
X398377Y386385D01*
X398507Y386579D01*
X398572Y386741D01*
X398604Y386773D01*
X398896Y387162D01*
X399187Y387486D01*
X399511Y387745D01*
X399835Y387972D01*
X400126Y388166D01*
X400353Y388296D01*
X400515Y388360D01*
X400580Y388393D01*
X401098Y388587D01*
X401616Y388717D01*
X402166Y388814D01*
X402652Y388878D01*
X403106Y388911D01*
X403429Y388943D01*
X410004D01*
X410230Y388878D01*
D02*
G37*
G36*
X609916Y389105D02*
X610175Y389008D01*
X610370Y388911D01*
X610402Y388878D01*
X610434D01*
X610564Y388781D01*
X610694Y388619D01*
X610888Y388360D01*
X610985Y388198D01*
X611050Y388101D01*
X611082Y388036D01*
Y388004D01*
X617980Y372589D01*
X618077Y372233D01*
X618142Y371973D01*
Y371779D01*
Y371747D01*
Y371714D01*
X618045Y371455D01*
X617948Y371261D01*
X617818Y371132D01*
X617786Y371099D01*
X617527Y371002D01*
X617235Y370937D01*
X617041Y370905D01*
X616944D01*
X616620Y370937D01*
X616361Y371034D01*
X616231Y371099D01*
X616166Y371132D01*
X616037Y371229D01*
X615940Y371390D01*
X615746Y371682D01*
X615681Y371811D01*
X615616Y371909D01*
X615584Y371973D01*
Y372006D01*
X614138Y375406D01*
X615001D01*
X613835Y376119D01*
X614138Y375406D01*
X605074D01*
X605382Y376119D01*
X604184Y375406D01*
X605074D01*
X603601Y372006D01*
X603407Y371617D01*
X603213Y371358D01*
X603083Y371229D01*
X603018Y371164D01*
X602727Y371002D01*
X602435Y370937D01*
X602306Y370905D01*
X602111D01*
X601788Y370937D01*
X601561Y371002D01*
X601399Y371067D01*
X601367Y371099D01*
X601172Y371261D01*
X601075Y371455D01*
X601010Y371617D01*
Y371682D01*
Y372006D01*
X601075Y372297D01*
X601107Y372427D01*
X601140Y372492D01*
X601172Y372556D01*
Y372589D01*
X608070Y388004D01*
X608167Y388231D01*
X608265Y388393D01*
X608491Y388684D01*
X608653Y388814D01*
X608686Y388878D01*
X608718D01*
X609009Y389040D01*
X609268Y389105D01*
X609495Y389137D01*
X609560D01*
X609916Y389105D01*
D02*
G37*
G36*
X597254Y388878D02*
X597545Y388781D01*
X597739Y388652D01*
X597772Y388619D01*
X597804Y388587D01*
X597934Y388457D01*
X597999Y388296D01*
X598128Y387972D01*
Y387842D01*
X598161Y387713D01*
Y387648D01*
Y387615D01*
Y372233D01*
X598096Y371811D01*
X597999Y371488D01*
X597901Y371293D01*
X597837Y371261D01*
Y371229D01*
X597513Y371034D01*
X597189Y370937D01*
X597059D01*
X596930Y370905D01*
X596833D01*
X596412Y370970D01*
X596088Y371067D01*
X595926Y371164D01*
X595861Y371229D01*
X595667Y371553D01*
X595570Y371876D01*
X595537Y372006D01*
Y372135D01*
Y372200D01*
Y372233D01*
Y378451D01*
X592266D01*
X591910Y378386D01*
X591619Y378353D01*
X591360Y378288D01*
X591133Y378224D01*
X591003Y378159D01*
X590906Y378127D01*
X590874Y378094D01*
X590615Y377932D01*
X590388Y377738D01*
X590161Y377511D01*
X590000Y377285D01*
X589837Y377090D01*
X589740Y376928D01*
X589676Y376799D01*
X589643Y376767D01*
X586955Y371844D01*
X586761Y371520D01*
X586567Y371293D01*
X586437Y371164D01*
X586372Y371132D01*
X586081Y371002D01*
X585757Y370937D01*
X585628Y370905D01*
X585433D01*
X585077Y370937D01*
X584818Y371034D01*
X584688Y371099D01*
X584623Y371132D01*
X584462Y371358D01*
X584365Y371585D01*
X584332Y371747D01*
Y371779D01*
Y371811D01*
X584365Y372135D01*
X584429Y372394D01*
X584526Y372621D01*
X584559Y372654D01*
Y372686D01*
X586729Y376734D01*
X586955Y377123D01*
X587214Y377479D01*
X587441Y377738D01*
X587635Y377965D01*
X587830Y378127D01*
X587959Y378256D01*
X588056Y378321D01*
X588089Y378353D01*
X588380Y378515D01*
X588672Y378645D01*
X588866Y378710D01*
X588413Y378839D01*
X588024Y378936D01*
X587733Y379033D01*
X587571Y379098D01*
X587506Y379131D01*
X587020Y379390D01*
X586599Y379681D01*
X586243Y379973D01*
X585951Y380264D01*
X585725Y380523D01*
X585563Y380717D01*
X585466Y380847D01*
X585433Y380912D01*
X585206Y381365D01*
X585012Y381851D01*
X584883Y382304D01*
X584818Y382758D01*
X584753Y383114D01*
X584721Y383438D01*
Y383632D01*
Y383665D01*
Y383697D01*
X584753Y384150D01*
X584785Y384604D01*
X584980Y385381D01*
X585206Y386029D01*
X585498Y386579D01*
X585789Y387033D01*
X586049Y387324D01*
X586243Y387518D01*
X586275Y387583D01*
X586308D01*
X586955Y388036D01*
X587668Y388360D01*
X588380Y388619D01*
X589093Y388781D01*
X589740Y388878D01*
X590032Y388911D01*
X590258D01*
X590453Y388943D01*
X597059D01*
X597254Y388878D01*
D02*
G37*
G36*
X582357Y388911D02*
X582583Y388814D01*
X582745Y388684D01*
X582810Y388652D01*
X582972Y388425D01*
X583069Y388166D01*
X583101Y387972D01*
Y387907D01*
Y387874D01*
X583069Y387518D01*
X582939Y387259D01*
X582842Y387097D01*
X582810Y387033D01*
X582551Y386871D01*
X582292Y386773D01*
X582098Y386741D01*
X576592D01*
Y372233D01*
X576527Y371811D01*
X576430Y371488D01*
X576333Y371293D01*
X576268Y371261D01*
Y371229D01*
X575977Y371034D01*
X575653Y370937D01*
X575523D01*
X575394Y370905D01*
X575070D01*
X574843Y370970D01*
X574681Y371002D01*
X574552Y371067D01*
X574390Y371164D01*
X574325Y371229D01*
X574131Y371553D01*
X574034Y371876D01*
X574001Y372006D01*
Y372135D01*
Y372200D01*
Y372233D01*
Y386741D01*
X568593D01*
X568237Y386773D01*
X567978Y386903D01*
X567816Y387000D01*
X567751Y387033D01*
X567557Y387292D01*
X567459Y387551D01*
X567427Y387680D01*
Y387777D01*
Y387842D01*
Y387874D01*
X567492Y388231D01*
X567589Y388457D01*
X567686Y388619D01*
X567751Y388652D01*
X568010Y388814D01*
X568269Y388911D01*
X568399Y388943D01*
X582000D01*
X582357Y388911D01*
D02*
G37*
G36*
X533261Y389105D02*
X533520Y389008D01*
X533714Y388911D01*
X533747Y388878D01*
X533779D01*
X533909Y388781D01*
X534038Y388619D01*
X534232Y388360D01*
X534330Y388198D01*
X534394Y388101D01*
X534427Y388036D01*
Y388004D01*
X541325Y372589D01*
X541422Y372233D01*
X541487Y371973D01*
Y371779D01*
Y371747D01*
Y371714D01*
X541390Y371455D01*
X541292Y371261D01*
X541163Y371132D01*
X541130Y371099D01*
X540871Y371002D01*
X540580Y370937D01*
X540386Y370905D01*
X540289D01*
X539965Y370937D01*
X539706Y371034D01*
X539576Y371099D01*
X539511Y371132D01*
X539382Y371229D01*
X539285Y371390D01*
X539090Y371682D01*
X539025Y371811D01*
X538961Y371909D01*
X538928Y371973D01*
Y372006D01*
X537482Y375406D01*
X538345D01*
X537179Y376119D01*
X537482Y375406D01*
X528419D01*
X528727Y376119D01*
X527529Y375406D01*
X528419D01*
X526946Y372006D01*
X526752Y371617D01*
X526557Y371358D01*
X526428Y371229D01*
X526363Y371164D01*
X526072Y371002D01*
X525780Y370937D01*
X525650Y370905D01*
X525456D01*
X525132Y370937D01*
X524906Y371002D01*
X524744Y371067D01*
X524711Y371099D01*
X524517Y371261D01*
X524420Y371455D01*
X524355Y371617D01*
Y371682D01*
Y372006D01*
X524420Y372297D01*
X524452Y372427D01*
X524485Y372492D01*
X524517Y372556D01*
Y372589D01*
X531415Y388004D01*
X531512Y388231D01*
X531609Y388393D01*
X531836Y388684D01*
X531998Y388814D01*
X532030Y388878D01*
X532063D01*
X532354Y389040D01*
X532613Y389105D01*
X532840Y389137D01*
X532905D01*
X533261Y389105D01*
D02*
G37*
G36*
X520598Y388878D02*
X520890Y388781D01*
X521084Y388652D01*
X521117Y388619D01*
X521149Y388587D01*
X521278Y388457D01*
X521343Y388296D01*
X521473Y387972D01*
Y387842D01*
X521505Y387713D01*
Y387648D01*
Y387615D01*
Y372233D01*
X521440Y371811D01*
X521343Y371488D01*
X521246Y371293D01*
X521181Y371261D01*
Y371229D01*
X520858Y371034D01*
X520534Y370937D01*
X520404D01*
X520275Y370905D01*
X520177D01*
X519756Y370970D01*
X519432Y371067D01*
X519271Y371164D01*
X519206Y371229D01*
X519011Y371553D01*
X518914Y371876D01*
X518882Y372006D01*
Y372135D01*
Y372200D01*
Y372233D01*
Y378451D01*
X515611D01*
X515255Y378386D01*
X514963Y378353D01*
X514704Y378288D01*
X514478Y378224D01*
X514348Y378159D01*
X514251Y378127D01*
X514219Y378094D01*
X513960Y377932D01*
X513733Y377738D01*
X513506Y377511D01*
X513344Y377285D01*
X513182Y377090D01*
X513085Y376928D01*
X513020Y376799D01*
X512988Y376767D01*
X510300Y371844D01*
X510106Y371520D01*
X509911Y371293D01*
X509782Y371164D01*
X509717Y371132D01*
X509426Y371002D01*
X509102Y370937D01*
X508972Y370905D01*
X508778D01*
X508422Y370937D01*
X508163Y371034D01*
X508033Y371099D01*
X507968Y371132D01*
X507806Y371358D01*
X507709Y371585D01*
X507677Y371747D01*
Y371779D01*
Y371811D01*
X507709Y372135D01*
X507774Y372394D01*
X507871Y372621D01*
X507904Y372654D01*
Y372686D01*
X510073Y376734D01*
X510300Y377123D01*
X510559Y377479D01*
X510786Y377738D01*
X510980Y377965D01*
X511174Y378127D01*
X511304Y378256D01*
X511401Y378321D01*
X511433Y378353D01*
X511725Y378515D01*
X512016Y378645D01*
X512211Y378710D01*
X511757Y378839D01*
X511369Y378936D01*
X511077Y379033D01*
X510915Y379098D01*
X510850Y379131D01*
X510365Y379390D01*
X509944Y379681D01*
X509588Y379973D01*
X509296Y380264D01*
X509069Y380523D01*
X508907Y380717D01*
X508810Y380847D01*
X508778Y380912D01*
X508551Y381365D01*
X508357Y381851D01*
X508227Y382304D01*
X508163Y382758D01*
X508098Y383114D01*
X508065Y383438D01*
Y383632D01*
Y383665D01*
Y383697D01*
X508098Y384150D01*
X508130Y384604D01*
X508325Y385381D01*
X508551Y386029D01*
X508843Y386579D01*
X509134Y387033D01*
X509393Y387324D01*
X509588Y387518D01*
X509620Y387583D01*
X509652D01*
X510300Y388036D01*
X511012Y388360D01*
X511725Y388619D01*
X512437Y388781D01*
X513085Y388878D01*
X513377Y388911D01*
X513603D01*
X513797Y388943D01*
X520404D01*
X520598Y388878D01*
D02*
G37*
G36*
X443781D02*
X444073Y388781D01*
X444267Y388652D01*
X444299Y388619D01*
X444332Y388587D01*
X444461Y388457D01*
X444526Y388296D01*
X444656Y387972D01*
Y387842D01*
X444688Y387713D01*
Y387648D01*
Y387615D01*
Y372233D01*
X444623Y371811D01*
X444526Y371488D01*
X444429Y371293D01*
X444364Y371261D01*
Y371229D01*
X444040Y371034D01*
X443716Y370937D01*
X443587D01*
X443457Y370905D01*
X443360D01*
X442939Y370970D01*
X442615Y371067D01*
X442453Y371164D01*
X442389Y371229D01*
X442194Y371553D01*
X442097Y371876D01*
X442065Y372006D01*
Y372135D01*
Y372200D01*
Y372233D01*
Y377997D01*
X437272D01*
X436754Y378030D01*
X436268Y378062D01*
X435782Y378127D01*
X435361Y378224D01*
X434972Y378321D01*
X434616Y378451D01*
X434260Y378580D01*
X433969Y378710D01*
X433709Y378839D01*
X433483Y378969D01*
X433288Y379098D01*
X433126Y379195D01*
X432997Y379292D01*
X432900Y379357D01*
X432867Y379422D01*
X432835D01*
X432544Y379714D01*
X432317Y380005D01*
X432090Y380329D01*
X431928Y380685D01*
X431637Y381365D01*
X431442Y382013D01*
X431345Y382596D01*
X431281Y382855D01*
Y383082D01*
X431248Y383243D01*
Y383373D01*
Y383470D01*
Y383503D01*
X431281Y383988D01*
X431313Y384409D01*
X431507Y385219D01*
X431734Y385899D01*
X432025Y386482D01*
X432317Y386935D01*
X432576Y387259D01*
X432673Y387356D01*
X432770Y387453D01*
X432803Y387518D01*
X432835D01*
X433126Y387777D01*
X433483Y388004D01*
X434195Y388328D01*
X434908Y388587D01*
X435620Y388781D01*
X436268Y388878D01*
X436559Y388911D01*
X436786D01*
X436980Y388943D01*
X443587D01*
X443781Y388878D01*
D02*
G37*
G36*
X649329Y389105D02*
X649815Y389040D01*
X650203Y388976D01*
X650559Y388911D01*
X650786Y388846D01*
X650948Y388814D01*
X651013Y388781D01*
X651466Y388619D01*
X651855Y388457D01*
X652243Y388263D01*
X652535Y388101D01*
X652794Y387939D01*
X652988Y387810D01*
X653118Y387713D01*
X653150Y387680D01*
X653474Y387389D01*
X653733Y387097D01*
X653960Y386838D01*
X654186Y386547D01*
X654316Y386320D01*
X654446Y386126D01*
X654510Y385996D01*
X654543Y385964D01*
X654705Y385608D01*
X654834Y385219D01*
X654899Y384863D01*
X654964Y384506D01*
X654996Y384215D01*
X655029Y383988D01*
Y383859D01*
Y383794D01*
X654964Y383082D01*
X654834Y382466D01*
X654672Y381948D01*
X654446Y381495D01*
X654219Y381138D01*
X654057Y380879D01*
X653927Y380717D01*
X653863Y380653D01*
X653377Y380232D01*
X652794Y379908D01*
X652179Y379616D01*
X651596Y379390D01*
X651078Y379195D01*
X650818Y379131D01*
X650624Y379066D01*
X650462Y379033D01*
X650333Y379001D01*
X650268Y378969D01*
X650236D01*
X647548Y378418D01*
X646932Y378288D01*
X646414Y378127D01*
X645993Y377965D01*
X645669Y377803D01*
X645410Y377673D01*
X645216Y377544D01*
X645119Y377479D01*
X645086Y377447D01*
X644827Y377220D01*
X644665Y376961D01*
X644536Y376702D01*
X644439Y376443D01*
X644374Y376216D01*
X644342Y376022D01*
Y375892D01*
Y375860D01*
X644374Y375406D01*
X644503Y375018D01*
X644665Y374661D01*
X644860Y374370D01*
X645054Y374143D01*
X645216Y373949D01*
X645345Y373852D01*
X645378Y373819D01*
X645799Y373560D01*
X646285Y373366D01*
X646835Y373237D01*
X647353Y373139D01*
X647807Y373075D01*
X648195Y373042D01*
X648551D01*
X649102Y373075D01*
X649620Y373107D01*
X650074Y373172D01*
X650495Y373237D01*
X650851Y373301D01*
X651110Y373334D01*
X651272Y373398D01*
X651337D01*
X651790Y373560D01*
X652243Y373722D01*
X652664Y373884D01*
X653021Y374078D01*
X653312Y374208D01*
X653539Y374338D01*
X653668Y374435D01*
X653733Y374467D01*
X653863Y374564D01*
X654025Y374629D01*
X654251Y374694D01*
X654478D01*
X654705Y374629D01*
X654867Y374500D01*
X654996Y374402D01*
X655029Y374370D01*
X655158Y374176D01*
X655255Y373981D01*
X655320Y373819D01*
Y373787D01*
Y373755D01*
Y373528D01*
Y373301D01*
X655288Y373139D01*
X655255Y373107D01*
Y373075D01*
X655093Y372816D01*
X654931Y372621D01*
X654770Y372492D01*
X654705Y372459D01*
X654089Y372071D01*
X653798Y371909D01*
X653539Y371779D01*
X653312Y371682D01*
X653118Y371585D01*
X652988Y371553D01*
X652956Y371520D01*
X652211Y371293D01*
X651855Y371196D01*
X651531Y371132D01*
X651239Y371067D01*
X651045Y371034D01*
X650883Y371002D01*
X650851D01*
X650009Y370905D01*
X649620Y370872D01*
X649264D01*
X648972Y370840D01*
X648551D01*
X647969Y370872D01*
X647450Y370905D01*
X646965Y370970D01*
X646544Y371034D01*
X646220Y371099D01*
X645961Y371132D01*
X645799Y371196D01*
X645734D01*
X645281Y371358D01*
X644860Y371520D01*
X644503Y371682D01*
X644180Y371844D01*
X643953Y372006D01*
X643759Y372135D01*
X643629Y372200D01*
X643597Y372233D01*
X643273Y372524D01*
X642981Y372783D01*
X642755Y373075D01*
X642560Y373334D01*
X642398Y373560D01*
X642301Y373722D01*
X642236Y373852D01*
X642204Y373884D01*
X642042Y374240D01*
X641913Y374629D01*
X641848Y374985D01*
X641783Y375309D01*
X641751Y375601D01*
X641718Y375827D01*
Y375957D01*
Y376022D01*
X641783Y376669D01*
X641913Y377252D01*
X642107Y377770D01*
X642334Y378191D01*
X642593Y378515D01*
X642787Y378774D01*
X642916Y378904D01*
X642981Y378969D01*
X643500Y379357D01*
X644082Y379714D01*
X644698Y380005D01*
X645313Y380232D01*
X645864Y380426D01*
X646123Y380491D01*
X646317Y380555D01*
X646511Y380588D01*
X646641Y380620D01*
X646706Y380653D01*
X646738D01*
X649426Y381203D01*
X649977Y381333D01*
X650462Y381495D01*
X650851Y381657D01*
X651175Y381786D01*
X651434Y381916D01*
X651596Y382045D01*
X651693Y382110D01*
X651725Y382142D01*
X651952Y382401D01*
X652114Y382693D01*
X652243Y382984D01*
X652308Y383243D01*
X652373Y383503D01*
X652405Y383697D01*
Y383826D01*
Y383859D01*
X652373Y384215D01*
X652341Y384506D01*
X652243Y384798D01*
X652146Y385025D01*
X652082Y385219D01*
X651984Y385349D01*
X651952Y385446D01*
X651920Y385478D01*
X651725Y385737D01*
X651499Y385931D01*
X651239Y386126D01*
X651013Y386288D01*
X650818Y386385D01*
X650657Y386482D01*
X650527Y386547D01*
X650495D01*
X650138Y386676D01*
X649750Y386773D01*
X649393Y386838D01*
X649070Y386903D01*
X648778D01*
X648519Y386935D01*
X647871D01*
X647450Y386903D01*
X647062Y386838D01*
X646706Y386806D01*
X646447Y386741D01*
X646220Y386676D01*
X646090Y386644D01*
X646058D01*
X645669Y386514D01*
X645313Y386385D01*
X644957Y386223D01*
X644633Y386061D01*
X644374Y385931D01*
X644180Y385802D01*
X644050Y385737D01*
X644018Y385705D01*
X643726Y385543D01*
X643467Y385478D01*
X643305Y385446D01*
X643240D01*
X643014Y385510D01*
X642819Y385608D01*
X642690Y385705D01*
X642657Y385737D01*
X642528Y385931D01*
X642431Y386093D01*
X642366Y386223D01*
Y386288D01*
X642334Y386514D01*
X642366Y386741D01*
X642398Y386871D01*
X642431Y386935D01*
X642528Y387162D01*
X642690Y387356D01*
X642787Y387486D01*
X642852Y387518D01*
X643273Y387810D01*
X643694Y388069D01*
X644115Y388263D01*
X644503Y388457D01*
X644860Y388587D01*
X645119Y388684D01*
X645281Y388717D01*
X645313Y388749D01*
X645345D01*
X645864Y388878D01*
X646382Y389008D01*
X646900Y389073D01*
X647353Y389105D01*
X647742Y389137D01*
X648033Y389170D01*
X648843D01*
X649329Y389105D01*
D02*
G37*
G36*
X381815Y39705D02*
X382065Y39621D01*
X382204Y39510D01*
X382260Y39483D01*
Y39455D01*
X382398Y39205D01*
X382482Y38927D01*
Y38816D01*
X382509Y38705D01*
Y38650D01*
Y38622D01*
Y25185D01*
X382454Y24824D01*
X382371Y24574D01*
X382287Y24435D01*
X382232Y24380D01*
X381982Y24241D01*
X381732Y24158D01*
X381621D01*
X381538Y24130D01*
X381455D01*
X381121Y24158D01*
X380899Y24269D01*
X380760Y24352D01*
X380705Y24380D01*
X380538Y24630D01*
X380455Y24880D01*
X380427Y24991D01*
Y25102D01*
Y25157D01*
Y25185D01*
Y35906D01*
X372015Y24769D01*
X371793Y24546D01*
X371627Y24380D01*
X371516Y24297D01*
X371460Y24269D01*
X371266Y24186D01*
X371044Y24158D01*
X370877Y24130D01*
X370821D01*
X370544Y24158D01*
X370322Y24269D01*
X370211Y24352D01*
X370155Y24380D01*
X370016Y24630D01*
X369933Y24880D01*
X369905Y24991D01*
Y25074D01*
Y25129D01*
Y25157D01*
Y38677D01*
X369961Y39011D01*
X370044Y39260D01*
X370127Y39399D01*
X370183Y39455D01*
X370294Y39566D01*
X370405Y39621D01*
X370655Y39732D01*
X370766D01*
X370877Y39760D01*
X371127D01*
X371293Y39705D01*
X371543Y39621D01*
X371682Y39510D01*
X371738Y39483D01*
Y39455D01*
X371904Y39205D01*
X371987Y38955D01*
Y38844D01*
X372015Y38761D01*
Y38705D01*
Y38677D01*
Y27999D01*
X380427Y39094D01*
X380622Y39344D01*
X380788Y39510D01*
X380899Y39594D01*
X380927Y39621D01*
X381093Y39705D01*
X381288Y39732D01*
X381455Y39760D01*
X381677D01*
X381815Y39705D01*
D02*
G37*
G36*
X418323Y39538D02*
X418573Y39455D01*
X418739Y39344D01*
X418767Y39316D01*
X418795Y39288D01*
X418906Y39177D01*
X418961Y39038D01*
X419072Y38761D01*
Y38650D01*
X419100Y38539D01*
Y38483D01*
Y38455D01*
Y25268D01*
X419044Y24907D01*
X418961Y24630D01*
X418878Y24463D01*
X418822Y24435D01*
Y24408D01*
X418545Y24241D01*
X418267Y24158D01*
X418156D01*
X418045Y24130D01*
X417962D01*
X417601Y24186D01*
X417323Y24269D01*
X417184Y24352D01*
X417129Y24408D01*
X416962Y24685D01*
X416879Y24963D01*
X416851Y25074D01*
Y25185D01*
Y25240D01*
Y25268D01*
Y30599D01*
X414047D01*
X413742Y30543D01*
X413492Y30515D01*
X413270Y30460D01*
X413076Y30404D01*
X412965Y30349D01*
X412881Y30321D01*
X412854Y30293D01*
X412631Y30154D01*
X412437Y29988D01*
X412243Y29794D01*
X412104Y29599D01*
X411965Y29433D01*
X411882Y29294D01*
X411826Y29183D01*
X411799Y29155D01*
X409494Y24935D01*
X409328Y24657D01*
X409161Y24463D01*
X409050Y24352D01*
X408995Y24324D01*
X408745Y24213D01*
X408467Y24158D01*
X408356Y24130D01*
X408190D01*
X407884Y24158D01*
X407662Y24241D01*
X407551Y24297D01*
X407495Y24324D01*
X407357Y24519D01*
X407273Y24713D01*
X407245Y24852D01*
Y24880D01*
Y24907D01*
X407273Y25185D01*
X407329Y25407D01*
X407412Y25601D01*
X407440Y25629D01*
Y25657D01*
X409300Y29127D01*
X409494Y29460D01*
X409716Y29766D01*
X409911Y29988D01*
X410077Y30182D01*
X410244Y30321D01*
X410355Y30432D01*
X410438Y30487D01*
X410466Y30515D01*
X410716Y30654D01*
X410966Y30765D01*
X411132Y30821D01*
X410744Y30932D01*
X410410Y31015D01*
X410161Y31098D01*
X410022Y31154D01*
X409966Y31182D01*
X409550Y31404D01*
X409189Y31654D01*
X408884Y31903D01*
X408634Y32153D01*
X408439Y32375D01*
X408301Y32542D01*
X408217Y32653D01*
X408190Y32708D01*
X407995Y33097D01*
X407828Y33514D01*
X407718Y33902D01*
X407662Y34291D01*
X407606Y34596D01*
X407579Y34874D01*
Y35041D01*
Y35068D01*
Y35096D01*
X407606Y35485D01*
X407634Y35873D01*
X407801Y36540D01*
X407995Y37095D01*
X408245Y37567D01*
X408495Y37956D01*
X408717Y38205D01*
X408884Y38372D01*
X408911Y38428D01*
X408939D01*
X409494Y38816D01*
X410105Y39094D01*
X410716Y39316D01*
X411327Y39455D01*
X411882Y39538D01*
X412132Y39566D01*
X412326D01*
X412493Y39594D01*
X418156D01*
X418323Y39538D01*
D02*
G37*
G36*
X398417Y39732D02*
X398639Y39649D01*
X398806Y39566D01*
X398834Y39538D01*
X398861D01*
X398972Y39455D01*
X399084Y39316D01*
X399250Y39094D01*
X399333Y38955D01*
X399389Y38872D01*
X399417Y38816D01*
Y38788D01*
X405330Y25574D01*
X405413Y25268D01*
X405469Y25046D01*
Y24880D01*
Y24852D01*
Y24824D01*
X405386Y24602D01*
X405302Y24435D01*
X405191Y24324D01*
X405163Y24297D01*
X404941Y24213D01*
X404691Y24158D01*
X404525Y24130D01*
X404442D01*
X404164Y24158D01*
X403942Y24241D01*
X403831Y24297D01*
X403775Y24324D01*
X403664Y24408D01*
X403581Y24546D01*
X403414Y24796D01*
X403359Y24907D01*
X403303Y24991D01*
X403275Y25046D01*
Y25074D01*
X402036Y27989D01*
X402776D01*
X401776Y28600D01*
X402036Y27989D01*
X394266D01*
X393004Y25074D01*
X392837Y24741D01*
X392670Y24519D01*
X392559Y24408D01*
X392504Y24352D01*
X392254Y24213D01*
X392004Y24158D01*
X391893Y24130D01*
X391726D01*
X391449Y24158D01*
X391255Y24213D01*
X391116Y24269D01*
X391088Y24297D01*
X390921Y24435D01*
X390838Y24602D01*
X390783Y24741D01*
Y24796D01*
Y25074D01*
X390838Y25324D01*
X390866Y25435D01*
X390894Y25490D01*
X390921Y25546D01*
Y25574D01*
X396835Y38788D01*
X396918Y38983D01*
X397001Y39122D01*
X397196Y39371D01*
X397334Y39483D01*
X397362Y39538D01*
X397390D01*
X397640Y39677D01*
X397862Y39732D01*
X398056Y39760D01*
X398112D01*
X398417Y39732D01*
D02*
G37*
G36*
X387562Y39705D02*
X387840Y39621D01*
X388006Y39510D01*
X388034Y39483D01*
X388062Y39455D01*
X388145Y39344D01*
X388228Y39205D01*
X388312Y38927D01*
Y38788D01*
X388340Y38677D01*
Y38622D01*
Y38594D01*
Y25268D01*
X388284Y24907D01*
X388201Y24630D01*
X388117Y24463D01*
X388062Y24435D01*
Y24408D01*
X387784Y24241D01*
X387507Y24158D01*
X387396D01*
X387285Y24130D01*
X387201D01*
X386840Y24186D01*
X386563Y24269D01*
X386424Y24352D01*
X386368Y24408D01*
X386202Y24685D01*
X386119Y24963D01*
X386091Y25074D01*
Y25185D01*
Y25240D01*
Y25268D01*
Y38594D01*
Y38788D01*
X386146Y38983D01*
X386174Y39122D01*
X386230Y39233D01*
X386341Y39399D01*
X386368Y39455D01*
X386396D01*
X386507Y39566D01*
X386646Y39621D01*
X386896Y39732D01*
X387007D01*
X387118Y39760D01*
X387396D01*
X387562Y39705D01*
D02*
G37*
G36*
X144077Y81670D02*
X144355Y81587D01*
X144522Y81476D01*
X144549Y81448D01*
X144577Y81420D01*
X144660Y81309D01*
X144744Y81170D01*
X144827Y80893D01*
Y80754D01*
X144855Y80643D01*
Y80587D01*
Y80560D01*
Y67234D01*
X144799Y66873D01*
X144716Y66595D01*
X144633Y66429D01*
X144577Y66401D01*
Y66373D01*
X144299Y66207D01*
X144022Y66123D01*
X143911D01*
X143800Y66095D01*
X143716D01*
X143356Y66151D01*
X143078Y66234D01*
X142939Y66318D01*
X142884Y66373D01*
X142717Y66651D01*
X142634Y66928D01*
X142606Y67039D01*
Y67151D01*
Y67206D01*
Y67234D01*
Y73064D01*
X134000D01*
Y67234D01*
X133944Y66873D01*
X133861Y66595D01*
X133778Y66429D01*
X133722Y66401D01*
Y66373D01*
X133444Y66207D01*
X133167Y66123D01*
X133056D01*
X132945Y66095D01*
X132861D01*
X132501Y66151D01*
X132251Y66234D01*
X132112Y66318D01*
X132056Y66373D01*
X131945Y66512D01*
X131890Y66651D01*
X131779Y66928D01*
Y67039D01*
X131751Y67151D01*
Y67206D01*
Y67234D01*
Y80560D01*
Y80754D01*
X131806Y80948D01*
X131834Y81087D01*
X131890Y81198D01*
X132001Y81365D01*
X132029Y81420D01*
X132056D01*
X132168Y81531D01*
X132306Y81587D01*
X132556Y81698D01*
X132667D01*
X132778Y81726D01*
X133056D01*
X133222Y81670D01*
X133500Y81587D01*
X133667Y81476D01*
X133694Y81448D01*
X133722Y81420D01*
X133805Y81309D01*
X133889Y81170D01*
X133972Y80893D01*
Y80754D01*
X134000Y80643D01*
Y80587D01*
Y80560D01*
Y74952D01*
X142606D01*
Y80560D01*
Y80754D01*
X142662Y80948D01*
X142689Y81087D01*
X142745Y81198D01*
X142856Y81365D01*
X142884Y81420D01*
X142911D01*
X143022Y81531D01*
X143161Y81587D01*
X143411Y81698D01*
X143522D01*
X143633Y81726D01*
X143911D01*
X144077Y81670D01*
D02*
G37*
G36*
X154377Y81726D02*
X154988Y81670D01*
X155515Y81587D01*
X155987Y81476D01*
X156376Y81365D01*
X156681Y81281D01*
X156792Y81254D01*
X156876Y81226D01*
X156904Y81198D01*
X156931D01*
X157431Y80976D01*
X157875Y80726D01*
X158292Y80476D01*
X158625Y80226D01*
X158903Y80004D01*
X159124Y79810D01*
X159236Y79699D01*
X159291Y79644D01*
X159624Y79255D01*
X159930Y78811D01*
X160180Y78394D01*
X160402Y78005D01*
X160568Y77672D01*
X160679Y77395D01*
X160735Y77284D01*
X160763Y77200D01*
X160790Y77173D01*
Y77145D01*
X160957Y76590D01*
X161068Y76034D01*
X161179Y75479D01*
X161234Y74979D01*
X161262Y74535D01*
Y74341D01*
X161290Y74174D01*
Y74036D01*
Y73952D01*
Y73897D01*
Y73869D01*
X161262Y73008D01*
X161151Y72203D01*
X161012Y71481D01*
X160929Y71148D01*
X160846Y70871D01*
X160790Y70593D01*
X160707Y70371D01*
X160624Y70177D01*
X160568Y69982D01*
X160513Y69871D01*
X160457Y69760D01*
X160429Y69705D01*
Y69677D01*
X160068Y69066D01*
X159652Y68511D01*
X159208Y68067D01*
X158791Y67678D01*
X158403Y67373D01*
X158097Y67151D01*
X157986Y67095D01*
X157903Y67039D01*
X157847Y66984D01*
X157820D01*
X157153Y66679D01*
X156432Y66429D01*
X155710Y66262D01*
X155043Y66151D01*
X154738Y66123D01*
X154460Y66095D01*
X154211Y66068D01*
X153989D01*
X153822Y66040D01*
X153572D01*
X152684Y66068D01*
X152267Y66123D01*
X151906Y66151D01*
X151573Y66207D01*
X151351Y66234D01*
X151185Y66262D01*
X151129D01*
X150657Y66345D01*
X150241Y66456D01*
X149880Y66540D01*
X149547Y66651D01*
X149297Y66706D01*
X149102Y66790D01*
X148964Y66817D01*
X148936Y66845D01*
X148714Y66956D01*
X148575Y67095D01*
X148492Y67206D01*
X148464Y67262D01*
X148381Y67484D01*
X148353Y67706D01*
X148325Y67872D01*
Y67900D01*
Y67928D01*
Y73397D01*
X148353Y73702D01*
X148436Y73924D01*
X148547Y74063D01*
X148575Y74091D01*
X148769Y74230D01*
X148991Y74313D01*
X149158Y74341D01*
X153017D01*
X153322Y74313D01*
X153517Y74230D01*
X153655Y74147D01*
X153711Y74119D01*
X153850Y73952D01*
X153933Y73730D01*
X153961Y73564D01*
Y73536D01*
Y73508D01*
X153933Y73230D01*
X153822Y73036D01*
X153739Y72925D01*
X153711Y72870D01*
X153489Y72731D01*
X153267Y72675D01*
X153100Y72647D01*
X150213D01*
Y68531D01*
X150407Y68455D01*
X150713Y68372D01*
X150990Y68289D01*
X151240Y68233D01*
X151407Y68178D01*
X151518Y68150D01*
X151573D01*
X152267Y68067D01*
X152600Y68011D01*
X152878D01*
X153128Y67983D01*
X153489D01*
X153989Y68011D01*
X154433Y68039D01*
X154877Y68122D01*
X155266Y68205D01*
X155626Y68344D01*
X155987Y68455D01*
X156265Y68594D01*
X156543Y68733D01*
X156792Y68872D01*
X156987Y69011D01*
X157181Y69149D01*
X157320Y69260D01*
X157431Y69344D01*
X157514Y69427D01*
X157542Y69455D01*
X157570Y69482D01*
X157820Y69788D01*
X158014Y70093D01*
X158208Y70454D01*
X158347Y70815D01*
X158597Y71537D01*
X158764Y72231D01*
X158819Y72564D01*
X158847Y72870D01*
X158875Y73147D01*
X158903Y73397D01*
X158930Y73591D01*
Y73730D01*
Y73841D01*
Y73869D01*
X158903Y74535D01*
X158847Y75174D01*
X158736Y75701D01*
X158625Y76173D01*
X158541Y76562D01*
X158431Y76839D01*
X158403Y76923D01*
X158375Y77006D01*
X158347Y77034D01*
Y77062D01*
X158097Y77534D01*
X157820Y77950D01*
X157542Y78283D01*
X157264Y78589D01*
X156987Y78811D01*
X156792Y78949D01*
X156654Y79061D01*
X156598Y79088D01*
X156126Y79310D01*
X155654Y79477D01*
X155182Y79616D01*
X154738Y79699D01*
X154322Y79755D01*
X154016Y79782D01*
X153322D01*
X152934Y79727D01*
X152600Y79699D01*
X152295Y79644D01*
X152045Y79588D01*
X151851Y79560D01*
X151712Y79505D01*
X151684D01*
X151323Y79394D01*
X150990Y79255D01*
X150685Y79116D01*
X150435Y78977D01*
X150213Y78838D01*
X150019Y78727D01*
X149908Y78672D01*
X149880Y78644D01*
X149630Y78533D01*
X149436Y78478D01*
X149297Y78450D01*
X149241D01*
X149047Y78505D01*
X148880Y78616D01*
X148769Y78700D01*
X148742Y78727D01*
X148603Y78894D01*
X148519Y79061D01*
X148492Y79172D01*
X148464Y79227D01*
X148436Y79449D01*
Y79644D01*
X148464Y79755D01*
Y79810D01*
X148547Y80032D01*
X148686Y80199D01*
X148797Y80310D01*
X148825Y80337D01*
X148853D01*
X149241Y80587D01*
X149658Y80837D01*
X150046Y81004D01*
X150407Y81170D01*
X150713Y81281D01*
X150962Y81365D01*
X151129Y81392D01*
X151157Y81420D01*
X151185D01*
X151657Y81531D01*
X152101Y81615D01*
X152545Y81670D01*
X152934Y81726D01*
X153267D01*
X153517Y81753D01*
X153739D01*
X154377Y81726D01*
D02*
G37*
G36*
X150264Y58595D02*
X150634Y58572D01*
X150981Y58526D01*
X151259Y58480D01*
X151514Y58410D01*
X151722Y58364D01*
X151838Y58341D01*
X151884Y58318D01*
X152231Y58202D01*
X152555Y58063D01*
X152832Y57924D01*
X153087Y57785D01*
X153295Y57647D01*
X153457Y57554D01*
X153550Y57485D01*
X153596Y57462D01*
X153781Y57323D01*
X153874Y57184D01*
X153943Y57068D01*
X153966Y57045D01*
Y57022D01*
X154013Y56837D01*
Y56675D01*
X153989Y56582D01*
Y56536D01*
X153920Y56374D01*
X153851Y56258D01*
X153781Y56166D01*
X153758Y56143D01*
X153619Y56050D01*
X153480Y56004D01*
X153388Y55957D01*
X153342D01*
X153156Y55981D01*
X152971Y56027D01*
X152856Y56096D01*
X152832Y56119D01*
X152809D01*
X152555Y56304D01*
X152300Y56443D01*
X152069Y56559D01*
X151884Y56652D01*
X151699Y56721D01*
X151583Y56767D01*
X151490Y56814D01*
X151467D01*
X150958Y56929D01*
X150727Y56976D01*
X150495Y56999D01*
X150310Y57022D01*
X150033D01*
X149616Y56999D01*
X149269Y56952D01*
X148968Y56860D01*
X148714Y56767D01*
X148529Y56675D01*
X148390Y56582D01*
X148297Y56536D01*
X148274Y56513D01*
X148066Y56304D01*
X147927Y56096D01*
X147811Y55865D01*
X147742Y55634D01*
X147696Y55425D01*
X147672Y55263D01*
Y55148D01*
Y55101D01*
X147696Y54847D01*
X147719Y54615D01*
X147765Y54430D01*
X147811Y54245D01*
X147881Y54106D01*
X147927Y54014D01*
X147950Y53944D01*
X147973Y53921D01*
X148089Y53759D01*
X148228Y53620D01*
X148505Y53389D01*
X148644Y53296D01*
X148737Y53227D01*
X148806Y53204D01*
X148829Y53181D01*
X149038Y53088D01*
X149246Y53042D01*
X149477Y52996D01*
X149686Y52949D01*
X149847D01*
X149986Y52926D01*
X151190D01*
X151467Y52903D01*
X151676Y52834D01*
X151791Y52741D01*
X151838Y52718D01*
X151953Y52533D01*
X152023Y52348D01*
X152046Y52209D01*
Y52163D01*
Y52139D01*
X152023Y51885D01*
X151930Y51723D01*
X151861Y51607D01*
X151838Y51561D01*
X151629Y51445D01*
X151421Y51376D01*
X151328D01*
X151259Y51353D01*
X149940D01*
X149500Y51329D01*
X149107Y51260D01*
X148760Y51191D01*
X148482Y51098D01*
X148274Y50982D01*
X148112Y50913D01*
X148020Y50844D01*
X147996Y50820D01*
X147765Y50612D01*
X147603Y50358D01*
X147464Y50103D01*
X147395Y49872D01*
X147348Y49640D01*
X147302Y49455D01*
Y49340D01*
Y49316D01*
Y49293D01*
X147325Y49039D01*
X147348Y48807D01*
X147395Y48599D01*
X147441Y48437D01*
X147510Y48298D01*
X147557Y48183D01*
X147580Y48113D01*
X147603Y48090D01*
X147719Y47928D01*
X147881Y47766D01*
X148158Y47535D01*
X148297Y47465D01*
X148413Y47396D01*
X148482Y47373D01*
X148505Y47350D01*
X148737Y47257D01*
X148991Y47211D01*
X149223Y47164D01*
X149454Y47118D01*
X149662D01*
X149824Y47095D01*
X149963D01*
X150542Y47118D01*
X150819Y47164D01*
X151051Y47211D01*
X151236Y47234D01*
X151375Y47280D01*
X151490Y47303D01*
X151514D01*
X151791Y47396D01*
X152069Y47512D01*
X152323Y47604D01*
X152555Y47720D01*
X152763Y47835D01*
X152902Y47928D01*
X152994Y47974D01*
X153041Y47997D01*
X153249Y48090D01*
X153434Y48136D01*
X153596D01*
X153781Y48090D01*
X153920Y48044D01*
X154013Y47974D01*
X154036Y47951D01*
X154128Y47812D01*
X154221Y47697D01*
X154244Y47604D01*
X154267Y47558D01*
Y47396D01*
Y47234D01*
X154244Y47118D01*
X154221Y47095D01*
Y47072D01*
X154105Y46887D01*
X153966Y46748D01*
X153851Y46655D01*
X153827Y46632D01*
X153804D01*
X153504Y46447D01*
X153203Y46262D01*
X152902Y46123D01*
X152624Y46007D01*
X152370Y45915D01*
X152185Y45845D01*
X152046Y45822D01*
X152000Y45799D01*
X151606Y45707D01*
X151213Y45637D01*
X150866Y45591D01*
X150565Y45568D01*
X150287Y45545D01*
X150102Y45521D01*
X149917D01*
X149408Y45545D01*
X148968Y45591D01*
X148552Y45660D01*
X148205Y45730D01*
X147927Y45799D01*
X147719Y45869D01*
X147580Y45915D01*
X147534Y45938D01*
X147186Y46123D01*
X146886Y46308D01*
X146608Y46516D01*
X146400Y46725D01*
X146238Y46910D01*
X146099Y47049D01*
X146030Y47141D01*
X146006Y47188D01*
X145821Y47512D01*
X145706Y47859D01*
X145613Y48183D01*
X145544Y48483D01*
X145497Y48761D01*
X145474Y48969D01*
Y49108D01*
Y49131D01*
Y49154D01*
X145497Y49617D01*
X145590Y50034D01*
X145706Y50404D01*
X145844Y50728D01*
X145983Y50959D01*
X146099Y51144D01*
X146192Y51260D01*
X146215Y51306D01*
X146516Y51607D01*
X146839Y51839D01*
X147163Y52024D01*
X147510Y52163D01*
X147788Y52278D01*
X147872Y52301D01*
X147973Y52255D01*
X148251Y52186D01*
Y52394D01*
X148181D01*
X148135Y52371D01*
X148043Y52348D01*
X147872Y52301D01*
X147719Y52371D01*
X147510Y52463D01*
X147325Y52579D01*
X147163Y52672D01*
X147048Y52741D01*
X146978Y52787D01*
X146955Y52811D01*
X146770Y52972D01*
X146608Y53158D01*
X146469Y53343D01*
X146354Y53505D01*
X146261Y53643D01*
X146192Y53782D01*
X146168Y53852D01*
X146145Y53875D01*
X146053Y54129D01*
X145960Y54384D01*
X145914Y54615D01*
X145891Y54847D01*
X145868Y55032D01*
X145844Y55171D01*
Y55286D01*
Y55310D01*
X145868Y55680D01*
X145914Y56004D01*
X146006Y56304D01*
X146076Y56582D01*
X146168Y56790D01*
X146261Y56929D01*
X146307Y57045D01*
X146330Y57068D01*
X146516Y57346D01*
X146747Y57577D01*
X146978Y57762D01*
X147186Y57924D01*
X147395Y58063D01*
X147557Y58156D01*
X147672Y58202D01*
X147719Y58225D01*
X148066Y58364D01*
X148436Y58457D01*
X148806Y58526D01*
X149153Y58572D01*
X149454Y58595D01*
X149686Y58618D01*
X149894D01*
X150264Y58595D01*
D02*
G37*
G36*
X138278Y58572D02*
X138463Y58549D01*
X138579Y58503D01*
X138602Y58480D01*
X138625D01*
X138833Y58387D01*
X139018Y58295D01*
X139180Y58202D01*
X139203Y58179D01*
X139227D01*
X141726Y56582D01*
X141888Y56443D01*
X142003Y56304D01*
X142073Y56212D01*
X142096Y56189D01*
Y56166D01*
X142142Y55981D01*
Y55819D01*
Y55726D01*
Y55680D01*
X142073Y55518D01*
X142003Y55402D01*
X141934Y55310D01*
X141911Y55286D01*
X141772Y55194D01*
X141633Y55124D01*
X141540Y55078D01*
X141494D01*
X141309Y55101D01*
X141124Y55148D01*
X140985Y55194D01*
X140962Y55217D01*
X140939D01*
X139227Y56314D01*
Y56906D01*
X138301D01*
X139227Y56314D01*
Y47257D01*
X141448D01*
X141702Y47234D01*
X141888Y47164D01*
X142003Y47072D01*
X142050Y47049D01*
X142165Y46864D01*
X142235Y46679D01*
X142258Y46540D01*
Y46493D01*
Y46470D01*
X142235Y46216D01*
X142142Y46054D01*
X142073Y45938D01*
X142050Y45892D01*
X141864Y45776D01*
X141656Y45707D01*
X141517Y45683D01*
X135339D01*
X135085Y45707D01*
X134900Y45799D01*
X134784Y45869D01*
X134738Y45892D01*
X134599Y46077D01*
X134529Y46262D01*
X134506Y46401D01*
Y46447D01*
Y46470D01*
X134552Y46725D01*
X134622Y46910D01*
X134691Y47003D01*
X134738Y47049D01*
X134923Y47164D01*
X135108Y47234D01*
X135200Y47257D01*
X137375D01*
Y57855D01*
X137399Y58109D01*
X137468Y58271D01*
X137561Y58387D01*
X137584Y58410D01*
X137746Y58526D01*
X137908Y58572D01*
X138046Y58595D01*
X138093D01*
X138278Y58572D01*
D02*
G37*
G36*
X127379D02*
X127564Y58549D01*
X127680Y58503D01*
X127703Y58480D01*
X127726D01*
X127935Y58387D01*
X128120Y58295D01*
X128282Y58202D01*
X128305Y58179D01*
X128328D01*
X130827Y56582D01*
X130989Y56443D01*
X131105Y56304D01*
X131174Y56212D01*
X131197Y56189D01*
Y56166D01*
X131243Y55981D01*
Y55819D01*
Y55726D01*
Y55680D01*
X131174Y55518D01*
X131105Y55402D01*
X131035Y55310D01*
X131012Y55286D01*
X130873Y55194D01*
X130734Y55124D01*
X130642Y55078D01*
X130596D01*
X130410Y55101D01*
X130225Y55148D01*
X130086Y55194D01*
X130063Y55217D01*
X130040D01*
X128328Y56314D01*
Y56906D01*
X127402D01*
X128328Y56314D01*
Y47257D01*
X130549D01*
X130804Y47234D01*
X130989Y47164D01*
X131105Y47072D01*
X131151Y47049D01*
X131267Y46864D01*
X131336Y46679D01*
X131359Y46540D01*
Y46493D01*
Y46470D01*
X131336Y46216D01*
X131243Y46054D01*
X131174Y45938D01*
X131151Y45892D01*
X130966Y45776D01*
X130758Y45707D01*
X130619Y45683D01*
X124440D01*
X124186Y45707D01*
X124001Y45799D01*
X123885Y45869D01*
X123839Y45892D01*
X123700Y46077D01*
X123631Y46262D01*
X123607Y46401D01*
Y46447D01*
Y46470D01*
X123654Y46725D01*
X123723Y46910D01*
X123793Y47003D01*
X123839Y47049D01*
X124024Y47164D01*
X124209Y47234D01*
X124302Y47257D01*
X126477D01*
Y57855D01*
X126500Y58109D01*
X126569Y58271D01*
X126662Y58387D01*
X126685Y58410D01*
X126847Y58526D01*
X127009Y58572D01*
X127148Y58595D01*
X127194D01*
X127379Y58572D01*
D02*
G37*
G36*
X165305Y58410D02*
X165513Y58341D01*
X165652Y58248D01*
X165675Y58225D01*
X165698Y58202D01*
X165791Y58109D01*
X165837Y57994D01*
X165929Y57762D01*
Y57670D01*
X165953Y57577D01*
Y57531D01*
Y57508D01*
Y46516D01*
X165906Y46216D01*
X165837Y45984D01*
X165767Y45845D01*
X165721Y45822D01*
Y45799D01*
X165490Y45660D01*
X165258Y45591D01*
X165166D01*
X165073Y45568D01*
X165004D01*
X164703Y45614D01*
X164472Y45683D01*
X164356Y45753D01*
X164310Y45799D01*
X164171Y46031D01*
X164101Y46262D01*
X164078Y46355D01*
Y46447D01*
Y46493D01*
Y46516D01*
Y50959D01*
X161741D01*
X161487Y50913D01*
X161278Y50890D01*
X161093Y50844D01*
X160931Y50797D01*
X160839Y50751D01*
X160769Y50728D01*
X160746Y50705D01*
X160561Y50589D01*
X160399Y50450D01*
X160237Y50288D01*
X160121Y50126D01*
X160006Y49988D01*
X159936Y49872D01*
X159890Y49779D01*
X159867Y49756D01*
X157946Y46239D01*
X157808Y46007D01*
X157669Y45845D01*
X157576Y45753D01*
X157530Y45730D01*
X157322Y45637D01*
X157090Y45591D01*
X156998Y45568D01*
X156859D01*
X156604Y45591D01*
X156419Y45660D01*
X156327Y45707D01*
X156280Y45730D01*
X156165Y45892D01*
X156095Y46054D01*
X156072Y46170D01*
Y46193D01*
Y46216D01*
X156095Y46447D01*
X156141Y46632D01*
X156211Y46794D01*
X156234Y46817D01*
Y46841D01*
X157784Y49733D01*
X157946Y50011D01*
X158131Y50265D01*
X158293Y50450D01*
X158432Y50612D01*
X158571Y50728D01*
X158664Y50820D01*
X158733Y50867D01*
X158756Y50890D01*
X158965Y51006D01*
X159173Y51098D01*
X159312Y51144D01*
X158988Y51237D01*
X158710Y51306D01*
X158502Y51376D01*
X158386Y51422D01*
X158340Y51445D01*
X157993Y51630D01*
X157692Y51839D01*
X157437Y52047D01*
X157229Y52255D01*
X157067Y52440D01*
X156951Y52579D01*
X156882Y52672D01*
X156859Y52718D01*
X156697Y53042D01*
X156558Y53389D01*
X156465Y53713D01*
X156419Y54037D01*
X156373Y54291D01*
X156350Y54523D01*
Y54662D01*
Y54685D01*
Y54708D01*
X156373Y55032D01*
X156396Y55356D01*
X156535Y55911D01*
X156697Y56374D01*
X156905Y56767D01*
X157113Y57091D01*
X157298Y57299D01*
X157437Y57438D01*
X157460Y57485D01*
X157484D01*
X157946Y57809D01*
X158455Y58040D01*
X158965Y58225D01*
X159473Y58341D01*
X159936Y58410D01*
X160145Y58433D01*
X160306D01*
X160445Y58457D01*
X165166D01*
X165305Y58410D01*
D02*
G37*
G36*
X404299Y21765D02*
X404669Y21742D01*
X405016Y21696D01*
X405294Y21650D01*
X405548Y21580D01*
X405756Y21534D01*
X405872Y21511D01*
X405919Y21488D01*
X406266Y21372D01*
X406590Y21233D01*
X406867Y21094D01*
X407122Y20955D01*
X407330Y20817D01*
X407492Y20724D01*
X407584Y20655D01*
X407631Y20631D01*
X407816Y20493D01*
X407909Y20354D01*
X407978Y20238D01*
X408001Y20215D01*
Y20192D01*
X408047Y20007D01*
Y19845D01*
X408024Y19752D01*
Y19706D01*
X407955Y19544D01*
X407885Y19428D01*
X407816Y19336D01*
X407793Y19312D01*
X407654Y19220D01*
X407515Y19174D01*
X407423Y19127D01*
X407376D01*
X407191Y19151D01*
X407006Y19197D01*
X406890Y19266D01*
X406867Y19289D01*
X406844D01*
X406590Y19475D01*
X406335Y19613D01*
X406104Y19729D01*
X405919Y19822D01*
X405733Y19891D01*
X405618Y19937D01*
X405525Y19984D01*
X405502D01*
X404993Y20099D01*
X404762Y20146D01*
X404530Y20169D01*
X404345Y20192D01*
X404067D01*
X403651Y20169D01*
X403304Y20122D01*
X403003Y20030D01*
X402748Y19937D01*
X402563Y19845D01*
X402424Y19752D01*
X402332Y19706D01*
X402309Y19683D01*
X402100Y19475D01*
X401962Y19266D01*
X401846Y19035D01*
X401777Y18803D01*
X401730Y18595D01*
X401707Y18433D01*
Y18318D01*
Y18271D01*
X401730Y18017D01*
X401753Y17785D01*
X401800Y17600D01*
X401846Y17415D01*
X401915Y17276D01*
X401962Y17184D01*
X401985Y17114D01*
X402008Y17091D01*
X402124Y16929D01*
X402262Y16790D01*
X402540Y16559D01*
X402679Y16466D01*
X402771Y16397D01*
X402841Y16374D01*
X402864Y16351D01*
X403072Y16258D01*
X403281Y16212D01*
X403512Y16166D01*
X403720Y16119D01*
X403882D01*
X404021Y16096D01*
X405224D01*
X405502Y16073D01*
X405710Y16004D01*
X405826Y15911D01*
X405872Y15888D01*
X405988Y15703D01*
X406057Y15518D01*
X406081Y15379D01*
Y15333D01*
Y15309D01*
X406057Y15055D01*
X405965Y14893D01*
X405895Y14777D01*
X405872Y14731D01*
X405664Y14615D01*
X405456Y14546D01*
X405363D01*
X405294Y14523D01*
X403975D01*
X403535Y14499D01*
X403142Y14430D01*
X402795Y14361D01*
X402517Y14268D01*
X402309Y14152D01*
X402147Y14083D01*
X402054Y14014D01*
X402031Y13990D01*
X401800Y13782D01*
X401638Y13528D01*
X401499Y13273D01*
X401429Y13042D01*
X401383Y12810D01*
X401337Y12625D01*
Y12510D01*
Y12486D01*
Y12463D01*
X401360Y12209D01*
X401383Y11977D01*
X401429Y11769D01*
X401476Y11607D01*
X401545Y11468D01*
X401591Y11353D01*
X401615Y11283D01*
X401638Y11260D01*
X401753Y11098D01*
X401915Y10936D01*
X402193Y10705D01*
X402332Y10635D01*
X402448Y10566D01*
X402517Y10543D01*
X402540Y10520D01*
X402771Y10427D01*
X403026Y10381D01*
X403257Y10334D01*
X403489Y10288D01*
X403697D01*
X403859Y10265D01*
X403998D01*
X404576Y10288D01*
X404854Y10334D01*
X405085Y10381D01*
X405271Y10404D01*
X405409Y10450D01*
X405525Y10473D01*
X405548D01*
X405826Y10566D01*
X406104Y10682D01*
X406358Y10774D01*
X406590Y10890D01*
X406798Y11006D01*
X406937Y11098D01*
X407029Y11144D01*
X407076Y11168D01*
X407284Y11260D01*
X407469Y11306D01*
X407631D01*
X407816Y11260D01*
X407955Y11214D01*
X408047Y11144D01*
X408070Y11121D01*
X408163Y10982D01*
X408256Y10867D01*
X408279Y10774D01*
X408302Y10728D01*
Y10566D01*
Y10404D01*
X408279Y10288D01*
X408256Y10265D01*
Y10242D01*
X408140Y10057D01*
X408001Y9918D01*
X407885Y9825D01*
X407862Y9802D01*
X407839D01*
X407538Y9617D01*
X407237Y9432D01*
X406937Y9293D01*
X406659Y9178D01*
X406404Y9085D01*
X406219Y9015D01*
X406081Y8992D01*
X406034Y8969D01*
X405641Y8877D01*
X405247Y8807D01*
X404900Y8761D01*
X404599Y8738D01*
X404322Y8715D01*
X404137Y8691D01*
X403952D01*
X403443Y8715D01*
X403003Y8761D01*
X402586Y8830D01*
X402239Y8900D01*
X401962Y8969D01*
X401753Y9039D01*
X401615Y9085D01*
X401568Y9108D01*
X401221Y9293D01*
X400920Y9478D01*
X400643Y9686D01*
X400434Y9895D01*
X400272Y10080D01*
X400134Y10219D01*
X400064Y10311D01*
X400041Y10358D01*
X399856Y10682D01*
X399740Y11029D01*
X399648Y11353D01*
X399578Y11653D01*
X399532Y11931D01*
X399509Y12139D01*
Y12278D01*
Y12301D01*
Y12324D01*
X399532Y12787D01*
X399625Y13204D01*
X399740Y13574D01*
X399879Y13898D01*
X400018Y14129D01*
X400134Y14314D01*
X400226Y14430D01*
X400249Y14476D01*
X400550Y14777D01*
X400874Y15009D01*
X401198Y15194D01*
X401545Y15333D01*
X401823Y15448D01*
X401907Y15471D01*
X402008Y15425D01*
X402286Y15356D01*
Y15564D01*
X402216D01*
X402170Y15541D01*
X402077Y15518D01*
X401907Y15471D01*
X401753Y15541D01*
X401545Y15633D01*
X401360Y15749D01*
X401198Y15842D01*
X401082Y15911D01*
X401013Y15957D01*
X400990Y15980D01*
X400805Y16142D01*
X400643Y16328D01*
X400504Y16513D01*
X400388Y16675D01*
X400296Y16813D01*
X400226Y16952D01*
X400203Y17022D01*
X400180Y17045D01*
X400087Y17299D01*
X399995Y17554D01*
X399949Y17785D01*
X399925Y18017D01*
X399902Y18202D01*
X399879Y18341D01*
Y18456D01*
Y18479D01*
X399902Y18850D01*
X399949Y19174D01*
X400041Y19475D01*
X400111Y19752D01*
X400203Y19960D01*
X400296Y20099D01*
X400342Y20215D01*
X400365Y20238D01*
X400550Y20516D01*
X400782Y20747D01*
X401013Y20932D01*
X401221Y21094D01*
X401429Y21233D01*
X401591Y21326D01*
X401707Y21372D01*
X401753Y21395D01*
X402100Y21534D01*
X402471Y21627D01*
X402841Y21696D01*
X403188Y21742D01*
X403489Y21765D01*
X403720Y21788D01*
X403928D01*
X404299Y21765D01*
D02*
G37*
G36*
X382849D02*
X383242Y21696D01*
X383612Y21627D01*
X383936Y21534D01*
X384191Y21418D01*
X384399Y21349D01*
X384515Y21279D01*
X384561Y21256D01*
X384885Y21048D01*
X385186Y20793D01*
X385417Y20562D01*
X385625Y20308D01*
X385810Y20099D01*
X385926Y19937D01*
X385995Y19822D01*
X386019Y19775D01*
X386204Y19405D01*
X386319Y19035D01*
X386412Y18665D01*
X386481Y18318D01*
X386528Y18017D01*
X386551Y17785D01*
Y17693D01*
Y17623D01*
Y17600D01*
Y17577D01*
X386528Y17161D01*
X386481Y16767D01*
X386389Y16420D01*
X386296Y16096D01*
X386227Y15842D01*
X386134Y15656D01*
X386088Y15541D01*
X386065Y15495D01*
X385857Y15171D01*
X385625Y14870D01*
X385417Y14638D01*
X385186Y14430D01*
X385000Y14245D01*
X384838Y14129D01*
X384746Y14060D01*
X384700Y14037D01*
X384353Y13875D01*
X384006Y13736D01*
X383681Y13643D01*
X383381Y13597D01*
X383103Y13551D01*
X382895Y13528D01*
X382710D01*
X382363Y13551D01*
X382062Y13597D01*
X381761Y13643D01*
X381506Y13713D01*
X381321Y13782D01*
X381159Y13852D01*
X381044Y13875D01*
X381021Y13898D01*
X380743Y14060D01*
X380511Y14245D01*
X380303Y14430D01*
X380118Y14592D01*
X379979Y14754D01*
X379887Y14893D01*
X379817Y14986D01*
X379794Y15009D01*
X379632Y15286D01*
X379493Y15587D01*
X379378Y15865D01*
Y16698D01*
X379169D01*
Y16652D01*
X379193Y16536D01*
X379239Y16351D01*
X379308Y16119D01*
X379378Y15865D01*
Y15147D01*
X379401Y14569D01*
X379447Y14060D01*
X379493Y13597D01*
X379563Y13204D01*
X379655Y12880D01*
X379702Y12648D01*
X379725Y12556D01*
X379748Y12486D01*
X379771Y12463D01*
Y12440D01*
X379933Y12047D01*
X380118Y11723D01*
X380326Y11445D01*
X380511Y11214D01*
X380673Y11029D01*
X380812Y10913D01*
X380905Y10820D01*
X380951Y10797D01*
X381252Y10612D01*
X381576Y10496D01*
X381900Y10404D01*
X382201Y10334D01*
X382455Y10288D01*
X382663Y10265D01*
X382849D01*
X383288Y10288D01*
X383496Y10334D01*
X383681Y10381D01*
X383843Y10404D01*
X383959Y10450D01*
X384052Y10473D01*
X384075D01*
X384515Y10658D01*
X384723Y10774D01*
X384908Y10867D01*
X385070Y10982D01*
X385186Y11052D01*
X385278Y11098D01*
X385301Y11121D01*
X385486Y11237D01*
X385648Y11283D01*
X385810D01*
X385972Y11237D01*
X386111Y11168D01*
X386204Y11098D01*
X386227Y11075D01*
X386319Y10936D01*
X386389Y10820D01*
X386435Y10728D01*
Y10682D01*
X386458Y10520D01*
Y10358D01*
X386435Y10242D01*
Y10219D01*
Y10196D01*
X386366Y10034D01*
X386250Y9918D01*
X386181Y9825D01*
X386134Y9802D01*
X385857Y9617D01*
X385579Y9432D01*
X385324Y9293D01*
X385070Y9178D01*
X384862Y9085D01*
X384700Y9015D01*
X384607Y8992D01*
X384561Y8969D01*
X384237Y8877D01*
X383936Y8807D01*
X383658Y8761D01*
X383404Y8738D01*
X383196Y8715D01*
X383034Y8691D01*
X382895D01*
X382432Y8715D01*
X382015Y8761D01*
X381645Y8830D01*
X381321Y8923D01*
X381044Y8992D01*
X380835Y9062D01*
X380720Y9108D01*
X380673Y9131D01*
X380303Y9316D01*
X379979Y9525D01*
X379702Y9756D01*
X379447Y9964D01*
X379262Y10149D01*
X379100Y10311D01*
X379007Y10404D01*
X378984Y10450D01*
X378730Y10797D01*
X378521Y11168D01*
X378359Y11515D01*
X378198Y11862D01*
X378082Y12162D01*
X378012Y12394D01*
X377989Y12486D01*
X377966Y12556D01*
X377943Y12579D01*
Y12602D01*
X377827Y13088D01*
X377735Y13597D01*
X377665Y14083D01*
X377619Y14546D01*
X377596Y14939D01*
X377573Y15101D01*
Y15240D01*
Y15356D01*
Y15448D01*
Y15495D01*
Y15518D01*
X377596Y16235D01*
X377665Y16883D01*
X377758Y17461D01*
X377850Y17947D01*
X377920Y18156D01*
X377966Y18341D01*
X378012Y18503D01*
X378059Y18642D01*
X378105Y18757D01*
X378128Y18827D01*
X378151Y18873D01*
Y18896D01*
X378383Y19405D01*
X378637Y19845D01*
X378915Y20215D01*
X379169Y20516D01*
X379401Y20747D01*
X379586Y20909D01*
X379725Y21025D01*
X379748Y21048D01*
X379771D01*
X380187Y21302D01*
X380627Y21488D01*
X381067Y21603D01*
X381483Y21696D01*
X381853Y21742D01*
X382015Y21765D01*
X382154Y21788D01*
X382409D01*
X382849Y21765D01*
D02*
G37*
G36*
X419339Y21580D02*
X419548Y21511D01*
X419686Y21418D01*
X419710Y21395D01*
X419733Y21372D01*
X419825Y21279D01*
X419872Y21164D01*
X419964Y20932D01*
Y20840D01*
X419987Y20747D01*
Y20701D01*
Y20678D01*
Y9686D01*
X419941Y9386D01*
X419872Y9154D01*
X419802Y9015D01*
X419756Y8992D01*
Y8969D01*
X419524Y8830D01*
X419293Y8761D01*
X419201D01*
X419108Y8738D01*
X419039D01*
X418738Y8784D01*
X418506Y8853D01*
X418391Y8923D01*
X418344Y8969D01*
X418205Y9201D01*
X418136Y9432D01*
X418113Y9525D01*
Y9617D01*
Y9663D01*
Y9686D01*
Y14129D01*
X415776D01*
X415521Y14083D01*
X415313Y14060D01*
X415128Y14014D01*
X414966Y13967D01*
X414873Y13921D01*
X414804Y13898D01*
X414781Y13875D01*
X414596Y13759D01*
X414434Y13620D01*
X414272Y13458D01*
X414156Y13296D01*
X414040Y13158D01*
X413971Y13042D01*
X413925Y12949D01*
X413902Y12926D01*
X411981Y9409D01*
X411842Y9178D01*
X411703Y9015D01*
X411611Y8923D01*
X411564Y8900D01*
X411356Y8807D01*
X411125Y8761D01*
X411032Y8738D01*
X410894D01*
X410639Y8761D01*
X410454Y8830D01*
X410361Y8877D01*
X410315Y8900D01*
X410199Y9062D01*
X410130Y9224D01*
X410107Y9340D01*
Y9363D01*
Y9386D01*
X410130Y9617D01*
X410176Y9802D01*
X410246Y9964D01*
X410269Y9987D01*
Y10010D01*
X411819Y12903D01*
X411981Y13181D01*
X412166Y13435D01*
X412328Y13620D01*
X412467Y13782D01*
X412606Y13898D01*
X412698Y13990D01*
X412768Y14037D01*
X412791Y14060D01*
X412999Y14176D01*
X413207Y14268D01*
X413346Y14314D01*
X413022Y14407D01*
X412745Y14476D01*
X412536Y14546D01*
X412421Y14592D01*
X412374Y14615D01*
X412027Y14800D01*
X411726Y15009D01*
X411472Y15217D01*
X411264Y15425D01*
X411102Y15610D01*
X410986Y15749D01*
X410917Y15842D01*
X410894Y15888D01*
X410732Y16212D01*
X410593Y16559D01*
X410500Y16883D01*
X410454Y17207D01*
X410407Y17461D01*
X410384Y17693D01*
Y17832D01*
Y17855D01*
Y17878D01*
X410407Y18202D01*
X410431Y18526D01*
X410569Y19081D01*
X410732Y19544D01*
X410940Y19937D01*
X411148Y20261D01*
X411333Y20470D01*
X411472Y20608D01*
X411495Y20655D01*
X411518D01*
X411981Y20979D01*
X412490Y21210D01*
X412999Y21395D01*
X413508Y21511D01*
X413971Y21580D01*
X414179Y21603D01*
X414341D01*
X414480Y21627D01*
X419201D01*
X419339Y21580D01*
D02*
G37*
G36*
X393377Y21765D02*
X393863Y21673D01*
X394302Y21557D01*
X394673Y21418D01*
X394974Y21279D01*
X395182Y21164D01*
X395321Y21071D01*
X395344Y21048D01*
X395367D01*
X395714Y20747D01*
X396015Y20400D01*
X396292Y20030D01*
X396501Y19683D01*
X396663Y19359D01*
X396802Y19081D01*
X396848Y18989D01*
X396871Y18919D01*
X396894Y18873D01*
Y18850D01*
X397079Y18294D01*
X397195Y17693D01*
X397287Y17068D01*
X397357Y16513D01*
X397380Y16235D01*
X397403Y16004D01*
Y15795D01*
X397426Y15610D01*
Y15448D01*
Y15333D01*
Y15263D01*
Y15240D01*
X397403Y14662D01*
X397380Y14129D01*
X397311Y13620D01*
X397241Y13134D01*
X397149Y12718D01*
X397056Y12301D01*
X396964Y11954D01*
X396848Y11630D01*
X396732Y11329D01*
X396640Y11075D01*
X396547Y10867D01*
X396455Y10705D01*
X396385Y10566D01*
X396316Y10450D01*
X396292Y10404D01*
X396269Y10381D01*
X396038Y10080D01*
X395783Y9825D01*
X395506Y9594D01*
X395228Y9409D01*
X394950Y9247D01*
X394673Y9108D01*
X394395Y8992D01*
X394117Y8900D01*
X393863Y8830D01*
X393608Y8784D01*
X393400Y8738D01*
X393215Y8715D01*
X393053D01*
X392937Y8691D01*
X392845D01*
X392313Y8715D01*
X391827Y8807D01*
X391410Y8923D01*
X391040Y9062D01*
X390739Y9201D01*
X390531Y9316D01*
X390392Y9409D01*
X390346Y9432D01*
X389975Y9756D01*
X389675Y10103D01*
X389420Y10473D01*
X389189Y10820D01*
X389027Y11144D01*
X388911Y11422D01*
X388865Y11515D01*
X388842Y11584D01*
X388819Y11630D01*
Y11653D01*
X388633Y12232D01*
X388518Y12833D01*
X388425Y13458D01*
X388356Y14014D01*
X388332Y14268D01*
X388309Y14523D01*
Y14731D01*
X388286Y14916D01*
Y15055D01*
Y15171D01*
Y15240D01*
Y15263D01*
X388309Y15842D01*
X388332Y16397D01*
X388402Y16906D01*
X388471Y17369D01*
X388564Y17809D01*
X388657Y18225D01*
X388749Y18572D01*
X388865Y18896D01*
X388980Y19197D01*
X389073Y19428D01*
X389166Y19636D01*
X389258Y19822D01*
X389328Y19960D01*
X389397Y20053D01*
X389420Y20099D01*
X389443Y20122D01*
X389675Y20423D01*
X389929Y20678D01*
X390184Y20886D01*
X390461Y21094D01*
X390739Y21256D01*
X391017Y21372D01*
X391317Y21488D01*
X391572Y21580D01*
X391827Y21650D01*
X392081Y21696D01*
X392289Y21742D01*
X392475Y21765D01*
X392636Y21788D01*
X392845D01*
X393377Y21765D01*
D02*
G37*
%LPC*%
G36*
X636893Y385251D02*
X636278D01*
Y384124D01*
X636893Y385251D01*
D02*
G37*
G36*
X629818Y376614D02*
X629412Y375860D01*
X630222D01*
X629818Y376614D01*
D02*
G37*
G36*
X468426Y385413D02*
X467843D01*
Y384641D01*
X468426Y385413D01*
D02*
G37*
G36*
X545924Y373949D02*
X546442Y372621D01*
Y373746D01*
X545924Y373949D01*
D02*
G37*
G36*
X501686Y386741D02*
X498156D01*
X497540Y386709D01*
X496990Y386676D01*
X496472Y386579D01*
X495986Y386482D01*
X495532Y386352D01*
X495144Y386223D01*
X494755Y386061D01*
X494431Y385899D01*
X494140Y385737D01*
X493881Y385575D01*
X493686Y385446D01*
X493525Y385316D01*
X493363Y385219D01*
X493265Y385122D01*
X493233Y385089D01*
X493201Y385057D01*
X492909Y384733D01*
X492650Y384377D01*
X492423Y383988D01*
X492229Y383567D01*
X491938Y382725D01*
X491711Y381916D01*
X491646Y381527D01*
X491614Y381171D01*
X491581Y380847D01*
X491549Y380555D01*
X491517Y380329D01*
Y380167D01*
Y380037D01*
Y380005D01*
X491549Y379390D01*
X491581Y378839D01*
X491646Y378321D01*
X491711Y377900D01*
X491808Y377511D01*
X491873Y377252D01*
X491905Y377090D01*
X491938Y377025D01*
X492100Y376572D01*
X492294Y376151D01*
X492488Y375795D01*
X492682Y375503D01*
X492877Y375244D01*
X493039Y375082D01*
X493136Y374953D01*
X493168Y374921D01*
X493492Y374629D01*
X493848Y374402D01*
X494205Y374176D01*
X494529Y374014D01*
X494820Y373852D01*
X495047Y373755D01*
X495176Y373722D01*
X495241Y373690D01*
X495727Y373560D01*
X496213Y373463D01*
X496698Y373366D01*
X497152Y373334D01*
X497573Y373301D01*
X497864Y373269D01*
X501686D01*
Y386741D01*
D02*
G37*
G36*
X408676Y386935D02*
X404142D01*
X403494Y386903D01*
X402944Y386806D01*
X402458Y386709D01*
X402069Y386579D01*
X401778Y386417D01*
X401551Y386320D01*
X401422Y386223D01*
X401389Y386190D01*
X401065Y385899D01*
X400839Y385543D01*
X400677Y385187D01*
X400580Y384830D01*
X400482Y384506D01*
X400450Y384247D01*
Y384086D01*
Y384053D01*
Y384021D01*
X400482Y383535D01*
X400580Y383082D01*
X400742Y382693D01*
X400903Y382401D01*
X401098Y382175D01*
X401227Y381980D01*
X401357Y381883D01*
X401389Y381851D01*
X401778Y381624D01*
X402199Y381430D01*
X402685Y381300D01*
X403106Y381236D01*
X403527Y381171D01*
X403851Y381138D01*
X408676D01*
Y386935D01*
D02*
G37*
G36*
X401454Y380426D02*
X401357D01*
X401260Y380394D01*
X401130Y380361D01*
X400806Y380296D01*
X400714Y380268D01*
X400871Y380199D01*
X401454Y380037D01*
Y380426D01*
D02*
G37*
G36*
X408676Y379098D02*
X403753D01*
X403073Y379066D01*
X402490Y378969D01*
X402037Y378871D01*
X401616Y378742D01*
X401324Y378580D01*
X401098Y378483D01*
X400968Y378386D01*
X400936Y378353D01*
X400612Y378062D01*
X400385Y377706D01*
X400223Y377349D01*
X400126Y376961D01*
X400029Y376637D01*
X399997Y376378D01*
Y376184D01*
Y376151D01*
Y376119D01*
X400029Y375568D01*
X400126Y375115D01*
X400288Y374694D01*
X400450Y374402D01*
X400644Y374143D01*
X400774Y373949D01*
X400903Y373852D01*
X400936Y373819D01*
X401324Y373560D01*
X401745Y373398D01*
X402231Y373269D01*
X402685Y373172D01*
X403106Y373107D01*
X403429Y373075D01*
X408676D01*
Y379098D01*
D02*
G37*
G36*
X609625Y386029D02*
X609560D01*
X605967Y377544D01*
X605123D01*
X605706Y376928D01*
X605967Y377544D01*
X613188D01*
X613446Y376928D01*
X614094Y377544D01*
X613188D01*
X609625Y386029D01*
D02*
G37*
G36*
X595537Y386838D02*
X591198D01*
X590518Y386806D01*
X589935Y386709D01*
X589417Y386579D01*
X588996Y386450D01*
X588704Y386288D01*
X588477Y386158D01*
X588315Y386061D01*
X588283Y386029D01*
X587959Y385705D01*
X587700Y385316D01*
X587538Y384927D01*
X587409Y384539D01*
X587344Y384183D01*
X587279Y383891D01*
Y383697D01*
Y383665D01*
Y383632D01*
X587312Y383082D01*
X587441Y382596D01*
X587603Y382175D01*
X587765Y381851D01*
X587959Y381592D01*
X588121Y381398D01*
X588251Y381268D01*
X588283Y381236D01*
X588672Y380976D01*
X589157Y380782D01*
X589643Y380620D01*
X590097Y380523D01*
X590518Y380458D01*
X590874Y380426D01*
X595537D01*
Y386838D01*
D02*
G37*
G36*
X590518Y378871D02*
X589708D01*
X589514Y378839D01*
X589255Y378807D01*
X588963Y378742D01*
X588866Y378710D01*
X589417Y378612D01*
X590064Y378548D01*
X590744Y378515D01*
X590518Y378871D01*
D02*
G37*
G36*
X532970Y386029D02*
X532905D01*
X529311Y377544D01*
X528468D01*
X529051Y376928D01*
X529311Y377544D01*
X536533D01*
X536791Y376928D01*
X537439Y377544D01*
X536533D01*
X532970Y386029D01*
D02*
G37*
G36*
X518882Y386838D02*
X514542D01*
X513862Y386806D01*
X513279Y386709D01*
X512761Y386579D01*
X512340Y386450D01*
X512049Y386288D01*
X511822Y386158D01*
X511660Y386061D01*
X511628Y386029D01*
X511304Y385705D01*
X511045Y385316D01*
X510883Y384927D01*
X510753Y384539D01*
X510689Y384183D01*
X510624Y383891D01*
Y383697D01*
Y383665D01*
Y383632D01*
X510656Y383082D01*
X510786Y382596D01*
X510948Y382175D01*
X511110Y381851D01*
X511304Y381592D01*
X511466Y381398D01*
X511595Y381268D01*
X511628Y381236D01*
X512016Y380976D01*
X512502Y380782D01*
X512988Y380620D01*
X513441Y380523D01*
X513862Y380458D01*
X514219Y380426D01*
X518882D01*
Y386838D01*
D02*
G37*
G36*
X513862Y378871D02*
X513053D01*
X512858Y378839D01*
X512599Y378807D01*
X512308Y378742D01*
X512211Y378710D01*
X512761Y378612D01*
X513409Y378548D01*
X514089Y378515D01*
X513862Y378871D01*
D02*
G37*
G36*
X442065Y386838D02*
X437660D01*
X436980Y386806D01*
X436397Y386709D01*
X435912Y386579D01*
X435491Y386417D01*
X435199Y386255D01*
X434972Y386126D01*
X434810Y386029D01*
X434778Y385996D01*
X434454Y385640D01*
X434228Y385251D01*
X434033Y384830D01*
X433936Y384442D01*
X433871Y384086D01*
X433807Y383762D01*
Y383567D01*
Y383535D01*
Y383503D01*
X433839Y382920D01*
X433969Y382401D01*
X434098Y381948D01*
X434292Y381592D01*
X434454Y381300D01*
X434616Y381106D01*
X434746Y380976D01*
X434778Y380944D01*
X435167Y380653D01*
X435653Y380458D01*
X436106Y380296D01*
X436592Y380199D01*
X437013Y380135D01*
X437337Y380102D01*
X442065D01*
Y386838D01*
D02*
G37*
G36*
X380927Y36567D02*
X380427D01*
Y35906D01*
X380927Y36567D01*
D02*
G37*
G36*
X372015Y27999D02*
X371460Y27267D01*
X372015D01*
Y27999D01*
D02*
G37*
G36*
X416851Y37789D02*
X413131D01*
X412548Y37761D01*
X412048Y37678D01*
X411604Y37567D01*
X411243Y37456D01*
X410993Y37317D01*
X410799Y37206D01*
X410660Y37123D01*
X410633Y37095D01*
X410355Y36817D01*
X410133Y36484D01*
X409994Y36151D01*
X409883Y35818D01*
X409827Y35512D01*
X409772Y35263D01*
Y35096D01*
Y35068D01*
Y35041D01*
X409800Y34569D01*
X409911Y34152D01*
X410050Y33791D01*
X410188Y33514D01*
X410355Y33291D01*
X410494Y33125D01*
X410605Y33014D01*
X410633Y32986D01*
X410966Y32764D01*
X411382Y32597D01*
X411799Y32459D01*
X412187Y32375D01*
X412548Y32320D01*
X412854Y32292D01*
X416851D01*
Y37789D01*
D02*
G37*
G36*
X412548Y30959D02*
X411854D01*
X411688Y30932D01*
X411465Y30904D01*
X411216Y30849D01*
X411132Y30821D01*
X411604Y30737D01*
X412159Y30682D01*
X412743Y30654D01*
X412548Y30959D01*
D02*
G37*
G36*
X401998Y29821D02*
X401222D01*
X401443Y29294D01*
X401998Y29821D01*
D02*
G37*
G36*
X398167Y37095D02*
X398112D01*
X395032Y29821D01*
X394308D01*
X394808Y29294D01*
X395032Y29821D01*
X401222D01*
X398167Y37095D01*
D02*
G37*
G36*
X394530Y28600D02*
X393503Y27989D01*
X394266D01*
X394530Y28600D01*
D02*
G37*
G36*
X149769Y68705D02*
X150213Y67567D01*
Y68531D01*
X149769Y68705D01*
D02*
G37*
G36*
X164078Y56952D02*
X160978D01*
X160492Y56929D01*
X160075Y56860D01*
X159705Y56767D01*
X159404Y56675D01*
X159196Y56559D01*
X159034Y56466D01*
X158918Y56397D01*
X158895Y56374D01*
X158664Y56143D01*
X158478Y55865D01*
X158363Y55587D01*
X158270Y55310D01*
X158224Y55055D01*
X158178Y54847D01*
Y54708D01*
Y54685D01*
Y54662D01*
X158201Y54268D01*
X158293Y53921D01*
X158409Y53620D01*
X158525Y53389D01*
X158664Y53204D01*
X158779Y53065D01*
X158872Y52972D01*
X158895Y52949D01*
X159173Y52764D01*
X159520Y52625D01*
X159867Y52510D01*
X160191Y52440D01*
X160492Y52394D01*
X160746Y52371D01*
X164078D01*
Y56952D01*
D02*
G37*
G36*
X160492Y51260D02*
X159913D01*
X159774Y51237D01*
X159589Y51214D01*
X159381Y51168D01*
X159312Y51144D01*
X159705Y51075D01*
X160168Y51029D01*
X160654Y51006D01*
X160492Y51260D01*
D02*
G37*
G36*
X382386Y20284D02*
X382270D01*
X382015Y20261D01*
X381761Y20238D01*
X381553Y20192D01*
X381368Y20122D01*
X381206Y20053D01*
X381090Y20007D01*
X381021Y19984D01*
X380997Y19960D01*
X380789Y19822D01*
X380604Y19683D01*
X380465Y19521D01*
X380350Y19382D01*
X380234Y19243D01*
X380164Y19127D01*
X380141Y19058D01*
X380118Y19035D01*
X380002Y18803D01*
X379933Y18572D01*
X379864Y18341D01*
X379840Y18132D01*
X379817Y17947D01*
X379794Y17809D01*
Y17716D01*
Y17670D01*
X379817Y17392D01*
X379840Y17137D01*
X379887Y16906D01*
X379956Y16698D01*
X380025Y16536D01*
X380072Y16420D01*
X380095Y16328D01*
X380118Y16304D01*
X380234Y16096D01*
X380373Y15911D01*
X380535Y15749D01*
X380673Y15633D01*
X380789Y15518D01*
X380905Y15448D01*
X380974Y15402D01*
X380997Y15379D01*
X381206Y15263D01*
X381437Y15194D01*
X381645Y15124D01*
X381830Y15101D01*
X382015Y15078D01*
X382154Y15055D01*
X382270D01*
X382548Y15078D01*
X382802Y15101D01*
X383034Y15147D01*
X383219Y15217D01*
X383381Y15286D01*
X383496Y15333D01*
X383566Y15356D01*
X383589Y15379D01*
X383936Y15680D01*
X384098Y15819D01*
X384214Y15980D01*
X384306Y16096D01*
X384376Y16212D01*
X384422Y16281D01*
X384445Y16304D01*
X384561Y16536D01*
X384630Y16767D01*
X384700Y16999D01*
X384723Y17207D01*
X384746Y17392D01*
X384769Y17531D01*
Y17646D01*
Y17670D01*
X384746Y17947D01*
X384723Y18225D01*
X384677Y18456D01*
X384607Y18642D01*
X384538Y18803D01*
X384491Y18942D01*
X384468Y19012D01*
X384445Y19035D01*
X384306Y19243D01*
X384168Y19428D01*
X384029Y19590D01*
X383890Y19729D01*
X383774Y19822D01*
X383681Y19891D01*
X383612Y19937D01*
X383589Y19960D01*
X383381Y20076D01*
X383149Y20146D01*
X382918Y20215D01*
X382710Y20238D01*
X382548Y20261D01*
X382386Y20284D01*
D02*
G37*
G36*
X418113Y20122D02*
X415012D01*
X414526Y20099D01*
X414110Y20030D01*
X413740Y19937D01*
X413439Y19845D01*
X413231Y19729D01*
X413069Y19636D01*
X412953Y19567D01*
X412930Y19544D01*
X412698Y19312D01*
X412513Y19035D01*
X412397Y18757D01*
X412305Y18479D01*
X412259Y18225D01*
X412212Y18017D01*
Y17878D01*
Y17855D01*
Y17832D01*
X412235Y17438D01*
X412328Y17091D01*
X412444Y16790D01*
X412560Y16559D01*
X412698Y16374D01*
X412814Y16235D01*
X412907Y16142D01*
X412930Y16119D01*
X413207Y15934D01*
X413554Y15795D01*
X413902Y15680D01*
X414226Y15610D01*
X414526Y15564D01*
X414781Y15541D01*
X418113D01*
Y20122D01*
D02*
G37*
G36*
X414526Y14430D02*
X413948D01*
X413809Y14407D01*
X413624Y14384D01*
X413416Y14338D01*
X413346Y14314D01*
X413740Y14245D01*
X414202Y14199D01*
X414688Y14176D01*
X414526Y14430D01*
D02*
G37*
G36*
X392984Y20238D02*
X392845D01*
X392590Y20215D01*
X392359Y20192D01*
X391942Y20053D01*
X391595Y19868D01*
X391294Y19636D01*
X391086Y19405D01*
X390924Y19220D01*
X390832Y19081D01*
X390808Y19058D01*
Y19035D01*
X390693Y18803D01*
X390577Y18526D01*
X390415Y17947D01*
X390299Y17322D01*
X390230Y16698D01*
X390184Y16420D01*
X390161Y16142D01*
Y15911D01*
X390137Y15680D01*
Y15518D01*
Y15379D01*
Y15286D01*
Y15263D01*
Y14800D01*
X390161Y14361D01*
X390207Y13967D01*
X390230Y13597D01*
X390299Y13250D01*
X390346Y12926D01*
X390415Y12648D01*
X390461Y12394D01*
X390531Y12186D01*
X390600Y12000D01*
X390647Y11839D01*
X390693Y11700D01*
X390739Y11607D01*
X390785Y11538D01*
X390808Y11491D01*
Y11468D01*
X390947Y11260D01*
X391086Y11075D01*
X391225Y10890D01*
X391410Y10751D01*
X391734Y10543D01*
X392058Y10404D01*
X392382Y10311D01*
X392613Y10265D01*
X392706Y10242D01*
X392845D01*
X393099Y10265D01*
X393331Y10288D01*
X393747Y10427D01*
X394094Y10635D01*
X394395Y10867D01*
X394627Y11075D01*
X394765Y11283D01*
X394881Y11422D01*
X394904Y11445D01*
Y11468D01*
X395020Y11723D01*
X395135Y11977D01*
X395298Y12579D01*
X395413Y13204D01*
X395483Y13829D01*
X395529Y14106D01*
Y14384D01*
X395552Y14638D01*
X395575Y14847D01*
Y15009D01*
Y15147D01*
Y15240D01*
Y15263D01*
Y15726D01*
X395552Y16166D01*
X395506Y16582D01*
X395460Y16952D01*
X395413Y17276D01*
X395367Y17600D01*
X395298Y17878D01*
X395228Y18132D01*
X395182Y18341D01*
X395112Y18526D01*
X395066Y18688D01*
X394997Y18803D01*
X394974Y18919D01*
X394927Y18989D01*
X394904Y19012D01*
Y19035D01*
X394765Y19243D01*
X394627Y19428D01*
X394464Y19590D01*
X394302Y19729D01*
X393955Y19937D01*
X393632Y20099D01*
X393307Y20169D01*
X393076Y20215D01*
X392984Y20238D01*
D02*
G37*
%LPD*%
M02*
