G04*
G04 #@! TF.GenerationSoftware,Altium Limited,Altium Designer,24.1.2 (44)*
G04*
G04 Layer_Color=8388736*
%FSLAX44Y44*%
%MOMM*%
G71*
G04*
G04 #@! TF.SameCoordinates,6BD88CD4-1E97-4B61-92EF-30D8DD190105*
G04*
G04*
G04 #@! TF.FilePolarity,Negative*
G04*
G01*
G75*
%ADD42R,1.3032X1.9532*%
%ADD43R,1.9532X1.3032*%
%ADD44R,0.4832X1.6732*%
%ADD45R,1.6732X0.4832*%
%ADD46R,1.6032X1.2032*%
G04:AMPARAMS|DCode=47|XSize=0.8532mm|YSize=1.4032mm|CornerRadius=0.2641mm|HoleSize=0mm|Usage=FLASHONLY|Rotation=270.000|XOffset=0mm|YOffset=0mm|HoleType=Round|Shape=RoundedRectangle|*
%AMROUNDEDRECTD47*
21,1,0.8532,0.8750,0,0,270.0*
21,1,0.3250,1.4032,0,0,270.0*
1,1,0.5282,-0.4375,-0.1625*
1,1,0.5282,-0.4375,0.1625*
1,1,0.5282,0.4375,0.1625*
1,1,0.5282,0.4375,-0.1625*
%
%ADD47ROUNDEDRECTD47*%
%ADD48R,1.5532X1.3532*%
G04:AMPARAMS|DCode=49|XSize=1.9532mm|YSize=1.4532mm|CornerRadius=0.4141mm|HoleSize=0mm|Usage=FLASHONLY|Rotation=90.000|XOffset=0mm|YOffset=0mm|HoleType=Round|Shape=RoundedRectangle|*
%AMROUNDEDRECTD49*
21,1,1.9532,0.6250,0,0,90.0*
21,1,1.1250,1.4532,0,0,90.0*
1,1,0.8282,0.3125,0.5625*
1,1,0.8282,0.3125,-0.5625*
1,1,0.8282,-0.3125,-0.5625*
1,1,0.8282,-0.3125,0.5625*
%
%ADD49ROUNDEDRECTD49*%
%ADD50R,1.5032X1.1032*%
%ADD51R,1.8032X1.4032*%
%ADD52R,1.3532X1.5532*%
%ADD53R,1.4032X1.8032*%
%ADD54R,1.6032X2.1532*%
%ADD55R,0.8032X2.2032*%
%ADD56R,1.1032X1.5032*%
%ADD57R,1.6032X0.9532*%
G04:AMPARAMS|DCode=58|XSize=1.4032mm|YSize=1.3032mm|CornerRadius=0.3766mm|HoleSize=0mm|Usage=FLASHONLY|Rotation=0.000|XOffset=0mm|YOffset=0mm|HoleType=Round|Shape=RoundedRectangle|*
%AMROUNDEDRECTD58*
21,1,1.4032,0.5500,0,0,0.0*
21,1,0.6500,1.3032,0,0,0.0*
1,1,0.7532,0.3250,-0.2750*
1,1,0.7532,-0.3250,-0.2750*
1,1,0.7532,-0.3250,0.2750*
1,1,0.7532,0.3250,0.2750*
%
%ADD58ROUNDEDRECTD58*%
G04:AMPARAMS|DCode=59|XSize=3.5032mm|YSize=2.3032mm|CornerRadius=0.6266mm|HoleSize=0mm|Usage=FLASHONLY|Rotation=0.000|XOffset=0mm|YOffset=0mm|HoleType=Round|Shape=RoundedRectangle|*
%AMROUNDEDRECTD59*
21,1,3.5032,1.0500,0,0,0.0*
21,1,2.2500,2.3032,0,0,0.0*
1,1,1.2532,1.1250,-0.5250*
1,1,1.2532,-1.1250,-0.5250*
1,1,1.2532,-1.1250,0.5250*
1,1,1.2532,1.1250,0.5250*
%
%ADD59ROUNDEDRECTD59*%
G04:AMPARAMS|DCode=60|XSize=1.2032mm|YSize=2.3032mm|CornerRadius=0.3516mm|HoleSize=0mm|Usage=FLASHONLY|Rotation=0.000|XOffset=0mm|YOffset=0mm|HoleType=Round|Shape=RoundedRectangle|*
%AMROUNDEDRECTD60*
21,1,1.2032,1.6000,0,0,0.0*
21,1,0.5000,2.3032,0,0,0.0*
1,1,0.7032,0.2500,-0.8000*
1,1,0.7032,-0.2500,-0.8000*
1,1,0.7032,-0.2500,0.8000*
1,1,0.7032,0.2500,0.8000*
%
%ADD60ROUNDEDRECTD60*%
%ADD61R,1.3032X0.8032*%
%ADD62R,1.6032X2.3032*%
%ADD63R,0.8032X1.6532*%
%ADD64R,0.5532X0.5532*%
G04:AMPARAMS|DCode=65|XSize=1.9032mm|YSize=2.7032mm|CornerRadius=0.5266mm|HoleSize=0mm|Usage=FLASHONLY|Rotation=270.000|XOffset=0mm|YOffset=0mm|HoleType=Round|Shape=RoundedRectangle|*
%AMROUNDEDRECTD65*
21,1,1.9032,1.6500,0,0,270.0*
21,1,0.8500,2.7032,0,0,270.0*
1,1,1.0532,-0.8250,-0.4250*
1,1,1.0532,-0.8250,0.4250*
1,1,1.0532,0.8250,0.4250*
1,1,1.0532,0.8250,-0.4250*
%
%ADD65ROUNDEDRECTD65*%
%ADD66C,1.7032*%
G04:AMPARAMS|DCode=67|XSize=1.7032mm|YSize=1.7032mm|CornerRadius=0.4766mm|HoleSize=0mm|Usage=FLASHONLY|Rotation=270.000|XOffset=0mm|YOffset=0mm|HoleType=Round|Shape=RoundedRectangle|*
%AMROUNDEDRECTD67*
21,1,1.7032,0.7500,0,0,270.0*
21,1,0.7500,1.7032,0,0,270.0*
1,1,0.9532,-0.3750,-0.3750*
1,1,0.9532,-0.3750,0.3750*
1,1,0.9532,0.3750,0.3750*
1,1,0.9532,0.3750,-0.3750*
%
%ADD67ROUNDEDRECTD67*%
%ADD68R,1.4252X1.4252*%
%ADD69C,1.4252*%
%ADD70R,1.7432X1.7272*%
%ADD71O,1.7432X1.7272*%
%ADD72C,2.0032*%
%ADD73R,2.0032X2.0032*%
%ADD74C,1.6112*%
%ADD75C,7.2032*%
G04:AMPARAMS|DCode=76|XSize=4.2032mm|YSize=2.0032mm|CornerRadius=0.5516mm|HoleSize=0mm|Usage=FLASHONLY|Rotation=90.000|XOffset=0mm|YOffset=0mm|HoleType=Round|Shape=RoundedRectangle|*
%AMROUNDEDRECTD76*
21,1,4.2032,0.9000,0,0,90.0*
21,1,3.1000,2.0032,0,0,90.0*
1,1,1.1032,0.4500,1.5500*
1,1,1.1032,0.4500,-1.5500*
1,1,1.1032,-0.4500,-1.5500*
1,1,1.1032,-0.4500,1.5500*
%
%ADD76ROUNDEDRECTD76*%
G04:AMPARAMS|DCode=77|XSize=4.2032mm|YSize=2.0032mm|CornerRadius=0.5516mm|HoleSize=0mm|Usage=FLASHONLY|Rotation=180.000|XOffset=0mm|YOffset=0mm|HoleType=Round|Shape=RoundedRectangle|*
%AMROUNDEDRECTD77*
21,1,4.2032,0.9000,0,0,180.0*
21,1,3.1000,2.0032,0,0,180.0*
1,1,1.1032,-1.5500,0.4500*
1,1,1.1032,1.5500,0.4500*
1,1,1.1032,1.5500,-0.4500*
1,1,1.1032,-1.5500,-0.4500*
%
%ADD77ROUNDEDRECTD77*%
G04:AMPARAMS|DCode=78|XSize=2.0032mm|YSize=2.0032mm|CornerRadius=0.5516mm|HoleSize=0mm|Usage=FLASHONLY|Rotation=180.000|XOffset=0mm|YOffset=0mm|HoleType=Round|Shape=RoundedRectangle|*
%AMROUNDEDRECTD78*
21,1,2.0032,0.9000,0,0,180.0*
21,1,0.9000,2.0032,0,0,180.0*
1,1,1.1032,-0.4500,0.4500*
1,1,1.1032,0.4500,0.4500*
1,1,1.1032,0.4500,-0.4500*
1,1,1.1032,-0.4500,-0.4500*
%
%ADD78ROUNDEDRECTD78*%
%ADD79C,1.7232*%
G04:AMPARAMS|DCode=80|XSize=1.7232mm|YSize=1.7232mm|CornerRadius=0.4816mm|HoleSize=0mm|Usage=FLASHONLY|Rotation=0.000|XOffset=0mm|YOffset=0mm|HoleType=Round|Shape=RoundedRectangle|*
%AMROUNDEDRECTD80*
21,1,1.7232,0.7600,0,0,0.0*
21,1,0.7600,1.7232,0,0,0.0*
1,1,0.9632,0.3800,-0.3800*
1,1,0.9632,-0.3800,-0.3800*
1,1,0.9632,-0.3800,0.3800*
1,1,0.9632,0.3800,0.3800*
%
%ADD80ROUNDEDRECTD80*%
%ADD81C,0.9032*%
D42*
X893590Y515620D02*
D03*
X864090D02*
D03*
X745980Y267970D02*
D03*
X775480D02*
D03*
X834390Y96520D02*
D03*
X804890D02*
D03*
X780270Y516890D02*
D03*
X809770D02*
D03*
X685020Y515620D02*
D03*
X714520D02*
D03*
X584690Y515000D02*
D03*
X614190D02*
D03*
X511030D02*
D03*
X540530D02*
D03*
X866630Y470000D02*
D03*
X896130D02*
D03*
X781540D02*
D03*
X811040D02*
D03*
X686290D02*
D03*
X715790D02*
D03*
X593090D02*
D03*
X622590D02*
D03*
X543070D02*
D03*
X513570D02*
D03*
X355110Y302260D02*
D03*
X325610D02*
D03*
D43*
X901700Y190010D02*
D03*
Y160510D02*
D03*
X162560Y422130D02*
D03*
Y451630D02*
D03*
X858520Y130320D02*
D03*
Y100820D02*
D03*
X201930Y422420D02*
D03*
Y392920D02*
D03*
D44*
X496780Y321620D02*
D03*
X501780D02*
D03*
X506780D02*
D03*
X511780D02*
D03*
X516780D02*
D03*
X521780D02*
D03*
X526780D02*
D03*
X531780D02*
D03*
X536780D02*
D03*
X541780D02*
D03*
X546780D02*
D03*
X551780D02*
D03*
X556780D02*
D03*
X561780D02*
D03*
X566780D02*
D03*
X571780D02*
D03*
Y208220D02*
D03*
X566780D02*
D03*
X561780D02*
D03*
X556780D02*
D03*
X551780D02*
D03*
X546780D02*
D03*
X541780D02*
D03*
X536780D02*
D03*
X531780D02*
D03*
X526780D02*
D03*
X521780D02*
D03*
X516780D02*
D03*
X511780D02*
D03*
X506780D02*
D03*
X501780D02*
D03*
X496780D02*
D03*
D45*
X590980Y302420D02*
D03*
Y297420D02*
D03*
Y292420D02*
D03*
Y287420D02*
D03*
Y282420D02*
D03*
Y277420D02*
D03*
Y272420D02*
D03*
Y267420D02*
D03*
Y262420D02*
D03*
Y257420D02*
D03*
Y252420D02*
D03*
Y247420D02*
D03*
Y242420D02*
D03*
Y237420D02*
D03*
Y232420D02*
D03*
Y227420D02*
D03*
X477580D02*
D03*
Y232420D02*
D03*
Y237420D02*
D03*
Y242420D02*
D03*
Y247420D02*
D03*
Y252420D02*
D03*
Y257420D02*
D03*
Y262420D02*
D03*
Y267420D02*
D03*
Y272420D02*
D03*
Y277420D02*
D03*
Y282420D02*
D03*
Y287420D02*
D03*
Y292420D02*
D03*
Y297420D02*
D03*
Y302420D02*
D03*
D46*
X237490Y291240D02*
D03*
Y310740D02*
D03*
D47*
X164130Y363880D02*
D03*
Y382880D02*
D03*
X138130Y373380D02*
D03*
X798530Y278740D02*
D03*
Y259740D02*
D03*
X824530Y269240D02*
D03*
X867710Y166370D02*
D03*
X841710Y156870D02*
D03*
Y175870D02*
D03*
D48*
X887730Y115930D02*
D03*
Y97430D02*
D03*
X173990Y512530D02*
D03*
Y494030D02*
D03*
X128270Y82190D02*
D03*
Y100690D02*
D03*
X341630Y193950D02*
D03*
Y212450D02*
D03*
X193040Y201210D02*
D03*
Y219710D02*
D03*
X165100Y235310D02*
D03*
Y216810D02*
D03*
X665480Y223880D02*
D03*
Y205380D02*
D03*
X637540Y217530D02*
D03*
Y199030D02*
D03*
X378460Y382590D02*
D03*
Y364090D02*
D03*
X448310Y380090D02*
D03*
Y361590D02*
D03*
X313690Y383900D02*
D03*
Y365400D02*
D03*
X415290Y382630D02*
D03*
Y364130D02*
D03*
X347980Y383900D02*
D03*
Y365400D02*
D03*
X420370Y564240D02*
D03*
Y545740D02*
D03*
X67310Y146600D02*
D03*
Y165100D02*
D03*
X455930Y139340D02*
D03*
Y157840D02*
D03*
X425450Y179430D02*
D03*
Y160930D02*
D03*
D49*
X262610Y563880D02*
D03*
X291110D02*
D03*
D50*
X171450Y548030D02*
D03*
Y567030D02*
D03*
X322580Y570840D02*
D03*
Y551840D02*
D03*
D51*
X222250Y571760D02*
D03*
Y540760D02*
D03*
X160020Y106940D02*
D03*
Y75940D02*
D03*
X99060Y87370D02*
D03*
Y118370D02*
D03*
X652780Y145040D02*
D03*
Y114040D02*
D03*
X571500Y152660D02*
D03*
Y121660D02*
D03*
X256540Y352800D02*
D03*
Y383800D02*
D03*
X354330Y528060D02*
D03*
Y559060D02*
D03*
X388620Y535680D02*
D03*
Y566680D02*
D03*
X233680Y636010D02*
D03*
Y667010D02*
D03*
D52*
X176530Y152400D02*
D03*
X158030D02*
D03*
X348890Y245110D02*
D03*
X367390D02*
D03*
X385720Y287020D02*
D03*
X404220D02*
D03*
X225510Y353060D02*
D03*
X207010D02*
D03*
X127910Y264160D02*
D03*
X146410D02*
D03*
X908410Y246380D02*
D03*
X889910D02*
D03*
X290470Y524510D02*
D03*
X308970D02*
D03*
D53*
X64510Y234950D02*
D03*
X95510D02*
D03*
X130550Y295910D02*
D03*
X161550D02*
D03*
X650500Y247650D02*
D03*
X619500D02*
D03*
X567950Y351790D02*
D03*
X536950D02*
D03*
X509010Y179070D02*
D03*
X540010D02*
D03*
X679450Y276860D02*
D03*
X648450D02*
D03*
X679710Y303530D02*
D03*
X648710D02*
D03*
X409950Y254000D02*
D03*
X440950D02*
D03*
X899420Y430530D02*
D03*
X868420D02*
D03*
X814330Y431800D02*
D03*
X783330D02*
D03*
X717810Y435610D02*
D03*
X686810D02*
D03*
X626370D02*
D03*
X595370D02*
D03*
X512820Y436880D02*
D03*
X543820D02*
D03*
X267710Y295910D02*
D03*
X298710D02*
D03*
X307600Y248920D02*
D03*
X276600D02*
D03*
D54*
X149890Y328930D02*
D03*
X121890D02*
D03*
D55*
X716280Y123950D02*
D03*
X728980D02*
D03*
X741680D02*
D03*
X754380D02*
D03*
X767080D02*
D03*
X779780D02*
D03*
X792480D02*
D03*
X805180D02*
D03*
X716280Y218950D02*
D03*
X728980D02*
D03*
X741680D02*
D03*
X754380D02*
D03*
X767080D02*
D03*
X779780D02*
D03*
X792480D02*
D03*
X805180D02*
D03*
D56*
X577920Y375920D02*
D03*
X554920D02*
D03*
D57*
X622300Y292470D02*
D03*
Y306970D02*
D03*
D58*
X452120Y422570D02*
D03*
Y443570D02*
D03*
X316230Y423840D02*
D03*
Y444840D02*
D03*
X349250Y422570D02*
D03*
Y443570D02*
D03*
X379730Y422840D02*
D03*
Y443840D02*
D03*
X419100Y422570D02*
D03*
Y443570D02*
D03*
X452120Y536870D02*
D03*
Y557870D02*
D03*
X213360Y492420D02*
D03*
Y513420D02*
D03*
X260350Y523580D02*
D03*
Y502580D02*
D03*
D59*
X426720Y598420D02*
D03*
D60*
X403720Y661420D02*
D03*
X426720D02*
D03*
X449720D02*
D03*
D61*
X91990Y433070D02*
D03*
X116290Y442570D02*
D03*
Y423570D02*
D03*
D62*
X888640Y658910D02*
D03*
Y567910D02*
D03*
X843640D02*
D03*
Y658910D02*
D03*
X799740D02*
D03*
Y567910D02*
D03*
X754740D02*
D03*
Y658910D02*
D03*
X710840D02*
D03*
Y567910D02*
D03*
X665840D02*
D03*
Y658910D02*
D03*
X621940D02*
D03*
Y567910D02*
D03*
X576940D02*
D03*
Y658910D02*
D03*
X538120D02*
D03*
Y567910D02*
D03*
X493120D02*
D03*
Y658910D02*
D03*
D63*
X309880Y217750D02*
D03*
X297180D02*
D03*
X284480D02*
D03*
X271780D02*
D03*
X259080D02*
D03*
X246380D02*
D03*
X233680D02*
D03*
X309880Y163250D02*
D03*
X297180D02*
D03*
X284480D02*
D03*
X271780D02*
D03*
X259080D02*
D03*
X246380D02*
D03*
X233680D02*
D03*
D64*
X616810Y129910D02*
D03*
X610310D02*
D03*
X603810D02*
D03*
X597310D02*
D03*
Y144410D02*
D03*
X603810D02*
D03*
X610310D02*
D03*
X616810D02*
D03*
D65*
X141540Y646430D02*
D03*
X181040D02*
D03*
D66*
X972820Y454660D02*
D03*
Y480060D02*
D03*
X947420Y454660D02*
D03*
Y480060D02*
D03*
X972820Y505460D02*
D03*
X947420D02*
D03*
Y530860D02*
D03*
X946150Y213360D02*
D03*
Y187960D02*
D03*
X971550D02*
D03*
X946150Y162560D02*
D03*
Y137160D02*
D03*
X971550Y162560D02*
D03*
Y137160D02*
D03*
X323850Y624840D02*
D03*
X349250D02*
D03*
X298450D02*
D03*
D67*
X972820Y530860D02*
D03*
X971550Y213360D02*
D03*
D68*
X373650Y80000D02*
D03*
X193600D02*
D03*
X283600D02*
D03*
D69*
X399050Y105400D02*
D03*
X424450Y80000D02*
D03*
X244400D02*
D03*
X219000Y105400D02*
D03*
X334400Y80000D02*
D03*
X309000Y105400D02*
D03*
D70*
X27940Y279400D02*
D03*
Y322580D02*
D03*
D71*
X53340Y279400D02*
D03*
Y322580D02*
D03*
D72*
X36830Y401320D02*
D03*
X27940Y231140D02*
D03*
Y205740D02*
D03*
Y180340D02*
D03*
Y154940D02*
D03*
D73*
X36830Y426720D02*
D03*
D74*
X938530Y289660D02*
D03*
Y365660D02*
D03*
D75*
X50000Y650000D02*
D03*
X950000Y650000D02*
D03*
X50000Y50000D02*
D03*
X950000Y50000D02*
D03*
D76*
X138250Y547370D02*
D03*
X80250D02*
D03*
D77*
X108250Y499370D02*
D03*
D78*
X27940Y129540D02*
D03*
D79*
X774700Y46990D02*
D03*
X723900D02*
D03*
X647700D02*
D03*
X546100D02*
D03*
X520700D02*
D03*
X571500D02*
D03*
X596900D02*
D03*
X622300D02*
D03*
X673100D02*
D03*
X698500D02*
D03*
X749300D02*
D03*
X800100D02*
D03*
X825500D02*
D03*
X850900D02*
D03*
X876300D02*
D03*
D80*
X495300D02*
D03*
D81*
X548640Y300990D02*
D03*
X568960Y299720D02*
D03*
X860000Y400000D02*
D03*
X899848Y400152D02*
D03*
X680000Y360000D02*
D03*
X640000D02*
D03*
X594143Y365857D02*
D03*
X880000Y360000D02*
D03*
X940000Y400000D02*
D03*
X860000Y320000D02*
D03*
X620000D02*
D03*
X106680Y46990D02*
D03*
X670560Y135890D02*
D03*
X579120Y166370D02*
D03*
X960000Y600000D02*
D03*
X980000Y560000D02*
D03*
X960000Y440000D02*
D03*
X980000Y400000D02*
D03*
X960000Y360000D02*
D03*
X980000Y320000D02*
D03*
X960000Y280000D02*
D03*
X980000Y240000D02*
D03*
X960000Y120000D02*
D03*
X980000Y80000D02*
D03*
X920000Y680000D02*
D03*
Y600000D02*
D03*
X940000Y560000D02*
D03*
X920000Y520000D02*
D03*
Y440000D02*
D03*
Y360000D02*
D03*
X940000Y320000D02*
D03*
Y240000D02*
D03*
X920000Y200000D02*
D03*
Y120000D02*
D03*
X880000Y680000D02*
D03*
X900000Y640000D02*
D03*
X880000Y600000D02*
D03*
Y520000D02*
D03*
Y440000D02*
D03*
Y280000D02*
D03*
Y200000D02*
D03*
X900000Y80000D02*
D03*
X840000Y680000D02*
D03*
X860000Y640000D02*
D03*
X840000Y600000D02*
D03*
X860000Y560000D02*
D03*
X840000Y520000D02*
D03*
Y360000D02*
D03*
Y280000D02*
D03*
X860000Y240000D02*
D03*
X840000Y200000D02*
D03*
Y120000D02*
D03*
X860000Y80000D02*
D03*
X800000Y680000D02*
D03*
X820000Y640000D02*
D03*
X800000Y600000D02*
D03*
X820000Y560000D02*
D03*
X800000Y440000D02*
D03*
X820000Y400000D02*
D03*
X800000Y360000D02*
D03*
X820000Y320000D02*
D03*
Y240000D02*
D03*
X800000Y200000D02*
D03*
X820000Y80000D02*
D03*
X760000Y680000D02*
D03*
X780000Y640000D02*
D03*
X760000Y600000D02*
D03*
X780000Y560000D02*
D03*
X760000Y520000D02*
D03*
Y440000D02*
D03*
X780000Y320000D02*
D03*
X760000Y280000D02*
D03*
X780000Y240000D02*
D03*
Y80000D02*
D03*
X720000Y680000D02*
D03*
X740000Y640000D02*
D03*
X720000Y600000D02*
D03*
X740000Y560000D02*
D03*
Y480000D02*
D03*
Y400000D02*
D03*
X720000Y360000D02*
D03*
X740000Y320000D02*
D03*
X720000Y280000D02*
D03*
X680000Y680000D02*
D03*
X700000Y640000D02*
D03*
X680000Y600000D02*
D03*
X700000Y400000D02*
D03*
Y320000D02*
D03*
Y80000D02*
D03*
X640000Y680000D02*
D03*
X660000Y640000D02*
D03*
X640000Y600000D02*
D03*
Y520000D02*
D03*
Y440000D02*
D03*
X660000Y320000D02*
D03*
X600000Y680000D02*
D03*
X620000Y640000D02*
D03*
X600000Y600000D02*
D03*
Y520000D02*
D03*
X620000Y400000D02*
D03*
X560000Y680000D02*
D03*
X580000Y640000D02*
D03*
X560000Y600000D02*
D03*
Y520000D02*
D03*
X580000Y480000D02*
D03*
X560000Y440000D02*
D03*
X580000Y400000D02*
D03*
Y80000D02*
D03*
X560000Y40000D02*
D03*
X520000Y680000D02*
D03*
X540000Y640000D02*
D03*
X520000Y600000D02*
D03*
X540000Y160000D02*
D03*
X520000Y120000D02*
D03*
X540000Y80000D02*
D03*
X480000Y680000D02*
D03*
X500000Y640000D02*
D03*
X480000Y600000D02*
D03*
Y520000D02*
D03*
Y440000D02*
D03*
X500000Y400000D02*
D03*
X480000Y360000D02*
D03*
Y200000D02*
D03*
X500000Y160000D02*
D03*
X480000Y120000D02*
D03*
Y40000D02*
D03*
X440000Y680000D02*
D03*
X460000Y640000D02*
D03*
X440000Y520000D02*
D03*
X460000Y480000D02*
D03*
X440000Y440000D02*
D03*
X460000Y400000D02*
D03*
Y320000D02*
D03*
X440000Y120000D02*
D03*
Y40000D02*
D03*
X400000Y680000D02*
D03*
Y520000D02*
D03*
X420000Y480000D02*
D03*
X400000Y440000D02*
D03*
Y360000D02*
D03*
Y120000D02*
D03*
Y40000D02*
D03*
X360000Y680000D02*
D03*
X380000Y640000D02*
D03*
X360000Y600000D02*
D03*
X380000Y480000D02*
D03*
Y320000D02*
D03*
X360000Y280000D02*
D03*
X380000Y240000D02*
D03*
Y160000D02*
D03*
X320000Y680000D02*
D03*
X340000Y640000D02*
D03*
X320000Y600000D02*
D03*
X340000Y480000D02*
D03*
Y400000D02*
D03*
Y320000D02*
D03*
Y160000D02*
D03*
X320000Y120000D02*
D03*
X280000Y680000D02*
D03*
X300000Y640000D02*
D03*
X280000Y600000D02*
D03*
X300000Y480000D02*
D03*
X280000Y440000D02*
D03*
X300000Y400000D02*
D03*
X280000Y360000D02*
D03*
X300000Y320000D02*
D03*
X280000Y120000D02*
D03*
X300000Y80000D02*
D03*
X240000Y680000D02*
D03*
X260000Y640000D02*
D03*
X240000Y600000D02*
D03*
Y440000D02*
D03*
Y360000D02*
D03*
X260000Y320000D02*
D03*
X240000Y120000D02*
D03*
X200000Y680000D02*
D03*
X220000Y640000D02*
D03*
X200000Y520000D02*
D03*
X220000Y480000D02*
D03*
X200000Y440000D02*
D03*
X220000Y400000D02*
D03*
Y320000D02*
D03*
X200000Y280000D02*
D03*
X220000Y160000D02*
D03*
X200000Y120000D02*
D03*
X160000Y680000D02*
D03*
Y600000D02*
D03*
X180000Y480000D02*
D03*
X160000Y440000D02*
D03*
X180000Y320000D02*
D03*
X160000Y280000D02*
D03*
X180000Y240000D02*
D03*
X160000Y200000D02*
D03*
X180000Y80000D02*
D03*
X160000Y40000D02*
D03*
X120000Y680000D02*
D03*
Y600000D02*
D03*
Y520000D02*
D03*
X140000Y480000D02*
D03*
X120000Y360000D02*
D03*
Y280000D02*
D03*
X140000Y240000D02*
D03*
X120000Y200000D02*
D03*
X140000Y160000D02*
D03*
X120000Y120000D02*
D03*
X80000Y680000D02*
D03*
X100000Y640000D02*
D03*
X80000Y600000D02*
D03*
X100000Y560000D02*
D03*
X80000Y520000D02*
D03*
X100000Y480000D02*
D03*
Y400000D02*
D03*
X80000Y360000D02*
D03*
Y280000D02*
D03*
Y200000D02*
D03*
Y120000D02*
D03*
X40000Y600000D02*
D03*
X60000Y560000D02*
D03*
X40000Y520000D02*
D03*
X60000Y480000D02*
D03*
Y400000D02*
D03*
X40000Y360000D02*
D03*
X218487Y213360D02*
D03*
X279400Y181610D02*
D03*
X181610Y33020D02*
D03*
X128270Y265430D02*
D03*
X494030Y261190D02*
D03*
X457200Y239420D02*
D03*
X132080Y294640D02*
D03*
X233680Y213360D02*
D03*
X494030Y234950D02*
D03*
Y247650D02*
D03*
X429260Y217170D02*
D03*
X426720Y207010D02*
D03*
X615950Y265430D02*
D03*
X631190Y146050D02*
D03*
X426720Y628650D02*
D03*
X234950Y267970D02*
D03*
X309880Y331470D02*
D03*
X392430Y243840D02*
D03*
X889000Y115570D02*
D03*
X787400Y99060D02*
D03*
X574040Y238675D02*
D03*
X494030Y337820D02*
D03*
X563880Y284480D02*
D03*
X554990Y276860D02*
D03*
X514350Y358140D02*
D03*
X609290Y218833D02*
D03*
X494030Y355600D02*
D03*
X601980Y207010D02*
D03*
X619763Y200753D02*
D03*
X262890Y104140D02*
D03*
X283210Y143510D02*
D03*
X595630Y435610D02*
D03*
X687070D02*
D03*
X783590Y430530D02*
D03*
X867410Y469900D02*
D03*
X543560Y436880D02*
D03*
X562610Y265430D02*
D03*
X792480Y123190D02*
D03*
X779780Y127000D02*
D03*
X671830Y173990D02*
D03*
X50000Y677500D02*
D03*
X70000Y670000D02*
D03*
X77500Y650000D02*
D03*
X70000Y630000D02*
D03*
X50000Y622500D02*
D03*
X30000Y630000D02*
D03*
X22500Y650000D02*
D03*
X30000Y670000D02*
D03*
X950000Y677500D02*
D03*
X970000Y670000D02*
D03*
X977500Y650000D02*
D03*
X970000Y630000D02*
D03*
X950000Y622500D02*
D03*
X930000Y630000D02*
D03*
X922500Y650000D02*
D03*
X930000Y670000D02*
D03*
X50000Y77500D02*
D03*
X70000Y70000D02*
D03*
X77500Y50000D02*
D03*
X70000Y30000D02*
D03*
X50000Y22500D02*
D03*
X30000Y30000D02*
D03*
X22500Y50000D02*
D03*
X30000Y70000D02*
D03*
X950000Y77500D02*
D03*
X970000Y70000D02*
D03*
X977500Y50000D02*
D03*
X970000Y30000D02*
D03*
X950000Y22500D02*
D03*
X930000Y30000D02*
D03*
X922500Y50000D02*
D03*
X930000Y70000D02*
D03*
M02*
