G04*
G04 #@! TF.GenerationSoftware,Altium Limited,Altium Designer,24.1.2 (44)*
G04*
G04 Layer_Physical_Order=4*
G04 Layer_Color=16711680*
%FSLAX44Y44*%
%MOMM*%
G71*
G04*
G04 #@! TF.SameCoordinates,6BD88CD4-1E97-4B61-92EF-30D8DD190105*
G04*
G04*
G04 #@! TF.FilePolarity,Positive*
G04*
G01*
G75*
%ADD17C,0.2540*%
%ADD83C,0.3000*%
%ADD85C,1.5000*%
G04:AMPARAMS|DCode=86|XSize=1.5mm|YSize=1.5mm|CornerRadius=0.375mm|HoleSize=0mm|Usage=FLASHONLY|Rotation=270.000|XOffset=0mm|YOffset=0mm|HoleType=Round|Shape=RoundedRectangle|*
%AMROUNDEDRECTD86*
21,1,1.5000,0.7500,0,0,270.0*
21,1,0.7500,1.5000,0,0,270.0*
1,1,0.7500,-0.3750,-0.3750*
1,1,0.7500,-0.3750,0.3750*
1,1,0.7500,0.3750,0.3750*
1,1,0.7500,0.3750,-0.3750*
%
%ADD86ROUNDEDRECTD86*%
%ADD87R,1.2220X1.2220*%
%ADD88C,1.2220*%
%ADD89R,1.5400X1.5240*%
%ADD90O,1.5400X1.5240*%
%ADD91C,1.8000*%
%ADD92R,1.8000X1.8000*%
%ADD93C,1.4080*%
%ADD94C,7.0000*%
G04:AMPARAMS|DCode=95|XSize=4mm|YSize=1.8mm|CornerRadius=0.45mm|HoleSize=0mm|Usage=FLASHONLY|Rotation=90.000|XOffset=0mm|YOffset=0mm|HoleType=Round|Shape=RoundedRectangle|*
%AMROUNDEDRECTD95*
21,1,4.0000,0.9000,0,0,90.0*
21,1,3.1000,1.8000,0,0,90.0*
1,1,0.9000,0.4500,1.5500*
1,1,0.9000,0.4500,-1.5500*
1,1,0.9000,-0.4500,-1.5500*
1,1,0.9000,-0.4500,1.5500*
%
%ADD95ROUNDEDRECTD95*%
G04:AMPARAMS|DCode=96|XSize=4mm|YSize=1.8mm|CornerRadius=0.45mm|HoleSize=0mm|Usage=FLASHONLY|Rotation=180.000|XOffset=0mm|YOffset=0mm|HoleType=Round|Shape=RoundedRectangle|*
%AMROUNDEDRECTD96*
21,1,4.0000,0.9000,0,0,180.0*
21,1,3.1000,1.8000,0,0,180.0*
1,1,0.9000,-1.5500,0.4500*
1,1,0.9000,1.5500,0.4500*
1,1,0.9000,1.5500,-0.4500*
1,1,0.9000,-1.5500,-0.4500*
%
%ADD96ROUNDEDRECTD96*%
G04:AMPARAMS|DCode=97|XSize=1.8mm|YSize=1.8mm|CornerRadius=0.45mm|HoleSize=0mm|Usage=FLASHONLY|Rotation=180.000|XOffset=0mm|YOffset=0mm|HoleType=Round|Shape=RoundedRectangle|*
%AMROUNDEDRECTD97*
21,1,1.8000,0.9000,0,0,180.0*
21,1,0.9000,1.8000,0,0,180.0*
1,1,0.9000,-0.4500,0.4500*
1,1,0.9000,0.4500,0.4500*
1,1,0.9000,0.4500,-0.4500*
1,1,0.9000,-0.4500,-0.4500*
%
%ADD97ROUNDEDRECTD97*%
%ADD98C,1.5200*%
G04:AMPARAMS|DCode=99|XSize=1.52mm|YSize=1.52mm|CornerRadius=0.38mm|HoleSize=0mm|Usage=FLASHONLY|Rotation=0.000|XOffset=0mm|YOffset=0mm|HoleType=Round|Shape=RoundedRectangle|*
%AMROUNDEDRECTD99*
21,1,1.5200,0.7600,0,0,0.0*
21,1,0.7600,1.5200,0,0,0.0*
1,1,0.7600,0.3800,-0.3800*
1,1,0.7600,-0.3800,-0.3800*
1,1,0.7600,-0.3800,0.3800*
1,1,0.7600,0.3800,0.3800*
%
%ADD99ROUNDEDRECTD99*%
%ADD100C,0.7000*%
G04:AMPARAMS|DCode=101|XSize=5mm|YSize=4mm|CornerRadius=1mm|HoleSize=0mm|Usage=FLASHONLY|Rotation=0.000|XOffset=0mm|YOffset=0mm|HoleType=Round|Shape=RoundedRectangle|*
%AMROUNDEDRECTD101*
21,1,5.0000,2.0000,0,0,0.0*
21,1,3.0000,4.0000,0,0,0.0*
1,1,2.0000,1.5000,-1.0000*
1,1,2.0000,-1.5000,-1.0000*
1,1,2.0000,-1.5000,1.0000*
1,1,2.0000,1.5000,1.0000*
%
%ADD101ROUNDEDRECTD101*%
G36*
X950000Y700000D02*
X953277D01*
X959775Y699144D01*
X966106Y697448D01*
X972162Y694940D01*
X977838Y691663D01*
X983038Y687673D01*
X987673Y683038D01*
X991663Y677838D01*
X994940Y672162D01*
X997448Y666106D01*
X999144Y659775D01*
X1000000Y653277D01*
Y650000D01*
X1000000Y650000D01*
X1000000Y650000D01*
X1000000Y50000D01*
Y46723D01*
X999145Y40224D01*
X997448Y33893D01*
X994940Y27838D01*
X991663Y22162D01*
X987673Y16962D01*
X983038Y12327D01*
X977838Y8337D01*
X972162Y5060D01*
X966106Y2552D01*
X959775Y856D01*
X953277Y0D01*
X950000Y0D01*
X360610Y0D01*
X360423Y1270D01*
X362719Y3031D01*
X364642Y5538D01*
X365851Y8457D01*
X366264Y11590D01*
Y31590D01*
X365851Y34723D01*
X364642Y37642D01*
X362719Y40149D01*
X360212Y42072D01*
X357293Y43281D01*
X354160Y43693D01*
X324160D01*
X321027Y43281D01*
X318108Y42072D01*
X315602Y40149D01*
X313678Y37642D01*
X312469Y34723D01*
X312056Y31590D01*
Y29930D01*
X310883Y29444D01*
X266459Y73868D01*
Y99910D01*
X266855Y100175D01*
X268071Y101994D01*
X268498Y104140D01*
X268071Y106286D01*
X266855Y108105D01*
X265036Y109321D01*
X262890Y109748D01*
X260744Y109321D01*
X258925Y108105D01*
X257709Y106286D01*
X257282Y104140D01*
X257709Y101994D01*
X258925Y100175D01*
X259321Y99910D01*
Y72390D01*
X259593Y71024D01*
X260367Y69867D01*
X308894Y21339D01*
X310052Y20566D01*
X311417Y20294D01*
X312056D01*
Y11590D01*
X312469Y8457D01*
X313678Y5538D01*
X315602Y3031D01*
X317897Y1270D01*
X317710Y0D01*
X285610D01*
X285423Y1270D01*
X287719Y3031D01*
X289642Y5538D01*
X290851Y8457D01*
X291264Y11590D01*
Y31590D01*
X290851Y34723D01*
X289642Y37642D01*
X287719Y40149D01*
X285212Y42072D01*
X282293Y43281D01*
X279160Y43693D01*
X249160D01*
X248689Y43632D01*
X247734Y44469D01*
Y72603D01*
X248490Y72916D01*
X250184Y74216D01*
X251484Y75910D01*
X252301Y77883D01*
X252580Y80000D01*
X252301Y82117D01*
X251484Y84090D01*
X250184Y85784D01*
X248490Y87084D01*
X246517Y87901D01*
X244400Y88180D01*
X242283Y87901D01*
X240310Y87084D01*
X238616Y85784D01*
X237316Y84090D01*
X236499Y82117D01*
X236220Y80000D01*
X236499Y77883D01*
X237316Y75910D01*
X238616Y74216D01*
X240310Y72916D01*
X241066Y72603D01*
Y41075D01*
X241164Y40580D01*
X240602Y40149D01*
X238678Y37642D01*
X237469Y34723D01*
X237056Y31590D01*
Y11590D01*
X237469Y8457D01*
X238678Y5538D01*
X240602Y3031D01*
X242897Y1270D01*
X242710Y0D01*
X215552D01*
X215121Y1270D01*
X216668Y2457D01*
X218592Y4964D01*
X219801Y7883D01*
X220214Y11016D01*
Y31016D01*
X219801Y34149D01*
X218592Y37068D01*
X216668Y39574D01*
X214162Y41498D01*
X211243Y42707D01*
X208110Y43120D01*
X196679D01*
Y51932D01*
X282742Y137995D01*
X283210Y137902D01*
X285356Y138329D01*
X287175Y139545D01*
X288391Y141364D01*
X288818Y143510D01*
X288391Y145656D01*
X288277Y145826D01*
X288876Y146946D01*
X327129D01*
X396432Y77642D01*
X397514Y76920D01*
X398790Y76666D01*
X417053D01*
X417366Y75910D01*
X418666Y74216D01*
X420360Y72916D01*
X422333Y72099D01*
X424450Y71820D01*
X426567Y72099D01*
X428540Y72916D01*
X430234Y74216D01*
X431534Y75910D01*
X432351Y77883D01*
X432630Y80000D01*
X432351Y82117D01*
X431534Y84090D01*
X430234Y85784D01*
X428540Y87084D01*
X426567Y87901D01*
X424450Y88180D01*
X422333Y87901D01*
X420360Y87084D01*
X418666Y85784D01*
X417366Y84090D01*
X417053Y83334D01*
X400171D01*
X330868Y152638D01*
X329786Y153360D01*
X328510Y153614D01*
X282948D01*
X223947Y212615D01*
X224095Y213360D01*
X223668Y215506D01*
X222453Y217325D01*
X222324Y217411D01*
X222709Y218681D01*
X229458D01*
X229844Y217411D01*
X229715Y217325D01*
X228499Y215506D01*
X228072Y213360D01*
X228499Y211214D01*
X229715Y209395D01*
X231534Y208179D01*
X233680Y207752D01*
X234425Y207900D01*
X246562Y195763D01*
X247644Y195040D01*
X248920Y194786D01*
X431800D01*
X433076Y195040D01*
X434157Y195763D01*
X444318Y205922D01*
X445040Y207004D01*
X445294Y208280D01*
Y232373D01*
X450764Y237843D01*
X451979Y237474D01*
X452019Y237274D01*
X453235Y235455D01*
X453631Y235190D01*
Y199598D01*
X439212Y185179D01*
X283630D01*
X283365Y185575D01*
X281546Y186791D01*
X279400Y187218D01*
X277254Y186791D01*
X275435Y185575D01*
X274219Y183756D01*
X273792Y181610D01*
X274219Y179464D01*
X275435Y177645D01*
X277254Y176429D01*
X279400Y176002D01*
X281546Y176429D01*
X283365Y177645D01*
X283630Y178041D01*
X440690D01*
X442056Y178313D01*
X443213Y179087D01*
X459723Y195597D01*
X460497Y196754D01*
X460769Y198120D01*
Y235190D01*
X461165Y235455D01*
X462381Y237274D01*
X462808Y239420D01*
X462381Y241566D01*
X461392Y243046D01*
X461884Y244316D01*
X489643D01*
X490065Y243685D01*
X491884Y242469D01*
X493797Y242089D01*
X494256Y241366D01*
X494436Y240828D01*
X494205Y240523D01*
X494030Y240558D01*
X491884Y240131D01*
X490065Y238915D01*
X488849Y237096D01*
X488422Y234950D01*
X488849Y232804D01*
X490065Y230985D01*
X491884Y229769D01*
X494030Y229342D01*
X496176Y229769D01*
X497995Y230985D01*
X499211Y232804D01*
X499638Y234950D01*
X499490Y235695D01*
X503158Y239363D01*
X503880Y240444D01*
X504134Y241720D01*
Y250454D01*
X503880Y251730D01*
X503158Y252812D01*
X499192Y256777D01*
X498158Y257468D01*
X499211Y259044D01*
X499638Y261190D01*
X499211Y263336D01*
X497995Y265155D01*
X496176Y266371D01*
X494030Y266798D01*
X491884Y266371D01*
X490065Y265155D01*
X489073Y263671D01*
X487977D01*
X486701Y263417D01*
X485619Y262694D01*
X484069Y261144D01*
X235336D01*
X235210Y262414D01*
X235876Y262546D01*
X237096Y262789D01*
X238915Y264005D01*
X240131Y265824D01*
X240558Y267970D01*
X240131Y270116D01*
X238915Y271935D01*
X237096Y273151D01*
X234950Y273578D01*
X232804Y273151D01*
X230985Y271935D01*
X229769Y270116D01*
X229342Y267970D01*
X229769Y265824D01*
X230985Y264005D01*
X232804Y262789D01*
X234024Y262546D01*
X234690Y262414D01*
X234564Y261144D01*
X170291D01*
X137540Y293895D01*
X137688Y294640D01*
X137261Y296786D01*
X136045Y298605D01*
X134226Y299821D01*
X132080Y300248D01*
X129934Y299821D01*
X128115Y298605D01*
X126899Y296786D01*
X126472Y294640D01*
X126899Y292494D01*
X128115Y290675D01*
X129934Y289459D01*
X132080Y289032D01*
X132825Y289180D01*
X166553Y255452D01*
X166909Y255214D01*
X166524Y253944D01*
X144471D01*
X133730Y264685D01*
X133878Y265430D01*
X133451Y267576D01*
X132235Y269395D01*
X130416Y270611D01*
X128270Y271038D01*
X126124Y270611D01*
X124305Y269395D01*
X123089Y267576D01*
X122662Y265430D01*
X123089Y263284D01*
X124305Y261465D01*
X126124Y260249D01*
X128270Y259822D01*
X129015Y259970D01*
X140732Y248253D01*
X141814Y247530D01*
X143090Y247276D01*
X386764D01*
X387363Y246156D01*
X387249Y245986D01*
X386822Y243840D01*
X387249Y241694D01*
X388465Y239875D01*
X390284Y238659D01*
X392430Y238232D01*
X394576Y238659D01*
X396395Y239875D01*
X397611Y241694D01*
X398038Y243840D01*
X397690Y245586D01*
X398441Y246856D01*
X420370D01*
X421646Y247110D01*
X422728Y247833D01*
X423866Y248971D01*
X450802D01*
X451288Y247798D01*
X439603Y236112D01*
X438880Y235030D01*
X438626Y233754D01*
Y209661D01*
X432621Y203657D01*
X431635Y204466D01*
X431901Y204864D01*
X432328Y207010D01*
X431901Y209156D01*
X430936Y210601D01*
X431309Y211970D01*
X431406Y211989D01*
X433225Y213205D01*
X434441Y215024D01*
X434868Y217170D01*
X434441Y219316D01*
X433225Y221135D01*
X431406Y222351D01*
X429260Y222778D01*
X428792Y222685D01*
X417813Y233663D01*
X416656Y234437D01*
X415290Y234709D01*
X38368D01*
X37548Y236688D01*
X35785Y238985D01*
X33488Y240749D01*
X30812Y241857D01*
X27940Y242235D01*
X25068Y241857D01*
X22392Y240749D01*
X20095Y238985D01*
X18332Y236688D01*
X17223Y234012D01*
X16845Y231140D01*
X17223Y228268D01*
X18332Y225592D01*
X20095Y223295D01*
X22392Y221532D01*
X25068Y220423D01*
X27940Y220045D01*
X30812Y220423D01*
X33487Y221532D01*
X35785Y223295D01*
X37548Y225592D01*
X38368Y227571D01*
X413812D01*
X423379Y218004D01*
X423293Y217280D01*
X421959Y216818D01*
X414003Y224773D01*
X412846Y225547D01*
X411480Y225819D01*
X44450D01*
X43084Y225547D01*
X41927Y224773D01*
X32791Y215637D01*
X30812Y216457D01*
X27940Y216835D01*
X25068Y216457D01*
X22392Y215348D01*
X20095Y213585D01*
X18332Y211287D01*
X17223Y208612D01*
X16845Y205740D01*
X17223Y202868D01*
X18332Y200193D01*
X20095Y197895D01*
X22392Y196131D01*
X25068Y195023D01*
X27940Y194645D01*
X30812Y195023D01*
X33487Y196131D01*
X35785Y197895D01*
X37548Y200193D01*
X38657Y202868D01*
X39035Y205740D01*
X38657Y208612D01*
X37837Y210590D01*
X45928Y218681D01*
X214266D01*
X214651Y217411D01*
X214522Y217325D01*
X213307Y215506D01*
X212880Y213360D01*
X213307Y211214D01*
X214522Y209395D01*
X216341Y208179D01*
X218487Y207752D01*
X219232Y207900D01*
X278576Y148556D01*
X279116Y147683D01*
X278735Y146712D01*
X278029Y145656D01*
X277602Y143510D01*
X277695Y143042D01*
X190587Y55933D01*
X189813Y54776D01*
X189541Y53410D01*
Y43120D01*
X178110D01*
X174977Y42707D01*
X172058Y41498D01*
X169552Y39574D01*
X167628Y37068D01*
X166419Y34149D01*
X166006Y31016D01*
Y11016D01*
X166419Y7883D01*
X167628Y4964D01*
X169552Y2457D01*
X171099Y1270D01*
X170668Y0D01*
X140552D01*
X140121Y1270D01*
X141669Y2457D01*
X143592Y4964D01*
X144801Y7883D01*
X145214Y11016D01*
Y31016D01*
X144801Y34149D01*
X143592Y37068D01*
X141669Y39574D01*
X139162Y41498D01*
X136243Y42707D01*
X133110Y43120D01*
X112056D01*
X111457Y44240D01*
X111861Y44844D01*
X112288Y46990D01*
X111861Y49136D01*
X110645Y50955D01*
X108826Y52171D01*
X106680Y52598D01*
X104534Y52171D01*
X102715Y50955D01*
X101499Y49136D01*
X101072Y46990D01*
X101499Y44844D01*
X102020Y44064D01*
X101496Y42907D01*
X99977Y42707D01*
X97058Y41498D01*
X94551Y39574D01*
X92628Y37068D01*
X91419Y34149D01*
X91006Y31016D01*
Y11016D01*
X91419Y7883D01*
X92628Y4964D01*
X94551Y2457D01*
X96099Y1270D01*
X95668Y0D01*
X50000D01*
X46723D01*
X40224Y856D01*
X33893Y2552D01*
X27838Y5060D01*
X22162Y8337D01*
X16962Y12327D01*
X12327Y16962D01*
X8337Y22162D01*
X5060Y27838D01*
X2552Y33893D01*
X856Y40224D01*
X0Y46723D01*
X0Y50000D01*
X0Y650000D01*
Y653277D01*
X856Y659775D01*
X2552Y666106D01*
X5060Y672162D01*
X8337Y677838D01*
X12327Y683038D01*
X16962Y687673D01*
X22162Y691663D01*
X27838Y694940D01*
X33893Y697448D01*
X40224Y699144D01*
X46723Y700000D01*
X50000Y700000D01*
X50000Y700000D01*
X950000Y700000D01*
D02*
G37*
%LPC*%
G36*
X426720Y634258D02*
X424574Y633831D01*
X422755Y632615D01*
X421539Y630796D01*
X421112Y628650D01*
X421539Y626504D01*
X422755Y624685D01*
X424574Y623469D01*
X426720Y623042D01*
X428866Y623469D01*
X430685Y624685D01*
X431901Y626504D01*
X432328Y628650D01*
X431901Y630796D01*
X430685Y632615D01*
X428866Y633831D01*
X426720Y634258D01*
D02*
G37*
G36*
X349250Y634422D02*
X346770Y634095D01*
X344459Y633138D01*
X342475Y631615D01*
X340952Y629631D01*
X339995Y627320D01*
X339668Y624840D01*
X339995Y622360D01*
X340952Y620049D01*
X342475Y618064D01*
X344459Y616542D01*
X346770Y615584D01*
X349250Y615258D01*
X351730Y615584D01*
X354041Y616542D01*
X356025Y618064D01*
X357548Y620049D01*
X358506Y622360D01*
X358832Y624840D01*
X358506Y627320D01*
X357548Y629631D01*
X356025Y631615D01*
X354041Y633138D01*
X351730Y634095D01*
X349250Y634422D01*
D02*
G37*
G36*
X298450D02*
X295970Y634095D01*
X293659Y633138D01*
X291675Y631615D01*
X290152Y629631D01*
X289195Y627320D01*
X288868Y624840D01*
X289195Y622360D01*
X290152Y620049D01*
X291675Y618064D01*
X293659Y616542D01*
X295970Y615584D01*
X298450Y615258D01*
X300930Y615584D01*
X303241Y616542D01*
X305226Y618064D01*
X306748Y620049D01*
X307705Y622360D01*
X308032Y624840D01*
X307705Y627320D01*
X306748Y629631D01*
X305226Y631615D01*
X303241Y633138D01*
X300930Y634095D01*
X298450Y634422D01*
D02*
G37*
G36*
X142750Y569426D02*
X133750D01*
X132053Y569203D01*
X130472Y568548D01*
X129114Y567506D01*
X128072Y566148D01*
X127417Y564567D01*
X127194Y562870D01*
Y531870D01*
X127417Y530173D01*
X128072Y528592D01*
X129114Y527234D01*
X130472Y526192D01*
X132053Y525537D01*
X133750Y525314D01*
X142750D01*
X144447Y525537D01*
X146028Y526192D01*
X147386Y527234D01*
X148428Y528592D01*
X149083Y530173D01*
X149306Y531870D01*
Y562870D01*
X149083Y564567D01*
X148428Y566148D01*
X147386Y567506D01*
X146028Y568548D01*
X144447Y569203D01*
X142750Y569426D01*
D02*
G37*
G36*
X947420Y540442D02*
X944940Y540116D01*
X942629Y539158D01*
X940645Y537635D01*
X939122Y535651D01*
X938165Y533340D01*
X937838Y530860D01*
X938165Y528380D01*
X939122Y526069D01*
X940645Y524085D01*
X942629Y522562D01*
X944940Y521604D01*
X947420Y521278D01*
X949900Y521604D01*
X952211Y522562D01*
X954195Y524085D01*
X955718Y526069D01*
X956675Y528380D01*
X957002Y530860D01*
X956675Y533340D01*
X955718Y535651D01*
X954195Y537635D01*
X952211Y539158D01*
X949900Y540116D01*
X947420Y540442D01*
D02*
G37*
G36*
X976570Y540473D02*
X969070D01*
X966826Y540026D01*
X964924Y538755D01*
X963654Y536853D01*
X963207Y534610D01*
Y527110D01*
X963654Y524866D01*
X964924Y522965D01*
X966826Y521694D01*
X969070Y521247D01*
X976570D01*
X978813Y521694D01*
X980715Y522965D01*
X981986Y524866D01*
X982433Y527110D01*
Y534610D01*
X981986Y536853D01*
X980715Y538755D01*
X978813Y540026D01*
X976570Y540473D01*
D02*
G37*
G36*
X972820Y515042D02*
X970340Y514715D01*
X968029Y513758D01*
X966044Y512235D01*
X964522Y510251D01*
X963565Y507940D01*
X963238Y505460D01*
X963565Y502980D01*
X964522Y500669D01*
X966044Y498685D01*
X968029Y497162D01*
X970340Y496204D01*
X972820Y495878D01*
X975300Y496204D01*
X977611Y497162D01*
X979595Y498685D01*
X981118Y500669D01*
X982076Y502980D01*
X982402Y505460D01*
X982076Y507940D01*
X981118Y510251D01*
X979595Y512235D01*
X977611Y513758D01*
X975300Y514715D01*
X972820Y515042D01*
D02*
G37*
G36*
X947420D02*
X944940Y514715D01*
X942629Y513758D01*
X940645Y512235D01*
X939122Y510251D01*
X938165Y507940D01*
X937838Y505460D01*
X938165Y502980D01*
X938768Y501523D01*
X917249Y480004D01*
X746244D01*
X744968Y479750D01*
X743887Y479027D01*
X738938Y474079D01*
X712631D01*
X711355Y473825D01*
X710273Y473103D01*
X549337Y312167D01*
X548164Y312653D01*
Y383429D01*
X594885Y430150D01*
X595630Y430002D01*
X597776Y430429D01*
X599595Y431645D01*
X600811Y433464D01*
X601238Y435610D01*
X600811Y437756D01*
X599595Y439575D01*
X597776Y440791D01*
X595630Y441218D01*
X593484Y440791D01*
X591665Y439575D01*
X590449Y437756D01*
X590022Y435610D01*
X590170Y434865D01*
X542472Y387168D01*
X541750Y386086D01*
X541496Y384810D01*
Y308360D01*
X540684Y307715D01*
X539509Y308231D01*
Y427782D01*
X543092Y431365D01*
X543560Y431272D01*
X545706Y431699D01*
X547525Y432915D01*
X548741Y434734D01*
X549168Y436880D01*
X548741Y439026D01*
X547525Y440845D01*
X545706Y442061D01*
X543560Y442488D01*
X541414Y442061D01*
X539595Y440845D01*
X538379Y439026D01*
X537952Y436880D01*
X538045Y436412D01*
X533417Y431783D01*
X532643Y430626D01*
X532371Y429260D01*
Y266620D01*
X531101Y266094D01*
X517684Y279511D01*
Y353753D01*
X518315Y354175D01*
X519531Y355994D01*
X519958Y358140D01*
X519531Y360286D01*
X518315Y362105D01*
X516496Y363321D01*
X514350Y363748D01*
X512204Y363321D01*
X510385Y362105D01*
X509169Y360286D01*
X508742Y358140D01*
X509169Y355994D01*
X510385Y354175D01*
X511016Y353753D01*
Y344989D01*
X509843Y344502D01*
X499490Y354855D01*
X499638Y355600D01*
X499211Y357746D01*
X497995Y359565D01*
X496176Y360781D01*
X494030Y361208D01*
X491884Y360781D01*
X490065Y359565D01*
X488849Y357746D01*
X488422Y355600D01*
X488849Y353454D01*
X490065Y351635D01*
X491884Y350419D01*
X494030Y349992D01*
X494775Y350140D01*
X506476Y338439D01*
Y331780D01*
X505511Y331383D01*
X505206Y331359D01*
X499490Y337075D01*
X499638Y337820D01*
X499211Y339966D01*
X497995Y341785D01*
X496176Y343001D01*
X494030Y343428D01*
X491884Y343001D01*
X490065Y341785D01*
X488849Y339966D01*
X488422Y337820D01*
X488849Y335674D01*
X490065Y333855D01*
X491884Y332639D01*
X494030Y332212D01*
X494775Y332360D01*
X499586Y327549D01*
Y274320D01*
X499840Y273044D01*
X500563Y271963D01*
X561102Y211423D01*
X562184Y210700D01*
X563460Y210446D01*
X596314D01*
X596913Y209326D01*
X596799Y209156D01*
X596372Y207010D01*
X596799Y204864D01*
X598015Y203045D01*
X599834Y201829D01*
X601980Y201402D01*
X604126Y201829D01*
X605945Y203045D01*
X606710Y204189D01*
X614097D01*
X614696Y203069D01*
X614582Y202899D01*
X614155Y200753D01*
X614582Y198607D01*
X615798Y196788D01*
X617617Y195572D01*
X619763Y195145D01*
X621909Y195572D01*
X623728Y196788D01*
X623807Y196906D01*
X714733D01*
X733077Y178562D01*
X732941Y177975D01*
X732519Y177324D01*
X676217D01*
X675795Y177955D01*
X673976Y179171D01*
X671830Y179598D01*
X669684Y179171D01*
X667865Y177955D01*
X666649Y176136D01*
X666222Y173990D01*
X666649Y171844D01*
X667865Y170025D01*
X669684Y168809D01*
X671830Y168382D01*
X673976Y168809D01*
X675795Y170025D01*
X676217Y170656D01*
X731409D01*
X774320Y127745D01*
X774172Y127000D01*
X774599Y124854D01*
X775815Y123035D01*
X777634Y121819D01*
X779780Y121392D01*
X781926Y121819D01*
X783745Y123035D01*
X784961Y124854D01*
X785001Y125054D01*
X786216Y125423D01*
X787134Y124505D01*
X786872Y123190D01*
X787299Y121044D01*
X788515Y119225D01*
X790334Y118009D01*
X792480Y117582D01*
X794626Y118009D01*
X796445Y119225D01*
X797661Y121044D01*
X798088Y123190D01*
X797661Y125336D01*
X796445Y127155D01*
X794626Y128371D01*
X792480Y128798D01*
X792306Y128763D01*
X718472Y202598D01*
X717991Y202919D01*
X718376Y204189D01*
X749290D01*
X805977Y147502D01*
X807058Y146780D01*
X808334Y146526D01*
X940767D01*
X940840Y146395D01*
X941095Y145256D01*
X939375Y143935D01*
X937852Y141951D01*
X936895Y139640D01*
X936568Y137160D01*
X936895Y134680D01*
X937852Y132369D01*
X939375Y130385D01*
X941359Y128862D01*
X943670Y127905D01*
X946150Y127578D01*
X948630Y127905D01*
X950941Y128862D01*
X952925Y130385D01*
X954448Y132369D01*
X955406Y134680D01*
X955732Y137160D01*
X955406Y139640D01*
X954448Y141951D01*
X952925Y143935D01*
X951205Y145256D01*
X951460Y146395D01*
X951533Y146526D01*
X957469D01*
X962898Y141097D01*
X962294Y139640D01*
X961968Y137160D01*
X962294Y134680D01*
X963252Y132369D01*
X964774Y130385D01*
X966759Y128862D01*
X969070Y127905D01*
X971550Y127578D01*
X974030Y127905D01*
X976341Y128862D01*
X978325Y130385D01*
X979848Y132369D01*
X980806Y134680D01*
X981132Y137160D01*
X980806Y139640D01*
X979848Y141951D01*
X978325Y143935D01*
X976341Y145458D01*
X974030Y146416D01*
X971550Y146742D01*
X969070Y146416D01*
X967613Y145812D01*
X961208Y152218D01*
X960126Y152940D01*
X958850Y153194D01*
X951533D01*
X951460Y153325D01*
X951205Y154464D01*
X952925Y155785D01*
X954448Y157769D01*
X955406Y160080D01*
X955732Y162560D01*
X955406Y165040D01*
X954448Y167351D01*
X952925Y169335D01*
X950941Y170858D01*
X948630Y171815D01*
X946150Y172142D01*
X943670Y171815D01*
X941359Y170858D01*
X939375Y169335D01*
X937852Y167351D01*
X937248Y165894D01*
X825093D01*
X782134Y208853D01*
X782620Y210026D01*
X937248D01*
X937852Y208569D01*
X939375Y206585D01*
X941359Y205062D01*
X943670Y204104D01*
X946150Y203778D01*
X948630Y204104D01*
X950941Y205062D01*
X952925Y206585D01*
X954448Y208569D01*
X955284Y210588D01*
X956554Y210335D01*
Y199622D01*
X956808Y198346D01*
X957531Y197264D01*
X962898Y191897D01*
X962294Y190440D01*
X961968Y187960D01*
X962294Y185480D01*
X963252Y183169D01*
X964774Y181185D01*
X966759Y179662D01*
X969070Y178704D01*
X971550Y178378D01*
X974030Y178704D01*
X976341Y179662D01*
X978325Y181185D01*
X979848Y183169D01*
X980806Y185480D01*
X981132Y187960D01*
X980806Y190440D01*
X979848Y192751D01*
X978325Y194735D01*
X976341Y196258D01*
X974030Y197215D01*
X971550Y197542D01*
X969070Y197215D01*
X967613Y196612D01*
X963223Y201003D01*
Y214853D01*
X962969Y216129D01*
X962246Y217210D01*
X952058Y227398D01*
X952544Y228571D01*
X969052D01*
X984726Y212897D01*
Y180451D01*
X975487Y171212D01*
X974030Y171815D01*
X971550Y172142D01*
X969070Y171815D01*
X966759Y170858D01*
X964774Y169335D01*
X963252Y167351D01*
X962294Y165040D01*
X961968Y162560D01*
X962294Y160080D01*
X963252Y157769D01*
X964774Y155785D01*
X966759Y154262D01*
X969070Y153305D01*
X971550Y152978D01*
X974030Y153305D01*
X976341Y154262D01*
X978325Y155785D01*
X979848Y157769D01*
X980806Y160080D01*
X981132Y162560D01*
X980806Y165040D01*
X980202Y166497D01*
X990417Y176712D01*
X991140Y177794D01*
X991394Y179070D01*
Y214278D01*
X991140Y215554D01*
X990417Y216635D01*
X972790Y234263D01*
X971708Y234986D01*
X970433Y235239D01*
X579706D01*
X579107Y236359D01*
X579221Y236529D01*
X579648Y238675D01*
X579221Y240821D01*
X578005Y242640D01*
X576186Y243856D01*
X574040Y244283D01*
X571894Y243856D01*
X570075Y242640D01*
X569298Y241479D01*
X567300D01*
X565934Y241207D01*
X565712Y241059D01*
X565358D01*
X539509Y266908D01*
Y293749D01*
X540684Y294265D01*
X541496Y293620D01*
Y271780D01*
X541750Y270504D01*
X542472Y269422D01*
X548822Y263072D01*
X549904Y262350D01*
X551180Y262096D01*
X558223D01*
X558645Y261465D01*
X560464Y260249D01*
X562610Y259822D01*
X564756Y260249D01*
X566575Y261465D01*
X567791Y263284D01*
X568218Y265430D01*
X567791Y267576D01*
X566575Y269395D01*
X564756Y270611D01*
X562610Y271038D01*
X560464Y270611D01*
X558645Y269395D01*
X558223Y268764D01*
X552561D01*
X548164Y273161D01*
Y275969D01*
X548245Y276066D01*
X549092Y275982D01*
X549607Y275728D01*
X549809Y274714D01*
X551025Y272895D01*
X552844Y271679D01*
X554990Y271252D01*
X557136Y271679D01*
X558955Y272895D01*
X560171Y274714D01*
X560598Y276860D01*
X560214Y278787D01*
X560737Y279333D01*
X561244Y279627D01*
X561734Y279299D01*
X563880Y278872D01*
X566026Y279299D01*
X567845Y280515D01*
X569061Y282334D01*
X569488Y284480D01*
X569061Y286626D01*
X567845Y288445D01*
X566026Y289661D01*
X565529Y289760D01*
Y294051D01*
X566649Y294650D01*
X566814Y294539D01*
X568960Y294112D01*
X571106Y294539D01*
X572925Y295755D01*
X573190Y296151D01*
X697230D01*
X698596Y296423D01*
X699753Y297197D01*
X866942Y464385D01*
X867410Y464292D01*
X869556Y464719D01*
X871375Y465935D01*
X872591Y467754D01*
X873018Y469900D01*
X872591Y472046D01*
X872477Y472216D01*
X873076Y473336D01*
X918630D01*
X919906Y473590D01*
X920987Y474313D01*
X943483Y496808D01*
X944940Y496204D01*
X947420Y495878D01*
X949900Y496204D01*
X952211Y497162D01*
X954195Y498685D01*
X955718Y500669D01*
X956675Y502980D01*
X957002Y505460D01*
X956675Y507940D01*
X955718Y510251D01*
X954195Y512235D01*
X952211Y513758D01*
X949900Y514715D01*
X947420Y515042D01*
D02*
G37*
G36*
X972820Y489642D02*
X970340Y489315D01*
X968029Y488358D01*
X966044Y486835D01*
X964522Y484851D01*
X963565Y482540D01*
X963238Y480060D01*
X963565Y477580D01*
X964522Y475269D01*
X966044Y473284D01*
X968029Y471762D01*
X970340Y470804D01*
X972820Y470478D01*
X975300Y470804D01*
X977611Y471762D01*
X979595Y473284D01*
X981118Y475269D01*
X982076Y477580D01*
X982402Y480060D01*
X982076Y482540D01*
X981118Y484851D01*
X979595Y486835D01*
X977611Y488358D01*
X975300Y489315D01*
X972820Y489642D01*
D02*
G37*
G36*
X947420D02*
X944940Y489315D01*
X942629Y488358D01*
X940645Y486835D01*
X939122Y484851D01*
X938165Y482540D01*
X937838Y480060D01*
X938165Y477580D01*
X939122Y475269D01*
X940645Y473284D01*
X942629Y471762D01*
X944940Y470804D01*
X947420Y470478D01*
X949900Y470804D01*
X952211Y471762D01*
X954195Y473284D01*
X955718Y475269D01*
X956675Y477580D01*
X957002Y480060D01*
X956675Y482540D01*
X955718Y484851D01*
X954195Y486835D01*
X952211Y488358D01*
X949900Y489315D01*
X947420Y489642D01*
D02*
G37*
G36*
X972820Y464242D02*
X970340Y463915D01*
X968029Y462958D01*
X966044Y461435D01*
X964522Y459451D01*
X963565Y457140D01*
X963238Y454660D01*
X963565Y452180D01*
X964522Y449869D01*
X966044Y447884D01*
X968029Y446362D01*
X970340Y445405D01*
X972820Y445078D01*
X975300Y445405D01*
X977611Y446362D01*
X979595Y447884D01*
X981118Y449869D01*
X982076Y452180D01*
X982402Y454660D01*
X982076Y457140D01*
X981118Y459451D01*
X979595Y461435D01*
X977611Y462958D01*
X975300Y463915D01*
X972820Y464242D01*
D02*
G37*
G36*
X47830Y437720D02*
X25830D01*
Y415720D01*
X47830D01*
Y437720D01*
D02*
G37*
G36*
X36830Y412415D02*
X33958Y412037D01*
X31282Y410928D01*
X28985Y409165D01*
X27222Y406867D01*
X26113Y404192D01*
X25735Y401320D01*
X26113Y398448D01*
X27222Y395773D01*
X28985Y393475D01*
X31282Y391712D01*
X33958Y390603D01*
X36830Y390225D01*
X39702Y390603D01*
X42378Y391712D01*
X44675Y393475D01*
X46438Y395773D01*
X47547Y398448D01*
X47925Y401320D01*
X47547Y404192D01*
X46438Y406867D01*
X44675Y409165D01*
X42378Y410928D01*
X39702Y412037D01*
X36830Y412415D01*
D02*
G37*
G36*
X938530Y374778D02*
X936170Y374467D01*
X933971Y373556D01*
X932083Y372107D01*
X930634Y370219D01*
X929723Y368020D01*
X929412Y365660D01*
X929723Y363300D01*
X930634Y361101D01*
X932083Y359213D01*
X933971Y357764D01*
X936170Y356853D01*
X938530Y356542D01*
X940890Y356853D01*
X943089Y357764D01*
X944977Y359213D01*
X946426Y361101D01*
X947337Y363300D01*
X947648Y365660D01*
X947337Y368020D01*
X946426Y370219D01*
X944977Y372107D01*
X943089Y373556D01*
X940890Y374467D01*
X938530Y374778D01*
D02*
G37*
G36*
X309880Y337078D02*
X307734Y336651D01*
X305915Y335435D01*
X304699Y333616D01*
X304272Y331470D01*
X304699Y329324D01*
X305915Y327505D01*
X307734Y326289D01*
X309880Y325862D01*
X312026Y326289D01*
X313845Y327505D01*
X315061Y329324D01*
X315488Y331470D01*
X315061Y333616D01*
X313845Y335435D01*
X312026Y336651D01*
X309880Y337078D01*
D02*
G37*
G36*
X37640Y332200D02*
X18240D01*
Y312960D01*
X37640D01*
Y332200D01*
D02*
G37*
G36*
X53420Y332283D02*
X53260D01*
X50749Y331952D01*
X48408Y330983D01*
X46399Y329441D01*
X44857Y327431D01*
X43888Y325091D01*
X43557Y322580D01*
X43888Y320069D01*
X44857Y317729D01*
X46399Y315719D01*
X48408Y314177D01*
X50749Y313208D01*
X53260Y312877D01*
X53420D01*
X55931Y313208D01*
X58271Y314177D01*
X60281Y315719D01*
X61823Y317729D01*
X62792Y320069D01*
X63123Y322580D01*
X62792Y325091D01*
X61823Y327431D01*
X60281Y329441D01*
X58271Y330983D01*
X55931Y331952D01*
X53420Y332283D01*
D02*
G37*
G36*
X938530Y298778D02*
X936170Y298467D01*
X933971Y297556D01*
X932083Y296107D01*
X930634Y294219D01*
X929723Y292020D01*
X929412Y289660D01*
X929723Y287300D01*
X930634Y285101D01*
X932083Y283213D01*
X933971Y281764D01*
X936170Y280853D01*
X938530Y280542D01*
X940890Y280853D01*
X943089Y281764D01*
X944977Y283213D01*
X946426Y285101D01*
X947337Y287300D01*
X947648Y289660D01*
X947337Y292020D01*
X946426Y294219D01*
X944977Y296107D01*
X943089Y297556D01*
X940890Y298467D01*
X938530Y298778D01*
D02*
G37*
G36*
X37640Y289020D02*
X18240D01*
Y269780D01*
X37640D01*
Y289020D01*
D02*
G37*
G36*
X53420Y289103D02*
X53260D01*
X50749Y288772D01*
X48408Y287803D01*
X46399Y286261D01*
X44857Y284251D01*
X43888Y281911D01*
X43557Y279400D01*
X43888Y276889D01*
X44857Y274548D01*
X46399Y272539D01*
X48408Y270997D01*
X50749Y270028D01*
X53260Y269697D01*
X53420D01*
X55931Y270028D01*
X58271Y270997D01*
X60281Y272539D01*
X61823Y274548D01*
X62792Y276889D01*
X63123Y279400D01*
X62792Y281911D01*
X61823Y284251D01*
X60281Y286261D01*
X58271Y287803D01*
X55931Y288772D01*
X53420Y289103D01*
D02*
G37*
G36*
X615950Y271038D02*
X613804Y270611D01*
X611985Y269395D01*
X610769Y267576D01*
X610342Y265430D01*
X610769Y263284D01*
X611985Y261465D01*
X613804Y260249D01*
X615950Y259822D01*
X618096Y260249D01*
X619915Y261465D01*
X621131Y263284D01*
X621558Y265430D01*
X621131Y267576D01*
X619915Y269395D01*
X618096Y270611D01*
X615950Y271038D01*
D02*
G37*
G36*
X946150Y197542D02*
X943670Y197215D01*
X941359Y196258D01*
X939375Y194735D01*
X937852Y192751D01*
X936895Y190440D01*
X936568Y187960D01*
X936895Y185480D01*
X937852Y183169D01*
X939375Y181185D01*
X941359Y179662D01*
X943670Y178704D01*
X946150Y178378D01*
X948630Y178704D01*
X950941Y179662D01*
X952925Y181185D01*
X954448Y183169D01*
X955406Y185480D01*
X955732Y187960D01*
X955406Y190440D01*
X954448Y192751D01*
X952925Y194735D01*
X950941Y196258D01*
X948630Y197215D01*
X946150Y197542D01*
D02*
G37*
G36*
X579120Y171978D02*
X576974Y171551D01*
X575155Y170335D01*
X573939Y168516D01*
X573512Y166370D01*
X573939Y164224D01*
X575155Y162405D01*
X576974Y161189D01*
X579120Y160762D01*
X581266Y161189D01*
X583085Y162405D01*
X584301Y164224D01*
X584728Y166370D01*
X584301Y168516D01*
X583085Y170335D01*
X581266Y171551D01*
X579120Y171978D01*
D02*
G37*
G36*
X27940Y166035D02*
X25068Y165657D01*
X22392Y164548D01*
X20095Y162785D01*
X18332Y160487D01*
X17223Y157812D01*
X16845Y154940D01*
X17223Y152068D01*
X18332Y149392D01*
X20095Y147095D01*
X22392Y145331D01*
X25068Y144223D01*
X27940Y143845D01*
X30812Y144223D01*
X33487Y145331D01*
X35785Y147095D01*
X37548Y149392D01*
X38657Y152068D01*
X39035Y154940D01*
X38657Y157812D01*
X37548Y160487D01*
X35785Y162785D01*
X33488Y164548D01*
X30812Y165657D01*
X27940Y166035D01*
D02*
G37*
G36*
X631190Y151658D02*
X629044Y151231D01*
X627225Y150015D01*
X626009Y148196D01*
X625582Y146050D01*
X626009Y143904D01*
X627225Y142085D01*
X629044Y140869D01*
X631190Y140442D01*
X633336Y140869D01*
X635155Y142085D01*
X636371Y143904D01*
X636798Y146050D01*
X636371Y148196D01*
X635155Y150015D01*
X633336Y151231D01*
X631190Y151658D01*
D02*
G37*
G36*
X670560Y141498D02*
X668414Y141071D01*
X666595Y139855D01*
X665379Y138036D01*
X664952Y135890D01*
X665379Y133744D01*
X666595Y131925D01*
X668414Y130709D01*
X670560Y130282D01*
X672706Y130709D01*
X674525Y131925D01*
X675741Y133744D01*
X676168Y135890D01*
X675741Y138036D01*
X674525Y139855D01*
X672706Y141071D01*
X670560Y141498D01*
D02*
G37*
G36*
X32440Y140596D02*
X23440D01*
X21743Y140373D01*
X20162Y139718D01*
X18804Y138676D01*
X17762Y137318D01*
X17107Y135737D01*
X16884Y134040D01*
Y125040D01*
X17107Y123343D01*
X17762Y121762D01*
X18804Y120404D01*
X20162Y119362D01*
X21743Y118707D01*
X23440Y118484D01*
X32440D01*
X34137Y118707D01*
X35718Y119362D01*
X37076Y120404D01*
X38118Y121762D01*
X38773Y123343D01*
X38996Y125040D01*
Y134040D01*
X38773Y135737D01*
X38118Y137318D01*
X37076Y138676D01*
X35718Y139718D01*
X34137Y140373D01*
X32440Y140596D01*
D02*
G37*
G36*
X889000Y121178D02*
X886854Y120751D01*
X885035Y119535D01*
X883819Y117716D01*
X883392Y115570D01*
X883540Y114825D01*
X871109Y102394D01*
X791787D01*
X791365Y103025D01*
X789546Y104241D01*
X787400Y104668D01*
X785254Y104241D01*
X783435Y103025D01*
X783013Y102394D01*
X582798D01*
X581522Y102140D01*
X580440Y101418D01*
X530729Y51707D01*
X529137D01*
X529086Y51831D01*
X527547Y53837D01*
X525541Y55376D01*
X523206Y56343D01*
X520700Y56673D01*
X518194Y56343D01*
X515859Y55376D01*
X513853Y53837D01*
X512314Y51831D01*
X511347Y49496D01*
X511017Y46990D01*
X511347Y44484D01*
X512314Y42149D01*
X513853Y40143D01*
X515859Y38604D01*
X518194Y37637D01*
X520700Y37307D01*
X523206Y37637D01*
X525541Y38604D01*
X527547Y40143D01*
X529086Y42149D01*
X530053Y44484D01*
X530126Y45038D01*
X532110D01*
X533386Y45292D01*
X534468Y46015D01*
X535172Y46719D01*
X536513Y46264D01*
X536747Y44484D01*
X537714Y42149D01*
X539253Y40143D01*
X541259Y38604D01*
X543594Y37637D01*
X546100Y37307D01*
X548606Y37637D01*
X550941Y38604D01*
X552947Y40143D01*
X554486Y42149D01*
X555453Y44484D01*
X555783Y46990D01*
X555453Y49496D01*
X554486Y51831D01*
X552947Y53837D01*
X550941Y55376D01*
X548606Y56343D01*
X546826Y56577D01*
X546371Y57918D01*
X584179Y95726D01*
X783013D01*
X783435Y95095D01*
X785254Y93879D01*
X787400Y93452D01*
X789546Y93879D01*
X791365Y95095D01*
X791787Y95726D01*
X872490D01*
X873766Y95980D01*
X874847Y96702D01*
X888255Y110110D01*
X889000Y109962D01*
X891146Y110389D01*
X892965Y111605D01*
X894181Y113424D01*
X894608Y115570D01*
X894181Y117716D01*
X892965Y119535D01*
X891146Y120751D01*
X889000Y121178D01*
D02*
G37*
G36*
X399050Y113580D02*
X396933Y113301D01*
X394960Y112484D01*
X393266Y111184D01*
X391966Y109490D01*
X391149Y107517D01*
X390870Y105400D01*
X391149Y103283D01*
X391966Y101310D01*
X393266Y99616D01*
X394960Y98316D01*
X396933Y97499D01*
X399050Y97220D01*
X401167Y97499D01*
X403140Y98316D01*
X404834Y99616D01*
X406134Y101310D01*
X406951Y103283D01*
X407230Y105400D01*
X406951Y107517D01*
X406134Y109490D01*
X404834Y111184D01*
X403140Y112484D01*
X401167Y113301D01*
X399050Y113580D01*
D02*
G37*
G36*
X309000D02*
X306883Y113301D01*
X304910Y112484D01*
X303216Y111184D01*
X301916Y109490D01*
X301099Y107517D01*
X300820Y105400D01*
X301099Y103283D01*
X301916Y101310D01*
X303216Y99616D01*
X304910Y98316D01*
X306883Y97499D01*
X309000Y97220D01*
X311117Y97499D01*
X313090Y98316D01*
X314784Y99616D01*
X316084Y101310D01*
X316901Y103283D01*
X317180Y105400D01*
X316901Y107517D01*
X316084Y109490D01*
X314784Y111184D01*
X313090Y112484D01*
X311117Y113301D01*
X309000Y113580D01*
D02*
G37*
G36*
X219000D02*
X216883Y113301D01*
X214910Y112484D01*
X213216Y111184D01*
X211916Y109490D01*
X211099Y107517D01*
X210820Y105400D01*
X211099Y103283D01*
X211916Y101310D01*
X213216Y99616D01*
X214910Y98316D01*
X216883Y97499D01*
X219000Y97220D01*
X221117Y97499D01*
X223090Y98316D01*
X224784Y99616D01*
X226084Y101310D01*
X226901Y103283D01*
X227180Y105400D01*
X226901Y107517D01*
X226084Y109490D01*
X224784Y111184D01*
X223090Y112484D01*
X221117Y113301D01*
X219000Y113580D01*
D02*
G37*
G36*
X334400Y88180D02*
X332283Y87901D01*
X330310Y87084D01*
X328616Y85784D01*
X327316Y84090D01*
X326499Y82117D01*
X326220Y80000D01*
X326499Y77883D01*
X327316Y75910D01*
X328616Y74216D01*
X330310Y72916D01*
X332283Y72099D01*
X334400Y71820D01*
X336517Y72099D01*
X338490Y72916D01*
X340184Y74216D01*
X341484Y75910D01*
X342301Y77883D01*
X342580Y80000D01*
X342301Y82117D01*
X341484Y84090D01*
X340184Y85784D01*
X338490Y87084D01*
X336517Y87901D01*
X334400Y88180D01*
D02*
G37*
G36*
X876300Y56673D02*
X873794Y56343D01*
X871459Y55376D01*
X869453Y53837D01*
X867914Y51831D01*
X866947Y49496D01*
X866617Y46990D01*
X866947Y44484D01*
X867914Y42149D01*
X869453Y40143D01*
X871459Y38604D01*
X873794Y37637D01*
X876300Y37307D01*
X878806Y37637D01*
X881141Y38604D01*
X883147Y40143D01*
X884686Y42149D01*
X885653Y44484D01*
X885983Y46990D01*
X885653Y49496D01*
X884686Y51831D01*
X883147Y53837D01*
X881141Y55376D01*
X878806Y56343D01*
X876300Y56673D01*
D02*
G37*
G36*
X850900D02*
X848394Y56343D01*
X846059Y55376D01*
X844053Y53837D01*
X842514Y51831D01*
X841547Y49496D01*
X841217Y46990D01*
X841547Y44484D01*
X842514Y42149D01*
X844053Y40143D01*
X846059Y38604D01*
X848394Y37637D01*
X850900Y37307D01*
X853406Y37637D01*
X855741Y38604D01*
X857747Y40143D01*
X859286Y42149D01*
X860253Y44484D01*
X860583Y46990D01*
X860253Y49496D01*
X859286Y51831D01*
X857747Y53837D01*
X855741Y55376D01*
X853406Y56343D01*
X850900Y56673D01*
D02*
G37*
G36*
X825500D02*
X822994Y56343D01*
X820659Y55376D01*
X818653Y53837D01*
X817114Y51831D01*
X816147Y49496D01*
X815817Y46990D01*
X816147Y44484D01*
X817114Y42149D01*
X818653Y40143D01*
X820659Y38604D01*
X822994Y37637D01*
X825500Y37307D01*
X828006Y37637D01*
X830341Y38604D01*
X832347Y40143D01*
X833886Y42149D01*
X834853Y44484D01*
X835183Y46990D01*
X834853Y49496D01*
X833886Y51831D01*
X832347Y53837D01*
X830341Y55376D01*
X828006Y56343D01*
X825500Y56673D01*
D02*
G37*
G36*
X800100D02*
X797594Y56343D01*
X795259Y55376D01*
X793253Y53837D01*
X791714Y51831D01*
X790747Y49496D01*
X790417Y46990D01*
X790747Y44484D01*
X791714Y42149D01*
X793253Y40143D01*
X795259Y38604D01*
X797594Y37637D01*
X800100Y37307D01*
X802606Y37637D01*
X804941Y38604D01*
X806947Y40143D01*
X808486Y42149D01*
X809453Y44484D01*
X809783Y46990D01*
X809453Y49496D01*
X808486Y51831D01*
X806947Y53837D01*
X804941Y55376D01*
X802606Y56343D01*
X800100Y56673D01*
D02*
G37*
G36*
X774700D02*
X772194Y56343D01*
X769859Y55376D01*
X767853Y53837D01*
X766314Y51831D01*
X765347Y49496D01*
X765017Y46990D01*
X765347Y44484D01*
X766314Y42149D01*
X767853Y40143D01*
X769859Y38604D01*
X772194Y37637D01*
X774700Y37307D01*
X777206Y37637D01*
X779541Y38604D01*
X781547Y40143D01*
X783086Y42149D01*
X784053Y44484D01*
X784383Y46990D01*
X784053Y49496D01*
X783086Y51831D01*
X781547Y53837D01*
X779541Y55376D01*
X777206Y56343D01*
X774700Y56673D01*
D02*
G37*
G36*
X749300D02*
X746794Y56343D01*
X744459Y55376D01*
X742453Y53837D01*
X740914Y51831D01*
X739947Y49496D01*
X739617Y46990D01*
X739947Y44484D01*
X740914Y42149D01*
X742453Y40143D01*
X744459Y38604D01*
X746794Y37637D01*
X749300Y37307D01*
X751806Y37637D01*
X754141Y38604D01*
X756147Y40143D01*
X757686Y42149D01*
X758653Y44484D01*
X758983Y46990D01*
X758653Y49496D01*
X757686Y51831D01*
X756147Y53837D01*
X754141Y55376D01*
X751806Y56343D01*
X749300Y56673D01*
D02*
G37*
G36*
X723900D02*
X721394Y56343D01*
X719059Y55376D01*
X717053Y53837D01*
X715514Y51831D01*
X714547Y49496D01*
X714217Y46990D01*
X714547Y44484D01*
X715514Y42149D01*
X717053Y40143D01*
X719059Y38604D01*
X721394Y37637D01*
X723900Y37307D01*
X726406Y37637D01*
X728741Y38604D01*
X730747Y40143D01*
X732286Y42149D01*
X733253Y44484D01*
X733583Y46990D01*
X733253Y49496D01*
X732286Y51831D01*
X730747Y53837D01*
X728741Y55376D01*
X726406Y56343D01*
X723900Y56673D01*
D02*
G37*
G36*
X698500D02*
X695994Y56343D01*
X693659Y55376D01*
X691653Y53837D01*
X690114Y51831D01*
X689147Y49496D01*
X688817Y46990D01*
X689147Y44484D01*
X690114Y42149D01*
X691653Y40143D01*
X693659Y38604D01*
X695994Y37637D01*
X698500Y37307D01*
X701006Y37637D01*
X703341Y38604D01*
X705347Y40143D01*
X706886Y42149D01*
X707853Y44484D01*
X708183Y46990D01*
X707853Y49496D01*
X706886Y51831D01*
X705347Y53837D01*
X703341Y55376D01*
X701006Y56343D01*
X698500Y56673D01*
D02*
G37*
G36*
X673100D02*
X670594Y56343D01*
X668259Y55376D01*
X666253Y53837D01*
X664714Y51831D01*
X663747Y49496D01*
X663417Y46990D01*
X663747Y44484D01*
X664714Y42149D01*
X666253Y40143D01*
X668259Y38604D01*
X670594Y37637D01*
X673100Y37307D01*
X675606Y37637D01*
X677941Y38604D01*
X679947Y40143D01*
X681486Y42149D01*
X682453Y44484D01*
X682783Y46990D01*
X682453Y49496D01*
X681486Y51831D01*
X679947Y53837D01*
X677941Y55376D01*
X675606Y56343D01*
X673100Y56673D01*
D02*
G37*
G36*
X647700D02*
X645194Y56343D01*
X642859Y55376D01*
X640853Y53837D01*
X639314Y51831D01*
X638347Y49496D01*
X638017Y46990D01*
X638347Y44484D01*
X639314Y42149D01*
X640853Y40143D01*
X642859Y38604D01*
X645194Y37637D01*
X647700Y37307D01*
X650206Y37637D01*
X652541Y38604D01*
X654547Y40143D01*
X656086Y42149D01*
X657053Y44484D01*
X657383Y46990D01*
X657053Y49496D01*
X656086Y51831D01*
X654547Y53837D01*
X652541Y55376D01*
X650206Y56343D01*
X647700Y56673D01*
D02*
G37*
G36*
X622300D02*
X619794Y56343D01*
X617459Y55376D01*
X615453Y53837D01*
X613914Y51831D01*
X612947Y49496D01*
X612617Y46990D01*
X612947Y44484D01*
X613914Y42149D01*
X615453Y40143D01*
X617459Y38604D01*
X619794Y37637D01*
X622300Y37307D01*
X624806Y37637D01*
X627141Y38604D01*
X629147Y40143D01*
X630686Y42149D01*
X631653Y44484D01*
X631983Y46990D01*
X631653Y49496D01*
X630686Y51831D01*
X629147Y53837D01*
X627141Y55376D01*
X624806Y56343D01*
X622300Y56673D01*
D02*
G37*
G36*
X596900D02*
X594394Y56343D01*
X592059Y55376D01*
X590053Y53837D01*
X588514Y51831D01*
X587547Y49496D01*
X587217Y46990D01*
X587547Y44484D01*
X588514Y42149D01*
X590053Y40143D01*
X592059Y38604D01*
X594394Y37637D01*
X596900Y37307D01*
X599406Y37637D01*
X601741Y38604D01*
X603747Y40143D01*
X605286Y42149D01*
X606253Y44484D01*
X606583Y46990D01*
X606253Y49496D01*
X605286Y51831D01*
X603747Y53837D01*
X601741Y55376D01*
X599406Y56343D01*
X596900Y56673D01*
D02*
G37*
G36*
X571500D02*
X568994Y56343D01*
X566659Y55376D01*
X564653Y53837D01*
X563114Y51831D01*
X562147Y49496D01*
X561817Y46990D01*
X562147Y44484D01*
X563114Y42149D01*
X564653Y40143D01*
X566659Y38604D01*
X568994Y37637D01*
X571500Y37307D01*
X574006Y37637D01*
X576341Y38604D01*
X578347Y40143D01*
X579886Y42149D01*
X580853Y44484D01*
X581183Y46990D01*
X580853Y49496D01*
X579886Y51831D01*
X578347Y53837D01*
X576341Y55376D01*
X574006Y56343D01*
X571500Y56673D01*
D02*
G37*
%LPD*%
G36*
X862343Y472216D02*
X862229Y472046D01*
X861802Y469900D01*
X861895Y469432D01*
X695752Y303289D01*
X573190D01*
X572925Y303685D01*
X571106Y304901D01*
X570911Y304940D01*
X570542Y306155D01*
X592289Y327901D01*
X704850D01*
X706216Y328173D01*
X707373Y328947D01*
X786113Y407687D01*
X786887Y408844D01*
X787159Y410210D01*
Y426300D01*
X787555Y426565D01*
X788771Y428384D01*
X789198Y430530D01*
X788771Y432676D01*
X787555Y434495D01*
X785736Y435711D01*
X783590Y436138D01*
X781444Y435711D01*
X779625Y434495D01*
X778409Y432676D01*
X777982Y430530D01*
X778409Y428384D01*
X779625Y426565D01*
X780021Y426300D01*
Y411688D01*
X703372Y335039D01*
X592873D01*
X592387Y336212D01*
X686325Y430150D01*
X687070Y430002D01*
X689216Y430429D01*
X691035Y431645D01*
X692251Y433464D01*
X692678Y435610D01*
X692251Y437756D01*
X691035Y439575D01*
X689216Y440791D01*
X689016Y440831D01*
X688647Y442046D01*
X714012Y467411D01*
X740319D01*
X741595Y467665D01*
X742677Y468387D01*
X747625Y473336D01*
X861744D01*
X862343Y472216D01*
D02*
G37*
D17*
X548640Y300990D02*
X549493Y301843D01*
Y307608D01*
X712631Y470745D01*
X740319D01*
X746244Y476670D01*
X918630D01*
X947420Y505460D01*
X557190Y305730D02*
X687070Y435610D01*
X541870Y298186D02*
Y303794D01*
X544830Y306754D01*
X541870Y298186D02*
X544830Y295226D01*
X557190Y299966D02*
Y305730D01*
X554990Y297766D02*
X557190Y299966D01*
X544830Y271780D02*
Y295226D01*
Y306754D02*
Y384810D01*
X554990Y276860D02*
Y297766D01*
X544830Y384810D02*
X595630Y435610D01*
X551180Y265430D02*
X562610D01*
X544830Y271780D02*
X551180Y265430D01*
X106680Y32446D02*
X118110Y21016D01*
X106680Y32446D02*
Y46990D01*
X244400Y41075D02*
X263885Y21590D01*
X264160D01*
X244400Y41075D02*
Y80000D01*
X398790D02*
X424450D01*
X281567Y150280D02*
X328510D01*
X398790Y80000D01*
X218487Y213360D02*
X281567Y150280D01*
X181610Y32516D02*
Y33020D01*
Y32516D02*
X193110Y21016D01*
X494030Y337820D02*
X502920Y328930D01*
Y274320D02*
X563460Y213780D01*
X502920Y274320D02*
Y328930D01*
X395654Y250190D02*
X420370D01*
X395234Y250610D02*
X395654Y250190D01*
X143090Y250610D02*
X395234D01*
X128270Y265430D02*
X143090Y250610D01*
X132080Y294640D02*
X168910Y257810D01*
X485450D01*
X420370Y250190D02*
X422485Y252305D01*
X486365D02*
X488480Y254420D01*
X500800Y241720D02*
Y250454D01*
X485450Y257810D02*
X487977Y260337D01*
X496834Y254420D02*
X500800Y250454D01*
X422485Y252305D02*
X486365D01*
X487977Y260337D02*
X493177D01*
X488480Y254420D02*
X496834D01*
X494030Y234950D02*
X500800Y241720D01*
X493177Y260337D02*
X494030Y261190D01*
X441960Y233754D02*
X455856Y247650D01*
X494030D01*
X441960Y208280D02*
Y233754D01*
X563460Y213780D02*
X604784D01*
X509810Y275050D02*
X557495Y227365D01*
X509810Y275050D02*
Y339820D01*
X557495Y227365D02*
X947376D01*
X514350Y278130D02*
X560575Y231905D01*
X970433D01*
X514350Y278130D02*
Y358140D01*
X233680Y213360D02*
X248920Y198120D01*
X431800D01*
X441960Y208280D01*
X620276Y200240D02*
X716114D01*
X602493Y207523D02*
X750671D01*
X606501Y212063D02*
X774209D01*
X619763Y200753D02*
X620276Y200240D01*
X872490Y99060D02*
X889000Y115570D01*
X787400Y99060D02*
X872490D01*
X582798D02*
X787400D01*
X532110Y48373D02*
X582798Y99060D01*
X522082Y48373D02*
X532110D01*
X520700Y46990D02*
X522082Y48373D01*
X773859Y218833D02*
X779333Y213360D01*
X609290Y218833D02*
X773859D01*
X774209Y212063D02*
X823712Y162560D01*
X716114Y200240D02*
X792480Y123874D01*
X970433Y231905D02*
X988060Y214278D01*
Y179070D02*
Y214278D01*
X971550Y162560D02*
X988060Y179070D01*
X959889Y199622D02*
Y214853D01*
X947376Y227365D02*
X959889Y214853D01*
Y199622D02*
X971550Y187960D01*
X494030Y355600D02*
X509810Y339820D01*
X604784Y213780D02*
X606501Y212063D01*
X601980Y207010D02*
X602493Y207523D01*
X823712Y162560D02*
X946150D01*
X750671Y207523D02*
X808334Y149860D01*
X958850D02*
X971550Y137160D01*
X808334Y149860D02*
X958850D01*
X779333Y213360D02*
X946150D01*
X792480Y123190D02*
Y123874D01*
X732790Y173990D02*
X779780Y127000D01*
X671830Y173990D02*
X732790D01*
D83*
X535940Y429260D02*
X543560Y436880D01*
X535940Y265430D02*
Y429260D01*
Y265430D02*
X563880Y237490D01*
X561960Y287482D02*
Y302619D01*
X590811Y331470D01*
X568960Y299720D02*
X697230D01*
X867410Y469900D01*
X440690Y181610D02*
X457200Y198120D01*
X279400Y181610D02*
X440690D01*
X193110Y21016D02*
Y53410D01*
X457200Y198120D02*
Y239420D01*
X44450Y222250D02*
X411480D01*
X27940Y231140D02*
X415290D01*
X429260Y217170D01*
X411480Y222250D02*
X426720Y207010D01*
X573275Y237910D02*
X574040Y238675D01*
X567300Y237910D02*
X573275D01*
X563880Y237490D02*
X566880D01*
X567300Y237910D01*
X563880Y284480D02*
Y285562D01*
X561960Y287482D02*
X563880Y285562D01*
X27940Y205740D02*
X44450Y222250D01*
X336887Y23863D02*
X339160Y21590D01*
X311417Y23863D02*
X336887D01*
X262890Y72390D02*
X311417Y23863D01*
X262890Y72390D02*
Y104140D01*
X193110Y53410D02*
X283210Y143510D01*
X590811Y331470D02*
X704850D01*
X783590Y410210D01*
Y430530D01*
D85*
X972820Y454660D02*
D03*
Y480060D02*
D03*
X947420Y454660D02*
D03*
Y480060D02*
D03*
X972820Y505460D02*
D03*
X947420D02*
D03*
Y530860D02*
D03*
X946150Y213360D02*
D03*
Y187960D02*
D03*
X971550D02*
D03*
X946150Y162560D02*
D03*
Y137160D02*
D03*
X971550Y162560D02*
D03*
Y137160D02*
D03*
X323850Y624840D02*
D03*
X349250D02*
D03*
X298450D02*
D03*
D86*
X972820Y530860D02*
D03*
X971550Y213360D02*
D03*
D87*
X373650Y80000D02*
D03*
X193600D02*
D03*
X283600D02*
D03*
D88*
X399050Y105400D02*
D03*
X424450Y80000D02*
D03*
X244400D02*
D03*
X219000Y105400D02*
D03*
X334400Y80000D02*
D03*
X309000Y105400D02*
D03*
D89*
X27940Y279400D02*
D03*
Y322580D02*
D03*
D90*
X53340Y279400D02*
D03*
Y322580D02*
D03*
D91*
X36830Y401320D02*
D03*
X27940Y231140D02*
D03*
Y205740D02*
D03*
Y180340D02*
D03*
Y154940D02*
D03*
D92*
X36830Y426720D02*
D03*
D93*
X938530Y289660D02*
D03*
Y365660D02*
D03*
D94*
X50000Y650000D02*
D03*
X950000Y650000D02*
D03*
X50000Y50000D02*
D03*
X950000Y50000D02*
D03*
D95*
X138250Y547370D02*
D03*
X80250D02*
D03*
D96*
X108250Y499370D02*
D03*
D97*
X27940Y129540D02*
D03*
D98*
X774700Y46990D02*
D03*
X723900D02*
D03*
X647700D02*
D03*
X546100D02*
D03*
X520700D02*
D03*
X571500D02*
D03*
X596900D02*
D03*
X622300D02*
D03*
X673100D02*
D03*
X698500D02*
D03*
X749300D02*
D03*
X800100D02*
D03*
X825500D02*
D03*
X850900D02*
D03*
X876300D02*
D03*
D99*
X495300D02*
D03*
D100*
X548640Y300990D02*
D03*
X568960Y299720D02*
D03*
X860000Y400000D02*
D03*
X899848Y400152D02*
D03*
X680000Y360000D02*
D03*
X640000D02*
D03*
X594143Y365857D02*
D03*
X880000Y360000D02*
D03*
X940000Y400000D02*
D03*
X860000Y320000D02*
D03*
X620000D02*
D03*
X106680Y46990D02*
D03*
X670560Y135890D02*
D03*
X579120Y166370D02*
D03*
X960000Y600000D02*
D03*
X980000Y560000D02*
D03*
X960000Y440000D02*
D03*
X980000Y400000D02*
D03*
X960000Y360000D02*
D03*
X980000Y320000D02*
D03*
X960000Y280000D02*
D03*
X980000Y240000D02*
D03*
X960000Y120000D02*
D03*
X980000Y80000D02*
D03*
X920000Y680000D02*
D03*
Y600000D02*
D03*
X940000Y560000D02*
D03*
X920000Y520000D02*
D03*
Y440000D02*
D03*
Y360000D02*
D03*
X940000Y320000D02*
D03*
Y240000D02*
D03*
X920000Y200000D02*
D03*
Y120000D02*
D03*
X880000Y680000D02*
D03*
X900000Y640000D02*
D03*
X880000Y600000D02*
D03*
Y520000D02*
D03*
Y440000D02*
D03*
Y280000D02*
D03*
Y200000D02*
D03*
X900000Y80000D02*
D03*
X840000Y680000D02*
D03*
X860000Y640000D02*
D03*
X840000Y600000D02*
D03*
X860000Y560000D02*
D03*
X840000Y520000D02*
D03*
Y360000D02*
D03*
Y280000D02*
D03*
X860000Y240000D02*
D03*
X840000Y200000D02*
D03*
Y120000D02*
D03*
X860000Y80000D02*
D03*
X800000Y680000D02*
D03*
X820000Y640000D02*
D03*
X800000Y600000D02*
D03*
X820000Y560000D02*
D03*
X800000Y440000D02*
D03*
X820000Y400000D02*
D03*
X800000Y360000D02*
D03*
X820000Y320000D02*
D03*
Y240000D02*
D03*
X800000Y200000D02*
D03*
X820000Y80000D02*
D03*
X760000Y680000D02*
D03*
X780000Y640000D02*
D03*
X760000Y600000D02*
D03*
X780000Y560000D02*
D03*
X760000Y520000D02*
D03*
Y440000D02*
D03*
X780000Y320000D02*
D03*
X760000Y280000D02*
D03*
X780000Y240000D02*
D03*
Y80000D02*
D03*
X720000Y680000D02*
D03*
X740000Y640000D02*
D03*
X720000Y600000D02*
D03*
X740000Y560000D02*
D03*
Y480000D02*
D03*
Y400000D02*
D03*
X720000Y360000D02*
D03*
X740000Y320000D02*
D03*
X720000Y280000D02*
D03*
X680000Y680000D02*
D03*
X700000Y640000D02*
D03*
X680000Y600000D02*
D03*
X700000Y400000D02*
D03*
Y320000D02*
D03*
Y80000D02*
D03*
X640000Y680000D02*
D03*
X660000Y640000D02*
D03*
X640000Y600000D02*
D03*
Y520000D02*
D03*
Y440000D02*
D03*
X660000Y320000D02*
D03*
X600000Y680000D02*
D03*
X620000Y640000D02*
D03*
X600000Y600000D02*
D03*
Y520000D02*
D03*
X620000Y400000D02*
D03*
X560000Y680000D02*
D03*
X580000Y640000D02*
D03*
X560000Y600000D02*
D03*
Y520000D02*
D03*
X580000Y480000D02*
D03*
X560000Y440000D02*
D03*
X580000Y400000D02*
D03*
Y80000D02*
D03*
X560000Y40000D02*
D03*
X520000Y680000D02*
D03*
X540000Y640000D02*
D03*
X520000Y600000D02*
D03*
X540000Y160000D02*
D03*
X520000Y120000D02*
D03*
X540000Y80000D02*
D03*
X480000Y680000D02*
D03*
X500000Y640000D02*
D03*
X480000Y600000D02*
D03*
Y520000D02*
D03*
Y440000D02*
D03*
X500000Y400000D02*
D03*
X480000Y360000D02*
D03*
Y200000D02*
D03*
X500000Y160000D02*
D03*
X480000Y120000D02*
D03*
Y40000D02*
D03*
X440000Y680000D02*
D03*
X460000Y640000D02*
D03*
X440000Y520000D02*
D03*
X460000Y480000D02*
D03*
X440000Y440000D02*
D03*
X460000Y400000D02*
D03*
Y320000D02*
D03*
X440000Y120000D02*
D03*
Y40000D02*
D03*
X400000Y680000D02*
D03*
Y520000D02*
D03*
X420000Y480000D02*
D03*
X400000Y440000D02*
D03*
Y360000D02*
D03*
Y120000D02*
D03*
Y40000D02*
D03*
X360000Y680000D02*
D03*
X380000Y640000D02*
D03*
X360000Y600000D02*
D03*
X380000Y480000D02*
D03*
Y320000D02*
D03*
X360000Y280000D02*
D03*
X380000Y240000D02*
D03*
Y160000D02*
D03*
X320000Y680000D02*
D03*
X340000Y640000D02*
D03*
X320000Y600000D02*
D03*
X340000Y480000D02*
D03*
Y400000D02*
D03*
Y320000D02*
D03*
Y160000D02*
D03*
X320000Y120000D02*
D03*
X280000Y680000D02*
D03*
X300000Y640000D02*
D03*
X280000Y600000D02*
D03*
X300000Y480000D02*
D03*
X280000Y440000D02*
D03*
X300000Y400000D02*
D03*
X280000Y360000D02*
D03*
X300000Y320000D02*
D03*
X280000Y120000D02*
D03*
X300000Y80000D02*
D03*
X240000Y680000D02*
D03*
X260000Y640000D02*
D03*
X240000Y600000D02*
D03*
Y440000D02*
D03*
Y360000D02*
D03*
X260000Y320000D02*
D03*
X240000Y120000D02*
D03*
X200000Y680000D02*
D03*
X220000Y640000D02*
D03*
X200000Y520000D02*
D03*
X220000Y480000D02*
D03*
X200000Y440000D02*
D03*
X220000Y400000D02*
D03*
Y320000D02*
D03*
X200000Y280000D02*
D03*
X220000Y160000D02*
D03*
X200000Y120000D02*
D03*
X160000Y680000D02*
D03*
Y600000D02*
D03*
X180000Y480000D02*
D03*
X160000Y440000D02*
D03*
X180000Y320000D02*
D03*
X160000Y280000D02*
D03*
X180000Y240000D02*
D03*
X160000Y200000D02*
D03*
X180000Y80000D02*
D03*
X160000Y40000D02*
D03*
X120000Y680000D02*
D03*
Y600000D02*
D03*
Y520000D02*
D03*
X140000Y480000D02*
D03*
X120000Y360000D02*
D03*
Y280000D02*
D03*
X140000Y240000D02*
D03*
X120000Y200000D02*
D03*
X140000Y160000D02*
D03*
X120000Y120000D02*
D03*
X80000Y680000D02*
D03*
X100000Y640000D02*
D03*
X80000Y600000D02*
D03*
X100000Y560000D02*
D03*
X80000Y520000D02*
D03*
X100000Y480000D02*
D03*
Y400000D02*
D03*
X80000Y360000D02*
D03*
Y280000D02*
D03*
Y200000D02*
D03*
Y120000D02*
D03*
X40000Y600000D02*
D03*
X60000Y560000D02*
D03*
X40000Y520000D02*
D03*
X60000Y480000D02*
D03*
Y400000D02*
D03*
X40000Y360000D02*
D03*
X218487Y213360D02*
D03*
X279400Y181610D02*
D03*
X181610Y33020D02*
D03*
X128270Y265430D02*
D03*
X494030Y261190D02*
D03*
X457200Y239420D02*
D03*
X132080Y294640D02*
D03*
X233680Y213360D02*
D03*
X494030Y234950D02*
D03*
Y247650D02*
D03*
X429260Y217170D02*
D03*
X426720Y207010D02*
D03*
X615950Y265430D02*
D03*
X631190Y146050D02*
D03*
X426720Y628650D02*
D03*
X234950Y267970D02*
D03*
X309880Y331470D02*
D03*
X392430Y243840D02*
D03*
X889000Y115570D02*
D03*
X787400Y99060D02*
D03*
X574040Y238675D02*
D03*
X494030Y337820D02*
D03*
X563880Y284480D02*
D03*
X554990Y276860D02*
D03*
X514350Y358140D02*
D03*
X609290Y218833D02*
D03*
X494030Y355600D02*
D03*
X601980Y207010D02*
D03*
X619763Y200753D02*
D03*
X262890Y104140D02*
D03*
X283210Y143510D02*
D03*
X595630Y435610D02*
D03*
X687070D02*
D03*
X783590Y430530D02*
D03*
X867410Y469900D02*
D03*
X543560Y436880D02*
D03*
X562610Y265430D02*
D03*
X792480Y123190D02*
D03*
X779780Y127000D02*
D03*
X671830Y173990D02*
D03*
X50000Y677500D02*
D03*
X70000Y670000D02*
D03*
X77500Y650000D02*
D03*
X70000Y630000D02*
D03*
X50000Y622500D02*
D03*
X30000Y630000D02*
D03*
X22500Y650000D02*
D03*
X30000Y670000D02*
D03*
X950000Y677500D02*
D03*
X970000Y670000D02*
D03*
X977500Y650000D02*
D03*
X970000Y630000D02*
D03*
X950000Y622500D02*
D03*
X930000Y630000D02*
D03*
X922500Y650000D02*
D03*
X930000Y670000D02*
D03*
X50000Y77500D02*
D03*
X70000Y70000D02*
D03*
X77500Y50000D02*
D03*
X70000Y30000D02*
D03*
X50000Y22500D02*
D03*
X30000Y30000D02*
D03*
X22500Y50000D02*
D03*
X30000Y70000D02*
D03*
X950000Y77500D02*
D03*
X970000Y70000D02*
D03*
X977500Y50000D02*
D03*
X970000Y30000D02*
D03*
X950000Y22500D02*
D03*
X930000Y30000D02*
D03*
X922500Y50000D02*
D03*
X930000Y70000D02*
D03*
D101*
X193110Y21016D02*
D03*
X118110D02*
D03*
X264160Y21590D02*
D03*
X339160D02*
D03*
M02*
