M48
;Layer_Color=9474304
;FILE_FORMAT=4:4
METRIC,LZ
;TYPE=PLATED
T01F00S00C0.5000
T02F00S00C0.7140
T04F00S00C0.9000
T05F00S00C1.0000
T06F00S00C1.0200
T07F00S00C1.1000
T08F00S00C1.2000
T09F00S00C3.2000
%
T01
X0003Y0003
X0005Y000225
X0007Y0003
X000775Y0005
X0007Y0007
X0005Y000775
X0003Y0007
X000225Y0005
X0010668Y0004699
X0016Y0004
X0018161Y0003302
X0018Y0008
X002Y0012
X0024
X0026289Y0010414
X0028Y0012
X0028321Y0014351
X002794Y0018161
X0023368Y0021336
X00218487
X0022Y0016
X0014
X0012Y002
X0016
X0018Y0024
X0014
X0012827Y0026543
X0012Y0028
X0013208Y0029464
X0016Y0028
X002
X0023495Y0026797
X0022Y0032
X0026
X003
X0030988Y0033147
X0034Y0032
X0038
X0036Y0028
X0038Y0024
X0039243Y0024384
X0038Y0016
X0034
X0032Y0012
X003Y0008
X0012Y0012
X0008
Y002
Y0028
Y0036
X0012
X0004
X0018Y0032
X0024Y0036
X0028
X004
X0048
X0049403Y003556
Y0033782
X0051435Y0035814
X00594143Y00365857
X0064Y0036
X0068
X0072
X0074Y0032
X0078
X0076Y0028
X0072
X007Y0032
X0066
X0062
X0061595Y0026543
X0060929Y00218833
X0060198Y0020701
X00619763Y00200753
X0063119Y0014605
X0067056Y0013589
X0067183Y0017399
X0057912Y0016637
X0054Y0016
X005
X0048Y002
X0049403Y0023495
Y0024765
Y0026119
X004572Y0023942
X0042926Y0021717
X0042672Y0020701
X0044Y0012
X0048
X0052
X0054Y0008
X0058
X0056Y0004
X0048
X0044
X004
Y0012
X0046Y0032
X0054864Y0030099
X0056896Y0029972
X0056388Y0028448
X0055499Y0027686
X0056261Y0026543
X0057404Y00238675
X0078Y0024
X0077978Y00127
X0079248Y0012319
X007874Y0009906
X0078Y0008
X007
X0082
X0086
X009
X0093Y0007
X0095Y000775
X0097Y0007
X0098Y0008
X009775Y0005
X0097Y0003
X0095Y000225
X0093Y0003
X009225Y0005
X0092Y0012
X00889Y0011557
X0084Y0012
Y002
X0088
X0092
X0094Y0024
X0098
X0096Y0028
X0098Y0032
X0094
X0092Y0036
X0088
X0084
X008
X0082Y0032
X0086
X0084Y0028
X0088
X0086Y0024
X0082
X008Y002
X0096Y0012
Y0036
X0098Y004
X0094
X00899848Y00400152
X0086Y004
X0082
X008Y0044
X0088
X0092
X0096
X0092Y0052
X0088
X0084
X0086Y0056
X0082
X008Y006
X0084
X0088
X0092
X0096
X0095Y006225
X0097Y0063
X009775Y0065
X0097Y0067
X0095Y006775
X0093Y0067
X0092Y0068
X009225Y0065
X0093Y0063
X009Y0064
X0086
X0082
X008Y0068
X0084
X0088
X0094Y0056
X0098
X0086741Y004699
X0078359Y0043053
X0076Y0044
X0074Y0048
X0076Y0052
X0078Y0056
X0074
X0072Y006
X0076
X0078Y0064
X0074
X007
X0066
X0062
X0058
X0054
X005
X0046
X0042672Y0062865
X0044Y0068
X0048
X0052
X0056
X006
X0064
X0068
X0072
X0076
X0068Y006
X0064
X006
X0056
X0052
X0048
Y0052
X0044
X004
X0042Y0048
X0046
X0044Y0044
X0048
X005Y004
X0046
X004Y0044
X0054356Y0043688
X0056Y0044
X0059563Y0043561
X0064Y0044
X0068707Y0043561
X007Y004
X0074
X0062
X0058
Y0048
X0056Y0052
X006
X0064
X004Y0068
X0036
X0032
X0028
X0024
X002
X0016
X0012
X0008
X0007Y0067
X0005Y006775
X0003Y0067
X000225Y0065
X0003Y0063
X0005Y006225
X0007Y0063
X000775Y0065
X001Y0064
X0008Y006
X0012
X0016
X0024
X0028
X0032
X0036
X0038Y0064
X0034
X003
X0026
X0022
X002Y0052
X0022Y0048
X0018
X0014
X001
X0006
X0004Y0052
X0008
X0012
X001Y0056
X0006
X0004Y006
X0006Y004
X001
X0016Y0044
X002
X0024
X0028
X003Y0048
X0034
X0038
X0034Y004
X003
X0022
T02
X001936Y0008
X002444
X002836
X003344
X0037365
X00309Y001054
X00219
X0039905
X0042445Y0008
T04
X0002794Y002794
X0005334
Y0032258
X0002794
X0093853Y0028966
Y0036566
T05
X0029845Y0062484
X0032385
X0034925
T06
X004953Y0004699
X005207
X005461
X005715
X005969
X006223
X006477
X006731
X006985
X007239
X007493
X007747
X008001
X008255
X008509
X008763
X0094615Y0013716
Y0016256
Y0018796
Y0021336
X0097155
Y0018796
Y0016256
Y0013716
X0097282Y0045466
Y0048006
X0094742
Y0045466
Y0050546
X0097282
Y0053086
X0094742
T07
X0002794Y0012954
Y0015494
Y0018034
Y0020574
Y0023114
T08
X0003683Y0040132
Y0042672
T09
X0005Y0005
X0095Y0005
X0095Y0065
X0005Y0065
M30
