G04*
G04 #@! TF.GenerationSoftware,Altium Limited,Altium Designer,24.2.2 (26)*
G04*
G04 Layer_Physical_Order=1*
G04 Layer_Color=255*
%FSLAX44Y44*%
%MOMM*%
G71*
G04*
G04 #@! TF.SameCoordinates,855874C8-C577-487B-9C4C-162BAFBB1C60*
G04*
G04*
G04 #@! TF.FilePolarity,Positive*
G04*
G01*
G75*
%ADD16C,0.5000*%
%ADD17C,0.2540*%
%ADD19R,1.3000X0.9000*%
%ADD20R,0.9000X1.3000*%
%ADD21R,1.6000X1.2000*%
%ADD22R,5.5000X2.0000*%
%ADD23R,1.4000X0.7500*%
%ADD24R,1.1000X1.7500*%
%ADD25R,1.7500X1.1000*%
%ADD26R,0.2800X1.4700*%
%ADD27R,1.4700X0.2800*%
%ADD28R,1.4000X1.0000*%
G04:AMPARAMS|DCode=29|XSize=0.65mm|YSize=1.2mm|CornerRadius=0.1625mm|HoleSize=0mm|Usage=FLASHONLY|Rotation=270.000|XOffset=0mm|YOffset=0mm|HoleType=Round|Shape=RoundedRectangle|*
%AMROUNDEDRECTD29*
21,1,0.6500,0.8750,0,0,270.0*
21,1,0.3250,1.2000,0,0,270.0*
1,1,0.3250,-0.4375,-0.1625*
1,1,0.3250,-0.4375,0.1625*
1,1,0.3250,0.4375,0.1625*
1,1,0.3250,0.4375,-0.1625*
%
%ADD29ROUNDEDRECTD29*%
%ADD30R,1.3500X1.1500*%
G04:AMPARAMS|DCode=31|XSize=1.75mm|YSize=1.25mm|CornerRadius=0.3125mm|HoleSize=0mm|Usage=FLASHONLY|Rotation=90.000|XOffset=0mm|YOffset=0mm|HoleType=Round|Shape=RoundedRectangle|*
%AMROUNDEDRECTD31*
21,1,1.7500,0.6250,0,0,90.0*
21,1,1.1250,1.2500,0,0,90.0*
1,1,0.6250,0.3125,0.5625*
1,1,0.6250,0.3125,-0.5625*
1,1,0.6250,-0.3125,-0.5625*
1,1,0.6250,-0.3125,0.5625*
%
%ADD31ROUNDEDRECTD31*%
%ADD32R,1.1500X1.3500*%
%ADD33R,1.2000X1.6000*%
%ADD34R,1.4000X1.9500*%
%ADD35R,0.6000X2.0000*%
G04:AMPARAMS|DCode=36|XSize=1.2mm|YSize=1.1mm|CornerRadius=0.275mm|HoleSize=0mm|Usage=FLASHONLY|Rotation=0.000|XOffset=0mm|YOffset=0mm|HoleType=Round|Shape=RoundedRectangle|*
%AMROUNDEDRECTD36*
21,1,1.2000,0.5500,0,0,0.0*
21,1,0.6500,1.1000,0,0,0.0*
1,1,0.5500,0.3250,-0.2750*
1,1,0.5500,-0.3250,-0.2750*
1,1,0.5500,-0.3250,0.2750*
1,1,0.5500,0.3250,0.2750*
%
%ADD36ROUNDEDRECTD36*%
G04:AMPARAMS|DCode=37|XSize=3.3mm|YSize=2.1mm|CornerRadius=0.525mm|HoleSize=0mm|Usage=FLASHONLY|Rotation=0.000|XOffset=0mm|YOffset=0mm|HoleType=Round|Shape=RoundedRectangle|*
%AMROUNDEDRECTD37*
21,1,3.3000,1.0500,0,0,0.0*
21,1,2.2500,2.1000,0,0,0.0*
1,1,1.0500,1.1250,-0.5250*
1,1,1.0500,-1.1250,-0.5250*
1,1,1.0500,-1.1250,0.5250*
1,1,1.0500,1.1250,0.5250*
%
%ADD37ROUNDEDRECTD37*%
G04:AMPARAMS|DCode=38|XSize=1mm|YSize=2.1mm|CornerRadius=0.25mm|HoleSize=0mm|Usage=FLASHONLY|Rotation=0.000|XOffset=0mm|YOffset=0mm|HoleType=Round|Shape=RoundedRectangle|*
%AMROUNDEDRECTD38*
21,1,1.0000,1.6000,0,0,0.0*
21,1,0.5000,2.1000,0,0,0.0*
1,1,0.5000,0.2500,-0.8000*
1,1,0.5000,-0.2500,-0.8000*
1,1,0.5000,-0.2500,0.8000*
1,1,0.5000,0.2500,0.8000*
%
%ADD38ROUNDEDRECTD38*%
%ADD39R,1.1000X0.6000*%
%ADD40R,1.4000X2.1000*%
%ADD41R,0.6000X1.4500*%
G04:AMPARAMS|DCode=42|XSize=1.7mm|YSize=2.5mm|CornerRadius=0.425mm|HoleSize=0mm|Usage=FLASHONLY|Rotation=270.000|XOffset=0mm|YOffset=0mm|HoleType=Round|Shape=RoundedRectangle|*
%AMROUNDEDRECTD42*
21,1,1.7000,1.6500,0,0,270.0*
21,1,0.8500,2.5000,0,0,270.0*
1,1,0.8500,-0.8250,-0.4250*
1,1,0.8500,-0.8250,0.4250*
1,1,0.8500,0.8250,0.4250*
1,1,0.8500,0.8250,-0.4250*
%
%ADD42ROUNDEDRECTD42*%
%ADD84R,0.3500X0.3500*%
%ADD85C,0.3000*%
%ADD86C,0.8000*%
%ADD87R,1.2220X1.2220*%
%ADD88C,1.2220*%
%ADD89C,1.5200*%
G04:AMPARAMS|DCode=90|XSize=1.52mm|YSize=1.52mm|CornerRadius=0.38mm|HoleSize=0mm|Usage=FLASHONLY|Rotation=0.000|XOffset=0mm|YOffset=0mm|HoleType=Round|Shape=RoundedRectangle|*
%AMROUNDEDRECTD90*
21,1,1.5200,0.7600,0,0,0.0*
21,1,0.7600,1.5200,0,0,0.0*
1,1,0.7600,0.3800,-0.3800*
1,1,0.7600,-0.3800,-0.3800*
1,1,0.7600,-0.3800,0.3800*
1,1,0.7600,0.3800,0.3800*
%
%ADD90ROUNDEDRECTD90*%
%ADD91C,1.5000*%
G04:AMPARAMS|DCode=92|XSize=1.5mm|YSize=1.5mm|CornerRadius=0.375mm|HoleSize=0mm|Usage=FLASHONLY|Rotation=270.000|XOffset=0mm|YOffset=0mm|HoleType=Round|Shape=RoundedRectangle|*
%AMROUNDEDRECTD92*
21,1,1.5000,0.7500,0,0,270.0*
21,1,0.7500,1.5000,0,0,270.0*
1,1,0.7500,-0.3750,-0.3750*
1,1,0.7500,-0.3750,0.3750*
1,1,0.7500,0.3750,0.3750*
1,1,0.7500,0.3750,-0.3750*
%
%ADD92ROUNDEDRECTD92*%
%ADD93R,1.5400X1.5240*%
%ADD94O,1.5400X1.5240*%
%ADD95C,1.8000*%
%ADD96R,1.8000X1.8000*%
%ADD97C,1.4080*%
%ADD98C,7.0000*%
G04:AMPARAMS|DCode=99|XSize=4mm|YSize=1.8mm|CornerRadius=0.45mm|HoleSize=0mm|Usage=FLASHONLY|Rotation=90.000|XOffset=0mm|YOffset=0mm|HoleType=Round|Shape=RoundedRectangle|*
%AMROUNDEDRECTD99*
21,1,4.0000,0.9000,0,0,90.0*
21,1,3.1000,1.8000,0,0,90.0*
1,1,0.9000,0.4500,1.5500*
1,1,0.9000,0.4500,-1.5500*
1,1,0.9000,-0.4500,-1.5500*
1,1,0.9000,-0.4500,1.5500*
%
%ADD99ROUNDEDRECTD99*%
G04:AMPARAMS|DCode=100|XSize=4mm|YSize=1.8mm|CornerRadius=0.45mm|HoleSize=0mm|Usage=FLASHONLY|Rotation=180.000|XOffset=0mm|YOffset=0mm|HoleType=Round|Shape=RoundedRectangle|*
%AMROUNDEDRECTD100*
21,1,4.0000,0.9000,0,0,180.0*
21,1,3.1000,1.8000,0,0,180.0*
1,1,0.9000,-1.5500,0.4500*
1,1,0.9000,1.5500,0.4500*
1,1,0.9000,1.5500,-0.4500*
1,1,0.9000,-1.5500,-0.4500*
%
%ADD100ROUNDEDRECTD100*%
G04:AMPARAMS|DCode=101|XSize=1.8mm|YSize=1.8mm|CornerRadius=0.45mm|HoleSize=0mm|Usage=FLASHONLY|Rotation=180.000|XOffset=0mm|YOffset=0mm|HoleType=Round|Shape=RoundedRectangle|*
%AMROUNDEDRECTD101*
21,1,1.8000,0.9000,0,0,180.0*
21,1,0.9000,1.8000,0,0,180.0*
1,1,0.9000,-0.4500,0.4500*
1,1,0.9000,0.4500,0.4500*
1,1,0.9000,0.4500,-0.4500*
1,1,0.9000,-0.4500,-0.4500*
%
%ADD101ROUNDEDRECTD101*%
%ADD102C,0.7000*%
G36*
X950000Y700000D02*
X953277D01*
X959775Y699144D01*
X966106Y697448D01*
X972162Y694940D01*
X977838Y691663D01*
X983038Y687673D01*
X987673Y683038D01*
X991663Y677838D01*
X994940Y672162D01*
X997448Y666106D01*
X999144Y659775D01*
X1000000Y653277D01*
Y650000D01*
X1000000Y650000D01*
X1000000Y650000D01*
X1000000Y50000D01*
Y46723D01*
X999145Y40224D01*
X997448Y33893D01*
X994940Y27838D01*
X991663Y22162D01*
X987673Y16962D01*
X983038Y12327D01*
X977838Y8337D01*
X972162Y5060D01*
X966106Y2552D01*
X959775Y856D01*
X953277Y0D01*
X950000Y0D01*
X50000Y0D01*
X46723D01*
X40224Y856D01*
X33893Y2552D01*
X27838Y5060D01*
X22162Y8337D01*
X16962Y12327D01*
X12327Y16962D01*
X8337Y22162D01*
X5060Y27838D01*
X2552Y33893D01*
X856Y40224D01*
X0Y46723D01*
X0Y50000D01*
X0Y650000D01*
Y653277D01*
X856Y659775D01*
X2552Y666106D01*
X5060Y672162D01*
X8337Y677838D01*
X12327Y683038D01*
X16962Y687673D01*
X22162Y691663D01*
X27838Y694940D01*
X33893Y697448D01*
X40224Y699144D01*
X46723Y700000D01*
X50000Y700000D01*
X50000Y700000D01*
X950000Y700000D01*
D02*
G37*
%LPC*%
G36*
X243680Y675010D02*
X223680D01*
Y667662D01*
X208566Y652548D01*
X195291D01*
X195177Y653119D01*
X193796Y655186D01*
X191729Y656567D01*
X189290Y657052D01*
X172790D01*
X170351Y656567D01*
X168284Y655186D01*
X166903Y653119D01*
X166418Y650680D01*
Y642180D01*
X166903Y639741D01*
X168284Y637674D01*
X170351Y636293D01*
X172790Y635808D01*
X174923D01*
Y603694D01*
X140655Y569426D01*
X133750D01*
X132053Y569203D01*
X130472Y568548D01*
X129114Y567506D01*
X128072Y566148D01*
X127417Y564567D01*
X127194Y562870D01*
Y531870D01*
X127417Y530173D01*
X128072Y528592D01*
X129114Y527234D01*
X130472Y526192D01*
X132053Y525537D01*
X133750Y525314D01*
X142750D01*
X142810Y525322D01*
X156496Y511636D01*
X157984Y510641D01*
X159740Y510292D01*
X165240D01*
Y504780D01*
X182740D01*
Y520280D01*
X165240D01*
Y519468D01*
X161640D01*
X149298Y531810D01*
X149306Y531870D01*
Y560775D01*
X163015Y574483D01*
X163080Y574521D01*
X164220Y573892D01*
X164220Y573142D01*
Y561260D01*
X172655D01*
X174379Y560108D01*
X176720Y559642D01*
X213750D01*
Y559260D01*
X230750D01*
Y560232D01*
X253177D01*
X253703Y558962D01*
X238056Y543314D01*
X237061Y541826D01*
X236712Y540070D01*
Y489580D01*
X222368Y475237D01*
X184828D01*
X183073Y474887D01*
X181584Y473893D01*
X166821Y459130D01*
X151810D01*
Y456218D01*
X28720D01*
X26964Y455869D01*
X25476Y454874D01*
X18346Y447744D01*
X17351Y446256D01*
X17002Y444500D01*
Y416560D01*
X17351Y414804D01*
X18346Y413316D01*
X26477Y405184D01*
X25830Y402768D01*
Y399872D01*
X26580Y397074D01*
X28028Y394566D01*
X30076Y392518D01*
X32584Y391070D01*
X35382Y390320D01*
X38278D01*
X41076Y391070D01*
X43584Y392518D01*
X45632Y394566D01*
X47080Y397074D01*
X47830Y399872D01*
Y402768D01*
X47080Y405566D01*
X45632Y408074D01*
X43584Y410122D01*
X41076Y411570D01*
X38278Y412320D01*
X35382D01*
X32966Y411673D01*
X30092Y414547D01*
X30578Y415720D01*
X47830D01*
Y428482D01*
X84490D01*
Y428070D01*
X99490D01*
Y438070D01*
X84490D01*
Y437658D01*
X47830D01*
Y437720D01*
X26178D01*
Y442599D01*
X30621Y447042D01*
X151810D01*
Y444130D01*
X173310D01*
Y452641D01*
X186729Y466060D01*
X224268D01*
X226024Y466410D01*
X227513Y467404D01*
X244544Y484436D01*
X245539Y485924D01*
X245888Y487680D01*
Y538170D01*
X260748Y553030D01*
X265735D01*
X267735Y553427D01*
X269430Y554560D01*
X270563Y556255D01*
X270960Y558255D01*
Y569505D01*
X270563Y571505D01*
X269430Y573200D01*
X267735Y574333D01*
X265735Y574730D01*
X259485D01*
X257485Y574333D01*
X255790Y573200D01*
X254657Y571505D01*
X254260Y569505D01*
Y569408D01*
X230750D01*
Y572260D01*
X222402D01*
X214398Y580264D01*
Y641417D01*
X215426Y642104D01*
X232332Y659010D01*
X243680D01*
Y675010D01*
D02*
G37*
G36*
X897640Y671410D02*
X879640D01*
Y646410D01*
X897640D01*
Y671410D01*
D02*
G37*
G36*
X808740D02*
X790740D01*
Y646410D01*
X808740D01*
Y671410D01*
D02*
G37*
G36*
X719840D02*
X701840D01*
Y646410D01*
X719840D01*
Y671410D01*
D02*
G37*
G36*
X630940D02*
X612940D01*
Y646410D01*
X630940D01*
Y671410D01*
D02*
G37*
G36*
X547120D02*
X529120D01*
Y646410D01*
X547120D01*
Y671410D01*
D02*
G37*
G36*
X429220Y674008D02*
X424220D01*
X422464Y673659D01*
X420976Y672664D01*
X419981Y671176D01*
X419632Y669420D01*
Y653420D01*
X419981Y651664D01*
X420976Y650176D01*
X422464Y649181D01*
X423386Y648998D01*
Y633094D01*
X422057Y631766D01*
X421220Y629744D01*
Y627556D01*
X422057Y625535D01*
X423386Y624206D01*
Y610983D01*
X415470D01*
X413577Y610733D01*
X411814Y610003D01*
X411107Y609461D01*
X409837Y610087D01*
Y650734D01*
X410459Y651664D01*
X410808Y653420D01*
Y669420D01*
X410459Y671176D01*
X409464Y672664D01*
X407976Y673659D01*
X406220Y674008D01*
X401220D01*
X399464Y673659D01*
X397976Y672664D01*
X396981Y671176D01*
X396632Y669420D01*
Y653420D01*
X396981Y651664D01*
X397603Y650734D01*
Y610984D01*
X354004Y567386D01*
X353259Y567312D01*
X345406Y575166D01*
X343421Y576492D01*
X341134Y576947D01*
X340817Y577418D01*
X340522Y578131D01*
X353576Y591184D01*
X354902Y593169D01*
X355368Y595510D01*
Y617523D01*
X356852Y619007D01*
X358103Y621173D01*
X358750Y623589D01*
Y626091D01*
X358103Y628507D01*
X356852Y630673D01*
X355083Y632442D01*
X352917Y633693D01*
X350501Y634340D01*
X347999D01*
X345583Y633693D01*
X343417Y632442D01*
X341648Y630673D01*
X340397Y628507D01*
X339750Y626091D01*
Y623589D01*
X340397Y621173D01*
X341648Y619007D01*
X343133Y617523D01*
Y598044D01*
X324428Y579340D01*
X314080D01*
Y572991D01*
X304644Y563556D01*
X303318Y561571D01*
X302852Y559230D01*
Y533260D01*
X301220D01*
Y520475D01*
X299393Y518648D01*
X298220Y519134D01*
Y533260D01*
X282720D01*
Y527149D01*
X268280D01*
X268074Y528183D01*
X267024Y529754D01*
X265453Y530804D01*
X263600Y531173D01*
X257100D01*
X255247Y530804D01*
X253675Y529754D01*
X252626Y528183D01*
X252257Y526330D01*
Y520830D01*
X252626Y518977D01*
X253675Y517406D01*
X255247Y516356D01*
X257100Y515987D01*
X263600D01*
X265453Y516356D01*
X267024Y517406D01*
X268074Y518977D01*
X268280Y520011D01*
X282720D01*
Y515760D01*
X294846D01*
X295332Y514587D01*
X249925Y469180D01*
X249202Y468098D01*
X248948Y466822D01*
Y437813D01*
X228119Y416984D01*
X212680D01*
Y429920D01*
X191180D01*
Y419967D01*
X179756Y408543D01*
X178983Y407385D01*
X178711Y406019D01*
Y383508D01*
X165938Y370734D01*
X165164Y369577D01*
X165089Y369201D01*
X159755D01*
X158341Y368920D01*
X157142Y368119D01*
X156340Y366919D01*
X156059Y365505D01*
Y362255D01*
X156340Y360841D01*
X157142Y359641D01*
X158341Y358840D01*
X159755Y358559D01*
X168505D01*
X169919Y358840D01*
X171119Y359641D01*
X171920Y360841D01*
X172201Y362255D01*
Y365505D01*
X172030Y366367D01*
Y366733D01*
X184803Y379506D01*
X185306Y380259D01*
X186576Y379874D01*
Y314605D01*
X186830Y313329D01*
X187553Y312247D01*
X215153Y284646D01*
Y217804D01*
X213825Y216476D01*
X212987Y214454D01*
Y212955D01*
X211717Y212429D01*
X205056Y219091D01*
X203898Y219864D01*
X202533Y220136D01*
X201790D01*
Y227460D01*
X184290D01*
Y223660D01*
X183020Y223437D01*
X173850Y232607D01*
Y243060D01*
X156350D01*
Y227560D01*
X168803D01*
X170630Y225733D01*
X170144Y224560D01*
X156350D01*
Y209060D01*
X169258D01*
X169580Y208996D01*
X181915D01*
X183038Y207873D01*
X184120Y207150D01*
X184290Y207116D01*
Y193460D01*
X183294Y192799D01*
X134620D01*
X133254Y192527D01*
X132097Y191753D01*
X91232Y150889D01*
X76060D01*
Y154350D01*
X62266D01*
X61780Y155523D01*
X63607Y157350D01*
X76060D01*
Y172850D01*
X58560D01*
Y162397D01*
X54672Y158509D01*
X38372D01*
X38190Y159186D01*
X36742Y161694D01*
X34694Y163742D01*
X32186Y165190D01*
X29388Y165940D01*
X26492D01*
X23694Y165190D01*
X21186Y163742D01*
X19138Y161694D01*
X17690Y159186D01*
X16940Y156388D01*
Y153492D01*
X17690Y150694D01*
X19138Y148186D01*
X21186Y146138D01*
X23694Y144690D01*
X26492Y143940D01*
X29388D01*
X32186Y144690D01*
X34694Y146138D01*
X36742Y148186D01*
X38190Y150694D01*
X38372Y151371D01*
X44537D01*
X44662Y150101D01*
X43634Y149897D01*
X42477Y149123D01*
X33774Y140421D01*
X32440Y140596D01*
X23440D01*
X21743Y140373D01*
X20162Y139718D01*
X18804Y138676D01*
X17762Y137318D01*
X17107Y135737D01*
X16884Y134040D01*
Y125040D01*
X17107Y123343D01*
X17762Y121762D01*
X18804Y120404D01*
X20162Y119362D01*
X21743Y118707D01*
X23440Y118484D01*
X32440D01*
X34137Y118707D01*
X35718Y119362D01*
X37076Y120404D01*
X38118Y121762D01*
X38773Y123343D01*
X38996Y125040D01*
Y134040D01*
X38821Y135374D01*
X46478Y143031D01*
X58560D01*
Y138850D01*
X76060D01*
Y143751D01*
X92710D01*
X94076Y144023D01*
X95233Y144797D01*
X136098Y185661D01*
X272372D01*
X272425Y184413D01*
X271059Y184142D01*
X269901Y183368D01*
X259080Y172547D01*
X253843Y177783D01*
X252686Y178557D01*
X251320Y178829D01*
X198390D01*
X197024Y178557D01*
X195867Y177783D01*
X179233Y161150D01*
X168780D01*
Y148697D01*
X157497Y137413D01*
X156723Y136256D01*
X156451Y134890D01*
Y114940D01*
X150020D01*
Y98940D01*
X170020D01*
Y114940D01*
X163589D01*
Y133412D01*
X173827Y143650D01*
X184280D01*
Y156103D01*
X199868Y171691D01*
X228680D01*
Y161465D01*
X228420D01*
X227054Y161193D01*
X225897Y160419D01*
X206867Y141390D01*
X206093Y140232D01*
X205821Y138866D01*
Y101419D01*
X206093Y100054D01*
X206867Y98896D01*
X212496Y93267D01*
X213654Y92493D01*
X215019Y92221D01*
X365030D01*
X366396Y92493D01*
X367553Y93267D01*
X392413Y118127D01*
X393187Y119284D01*
X393459Y120650D01*
Y140762D01*
X410058Y157361D01*
X416700D01*
Y153180D01*
X434200D01*
Y162924D01*
X435373Y163410D01*
X437122Y161662D01*
Y155630D01*
X437393Y154265D01*
X438167Y153107D01*
X445207Y146067D01*
X446365Y145293D01*
X447730Y145021D01*
X464130D01*
X465495Y145293D01*
X466653Y146067D01*
X499303Y178717D01*
X500077Y179875D01*
X500349Y181240D01*
Y198870D01*
X503744D01*
X503830Y198440D01*
X504552Y197358D01*
X511510Y190400D01*
X512592Y189678D01*
X513868Y189424D01*
X526941D01*
X527446Y188919D01*
Y182300D01*
X527510Y181978D01*
Y170570D01*
X535795D01*
X546576Y159789D01*
Y150494D01*
X545247Y149165D01*
X544411Y147146D01*
X537185Y139920D01*
X524900D01*
Y126920D01*
X541900D01*
Y135205D01*
X547705Y141010D01*
X548816Y140550D01*
X551004D01*
X552430Y141141D01*
X552757Y141076D01*
X593560D01*
Y140660D01*
X607560D01*
Y144568D01*
X607624Y144890D01*
Y145133D01*
X608587Y146096D01*
X612034D01*
X612996Y145133D01*
Y144890D01*
X613060Y144568D01*
Y140660D01*
X618496D01*
Y128187D01*
X617716Y127407D01*
X614060D01*
Y133660D01*
X604612D01*
X604290Y133724D01*
X603968Y133660D01*
X593560D01*
Y126160D01*
X594957D01*
X595433Y125448D01*
X603858Y117022D01*
X604940Y116300D01*
X606216Y116046D01*
X621616D01*
X622892Y116300D01*
X623973Y117022D01*
X624687Y117736D01*
X627533D01*
X628247Y117022D01*
X629328Y116300D01*
X630604Y116046D01*
X631190D01*
X632466Y116300D01*
X633548Y117022D01*
X643867Y127343D01*
X644590Y128424D01*
X644844Y129700D01*
Y151926D01*
X646013Y153095D01*
X646850Y155116D01*
Y157304D01*
X646013Y159326D01*
X644684Y160654D01*
Y174652D01*
X653867Y183835D01*
X654590Y184917D01*
X654844Y186193D01*
Y206919D01*
X655477Y207421D01*
X656730Y206862D01*
Y197630D01*
X662146D01*
Y179701D01*
X657152Y174708D01*
X656430Y173626D01*
X656176Y172350D01*
Y147540D01*
X651900D01*
Y134540D01*
X663308D01*
X663630Y134476D01*
X669003D01*
X669707Y132774D01*
X671255Y131227D01*
X673276Y130390D01*
X675464D01*
X677486Y131227D01*
X679033Y132774D01*
X679230Y133250D01*
X680500Y132998D01*
Y122936D01*
X639089Y81526D01*
X612170D01*
X610804Y81254D01*
X609646Y80481D01*
X582058Y52893D01*
X579174D01*
X577394Y54672D01*
X575205Y55936D01*
X572764Y56590D01*
X570236D01*
X567794Y55936D01*
X565606Y54672D01*
X563818Y52884D01*
X562554Y50696D01*
X561900Y48254D01*
Y45726D01*
X562554Y43285D01*
X563818Y41095D01*
X565606Y39308D01*
X567794Y38044D01*
X570236Y37390D01*
X572764D01*
X575205Y38044D01*
X577394Y39308D01*
X579182Y41095D01*
X580446Y43285D01*
X581100Y45726D01*
Y45756D01*
X583537D01*
X584902Y46027D01*
X586030Y46781D01*
X586585Y46678D01*
X587300Y46382D01*
Y45726D01*
X587954Y43285D01*
X589218Y41095D01*
X591006Y39308D01*
X593195Y38044D01*
X595636Y37390D01*
X598164D01*
X600606Y38044D01*
X602794Y39308D01*
X604582Y41095D01*
X605846Y43285D01*
X606500Y45726D01*
Y45756D01*
X608937D01*
X610302Y46027D01*
X611430Y46781D01*
X611985Y46678D01*
X612700Y46382D01*
Y45726D01*
X613354Y43285D01*
X614618Y41095D01*
X616405Y39308D01*
X618595Y38044D01*
X621036Y37390D01*
X623564D01*
X626006Y38044D01*
X628195Y39308D01*
X629982Y41095D01*
X631246Y43285D01*
X631900Y45726D01*
Y45938D01*
X632350Y46027D01*
X633508Y46801D01*
X637453Y50746D01*
X638592Y50089D01*
X638100Y48254D01*
Y45726D01*
X638754Y43285D01*
X640018Y41095D01*
X641805Y39308D01*
X643995Y38044D01*
X646436Y37390D01*
X648964D01*
X651405Y38044D01*
X653595Y39308D01*
X655382Y41095D01*
X656646Y43285D01*
X657300Y45726D01*
Y48254D01*
X656646Y50696D01*
X655382Y52884D01*
X653595Y54672D01*
X651405Y55936D01*
X648964Y56590D01*
X646436D01*
X644601Y56098D01*
X643944Y57237D01*
X701023Y114317D01*
X701797Y115474D01*
X702069Y116840D01*
Y228881D01*
X723980D01*
Y206950D01*
X729265D01*
X765810Y170405D01*
X766892Y169682D01*
X768168Y169428D01*
X772611D01*
X804916Y137123D01*
X804430Y135950D01*
X800180D01*
Y116665D01*
X798653Y115138D01*
X797480Y115624D01*
Y135950D01*
X787480D01*
Y119234D01*
X786824Y118963D01*
X786050Y118188D01*
X784780Y118714D01*
Y127239D01*
X785280Y128446D01*
Y130634D01*
X784780Y131841D01*
Y135950D01*
X774780D01*
Y131841D01*
X774280Y130634D01*
Y128446D01*
X774780Y127239D01*
Y111950D01*
X784780D01*
X785172Y111409D01*
X785277Y111185D01*
X785277Y111185D01*
X786824Y109637D01*
X788846Y108800D01*
X790519D01*
X791053Y107538D01*
X788075Y104560D01*
X786306D01*
X784285Y103723D01*
X782737Y102176D01*
X781900Y100154D01*
Y97966D01*
X782737Y95944D01*
X784285Y94397D01*
X786306Y93560D01*
X788494D01*
X789233Y93866D01*
X789871Y93440D01*
X791147Y93186D01*
X797390D01*
Y85770D01*
X812390D01*
Y107270D01*
X801874D01*
X801388Y108443D01*
X804895Y111950D01*
X810180D01*
Y130200D01*
X811353Y130686D01*
X831056Y110983D01*
Y107270D01*
X826890D01*
Y85770D01*
X841890D01*
Y93186D01*
X850970D01*
X851644Y93320D01*
X869156D01*
X869270Y93320D01*
X870426Y93045D01*
Y54808D01*
X870448Y54696D01*
X870406Y54672D01*
X868618Y52884D01*
X867354Y50696D01*
X866700Y48254D01*
Y45726D01*
X867354Y43285D01*
X868618Y41095D01*
X870406Y39308D01*
X872595Y38044D01*
X875036Y37390D01*
X877564D01*
X880005Y38044D01*
X882195Y39308D01*
X883982Y41095D01*
X885246Y43285D01*
X885900Y45726D01*
Y48254D01*
X885246Y50696D01*
X883982Y52884D01*
X882195Y54672D01*
X880005Y55936D01*
X877564Y56590D01*
X877094D01*
Y140970D01*
X876840Y142246D01*
X876117Y143328D01*
X871044Y148401D01*
Y161049D01*
X872085D01*
X873499Y161330D01*
X874698Y162132D01*
X875500Y163331D01*
X875781Y164745D01*
Y167995D01*
X875500Y169409D01*
X874698Y170609D01*
X873499Y171410D01*
X872085Y171691D01*
X863335D01*
X861921Y171410D01*
X860722Y170609D01*
X859920Y169409D01*
X859639Y167995D01*
Y167066D01*
X858466Y166579D01*
X849781Y175264D01*
Y177495D01*
X849500Y178909D01*
X848699Y180109D01*
X847499Y180910D01*
X846085Y181191D01*
X837335D01*
X835921Y180910D01*
X834722Y180109D01*
X833920Y178909D01*
X833639Y177495D01*
Y174245D01*
X833920Y172831D01*
X834722Y171632D01*
X835921Y170830D01*
X837335Y170549D01*
X845066D01*
X855186Y160429D01*
Y137820D01*
X847770D01*
Y122820D01*
X869270D01*
Y122820D01*
X870426Y122545D01*
Y108595D01*
X869270Y108320D01*
X869156Y108320D01*
X847770D01*
Y99854D01*
X841890D01*
Y107270D01*
X837724D01*
Y112365D01*
X837470Y113640D01*
X836748Y114722D01*
X776350Y175120D01*
X775268Y175842D01*
X773992Y176096D01*
X769549D01*
X739868Y205777D01*
X740354Y206950D01*
X746680D01*
Y226944D01*
X747853Y227430D01*
X749380Y225903D01*
Y206950D01*
X759380D01*
Y230950D01*
X754427D01*
X747669Y237708D01*
X748155Y238881D01*
X756832D01*
X763493Y232220D01*
X763468Y230950D01*
X762080D01*
Y206950D01*
X772080D01*
Y230950D01*
X770649D01*
Y233680D01*
X770377Y235046D01*
X769603Y236203D01*
X760833Y244973D01*
X759676Y245747D01*
X758310Y246019D01*
X694398D01*
X693032Y245747D01*
X691875Y244973D01*
X681545Y234644D01*
X680771Y233486D01*
X680500Y232120D01*
Y138782D01*
X679230Y138530D01*
X679033Y139005D01*
X677486Y140553D01*
X675464Y141390D01*
X673276D01*
X672215Y140951D01*
X671243Y141144D01*
X668900D01*
Y147540D01*
X662844D01*
Y170969D01*
X667838Y175963D01*
X668560Y177044D01*
X668814Y178320D01*
Y197630D01*
X674230D01*
Y213130D01*
X662480D01*
X661994Y214303D01*
X662357Y214667D01*
X663080Y215749D01*
X663156Y216130D01*
X674230D01*
Y231630D01*
X661445D01*
X658765Y234310D01*
X657684Y235032D01*
X656408Y235286D01*
X615249D01*
X613564Y236971D01*
Y240741D01*
X613310Y242016D01*
X612779Y242811D01*
X613228Y244081D01*
X615290D01*
X616385Y242987D01*
X618406Y242150D01*
X619000D01*
Y239150D01*
X632000D01*
Y256150D01*
X619000D01*
Y253150D01*
X618406D01*
X616385Y252313D01*
X615290Y251219D01*
X611544D01*
X609850Y252913D01*
X610336Y254086D01*
X610645D01*
X611921Y254340D01*
X613003Y255063D01*
X627657Y269716D01*
X673570D01*
Y257240D01*
X732570D01*
Y265906D01*
X754565D01*
X787248Y233222D01*
X788330Y232500D01*
X789605Y232246D01*
X851969D01*
X859950Y224265D01*
Y212980D01*
X879950D01*
Y228980D01*
X864665D01*
X855707Y237938D01*
X854626Y238660D01*
X853350Y238914D01*
X790987D01*
X773834Y256067D01*
X774320Y257240D01*
X827570D01*
Y265906D01*
X835940D01*
X837216Y266160D01*
X838298Y266882D01*
X839265Y267850D01*
X854550D01*
Y283850D01*
X834550D01*
Y272574D01*
X827570D01*
Y281240D01*
X773285D01*
X769658Y284867D01*
X768576Y285590D01*
X767300Y285844D01*
X673670D01*
X672394Y285590D01*
X671312Y284868D01*
X667369Y280924D01*
X665222D01*
X664837Y282194D01*
X665589Y282697D01*
X675234Y292341D01*
X718040D01*
X719406Y292613D01*
X720563Y293387D01*
X721337Y294544D01*
X721502Y295375D01*
X725257Y299130D01*
X735210D01*
Y320630D01*
X720210D01*
Y304177D01*
X715517Y299483D01*
X715513Y299479D01*
X690359D01*
X689450Y300350D01*
Y316350D01*
X669450D01*
Y305065D01*
X660189Y295804D01*
X631300D01*
Y298220D01*
X618356D01*
X617491Y299136D01*
X617566Y299897D01*
X618889Y301220D01*
X631300D01*
Y303636D01*
X641510D01*
Y300350D01*
X661510D01*
Y316350D01*
X641510D01*
Y310304D01*
X631300D01*
Y312720D01*
X613300D01*
Y305989D01*
X590980D01*
X590132Y305820D01*
X581630D01*
Y299020D01*
Y290989D01*
X579878D01*
X573810Y297056D01*
X574460Y298626D01*
Y300814D01*
X573623Y302836D01*
X572076Y304383D01*
X570054Y305220D01*
X567866D01*
X565844Y304383D01*
X564297Y302836D01*
X563460Y300814D01*
Y298626D01*
X564297Y296604D01*
X565844Y295057D01*
X566410Y294823D01*
X566428Y294729D01*
X567202Y293571D01*
X571454Y289319D01*
X570928Y288049D01*
X568090D01*
X566996Y289143D01*
X564974Y289980D01*
X562786D01*
X560765Y289143D01*
X559217Y287596D01*
X558380Y285574D01*
Y283386D01*
X558718Y282569D01*
X557709Y281687D01*
X556084Y282360D01*
X553896D01*
X551875Y281523D01*
X550327Y279975D01*
X549490Y277954D01*
Y275766D01*
X550327Y273745D01*
X551875Y272197D01*
X553896Y271360D01*
X556084D01*
X558106Y272197D01*
X559653Y273745D01*
X559655Y273751D01*
X564225D01*
X564711Y272578D01*
X563063Y270930D01*
X561516D01*
X559495Y270093D01*
X557947Y268545D01*
X557110Y266524D01*
Y264336D01*
X557947Y262314D01*
X559495Y260767D01*
X561516Y259930D01*
X563704D01*
X565726Y260767D01*
X567273Y262314D01*
X568110Y264336D01*
Y265883D01*
X571078Y268851D01*
X590980D01*
X591828Y269020D01*
X600330D01*
Y279020D01*
Y288494D01*
X601600Y288703D01*
X607607Y282697D01*
X608764Y281923D01*
X610130Y281651D01*
X622302D01*
X622687Y280381D01*
X622038Y279947D01*
X607844Y265754D01*
X600330D01*
Y265820D01*
X581630D01*
Y254020D01*
Y240989D01*
X579035D01*
X578703Y241791D01*
X577155Y243338D01*
X575134Y244175D01*
X572946D01*
X570924Y243338D01*
X569377Y241791D01*
X568540Y239769D01*
Y237581D01*
X569377Y235560D01*
X570924Y234013D01*
X572946Y233175D01*
X575134D01*
X576766Y233851D01*
X581630D01*
Y224020D01*
X593726D01*
Y212428D01*
X593980Y211152D01*
X594702Y210070D01*
X596535Y208237D01*
X596480Y208104D01*
Y205916D01*
X597317Y203895D01*
X598865Y202347D01*
X600886Y201510D01*
X603074D01*
X605095Y202347D01*
X606643Y203895D01*
X607480Y205916D01*
Y208104D01*
X606643Y210126D01*
X605095Y211673D01*
X603074Y212510D01*
X601693D01*
X600394Y213809D01*
Y225000D01*
X601567Y225486D01*
X604866Y222187D01*
X604627Y221949D01*
X603790Y219927D01*
Y217739D01*
X604627Y215718D01*
X606174Y214170D01*
X608196Y213333D01*
X610384D01*
X612405Y214170D01*
X613952Y215718D01*
X614790Y217739D01*
Y218287D01*
X616060Y218966D01*
X616114Y218930D01*
X617389Y218676D01*
X628790D01*
Y214495D01*
X620548Y206253D01*
X618669D01*
X616648Y205416D01*
X615100Y203869D01*
X614263Y201847D01*
Y199659D01*
X615100Y197638D01*
X616429Y196309D01*
Y152876D01*
X615613Y152282D01*
X615201Y152169D01*
X614690Y152510D01*
X613414Y152764D01*
X607206D01*
X605930Y152510D01*
X604848Y151788D01*
X601932Y148872D01*
X601457Y148160D01*
X593560D01*
Y147744D01*
X555161D01*
X554573Y149165D01*
X553244Y150494D01*
Y161170D01*
X552990Y162446D01*
X552267Y163528D01*
X540510Y175285D01*
Y182523D01*
X544303Y186317D01*
X545077Y187474D01*
X545349Y188840D01*
Y198870D01*
X575180D01*
Y217570D01*
X538380D01*
Y209067D01*
X538211Y208220D01*
Y190318D01*
X535463Y187570D01*
X534114D01*
Y190300D01*
X533860Y191576D01*
X533138Y192658D01*
X530680Y195115D01*
X529598Y195838D01*
X528322Y196092D01*
X515249D01*
X513741Y197600D01*
X514267Y198870D01*
X535180D01*
Y217570D01*
X513380D01*
Y199757D01*
X512110Y199231D01*
X510244Y201096D01*
Y208090D01*
X510180Y208412D01*
Y217570D01*
X499136D01*
X498650Y218743D01*
X509253Y229346D01*
X510027Y230504D01*
X510299Y231870D01*
Y265430D01*
X510027Y266796D01*
X509253Y267953D01*
X497363Y279843D01*
X496206Y280617D01*
X494840Y280889D01*
X486930D01*
Y294020D01*
Y305820D01*
X474834D01*
Y318235D01*
X474580Y319511D01*
X473857Y320592D01*
X451644Y342806D01*
Y353840D01*
X457060D01*
Y369340D01*
X439560D01*
Y353840D01*
X444976D01*
Y341425D01*
X445230Y340149D01*
X445952Y339067D01*
X468166Y316854D01*
Y302550D01*
X468230Y302228D01*
Y300754D01*
X449451D01*
X418624Y331581D01*
Y356380D01*
X424040D01*
Y371880D01*
X406540D01*
Y356380D01*
X411956D01*
Y330200D01*
X412210Y328924D01*
X412933Y327842D01*
X442878Y297897D01*
X442460Y296519D01*
X442290Y296485D01*
X383608Y355167D01*
X384094Y356340D01*
X387210D01*
Y371840D01*
X369710D01*
Y358024D01*
X368537Y357538D01*
X362798Y363278D01*
X361716Y364000D01*
X360440Y364254D01*
X356730D01*
Y373150D01*
X339230D01*
Y357650D01*
X352138D01*
X352460Y357586D01*
X359059D01*
X362888Y353757D01*
X362402Y352584D01*
X332221D01*
X322440Y362365D01*
Y373150D01*
X304940D01*
Y357650D01*
X317725D01*
X328483Y346893D01*
X329564Y346170D01*
X330840Y345916D01*
X364309D01*
X430162Y280062D01*
X431244Y279340D01*
X432519Y279086D01*
X468230D01*
Y275989D01*
X347350D01*
X345984Y275717D01*
X344827Y274943D01*
X334027Y264143D01*
X333253Y262986D01*
X332981Y261620D01*
Y230698D01*
X316053Y213770D01*
X314880Y214256D01*
Y227000D01*
X304880D01*
Y221319D01*
X302180D01*
Y227000D01*
X292180D01*
Y213547D01*
X290653Y212020D01*
X289480Y212506D01*
Y227000D01*
X288049D01*
Y236372D01*
X296733Y245057D01*
X297507Y246215D01*
X297779Y247580D01*
Y285910D01*
X302865D01*
X303210Y285841D01*
X303732D01*
X308887Y280687D01*
X310044Y279913D01*
X311410Y279641D01*
X353060D01*
X354426Y279913D01*
X355583Y280687D01*
X357633Y282737D01*
X358407Y283894D01*
X358679Y285260D01*
Y291510D01*
X362610D01*
Y298691D01*
X370002D01*
X377970Y290723D01*
Y278270D01*
X393470D01*
Y295770D01*
X383017D01*
X374003Y304783D01*
X372846Y305557D01*
X371480Y305829D01*
X362610D01*
Y313010D01*
X347610D01*
Y291510D01*
X351541D01*
Y286779D01*
X312888D01*
X307733Y291933D01*
X306710Y292617D01*
Y305910D01*
X290710D01*
Y291755D01*
X290641Y291410D01*
Y249058D01*
X285773Y244190D01*
X284600Y244676D01*
Y258920D01*
X282734D01*
Y350520D01*
X282480Y351796D01*
X281758Y352878D01*
X260168Y374468D01*
X259086Y375190D01*
X257810Y375444D01*
X205247D01*
X196444Y384247D01*
X196930Y385420D01*
X212680D01*
Y389586D01*
X245847D01*
X247123Y389840D01*
X248204Y390563D01*
X286918Y429276D01*
X307651D01*
X308419Y428006D01*
X308137Y426590D01*
Y421090D01*
X308506Y419237D01*
X309555Y417665D01*
X311127Y416616D01*
X312896Y416264D01*
Y391650D01*
X304940D01*
Y376150D01*
X322440D01*
Y391650D01*
X319564D01*
Y416264D01*
X321333Y416616D01*
X322905Y417665D01*
X323954Y419237D01*
X324323Y421090D01*
Y426590D01*
X324041Y428006D01*
X324809Y429276D01*
X341403D01*
X342082Y428006D01*
X341526Y427173D01*
X341157Y425320D01*
Y419820D01*
X341526Y417967D01*
X342575Y416395D01*
X344147Y415346D01*
X345916Y414994D01*
Y391650D01*
X339230D01*
Y376150D01*
X356730D01*
Y391650D01*
X352584D01*
Y414994D01*
X354353Y415346D01*
X355924Y416395D01*
X356974Y417967D01*
X357343Y419820D01*
Y425320D01*
X356974Y427173D01*
X356418Y428006D01*
X357097Y429276D01*
X371703D01*
X372382Y428006D01*
X372006Y427443D01*
X371637Y425590D01*
Y420090D01*
X372006Y418237D01*
X373055Y416665D01*
X374627Y415616D01*
X376396Y415264D01*
Y390340D01*
X369710D01*
Y374840D01*
X387210D01*
Y390340D01*
X383064D01*
Y415264D01*
X384833Y415616D01*
X386404Y416665D01*
X387454Y418237D01*
X387823Y420090D01*
Y425590D01*
X387454Y427443D01*
X387079Y428006D01*
X387757Y429276D01*
X411253D01*
X411932Y428006D01*
X411376Y427173D01*
X411007Y425320D01*
Y419820D01*
X411376Y417967D01*
X412425Y416395D01*
X413997Y415346D01*
X415766Y414994D01*
Y390380D01*
X406540D01*
Y374880D01*
X424040D01*
Y390380D01*
X422434D01*
Y414994D01*
X424203Y415346D01*
X425774Y416395D01*
X426824Y417967D01*
X427193Y419820D01*
Y425320D01*
X426824Y427173D01*
X426268Y428006D01*
X426947Y429276D01*
X444273D01*
X444952Y428006D01*
X444396Y427173D01*
X444027Y425320D01*
Y419820D01*
X444396Y417967D01*
X445446Y416395D01*
X447017Y415346D01*
X448786Y414994D01*
Y387840D01*
X439560D01*
Y372340D01*
X457060D01*
Y387840D01*
X455454D01*
Y414994D01*
X457223Y415346D01*
X458795Y416395D01*
X459844Y417967D01*
X460213Y419820D01*
Y425320D01*
X459844Y427173D01*
X459288Y428006D01*
X459967Y429276D01*
X477869D01*
X523446Y383699D01*
Y330970D01*
X510089D01*
Y349164D01*
X513565Y352640D01*
X515444D01*
X517466Y353477D01*
X519013Y355024D01*
X519850Y357046D01*
Y359234D01*
X519013Y361255D01*
X517466Y362803D01*
X515444Y363640D01*
X513256D01*
X511235Y362803D01*
X509687Y361255D01*
X508850Y359234D01*
Y357355D01*
X504398Y352902D01*
X503933Y352208D01*
X502486Y351859D01*
X499530Y354815D01*
Y356694D01*
X498693Y358716D01*
X497146Y360263D01*
X495124Y361100D01*
X492936D01*
X490914Y360263D01*
X489367Y358716D01*
X488530Y356694D01*
Y354506D01*
X489367Y352485D01*
X490914Y350937D01*
X492936Y350100D01*
X494815D01*
X498446Y346469D01*
Y342842D01*
X497273Y342355D01*
X497146Y342483D01*
X495124Y343320D01*
X492936D01*
X490914Y342483D01*
X489367Y340936D01*
X488530Y338914D01*
Y336726D01*
X489367Y334705D01*
X490914Y333157D01*
X492936Y332320D01*
X493446D01*
Y330970D01*
X493380D01*
Y312270D01*
X548446D01*
Y306718D01*
X548218Y306490D01*
X547546D01*
X545524Y305653D01*
X543977Y304105D01*
X543140Y302084D01*
Y299896D01*
X543977Y297875D01*
X545524Y296327D01*
X547546Y295490D01*
X549734D01*
X551755Y296327D01*
X553303Y297875D01*
X554140Y299896D01*
Y302084D01*
X553877Y302719D01*
X554137Y302979D01*
X554860Y304061D01*
X555114Y305337D01*
Y312270D01*
X575180D01*
Y318286D01*
X612046D01*
X613322Y318540D01*
X614403Y319263D01*
X645037Y349896D01*
X862500D01*
X863776Y350150D01*
X864857Y350872D01*
X929751Y415766D01*
X963930D01*
X965206Y416020D01*
X966288Y416743D01*
X993667Y444122D01*
X994390Y445204D01*
X994644Y446480D01*
Y489400D01*
X994390Y490676D01*
X993667Y491757D01*
X982087Y503338D01*
X982320Y504209D01*
Y506711D01*
X981673Y509127D01*
X980422Y511293D01*
X978653Y513062D01*
X976487Y514313D01*
X974071Y514960D01*
X971569D01*
X969153Y514313D01*
X966987Y513062D01*
X965218Y511293D01*
X963967Y509127D01*
X963320Y506711D01*
Y504209D01*
X963967Y501793D01*
X965218Y499627D01*
X966987Y497858D01*
X969153Y496607D01*
X971569Y495960D01*
X974071D01*
X976487Y496607D01*
X978326Y497669D01*
X981638Y494356D01*
X980829Y493370D01*
X980020Y493910D01*
X978744Y494164D01*
X968359D01*
X967083Y493910D01*
X966001Y493188D01*
X957762Y484949D01*
X957372Y484364D01*
X955939Y484316D01*
X955931Y484319D01*
X955022Y485893D01*
X953253Y487662D01*
X951087Y488913D01*
X948671Y489560D01*
X946169D01*
X943753Y488913D01*
X941587Y487662D01*
X939818Y485893D01*
X938567Y483727D01*
X937920Y481311D01*
Y478809D01*
X937958Y478668D01*
X909664Y450374D01*
X896620D01*
X895344Y450120D01*
X894262Y449398D01*
X877690Y432825D01*
X877288Y432868D01*
X876420Y433258D01*
Y440530D01*
X870199D01*
Y459250D01*
X874130D01*
Y480750D01*
X859130D01*
Y459250D01*
X863061D01*
Y440530D01*
X860420D01*
Y420530D01*
X870670D01*
X871156Y419357D01*
X861904Y410104D01*
X857196D01*
X855920Y409850D01*
X854838Y409128D01*
X842275Y396564D01*
X611941D01*
X610666Y396310D01*
X609584Y395588D01*
X583481Y369484D01*
X571208D01*
X569932Y369230D01*
X568850Y368507D01*
X567363Y367020D01*
X566640Y365938D01*
X566386Y364662D01*
Y345354D01*
X565965D01*
X564689Y345100D01*
X563607Y344378D01*
X554422Y335193D01*
X553700Y334111D01*
X553446Y332836D01*
Y330970D01*
X542125D01*
X541639Y332143D01*
X548182Y338686D01*
X549478D01*
X550754Y338940D01*
X551836Y339663D01*
X554808Y342634D01*
X555530Y343716D01*
X555784Y344991D01*
Y356534D01*
X557277Y358027D01*
X558000Y359109D01*
X558254Y360384D01*
Y367420D01*
X561420D01*
Y384420D01*
X548420D01*
Y367420D01*
X551586D01*
Y361766D01*
X550541Y360721D01*
X549450Y360290D01*
X549450Y360290D01*
Y360290D01*
X549450Y360290D01*
X546519D01*
Y387802D01*
X572753Y414037D01*
X573527Y415194D01*
X573799Y416560D01*
X573564Y417739D01*
Y499159D01*
X578655Y504250D01*
X586036D01*
X586562Y503462D01*
X603726Y486299D01*
Y466656D01*
X603980Y465380D01*
X604702Y464298D01*
X613378Y455622D01*
X614460Y454900D01*
X615736Y454646D01*
X640860D01*
X642136Y454900D01*
X643217Y455622D01*
X680513Y492918D01*
X681686Y492432D01*
Y490145D01*
X681940Y488869D01*
X682663Y487787D01*
X688526Y481923D01*
X688040Y480750D01*
X678790D01*
Y459250D01*
X683241D01*
Y445610D01*
X678810D01*
Y425610D01*
X694810D01*
Y445610D01*
X690379D01*
Y459250D01*
X693790D01*
Y475000D01*
X694963Y475486D01*
X697706Y472743D01*
Y465876D01*
X697960Y464600D01*
X698682Y463518D01*
X706578Y455622D01*
X707660Y454900D01*
X708935Y454646D01*
X734840D01*
X736116Y454900D01*
X737197Y455622D01*
X778510Y496935D01*
X792956Y482489D01*
Y465876D01*
X793210Y464600D01*
X793932Y463518D01*
X801828Y455622D01*
X802910Y454900D01*
X804185Y454646D01*
X828820D01*
X830096Y454900D01*
X831178Y455622D01*
X866448Y490892D01*
X867170Y491974D01*
X867424Y493250D01*
Y504870D01*
X871590D01*
Y526370D01*
X856590D01*
Y504870D01*
X860756D01*
Y494631D01*
X827439Y461314D01*
X818540D01*
Y480750D01*
X814609D01*
Y506140D01*
X817270D01*
Y527640D01*
X813339D01*
Y554380D01*
X813067Y555746D01*
X812293Y556903D01*
X808740Y560457D01*
Y580410D01*
X790740D01*
Y555410D01*
X803693D01*
X806201Y552902D01*
Y527640D01*
X802270D01*
Y506140D01*
X807471D01*
Y480750D01*
X803540D01*
Y465000D01*
X802367Y464514D01*
X799624Y467257D01*
Y483870D01*
X799370Y485146D01*
X798648Y486227D01*
X783604Y501271D01*
Y506140D01*
X787770D01*
Y527640D01*
X772770D01*
Y506140D01*
X776936D01*
Y504791D01*
X733459Y461314D01*
X723290D01*
Y480750D01*
X719359D01*
Y504870D01*
X722020D01*
Y526370D01*
X718089D01*
Y555410D01*
X719840D01*
Y580410D01*
X701840D01*
Y555410D01*
X710951D01*
Y526370D01*
X707020D01*
Y504870D01*
X712221D01*
Y480750D01*
X708290D01*
Y465000D01*
X707117Y464514D01*
X704374Y467257D01*
Y474124D01*
X704120Y475400D01*
X703398Y476482D01*
X688354Y491525D01*
Y504870D01*
X692520D01*
Y526370D01*
X677520D01*
Y504870D01*
X681686D01*
Y503521D01*
X639479Y461314D01*
X630090D01*
Y480750D01*
X626159D01*
Y503350D01*
X625887Y504716D01*
X625113Y505873D01*
X621690Y509297D01*
Y525750D01*
X617759D01*
Y555182D01*
X617987Y555410D01*
X630940D01*
Y580410D01*
X612940D01*
Y560457D01*
X611667Y559183D01*
X610893Y558026D01*
X610621Y556660D01*
Y525750D01*
X606690D01*
Y504250D01*
X616643D01*
X619021Y501872D01*
Y480750D01*
X615090D01*
Y465000D01*
X613917Y464514D01*
X610394Y468036D01*
Y487680D01*
X610140Y488956D01*
X609417Y490037D01*
X592254Y507201D01*
Y510770D01*
X592190Y511092D01*
Y525750D01*
X577190D01*
Y518334D01*
X569196D01*
X567920Y518080D01*
X566838Y517358D01*
X531942Y482462D01*
X531220Y481380D01*
X530966Y480104D01*
Y471129D01*
X522243Y462406D01*
X521070Y462892D01*
Y476035D01*
X542887Y497853D01*
X543610Y498934D01*
X543864Y500210D01*
Y504250D01*
X548030D01*
Y525750D01*
X544099D01*
Y555410D01*
X547120D01*
Y580410D01*
X529120D01*
Y555410D01*
X536961D01*
Y525750D01*
X533030D01*
Y504250D01*
X537196D01*
Y501591D01*
X516355Y480750D01*
X506070D01*
Y465000D01*
X504897Y464514D01*
X499904Y469506D01*
Y499159D01*
X504995Y504250D01*
X518530D01*
Y525750D01*
X508245D01*
X485998Y547998D01*
X484916Y548720D01*
X483640Y548974D01*
X451217D01*
X447324Y552868D01*
X446242Y553590D01*
X444966Y553844D01*
X436481D01*
X429120Y561205D01*
Y566943D01*
X429243Y567067D01*
X430017Y568224D01*
X430289Y569590D01*
Y585857D01*
X437970D01*
X439863Y586107D01*
X441626Y586837D01*
X443141Y587999D01*
X444303Y589514D01*
X445033Y591277D01*
X445283Y593170D01*
Y603670D01*
X445033Y605563D01*
X444303Y607326D01*
X443141Y608841D01*
X441626Y610003D01*
X439863Y610733D01*
X437970Y610983D01*
X430054D01*
Y624206D01*
X431383Y625535D01*
X432220Y627556D01*
Y629744D01*
X431383Y631766D01*
X430054Y633094D01*
Y648998D01*
X430976Y649181D01*
X432464Y650176D01*
X433459Y651664D01*
X433808Y653420D01*
Y669420D01*
X433459Y671176D01*
X432464Y672664D01*
X430976Y673659D01*
X429220Y674008D01*
D02*
G37*
G36*
X299701Y634340D02*
X297199D01*
X294783Y633693D01*
X292617Y632442D01*
X290848Y630673D01*
X289597Y628507D01*
X288950Y626091D01*
Y623589D01*
X289265Y622413D01*
X286784Y619932D01*
X285458Y617947D01*
X284992Y615606D01*
Y573669D01*
X284290Y573200D01*
X283157Y571505D01*
X282760Y569505D01*
Y558255D01*
X283157Y556255D01*
X284290Y554560D01*
X285985Y553427D01*
X287985Y553030D01*
X294235D01*
X296235Y553427D01*
X297930Y554560D01*
X299063Y556255D01*
X299460Y558255D01*
Y569505D01*
X299063Y571505D01*
X297930Y573200D01*
X297227Y573669D01*
Y613072D01*
X299496Y615340D01*
X299701D01*
X302117Y615987D01*
X304283Y617238D01*
X306052Y619007D01*
X307303Y621173D01*
X307950Y623589D01*
Y626091D01*
X307303Y628507D01*
X306052Y630673D01*
X304283Y632442D01*
X302117Y633693D01*
X299701Y634340D01*
D02*
G37*
G36*
X948671Y540360D02*
X946169D01*
X943753Y539713D01*
X941587Y538462D01*
X939818Y536693D01*
X938567Y534527D01*
X937920Y532111D01*
Y529609D01*
X938567Y527193D01*
X939818Y525027D01*
X941587Y523258D01*
X943753Y522007D01*
X946169Y521360D01*
X948671D01*
X951087Y522007D01*
X953253Y523258D01*
X955022Y525027D01*
X956273Y527193D01*
X956920Y529609D01*
Y532111D01*
X956273Y534527D01*
X955022Y536693D01*
X953253Y538462D01*
X951087Y539713D01*
X948671Y540360D01*
D02*
G37*
G36*
X976570Y540473D02*
X969070D01*
X966826Y540026D01*
X964924Y538755D01*
X963654Y536853D01*
X963207Y534610D01*
Y527110D01*
X963654Y524866D01*
X964924Y522965D01*
X966826Y521694D01*
X969070Y521247D01*
X976570D01*
X978813Y521694D01*
X980715Y522965D01*
X981986Y524866D01*
X982433Y527110D01*
Y534610D01*
X981986Y536853D01*
X980715Y538755D01*
X978813Y540026D01*
X976570Y540473D01*
D02*
G37*
G36*
X948671Y514960D02*
X946169D01*
X943753Y514313D01*
X941587Y513062D01*
X939818Y511293D01*
X938567Y509127D01*
X937920Y506711D01*
Y504209D01*
X938567Y501793D01*
X939818Y499627D01*
X941587Y497858D01*
X943753Y496607D01*
X946169Y495960D01*
X948671D01*
X951087Y496607D01*
X953253Y497858D01*
X955022Y499627D01*
X956273Y501793D01*
X956920Y504209D01*
Y506711D01*
X956273Y509127D01*
X955022Y511293D01*
X953253Y513062D01*
X951087Y514313D01*
X948671Y514960D01*
D02*
G37*
G36*
X182740Y501780D02*
X165240D01*
Y486280D01*
X182740D01*
Y489086D01*
X205383D01*
X205636Y487817D01*
X206686Y486245D01*
X208257Y485196D01*
X210110Y484827D01*
X216610D01*
X218463Y485196D01*
X220035Y486245D01*
X221084Y487817D01*
X221453Y489670D01*
Y495170D01*
X221084Y497023D01*
X220035Y498595D01*
X218463Y499644D01*
X216610Y500013D01*
X210110D01*
X208257Y499644D01*
X206686Y498595D01*
X205636Y497023D01*
X205383Y495754D01*
X182740D01*
Y501780D01*
D02*
G37*
G36*
X897640Y580410D02*
X879640D01*
Y555410D01*
X890021D01*
Y526370D01*
X886090D01*
Y504870D01*
X892561D01*
Y480750D01*
X888630D01*
Y459250D01*
X903630D01*
Y480750D01*
X899699D01*
Y504870D01*
X901090D01*
Y526370D01*
X897159D01*
Y555410D01*
X897640D01*
Y580410D01*
D02*
G37*
G36*
X173310Y429630D02*
X151810D01*
Y427139D01*
X123790D01*
Y428570D01*
X108790D01*
Y418570D01*
X118743D01*
X134561Y402752D01*
Y378701D01*
X133755D01*
X132341Y378420D01*
X131142Y377618D01*
X130340Y376419D01*
X130059Y375005D01*
Y371755D01*
X130340Y370341D01*
X131142Y369142D01*
X132341Y368340D01*
X133755Y368059D01*
X142505D01*
X143919Y368340D01*
X145119Y369142D01*
X145920Y370341D01*
X146201Y371755D01*
Y375005D01*
X145920Y376419D01*
X145119Y377618D01*
X143919Y378420D01*
X142505Y378701D01*
X141699D01*
Y404230D01*
X141427Y405596D01*
X140653Y406753D01*
X128579Y418828D01*
X129065Y420001D01*
X151810D01*
Y414630D01*
X173310D01*
Y429630D01*
D02*
G37*
G36*
X600590Y480750D02*
X585590D01*
Y459250D01*
X591801D01*
Y445610D01*
X587370D01*
Y425610D01*
X603370D01*
Y445610D01*
X598939D01*
Y459250D01*
X600590D01*
Y480750D01*
D02*
G37*
G36*
X789040D02*
X774040D01*
Y459250D01*
X779761D01*
Y441800D01*
X775330D01*
Y421800D01*
X791330D01*
Y441800D01*
X786899D01*
Y459250D01*
X789040D01*
Y480750D01*
D02*
G37*
G36*
X939720Y374700D02*
X937340D01*
X935041Y374084D01*
X932979Y372894D01*
X931296Y371211D01*
X930106Y369149D01*
X929490Y366850D01*
Y364470D01*
X930106Y362171D01*
X930186Y362032D01*
X899149Y330994D01*
X835933D01*
X835329Y331898D01*
X834129Y332700D01*
X832715Y332981D01*
X823965D01*
X822551Y332700D01*
X821351Y331898D01*
X820550Y330699D01*
X820269Y329285D01*
Y326035D01*
X820550Y324621D01*
X821351Y323422D01*
X822551Y322620D01*
X823965Y322339D01*
X832715D01*
X834129Y322620D01*
X835329Y323422D01*
X835933Y324326D01*
X900530D01*
X901806Y324580D01*
X902887Y325303D01*
X934902Y357316D01*
X935041Y357236D01*
X937340Y356620D01*
X939720D01*
X942019Y357236D01*
X944081Y358426D01*
X945764Y360109D01*
X946954Y362171D01*
X947570Y364470D01*
Y366850D01*
X946954Y369149D01*
X945764Y371211D01*
X944081Y372894D01*
X942019Y374084D01*
X939720Y374700D01*
D02*
G37*
G36*
X130890Y340680D02*
X112890D01*
Y326149D01*
X62354D01*
X61823Y327431D01*
X60281Y329441D01*
X58271Y330983D01*
X55931Y331952D01*
X53420Y332283D01*
X53260D01*
X50749Y331952D01*
X48408Y330983D01*
X46399Y329441D01*
X44857Y327431D01*
X43888Y325091D01*
X43557Y322580D01*
X43888Y320069D01*
X44857Y317729D01*
X46399Y315719D01*
X48408Y314177D01*
X50749Y313208D01*
X53260Y312877D01*
X53420D01*
X55931Y313208D01*
X58271Y314177D01*
X60281Y315719D01*
X61823Y317729D01*
X62354Y319011D01*
X112890D01*
Y317180D01*
X118321D01*
Y306570D01*
X118593Y305204D01*
X119367Y304047D01*
X122550Y300863D01*
Y285910D01*
X138550D01*
Y305910D01*
X127597D01*
X125459Y308048D01*
Y317180D01*
X130890D01*
Y340680D01*
D02*
G37*
G36*
X806715Y342481D02*
X797965D01*
X796551Y342200D01*
X795351Y341399D01*
X794550Y340199D01*
X794269Y338785D01*
Y336554D01*
X770929Y313214D01*
X764710D01*
Y320630D01*
X749710D01*
Y299130D01*
X764710D01*
Y306546D01*
X772310D01*
X773586Y306800D01*
X774668Y307523D01*
X798984Y331839D01*
X806715D01*
X808129Y332120D01*
X809329Y332921D01*
X810130Y334121D01*
X810411Y335535D01*
Y338785D01*
X810130Y340199D01*
X809329Y341399D01*
X808129Y342200D01*
X806715Y342481D01*
D02*
G37*
G36*
X37640Y332200D02*
X18240D01*
Y312960D01*
X37640D01*
Y332200D01*
D02*
G37*
G36*
X310974Y336970D02*
X308786D01*
X306765Y336133D01*
X305217Y334585D01*
X304380Y332564D01*
Y330376D01*
X305217Y328354D01*
X306765Y326807D01*
X308786Y325970D01*
X310665D01*
X322276Y314359D01*
Y313010D01*
X318110D01*
Y291510D01*
X333110D01*
Y313010D01*
X328944D01*
Y315740D01*
X328690Y317016D01*
X327967Y318097D01*
X315380Y330685D01*
Y332564D01*
X314543Y334585D01*
X312995Y336133D01*
X310974Y336970D01*
D02*
G37*
G36*
X939720Y298700D02*
X937340D01*
X935041Y298084D01*
X932979Y296894D01*
X931296Y295211D01*
X930106Y293149D01*
X929490Y290850D01*
Y288470D01*
X930082Y286259D01*
X905887Y262063D01*
X905113Y260906D01*
X904841Y259540D01*
Y255130D01*
X900660D01*
Y237630D01*
X916160D01*
Y255130D01*
X911979D01*
Y258062D01*
X935129Y281212D01*
X937340Y280620D01*
X939720D01*
X942019Y281236D01*
X944081Y282426D01*
X945764Y284109D01*
X946954Y286171D01*
X947570Y288470D01*
Y290850D01*
X946954Y293149D01*
X945764Y295211D01*
X944081Y296894D01*
X942019Y298084D01*
X939720Y298700D01*
D02*
G37*
G36*
X37640Y289020D02*
X18240D01*
Y269780D01*
X37640D01*
Y289020D01*
D02*
G37*
G36*
X53420Y289103D02*
X53260D01*
X50749Y288772D01*
X48408Y287803D01*
X46399Y286261D01*
X44857Y284251D01*
X43888Y281911D01*
X43557Y279400D01*
X43888Y276889D01*
X44857Y274548D01*
X46399Y272539D01*
X48408Y270997D01*
X50749Y270028D01*
X53260Y269697D01*
X53420D01*
X55931Y270028D01*
X57158Y270536D01*
X60941Y266752D01*
Y244950D01*
X56510D01*
Y224950D01*
X72510D01*
Y239903D01*
X93198Y260591D01*
X120160D01*
Y255410D01*
X135660D01*
Y272910D01*
X120160D01*
Y267729D01*
X91720D01*
X90354Y267457D01*
X89197Y266683D01*
X69252Y246739D01*
X68079Y247225D01*
Y268230D01*
X67807Y269596D01*
X67033Y270753D01*
X62238Y275549D01*
X62792Y276889D01*
X63123Y279400D01*
X62792Y281911D01*
X61823Y284251D01*
X60281Y286261D01*
X58271Y287803D01*
X55931Y288772D01*
X53420Y289103D01*
D02*
G37*
G36*
X29388Y242140D02*
X26492D01*
X23694Y241390D01*
X21186Y239942D01*
X19138Y237894D01*
X17690Y235386D01*
X16940Y232588D01*
Y229692D01*
X17690Y226894D01*
X19138Y224386D01*
X21186Y222338D01*
X23694Y220890D01*
X26492Y220140D01*
X29388D01*
X32186Y220890D01*
X34694Y222338D01*
X36742Y224386D01*
X38190Y226894D01*
X38940Y229692D01*
Y232588D01*
X38190Y235386D01*
X36742Y237894D01*
X34694Y239942D01*
X32186Y241390D01*
X29388Y242140D01*
D02*
G37*
G36*
X947401Y222860D02*
X944899D01*
X942483Y222213D01*
X940317Y220962D01*
X938548Y219193D01*
X937297Y217027D01*
X936650Y214611D01*
Y212109D01*
X937297Y209693D01*
X938548Y207527D01*
X940317Y205758D01*
X942483Y204507D01*
X944899Y203860D01*
X947401D01*
X949817Y204507D01*
X951983Y205758D01*
X953752Y207527D01*
X955003Y209693D01*
X955650Y212109D01*
Y214611D01*
X955003Y217027D01*
X953752Y219193D01*
X951983Y220962D01*
X949817Y222213D01*
X947401Y222860D01*
D02*
G37*
G36*
X29388Y216740D02*
X26492D01*
X23694Y215990D01*
X21186Y214542D01*
X19138Y212494D01*
X17690Y209986D01*
X16940Y207188D01*
Y204292D01*
X17690Y201494D01*
X19138Y198986D01*
X21186Y196938D01*
X23694Y195490D01*
X26492Y194740D01*
X29388D01*
X32186Y195490D01*
X34694Y196938D01*
X36742Y198986D01*
X38190Y201494D01*
X38940Y204292D01*
Y207188D01*
X38190Y209986D01*
X36742Y212494D01*
X34694Y214542D01*
X32186Y215990D01*
X29388Y216740D01*
D02*
G37*
G36*
X972801Y197460D02*
X970299D01*
X967883Y196813D01*
X965717Y195562D01*
X963948Y193793D01*
X962697Y191627D01*
X962050Y189211D01*
Y186709D01*
X962697Y184293D01*
X963948Y182127D01*
X965717Y180358D01*
X967883Y179107D01*
X970299Y178460D01*
X972801D01*
X975217Y179107D01*
X977383Y180358D01*
X979152Y182127D01*
X980403Y184293D01*
X981050Y186709D01*
Y189211D01*
X980403Y191627D01*
X979152Y193793D01*
X977383Y195562D01*
X975217Y196813D01*
X972801Y197460D01*
D02*
G37*
G36*
X897660Y255130D02*
X882160D01*
Y237630D01*
X886576D01*
Y198021D01*
X886346Y196864D01*
Y123680D01*
X878980D01*
Y108180D01*
X896480D01*
Y123680D01*
X893014D01*
Y153010D01*
X912450D01*
Y159226D01*
X937208D01*
X937297Y158893D01*
X938548Y156727D01*
X940317Y154958D01*
X942483Y153707D01*
X944899Y153060D01*
X947401D01*
X949817Y153707D01*
X951983Y154958D01*
X953752Y156727D01*
X955003Y158893D01*
X955650Y161309D01*
Y163811D01*
X955003Y166227D01*
X953752Y168393D01*
X951983Y170162D01*
X949817Y171413D01*
X947401Y172060D01*
X944899D01*
X942483Y171413D01*
X940317Y170162D01*
X938548Y168393D01*
X937297Y166227D01*
X937208Y165894D01*
X912450D01*
Y168010D01*
X893014D01*
Y182510D01*
X912450D01*
Y184626D01*
X937208D01*
X937297Y184293D01*
X938548Y182127D01*
X940317Y180358D01*
X942483Y179107D01*
X944899Y178460D01*
X947401D01*
X949817Y179107D01*
X951983Y180358D01*
X953752Y182127D01*
X955003Y184293D01*
X955650Y186709D01*
Y189211D01*
X955003Y191627D01*
X953752Y193793D01*
X951983Y195562D01*
X949817Y196813D01*
X947401Y197460D01*
X944899D01*
X942483Y196813D01*
X940317Y195562D01*
X938548Y193793D01*
X937297Y191627D01*
X937208Y191294D01*
X912450D01*
Y197510D01*
X893244D01*
Y237630D01*
X897660D01*
Y255130D01*
D02*
G37*
G36*
X972801Y172060D02*
X970299D01*
X967883Y171413D01*
X965717Y170162D01*
X963948Y168393D01*
X962697Y166227D01*
X962050Y163811D01*
Y161309D01*
X962697Y158893D01*
X963948Y156727D01*
X965717Y154958D01*
X967883Y153707D01*
X970299Y153060D01*
X972801D01*
X975217Y153707D01*
X977383Y154958D01*
X979152Y156727D01*
X980403Y158893D01*
X981050Y161309D01*
Y163811D01*
X980403Y166227D01*
X979152Y168393D01*
X977383Y170162D01*
X975217Y171413D01*
X972801Y172060D01*
D02*
G37*
G36*
X456290Y143034D02*
X455014Y142780D01*
X453932Y142058D01*
X453573Y141698D01*
X452850Y140616D01*
X452596Y139340D01*
X452850Y138064D01*
X453573Y136982D01*
X454654Y136260D01*
X455930Y136006D01*
X457206Y136260D01*
X458288Y136982D01*
X458647Y137343D01*
X459370Y138424D01*
X459624Y139700D01*
X459370Y140976D01*
X458647Y142058D01*
X457566Y142780D01*
X456290Y143034D01*
D02*
G37*
G36*
X972801Y146660D02*
X970299D01*
X967883Y146013D01*
X965717Y144762D01*
X963948Y142993D01*
X962697Y140827D01*
X962050Y138411D01*
Y135909D01*
X962697Y133493D01*
X963948Y131327D01*
X965717Y129558D01*
X967883Y128307D01*
X970299Y127660D01*
X972801D01*
X975217Y128307D01*
X977383Y129558D01*
X979152Y131327D01*
X980403Y133493D01*
X981050Y135909D01*
Y138411D01*
X980403Y140827D01*
X979152Y142993D01*
X977383Y144762D01*
X975217Y146013D01*
X972801Y146660D01*
D02*
G37*
G36*
X947401D02*
X944899D01*
X942483Y146013D01*
X940317Y144762D01*
X938548Y142993D01*
X937297Y140827D01*
X936650Y138411D01*
Y135909D01*
X937297Y133493D01*
X938548Y131327D01*
X940317Y129558D01*
X942483Y128307D01*
X944899Y127660D01*
X947401D01*
X949817Y128307D01*
X951983Y129558D01*
X953752Y131327D01*
X955003Y133493D01*
X955650Y135909D01*
Y138411D01*
X955003Y140827D01*
X953752Y142993D01*
X951983Y144762D01*
X949817Y146013D01*
X947401Y146660D01*
D02*
G37*
G36*
X772080Y135950D02*
X762080D01*
Y115956D01*
X760907Y115470D01*
X759380Y116997D01*
Y135950D01*
X749380D01*
Y111950D01*
X754333D01*
X816350Y49933D01*
X815900Y48254D01*
Y45726D01*
X816554Y43285D01*
X817818Y41095D01*
X819605Y39308D01*
X821795Y38044D01*
X824236Y37390D01*
X826764D01*
X829205Y38044D01*
X831395Y39308D01*
X833182Y41095D01*
X834446Y43285D01*
X835100Y45726D01*
Y48254D01*
X834446Y50696D01*
X833182Y52884D01*
X831395Y54672D01*
X829205Y55936D01*
X826764Y56590D01*
X824236D01*
X821795Y55936D01*
X820936Y55440D01*
X765600Y110777D01*
X766086Y111950D01*
X772080D01*
Y135950D01*
D02*
G37*
G36*
X528670Y114484D02*
X527394Y114230D01*
X526312Y113507D01*
X525590Y112426D01*
X525336Y111150D01*
X525590Y109874D01*
X526312Y108792D01*
X531043Y104062D01*
X532124Y103340D01*
X533400Y103086D01*
X534676Y103340D01*
X535757Y104062D01*
X536480Y105144D01*
X536734Y106420D01*
X536480Y107696D01*
X535757Y108778D01*
X531027Y113507D01*
X529946Y114230D01*
X528670Y114484D01*
D02*
G37*
G36*
X335468Y88110D02*
X333332D01*
X331270Y87557D01*
X329420Y86490D01*
X327910Y84980D01*
X326843Y83130D01*
X326290Y81068D01*
Y78932D01*
X326843Y76870D01*
X327910Y75020D01*
X329420Y73510D01*
X331270Y72443D01*
X333332Y71890D01*
X335468D01*
X337530Y72443D01*
X339380Y73510D01*
X340890Y75020D01*
X341957Y76870D01*
X342510Y78932D01*
Y81068D01*
X341957Y83130D01*
X340890Y84980D01*
X339380Y86490D01*
X337530Y87557D01*
X335468Y88110D01*
D02*
G37*
G36*
X245468D02*
X243332D01*
X241270Y87557D01*
X239420Y86490D01*
X237910Y84980D01*
X236843Y83130D01*
X236290Y81068D01*
Y78932D01*
X236843Y76870D01*
X237910Y75020D01*
X239420Y73510D01*
X241270Y72443D01*
X243332Y71890D01*
X245468D01*
X247530Y72443D01*
X249380Y73510D01*
X250890Y75020D01*
X251957Y76870D01*
X252510Y78932D01*
Y81068D01*
X251957Y83130D01*
X250890Y84980D01*
X249380Y86490D01*
X247530Y87557D01*
X245468Y88110D01*
D02*
G37*
G36*
X400118Y113510D02*
X397982D01*
X395920Y112957D01*
X394070Y111890D01*
X392560Y110380D01*
X391493Y108530D01*
X390940Y106468D01*
Y104332D01*
X391493Y102270D01*
X392560Y100420D01*
X394070Y98910D01*
X395920Y97843D01*
X397982Y97290D01*
X400118D01*
X402180Y97843D01*
X404030Y98910D01*
X405540Y100420D01*
X406490Y102066D01*
X476282D01*
X520584Y57763D01*
X520098Y56590D01*
X519436D01*
X516995Y55936D01*
X516662Y55743D01*
X490047Y82358D01*
X488966Y83080D01*
X487690Y83334D01*
X431890D01*
X430940Y84980D01*
X429430Y86490D01*
X427580Y87557D01*
X425518Y88110D01*
X423382D01*
X421320Y87557D01*
X419470Y86490D01*
X417960Y84980D01*
X416893Y83130D01*
X416340Y81068D01*
Y78932D01*
X416893Y76870D01*
X417960Y75020D01*
X419470Y73510D01*
X421320Y72443D01*
X423382Y71890D01*
X425518D01*
X427580Y72443D01*
X429430Y73510D01*
X430940Y75020D01*
X431890Y76666D01*
X486309D01*
X511946Y51028D01*
X511754Y50696D01*
X511100Y48254D01*
Y45726D01*
X511754Y43285D01*
X513018Y41095D01*
X514805Y39308D01*
X516995Y38044D01*
X519436Y37390D01*
X521964D01*
X524406Y38044D01*
X526595Y39308D01*
X528382Y41095D01*
X529646Y43285D01*
X530300Y45726D01*
Y46388D01*
X531473Y46874D01*
X532332Y46015D01*
X533414Y45292D01*
X534690Y45038D01*
X536684D01*
X537154Y43285D01*
X538418Y41095D01*
X540205Y39308D01*
X542394Y38044D01*
X544836Y37390D01*
X547364D01*
X549805Y38044D01*
X551995Y39308D01*
X553782Y41095D01*
X555046Y43285D01*
X555700Y45726D01*
Y48254D01*
X555046Y50696D01*
X553782Y52884D01*
X551995Y54672D01*
X549805Y55936D01*
X547364Y56590D01*
X544836D01*
X542394Y55936D01*
X540205Y54672D01*
X538418Y52884D01*
X537738Y51707D01*
X536071D01*
X480020Y107758D01*
X478938Y108480D01*
X477663Y108734D01*
X406490D01*
X405540Y110380D01*
X404030Y111890D01*
X402180Y112957D01*
X400118Y113510D01*
D02*
G37*
G36*
X107774Y52490D02*
X105586D01*
X103565Y51653D01*
X102017Y50106D01*
X101180Y48084D01*
Y45896D01*
X102017Y43875D01*
X103565Y42327D01*
X105586Y41490D01*
X107774D01*
X109796Y42327D01*
X111343Y43875D01*
X112180Y45896D01*
Y48084D01*
X111343Y50106D01*
X109796Y51653D01*
X107774Y52490D01*
D02*
G37*
G36*
X746680Y135950D02*
X736680D01*
Y111950D01*
X738111D01*
Y105410D01*
X738383Y104044D01*
X739157Y102887D01*
X791225Y50818D01*
X791154Y50696D01*
X790500Y48254D01*
Y45726D01*
X791154Y43285D01*
X792418Y41095D01*
X794205Y39308D01*
X796395Y38044D01*
X798836Y37390D01*
X801364D01*
X803805Y38044D01*
X805994Y39308D01*
X807782Y41095D01*
X809046Y43285D01*
X809700Y45726D01*
Y48254D01*
X809046Y50696D01*
X807782Y52884D01*
X805994Y54672D01*
X803805Y55936D01*
X801364Y56590D01*
X798836D01*
X796395Y55936D01*
X796272Y55865D01*
X745249Y106888D01*
Y111950D01*
X746680D01*
Y135950D01*
D02*
G37*
G36*
X733980D02*
X723980D01*
Y111950D01*
X725411D01*
Y92710D01*
X725683Y91344D01*
X726457Y90187D01*
X765825Y50818D01*
X765754Y50696D01*
X765100Y48254D01*
Y45726D01*
X765754Y43285D01*
X767018Y41095D01*
X768805Y39308D01*
X770994Y38044D01*
X773436Y37390D01*
X775964D01*
X778406Y38044D01*
X780594Y39308D01*
X782382Y41095D01*
X783646Y43285D01*
X784300Y45726D01*
Y48254D01*
X783646Y50696D01*
X782382Y52884D01*
X780594Y54672D01*
X778406Y55936D01*
X775964Y56590D01*
X773436D01*
X770994Y55936D01*
X770872Y55865D01*
X732549Y94188D01*
Y111950D01*
X733980D01*
Y135950D01*
D02*
G37*
G36*
X721280D02*
X711280D01*
Y111950D01*
X712711D01*
Y80010D01*
X712983Y78644D01*
X713757Y77487D01*
X740425Y50818D01*
X740354Y50696D01*
X739700Y48254D01*
Y45726D01*
X740354Y43285D01*
X741618Y41095D01*
X743406Y39308D01*
X745594Y38044D01*
X748036Y37390D01*
X750564D01*
X753006Y38044D01*
X755194Y39308D01*
X756982Y41095D01*
X758246Y43285D01*
X758900Y45726D01*
Y48254D01*
X758246Y50696D01*
X756982Y52884D01*
X755194Y54672D01*
X753006Y55936D01*
X750564Y56590D01*
X748036D01*
X745594Y55936D01*
X745472Y55865D01*
X719849Y81488D01*
Y111950D01*
X721280D01*
Y135950D01*
D02*
G37*
G36*
X725164Y56590D02*
X722636D01*
X720194Y55936D01*
X718006Y54672D01*
X716218Y52884D01*
X714954Y50696D01*
X714300Y48254D01*
Y45726D01*
X714954Y43285D01*
X716218Y41095D01*
X718006Y39308D01*
X720194Y38044D01*
X722636Y37390D01*
X725164D01*
X727606Y38044D01*
X729794Y39308D01*
X731582Y41095D01*
X732846Y43285D01*
X733500Y45726D01*
Y48254D01*
X732846Y50696D01*
X731582Y52884D01*
X729794Y54672D01*
X727606Y55936D01*
X725164Y56590D01*
D02*
G37*
G36*
X699764D02*
X697236D01*
X694794Y55936D01*
X692606Y54672D01*
X690818Y52884D01*
X689554Y50696D01*
X688900Y48254D01*
Y45726D01*
X689554Y43285D01*
X690818Y41095D01*
X692606Y39308D01*
X694794Y38044D01*
X697236Y37390D01*
X699764D01*
X702206Y38044D01*
X704395Y39308D01*
X706182Y41095D01*
X707446Y43285D01*
X708100Y45726D01*
Y48254D01*
X707446Y50696D01*
X706182Y52884D01*
X704395Y54672D01*
X702206Y55936D01*
X699764Y56590D01*
D02*
G37*
G36*
X674364D02*
X671836D01*
X669395Y55936D01*
X667206Y54672D01*
X665418Y52884D01*
X664154Y50696D01*
X663500Y48254D01*
Y45726D01*
X664154Y43285D01*
X665418Y41095D01*
X667206Y39308D01*
X669395Y38044D01*
X671836Y37390D01*
X674364D01*
X676805Y38044D01*
X678995Y39308D01*
X680782Y41095D01*
X682046Y43285D01*
X682700Y45726D01*
Y48254D01*
X682046Y50696D01*
X680782Y52884D01*
X678995Y54672D01*
X676805Y55936D01*
X674364Y56590D01*
D02*
G37*
G36*
X896480Y105180D02*
X878980D01*
Y89680D01*
X888206D01*
Y36941D01*
X883809Y32544D01*
X868791D01*
X859189Y42146D01*
X859846Y43285D01*
X860500Y45726D01*
Y48254D01*
X859846Y50696D01*
X858582Y52884D01*
X856795Y54672D01*
X854605Y55936D01*
X852164Y56590D01*
X849636D01*
X847195Y55936D01*
X845005Y54672D01*
X843218Y52884D01*
X841954Y50696D01*
X841300Y48254D01*
Y45726D01*
X841954Y43285D01*
X843218Y41095D01*
X845005Y39308D01*
X847195Y38044D01*
X849636Y37390D01*
X852164D01*
X854018Y37887D01*
X865052Y26853D01*
X866134Y26130D01*
X867410Y25876D01*
X885190D01*
X886466Y26130D01*
X887548Y26853D01*
X893897Y33202D01*
X894620Y34284D01*
X894874Y35560D01*
Y89680D01*
X896480D01*
Y105180D01*
D02*
G37*
G36*
X109060Y95370D02*
X89060D01*
Y79370D01*
X109060D01*
Y83801D01*
X119520D01*
Y74440D01*
X132305D01*
X175229Y31516D01*
X176311Y30793D01*
X176603Y30735D01*
X176947Y29904D01*
X178494Y28357D01*
X180516Y27520D01*
X182704D01*
X184725Y28357D01*
X186273Y29904D01*
X187110Y31926D01*
Y34114D01*
X186273Y36135D01*
X184725Y37683D01*
X182704Y38520D01*
X180516D01*
X178494Y37683D01*
X178493Y37682D01*
X137020Y79155D01*
Y89940D01*
X124544D01*
X123456Y90667D01*
X122090Y90939D01*
X109060D01*
Y95370D01*
D02*
G37*
%LPD*%
G36*
X202162Y577730D02*
X202628Y575389D01*
X203954Y573404D01*
X204308Y573051D01*
X203822Y571878D01*
X181220D01*
Y574260D01*
X165428D01*
X164588Y574260D01*
X163959Y575400D01*
X163997Y575466D01*
X185366Y596834D01*
X186692Y598819D01*
X187157Y601160D01*
Y635808D01*
X189290D01*
X191729Y636293D01*
X193796Y637674D01*
X195177Y639741D01*
X195291Y640312D01*
X202162D01*
Y577730D01*
D02*
G37*
G36*
X408158Y602440D02*
Y593170D01*
X408407Y591277D01*
X409137Y589514D01*
X410299Y587999D01*
X411814Y586837D01*
X413577Y586107D01*
X415470Y585857D01*
X423151D01*
Y571990D01*
X411620D01*
Y567809D01*
X397120D01*
Y569180D01*
X391167D01*
X391143Y569203D01*
X389986Y569977D01*
X388620Y570249D01*
X387254Y569977D01*
X386097Y569203D01*
X386081Y569180D01*
X380120D01*
Y556180D01*
X397120D01*
Y560671D01*
X411620D01*
Y556490D01*
X424405D01*
X426232Y554663D01*
X425746Y553490D01*
X411620D01*
Y537990D01*
X429120D01*
Y542171D01*
X441272D01*
X444027Y539416D01*
Y534120D01*
X444396Y532267D01*
X445446Y530695D01*
X447017Y529646D01*
X448870Y529277D01*
X455370D01*
X457223Y529646D01*
X458795Y530695D01*
X459844Y532267D01*
X460213Y534120D01*
Y539620D01*
X459931Y541036D01*
X460699Y542306D01*
X482259D01*
X503530Y521035D01*
Y512215D01*
X494212Y502897D01*
X493490Y501816D01*
X493236Y500540D01*
Y468125D01*
X493490Y466850D01*
X494212Y465768D01*
X505138Y454842D01*
X506220Y454120D01*
X507495Y453866D01*
X521752D01*
X523028Y454120D01*
X524110Y454842D01*
X534397Y465130D01*
X535570Y464644D01*
Y459250D01*
X539991D01*
Y446880D01*
X535820D01*
Y426880D01*
X551820D01*
Y446880D01*
X547129D01*
Y459250D01*
X550570D01*
Y480750D01*
X541320D01*
X540834Y481923D01*
X570577Y511666D01*
X574982D01*
X575468Y510493D01*
X567873Y502897D01*
X567150Y501816D01*
X566896Y500540D01*
Y418273D01*
X540427Y391803D01*
X539653Y390646D01*
X539381Y389280D01*
Y360290D01*
X536450D01*
Y349135D01*
X536381Y348790D01*
Y343393D01*
X531287Y338299D01*
X530114Y338785D01*
Y385080D01*
X529860Y386356D01*
X529137Y387438D01*
X481608Y434967D01*
X480526Y435690D01*
X479250Y435944D01*
X285537D01*
X284261Y435690D01*
X283179Y434967D01*
X244466Y396254D01*
X212680D01*
Y400420D01*
X196930D01*
X196444Y401593D01*
X205166Y410316D01*
X229500D01*
X230776Y410570D01*
X231857Y411292D01*
X254640Y434075D01*
X255362Y435156D01*
X255616Y436432D01*
Y465441D01*
X305935Y515760D01*
X316720D01*
Y533260D01*
X315088D01*
Y556696D01*
X323114Y564722D01*
X338546D01*
X344937Y558331D01*
X345830Y556995D01*
Y548560D01*
X362830D01*
Y556995D01*
X363982Y558719D01*
X364315Y560393D01*
X406888Y602966D01*
X408158Y602440D01*
D02*
G37*
G36*
X987976Y463441D02*
Y447861D01*
X962549Y422434D01*
X936799D01*
X936313Y423607D01*
X962940Y450233D01*
X964462Y450093D01*
X964506Y450060D01*
X965218Y448827D01*
X966987Y447058D01*
X969153Y445807D01*
X971569Y445160D01*
X974071D01*
X976487Y445807D01*
X978653Y447058D01*
X980422Y448827D01*
X981673Y450993D01*
X982320Y453409D01*
Y455911D01*
X981673Y458327D01*
X981500Y458625D01*
X986803Y463927D01*
X987976Y463441D01*
D02*
G37*
G36*
X957905Y468803D02*
X957824Y468399D01*
Y454548D01*
X930790Y427514D01*
X923290D01*
X922014Y427260D01*
X920932Y426538D01*
X913107Y418712D01*
X912564Y418801D01*
X912207Y419296D01*
X911832Y420208D01*
X912024Y421175D01*
Y436883D01*
X937237Y462096D01*
X948021D01*
X949297Y462350D01*
X950379Y463073D01*
X956734Y469428D01*
X957905Y468803D01*
D02*
G37*
G36*
X896448Y414753D02*
X852021Y370326D01*
X640706D01*
X640220Y371500D01*
X646386Y377666D01*
X850574D01*
X851850Y377920D01*
X852932Y378643D01*
X890215Y415926D01*
X895962D01*
X896448Y414753D01*
D02*
G37*
G36*
X201508Y369753D02*
X202590Y369030D01*
X203866Y368776D01*
X256429D01*
X263232Y361973D01*
X262746Y360800D01*
X246540D01*
Y356369D01*
X233260D01*
Y361810D01*
X217760D01*
Y344310D01*
X228213D01*
X233921Y338602D01*
Y317740D01*
X228490D01*
Y303740D01*
X241443D01*
X245673Y299510D01*
X245147Y298240D01*
X228490D01*
Y284240D01*
X234156D01*
Y273470D01*
X233856D01*
X231835Y272633D01*
X230287Y271085D01*
X229450Y269064D01*
Y266876D01*
X230287Y264855D01*
X231835Y263307D01*
X233856Y262470D01*
X236044D01*
X238065Y263307D01*
X239613Y264855D01*
X240450Y266876D01*
Y269064D01*
X240144Y269803D01*
X240570Y270441D01*
X240824Y271717D01*
Y284240D01*
X246490D01*
Y296897D01*
X247760Y297423D01*
X252971Y292212D01*
Y232236D01*
X252652Y231941D01*
X251701Y231412D01*
X250734Y231604D01*
X239950D01*
X238674Y231350D01*
X237593Y230628D01*
X233965Y227000D01*
X228680D01*
Y215661D01*
X228180Y214454D01*
Y212266D01*
X228622Y211199D01*
X228151Y209929D01*
X224394D01*
X223545Y211199D01*
X223988Y212266D01*
Y214454D01*
X223150Y216476D01*
X221822Y217804D01*
Y286028D01*
X221568Y287303D01*
X220845Y288385D01*
X193244Y315986D01*
Y376357D01*
X194417Y376843D01*
X201508Y369753D01*
D02*
G37*
G36*
X276066Y349139D02*
Y258920D01*
X268600D01*
Y238920D01*
X273266D01*
Y228201D01*
X272065Y227000D01*
X266780D01*
Y208500D01*
X276780D01*
Y222285D01*
X278210Y223715D01*
X279480Y223189D01*
Y208500D01*
X285474D01*
X285960Y207327D01*
X283412Y204779D01*
X254657D01*
X254171Y205952D01*
X255007Y206788D01*
X255730Y207870D01*
X255856Y208500D01*
X264080D01*
Y227000D01*
X261609D01*
Y229500D01*
X261337Y230866D01*
X260563Y232023D01*
X260109Y232478D01*
Y293690D01*
X259837Y295056D01*
X259063Y296213D01*
X246490Y308787D01*
Y317740D01*
X241059D01*
Y340080D01*
X240787Y341446D01*
X240013Y342603D01*
X234559Y348058D01*
X235045Y349231D01*
X246540D01*
Y344800D01*
X266540D01*
Y357006D01*
X267713Y357492D01*
X276066Y349139D01*
D02*
G37*
G36*
X908243Y442533D02*
X906332Y440622D01*
X905610Y439540D01*
X905356Y438264D01*
Y422594D01*
X888834D01*
X887558Y422340D01*
X886477Y421618D01*
X849193Y384334D01*
X645005D01*
X643729Y384080D01*
X642648Y383358D01*
X621711Y362421D01*
X615627D01*
X614351Y362167D01*
X613270Y361445D01*
X595679Y343854D01*
X573121D01*
X573054Y343936D01*
Y362816D01*
X584862D01*
X586138Y363070D01*
X587219Y363792D01*
X613322Y389896D01*
X843656D01*
X844932Y390150D01*
X846013Y390872D01*
X858577Y403436D01*
X863285D01*
X864560Y403690D01*
X865642Y404412D01*
X882310Y421080D01*
X883033Y422162D01*
X883286Y423438D01*
Y428991D01*
X898001Y443706D01*
X907757D01*
X908243Y442533D01*
D02*
G37*
G36*
X914849Y410294D02*
X861119Y356564D01*
X643656D01*
X642380Y356310D01*
X641298Y355588D01*
X610665Y324954D01*
X575180D01*
Y329606D01*
X597100D01*
X598376Y329860D01*
X599458Y330583D01*
X618771Y349896D01*
X623656D01*
X624932Y350150D01*
X626013Y350872D01*
X638799Y363658D01*
X853402D01*
X854678Y363912D01*
X855760Y364635D01*
X902511Y411386D01*
X913830D01*
X914223Y411464D01*
X914849Y410294D01*
D02*
G37*
G36*
X375126Y355600D02*
X375380Y354324D01*
X376102Y353242D01*
X437418Y291927D01*
X436932Y290754D01*
X435321D01*
X370908Y355167D01*
X371394Y356340D01*
X375126D01*
Y355600D01*
D02*
G37*
G36*
X768570Y276525D02*
Y262990D01*
X767397Y262504D01*
X758303Y271597D01*
X757221Y272320D01*
X755946Y272574D01*
X732570D01*
Y279176D01*
X765919D01*
X768570Y276525D01*
D02*
G37*
G36*
X365411Y267678D02*
X351593Y253860D01*
X341140D01*
X340119Y254460D01*
Y260142D01*
X348828Y268851D01*
X364925D01*
X365411Y267678D01*
D02*
G37*
G36*
X304880Y208500D02*
X309124D01*
X309610Y207327D01*
X295082Y192799D01*
X245899D01*
X245514Y194069D01*
X245855Y194297D01*
X249200Y197641D01*
X284890D01*
X286256Y197913D01*
X287413Y198687D01*
X297227Y208500D01*
X302180D01*
Y214181D01*
X304880D01*
Y208500D01*
D02*
G37*
G36*
X656730Y226915D02*
Y219722D01*
X656666Y219400D01*
Y218405D01*
X649153Y210892D01*
X648430Y209810D01*
X648176Y208535D01*
Y187574D01*
X642047Y181445D01*
X640874Y181931D01*
Y191280D01*
X646290D01*
Y206780D01*
X632164D01*
X631678Y207953D01*
X633505Y209780D01*
X646290D01*
Y225280D01*
X633382D01*
X633060Y225344D01*
X618770D01*
X616670Y227445D01*
X617156Y228618D01*
X655027D01*
X656730Y226915D01*
D02*
G37*
G36*
X296325Y184391D02*
X284433Y172500D01*
X279480D01*
Y154000D01*
X280276D01*
Y148248D01*
X280095Y148173D01*
X278547Y146625D01*
X277710Y144604D01*
Y142416D01*
X278547Y140394D01*
X280095Y138847D01*
X282116Y138010D01*
X284304D01*
X286325Y138847D01*
X287873Y140394D01*
X288710Y142416D01*
Y144604D01*
X287873Y146625D01*
X287414Y147085D01*
Y154000D01*
X289480D01*
Y167453D01*
X291007Y168980D01*
X292180Y168494D01*
Y154000D01*
X293846D01*
Y117220D01*
X294100Y115944D01*
X294823Y114862D01*
X301382Y108303D01*
X300890Y106468D01*
Y104332D01*
X301443Y102270D01*
X302390Y100629D01*
X301967Y99359D01*
X267683D01*
X267157Y100629D01*
X267553Y101025D01*
X268390Y103046D01*
Y105234D01*
X267553Y107255D01*
X266005Y108803D01*
X263984Y109640D01*
X263519D01*
X262649Y110511D01*
Y154000D01*
X264080D01*
Y167453D01*
X273903Y177276D01*
X275956D01*
X276285Y176947D01*
X278306Y176110D01*
X280494D01*
X282516Y176947D01*
X284063Y178494D01*
X284900Y180516D01*
Y182704D01*
X284201Y184391D01*
X284786Y185661D01*
X295799D01*
X296325Y184391D01*
D02*
G37*
G36*
X503161Y263952D02*
Y233348D01*
X489257Y219443D01*
X488483Y218285D01*
X488211Y216920D01*
Y194168D01*
X459633Y165590D01*
X452227D01*
X440113Y177703D01*
X438956Y178477D01*
X437590Y178749D01*
X434200D01*
Y187180D01*
X416700D01*
Y177436D01*
X415527Y176950D01*
X386754Y205723D01*
X385596Y206497D01*
X384230Y206769D01*
X350380D01*
Y220200D01*
X345199D01*
Y235372D01*
X346187Y236360D01*
X356640D01*
Y248813D01*
X371678Y263851D01*
X477580D01*
X478428Y264020D01*
X486930D01*
Y273751D01*
X493362D01*
X503161Y263952D01*
D02*
G37*
G36*
X493211Y187415D02*
Y182718D01*
X465853Y155360D01*
X464680Y155846D01*
Y160543D01*
X492038Y187901D01*
X493211Y187415D01*
D02*
G37*
G36*
X414727Y167657D02*
X415885Y166883D01*
X416700Y166721D01*
Y164499D01*
X408580D01*
X407214Y164227D01*
X406057Y163453D01*
X387367Y144763D01*
X386593Y143606D01*
X386321Y142240D01*
Y122128D01*
X363552Y99359D01*
X316033D01*
X315610Y100629D01*
X316557Y102270D01*
X317110Y104332D01*
Y106468D01*
X316557Y108530D01*
X315490Y110380D01*
X313980Y111890D01*
X312130Y112957D01*
X310068Y113510D01*
X307932D01*
X306097Y113018D01*
X300514Y118601D01*
Y154000D01*
X302180D01*
Y172500D01*
X296186D01*
X295700Y173673D01*
X321658Y199631D01*
X332880D01*
Y193269D01*
X332080D01*
X330714Y192997D01*
X329557Y192223D01*
X309833Y172500D01*
X304880D01*
Y154000D01*
X314880D01*
Y167453D01*
X333558Y186131D01*
X337380D01*
X337725Y186200D01*
X350380D01*
Y199631D01*
X382752D01*
X414727Y167657D01*
D02*
G37*
G36*
X628790Y203406D02*
Y191280D01*
X634206D01*
Y180024D01*
X628833Y174651D01*
X628110Y173569D01*
X627856Y172293D01*
Y150494D01*
X626527Y149165D01*
X626434Y148940D01*
X625164Y149193D01*
Y150437D01*
X624910Y151713D01*
X624188Y152795D01*
X623097Y153885D01*
Y196309D01*
X624426Y197638D01*
X625263Y199659D01*
Y201538D01*
X627617Y203892D01*
X628790Y203406D01*
D02*
G37*
G36*
X638016Y172745D02*
Y160654D01*
X636687Y159326D01*
X635850Y157304D01*
Y155116D01*
X636687Y153095D01*
X638176Y151606D01*
Y131081D01*
X630823Y123728D01*
X630190Y124150D01*
X628914Y124404D01*
X625686D01*
X625015Y125377D01*
X624939Y125674D01*
X625164Y126805D01*
Y142907D01*
X626434Y143160D01*
X626527Y142935D01*
X628074Y141387D01*
X630096Y140550D01*
X632284D01*
X634305Y141387D01*
X635853Y142935D01*
X636690Y144956D01*
Y147144D01*
X635853Y149165D01*
X634524Y150494D01*
Y170912D01*
X636843Y173231D01*
X638016Y172745D01*
D02*
G37*
G36*
X235492Y152827D02*
X216642Y133977D01*
X215920Y132896D01*
X215666Y131620D01*
Y112840D01*
X214229Y112010D01*
X212959Y112433D01*
Y137388D01*
X229571Y154000D01*
X235006D01*
X235492Y152827D01*
D02*
G37*
G36*
X254080Y167453D02*
Y154000D01*
X255511D01*
Y109032D01*
X255783Y107667D01*
X256557Y106509D01*
X257519Y105546D01*
X257390Y105234D01*
Y103046D01*
X258227Y101025D01*
X258623Y100629D01*
X258097Y99359D01*
X226033D01*
X225610Y100629D01*
X226557Y102270D01*
X227110Y104332D01*
Y106468D01*
X226557Y108530D01*
X225490Y110380D01*
X223980Y111890D01*
X222334Y112840D01*
Y130239D01*
X246095Y154000D01*
X251380D01*
Y168494D01*
X252553Y168980D01*
X254080Y167453D01*
D02*
G37*
G36*
X644610Y68785D02*
X644769Y68156D01*
X629740Y53127D01*
X628195Y54672D01*
X626006Y55936D01*
X623564Y56590D01*
X622908D01*
X622422Y57763D01*
X634048Y69389D01*
X644206D01*
X644610Y68785D01*
D02*
G37*
G36*
X627781Y73215D02*
X607458Y52893D01*
X604574D01*
X602794Y54672D01*
X600606Y55936D01*
X598164Y56590D01*
X597508D01*
X597022Y57763D01*
X613648Y74389D01*
X627295D01*
X627781Y73215D01*
D02*
G37*
%LPC*%
G36*
X495124Y266690D02*
X492936D01*
X490914Y265853D01*
X489367Y264305D01*
X488530Y262284D01*
Y260096D01*
X488822Y259391D01*
X488300Y258610D01*
X488200Y258105D01*
X486930Y258230D01*
Y260820D01*
X478428D01*
X477580Y260989D01*
X441450D01*
Y262500D01*
X428450D01*
Y250547D01*
X422772Y244869D01*
X401720D01*
X400625Y245963D01*
X398604Y246800D01*
X396416D01*
X394394Y245963D01*
X392847Y244415D01*
X392010Y242394D01*
Y240206D01*
X392847Y238185D01*
X394394Y236637D01*
X396416Y235800D01*
X398604D01*
X400625Y236637D01*
X401720Y237731D01*
X424250D01*
X425616Y238003D01*
X426773Y238777D01*
X433497Y245500D01*
X441450D01*
Y253851D01*
X468230D01*
Y240989D01*
X462503D01*
X461863Y242535D01*
X460316Y244083D01*
X458294Y244920D01*
X456106D01*
X454085Y244083D01*
X452537Y242535D01*
X451700Y240514D01*
Y238326D01*
X452142Y237259D01*
X451294Y235989D01*
X444510D01*
X443144Y235717D01*
X441987Y234943D01*
X429713Y222670D01*
X428166D01*
X426144Y221833D01*
X424597Y220285D01*
X423760Y218264D01*
Y216076D01*
X424597Y214055D01*
X425019Y213633D01*
X424721Y212135D01*
X423605Y211673D01*
X422057Y210126D01*
X421220Y208104D01*
Y205916D01*
X422057Y203895D01*
X423605Y202347D01*
X425626Y201510D01*
X427814D01*
X429836Y202347D01*
X430930Y203441D01*
X437036D01*
X438402Y203713D01*
X439560Y204487D01*
X458924Y223851D01*
X477580D01*
X478428Y224020D01*
X486930D01*
Y234535D01*
X488200Y235195D01*
X488530Y234964D01*
Y233856D01*
X489367Y231835D01*
X490914Y230287D01*
X492936Y229450D01*
X495124D01*
X497146Y230287D01*
X498693Y231835D01*
X499530Y233856D01*
Y236044D01*
X498693Y238065D01*
X497146Y239613D01*
X495124Y240450D01*
X493893D01*
X493604Y240880D01*
X494281Y242150D01*
X495124D01*
X497146Y242987D01*
X498693Y244534D01*
X499530Y246556D01*
Y248744D01*
X498693Y250765D01*
X497146Y252313D01*
X495416Y253029D01*
X495022Y253382D01*
X494567Y254420D01*
X494715Y255161D01*
Y255690D01*
X495124D01*
X497146Y256527D01*
X498693Y258074D01*
X499530Y260096D01*
Y262284D01*
X498693Y264305D01*
X497146Y265853D01*
X495124Y266690D01*
D02*
G37*
%LPD*%
D16*
X222250Y565760D02*
X223190Y564820D01*
X261670D02*
X262610Y563880D01*
X223190Y564820D02*
X261670D01*
X224268Y470648D02*
X241300Y487680D01*
X184828Y470648D02*
X224268D01*
X241300Y487680D02*
Y540070D01*
X262610Y561380D01*
Y563880D01*
X162560Y451630D02*
X165810D01*
X184828Y470648D01*
X28720Y451630D02*
X162560D01*
X21590Y444500D02*
X28720Y451630D01*
X21590Y416560D02*
Y444500D01*
Y416560D02*
X36830Y401320D01*
Y426720D02*
X43180Y433070D01*
X91990D01*
X138250Y536370D02*
X159740Y514880D01*
X138250Y536370D02*
Y547370D01*
X159740Y514880D02*
X171640D01*
X173990Y512530D01*
D17*
X641350Y156210D02*
X641510Y156050D01*
Y129700D02*
Y156050D01*
X641350Y156210D02*
Y176033D01*
X651510Y186193D01*
X623306Y121070D02*
X628914D01*
X621616Y119380D02*
X623306Y121070D01*
X606216Y119380D02*
X621616D01*
X630604D02*
X631190D01*
X628914Y121070D02*
X630604Y119380D01*
X779780Y123950D02*
Y129540D01*
X792480Y116840D02*
Y123950D01*
X789940Y114300D02*
X792480Y116840D01*
X805180Y123950D02*
Y130950D01*
X804890Y96520D02*
X805180Y96810D01*
X787400Y99170D02*
X805180Y116950D01*
X787400Y99060D02*
Y99170D01*
X805180Y116950D02*
Y123950D01*
X551117Y146050D02*
X552757Y144410D01*
X597310D01*
X549910Y146050D02*
X551117D01*
X534010Y177070D02*
X549910Y161170D01*
Y146050D02*
Y161170D01*
X534010Y177070D02*
Y179070D01*
X547177Y145197D02*
X549057D01*
X533400Y133420D02*
X535400D01*
X547177Y145197D01*
X549057D02*
X549910Y146050D01*
X659510Y141930D02*
X660400Y141040D01*
X663630Y137810D02*
X671243D01*
X660400Y141040D02*
X663630Y137810D01*
X671243D02*
X673163Y135890D01*
X674370D01*
X528322Y192758D02*
X530780Y190300D01*
Y182300D02*
X534010Y179070D01*
X530780Y182300D02*
Y190300D01*
X549478Y342020D02*
X552450Y344991D01*
Y357915D01*
X554920Y360384D01*
X546801Y342020D02*
X549478D01*
X569720Y364662D02*
X571208Y366150D01*
X569720Y343936D02*
Y364662D01*
X567804Y342020D02*
X569720Y343936D01*
X565965Y342020D02*
X567804D01*
X536780Y331999D02*
X546801Y342020D01*
X561910Y331545D02*
X567845Y337480D01*
X569685D01*
X556780Y332836D02*
X565965Y342020D01*
X597100Y332940D02*
X617390Y353230D01*
X572725Y340520D02*
X597060D01*
X554920Y360384D02*
Y375920D01*
X571208Y366150D02*
X584862D01*
X569685Y337480D02*
X572725Y340520D01*
X556780Y321620D02*
Y332836D01*
X566910Y330124D02*
X569726Y332940D01*
X597100D01*
X252650Y209146D02*
Y226355D01*
X245746Y205980D02*
X249484D01*
X169580Y212330D02*
X183295D01*
X165100Y216810D02*
X169580Y212330D01*
X249484Y205980D02*
X252650Y209146D01*
X183295Y212330D02*
X185396Y210230D01*
X233680Y217750D02*
Y222000D01*
X185396Y210230D02*
X202124D01*
X241356Y201590D02*
X245746Y205980D01*
X202124Y210230D02*
X210764Y201590D01*
X241356D01*
X233680Y222000D02*
X239950Y228270D01*
X250734D02*
X252650Y226355D01*
X239950Y228270D02*
X250734D01*
X218487Y213360D02*
Y286028D01*
X853350Y235580D02*
X867950Y220980D01*
X755946Y269240D02*
X789605Y235580D01*
X853350D01*
X622300Y292470D02*
X661570D01*
X677450Y308350D01*
X679450D01*
X650130Y306970D02*
X651510Y308350D01*
X622300Y306970D02*
X650130D01*
X900530Y327660D02*
X938530Y365660D01*
X828340Y327660D02*
X900530D01*
X757210Y309880D02*
X772310D01*
X799590Y337160D01*
X802340D01*
X867950Y220980D02*
X869950D01*
X703070Y269240D02*
X755946D01*
X835940D02*
X842550Y275850D01*
X844550D01*
X798070Y269240D02*
X835940D01*
X610645Y257420D02*
X626275Y273050D01*
X699260D02*
X703070Y269240D01*
X668750Y277590D02*
X673670Y282510D01*
X626275Y273050D02*
X699260D01*
X609225Y262420D02*
X624395Y277590D01*
X668750D01*
X673670Y282510D02*
X767300D01*
X780570Y269240D02*
X798070D01*
X767300Y282510D02*
X780570Y269240D01*
X590980Y262420D02*
X609225D01*
X590980Y257420D02*
X610645D01*
X853402Y366992D02*
X901130Y414720D01*
X913830D01*
X637418Y366992D02*
X853402D01*
X991310Y446480D02*
Y489400D01*
X963930Y419100D02*
X991310Y446480D01*
X972820Y505460D02*
X975250D01*
X991310Y489400D01*
X932171Y424180D02*
X961159Y453167D01*
X923290Y424180D02*
X932171D01*
X913830Y414720D02*
X923290Y424180D01*
X906775Y419260D02*
X908690Y421175D01*
X888834Y419260D02*
X906775D01*
X908690Y421175D02*
Y438264D01*
X551780Y305337D02*
Y321620D01*
X548640Y302197D02*
X551780Y305337D01*
X548640Y300990D02*
Y302197D01*
X566910Y321750D02*
Y330124D01*
X561910Y321750D02*
Y331545D01*
X911045Y447040D02*
X944065Y480060D01*
X947420D01*
X896620Y447040D02*
X911045D01*
X935856Y465430D02*
X948021D01*
X908690Y438264D02*
X935856Y465430D01*
X879952Y430372D02*
X896620Y447040D01*
X879952Y423438D02*
Y430372D01*
X863285Y406770D02*
X879952Y423438D01*
X843656Y393230D02*
X857196Y406770D01*
X611941Y393230D02*
X843656D01*
X857196Y406770D02*
X863285D01*
X584862Y366150D02*
X611941Y393230D01*
X960120Y477529D02*
Y482591D01*
X968359Y490830D01*
X850574Y381000D02*
X888834Y419260D01*
X862500Y353230D02*
X928370Y419100D01*
X643656Y353230D02*
X862500D01*
X928370Y419100D02*
X963930D01*
X645005Y381000D02*
X850574D01*
X623092Y359087D02*
X645005Y381000D01*
X623656Y353230D02*
X637418Y366992D01*
X612046Y321620D02*
X643656Y353230D01*
X615627Y359087D02*
X623092D01*
X597060Y340520D02*
X615627Y359087D01*
X617390Y353230D02*
X623656D01*
X986770Y468610D02*
Y482804D01*
X972820Y454660D02*
X986770Y468610D01*
X978744Y490830D02*
X986770Y482804D01*
X968359Y490830D02*
X978744D01*
X948021Y465430D02*
X960120Y477529D01*
X961159Y453167D02*
Y468399D01*
X972820Y480060D01*
X561780Y321620D02*
X561910Y321750D01*
X566780Y321620D02*
X566910Y321750D01*
X571780Y321620D02*
X612046D01*
X604290Y127726D02*
X607943Y124073D01*
X603810Y129910D02*
X604290Y129430D01*
Y127726D02*
Y129430D01*
X607943Y124073D02*
X619098D01*
X621830Y126805D02*
Y150437D01*
X619098Y124073D02*
X621830Y126805D01*
X631190Y119380D02*
X641510Y129700D01*
X597790Y127806D02*
X606216Y119380D01*
X619763Y152504D02*
Y200753D01*
Y152504D02*
X621830Y150437D01*
X528670Y111150D02*
X533400Y106420D01*
X455930Y139340D02*
X456290Y139700D01*
X189910Y314605D02*
X218487Y286028D01*
X189910Y314605D02*
Y386065D01*
X128270Y82190D02*
X129270D01*
X177587Y33873D01*
X180757D01*
X181610Y33020D01*
X127270Y82190D02*
X128270D01*
X424450Y80000D02*
X487690D01*
X520700Y46990D01*
X491381Y257334D02*
X494030Y259983D01*
X491381Y255161D02*
Y257334D01*
X488640Y252420D02*
X491381Y255161D01*
X494030Y259983D02*
Y261190D01*
X477710Y242290D02*
X486690D01*
X477580Y242420D02*
X477710Y242290D01*
X486690D02*
X494030Y234950D01*
X477580Y252420D02*
X488640D01*
X493915Y247535D02*
X494030Y247650D01*
X477580Y247420D02*
X477695Y247535D01*
X493915D01*
X536780Y321620D02*
Y331999D01*
X903750Y187960D02*
X946150D01*
X901700Y190010D02*
X903750Y187960D01*
X604290Y146515D02*
X607206Y149430D01*
X603810Y144410D02*
X604290Y144890D01*
Y146515D01*
X607206Y149430D02*
X613414D01*
X616330Y144890D02*
X616810Y144410D01*
X616330Y144890D02*
Y146515D01*
X613414Y149430D02*
X616330Y146515D01*
X597310Y144410D02*
X603810D01*
X631190Y146050D02*
Y172293D01*
X629920Y146050D02*
X631190D01*
X637540Y178643D02*
Y199030D01*
X631190Y172293D02*
X637540Y178643D01*
X659510Y141930D02*
Y172350D01*
X665480Y178320D02*
Y205380D01*
X659510Y172350D02*
X665480Y178320D01*
X570230Y416560D02*
Y500540D01*
X584690Y515000D01*
X426720Y598420D02*
Y628650D01*
Y661420D01*
X780270Y499890D02*
X796290Y483870D01*
Y465876D02*
X804185Y457980D01*
X796290Y465876D02*
Y483870D01*
X780270Y499890D02*
Y503410D01*
X864090Y493250D02*
Y515620D01*
X804185Y457980D02*
X828820D01*
X864090Y493250D01*
X780270Y503410D02*
Y516890D01*
X701040Y465876D02*
X708935Y457980D01*
X701040Y465876D02*
Y474124D01*
X685020Y490145D02*
X701040Y474124D01*
X708935Y457980D02*
X734840D01*
X780270Y503410D01*
X615736Y457980D02*
X640860D01*
X685020Y490145D02*
Y502140D01*
X640860Y457980D02*
X685020Y502140D01*
Y515620D01*
X607060Y466656D02*
X615736Y457980D01*
X607060Y466656D02*
Y487680D01*
X588920Y505820D02*
X607060Y487680D01*
X584690Y515000D02*
X588920Y510770D01*
Y505820D02*
Y510770D01*
X496570Y468125D02*
X507495Y457200D01*
X496570Y500540D02*
X511030Y515000D01*
X496570Y468125D02*
Y500540D01*
X511030Y515000D02*
Y518250D01*
X521752Y457200D02*
X534300Y469748D01*
Y480104D01*
X569196Y515000D01*
X584690D01*
X507495Y457200D02*
X521752D01*
X540530Y500210D02*
Y515000D01*
X513570Y473250D02*
X540530Y500210D01*
X421370Y564240D02*
X435100Y550510D01*
X444966D01*
X420370Y564240D02*
X421370D01*
X444966Y550510D02*
X449836Y545640D01*
X483640D01*
X511030Y518250D01*
X234950Y269177D02*
X237490Y271717D01*
Y291240D01*
X234950Y267970D02*
Y269177D01*
X325610Y302260D02*
Y315740D01*
X309880Y331470D02*
X325610Y315740D01*
X903750Y162560D02*
X946150D01*
X901700Y160510D02*
X903750Y162560D01*
X399050Y105400D02*
X477663D01*
X534690Y48373D01*
X544717D01*
X546100Y46990D01*
X887730Y97430D02*
X891540Y93620D01*
X885190Y29210D02*
X891540Y35560D01*
Y93620D01*
X867410Y29210D02*
X885190D01*
X850900Y45720D02*
X867410Y29210D01*
X788607Y99060D02*
X791147Y96520D01*
X804890D01*
X787400Y99060D02*
X788607D01*
X276600Y226820D02*
Y248920D01*
X271780Y222000D02*
X276600Y226820D01*
X271780Y217750D02*
Y222000D01*
X252282Y436432D02*
Y466822D01*
X203785Y413650D02*
X229500D01*
X252282Y436432D01*
X257810Y372110D02*
X279400Y350520D01*
Y251720D02*
Y350520D01*
X276600Y248920D02*
X279400Y251720D01*
X203866Y372110D02*
X257810D01*
X189910Y386065D02*
X203866Y372110D01*
X189910Y399775D02*
X203785Y413650D01*
X189910Y386065D02*
Y399775D01*
X252282Y466822D02*
X308970Y523510D01*
Y524510D01*
X201930Y392920D02*
X245847D01*
X285537Y432610D01*
X479250D01*
X889680Y196864D02*
X889910Y197094D01*
X889680Y117880D02*
Y196864D01*
X889910Y197094D02*
Y246380D01*
X494030Y336613D02*
Y337820D01*
Y336613D02*
X496780Y333863D01*
Y321620D02*
Y333863D01*
X506755Y350545D02*
X514350Y358140D01*
X479250Y432610D02*
X526780Y385080D01*
X506755Y321645D02*
Y350545D01*
X526780Y321620D02*
Y385080D01*
X501780Y321620D02*
Y347850D01*
X494030Y355600D02*
X501780Y347850D01*
X506755Y321645D02*
X506780Y321620D01*
X597060Y212428D02*
Y227290D01*
Y212428D02*
X601980Y207508D01*
Y207010D02*
Y207508D01*
X590980Y227420D02*
X596930D01*
X597060Y227290D01*
X605690Y233710D02*
X617389Y222010D01*
X605690Y233710D02*
Y238860D01*
X610230Y235590D02*
Y240741D01*
Y235590D02*
X613868Y231952D01*
X603550Y247420D02*
X610230Y240741D01*
X590980Y242420D02*
X602130D01*
X590980Y247420D02*
X603550D01*
X602130Y242420D02*
X605690Y238860D01*
X219000Y131620D02*
X246380Y159000D01*
X219000Y105400D02*
Y131620D01*
X175600Y492420D02*
X213360D01*
X173990Y494030D02*
X175600Y492420D01*
X513570Y470000D02*
Y473250D01*
X506910Y199716D02*
Y208090D01*
Y199716D02*
X513868Y192758D01*
X506780Y208220D02*
X506910Y208090D01*
X513868Y192758D02*
X528322D01*
X297180Y117220D02*
X309000Y105400D01*
X297180Y117220D02*
Y163250D01*
X246380Y159000D02*
Y163250D01*
X448310Y380090D02*
X452120Y383900D01*
Y422570D01*
X415290Y382630D02*
X419100Y386440D01*
Y422570D01*
X378460Y382590D02*
X379730Y383860D01*
Y422840D01*
X349250Y385170D02*
Y422570D01*
X347980Y383900D02*
X349250Y385170D01*
X313690Y383900D02*
X316230Y386440D01*
Y423840D01*
X314690Y365400D02*
X330840Y349250D01*
X365690D01*
X313690Y365400D02*
X314690D01*
X365690Y349250D02*
X432519Y282420D01*
X477580D01*
X433940Y287420D02*
X477580D01*
X352460Y360920D02*
X360440D01*
X433940Y287420D01*
X347980Y365400D02*
X352460Y360920D01*
X378460Y355600D02*
Y364090D01*
Y355600D02*
X441640Y292420D01*
X477580D01*
X415290Y330200D02*
Y364130D01*
Y330200D02*
X448070Y297420D01*
X477580D01*
X448310Y341425D02*
X471500Y318235D01*
X448310Y341425D02*
Y361590D01*
X471630Y302420D02*
X477580D01*
X471500Y302550D02*
X471630Y302420D01*
X471500Y302550D02*
Y318235D01*
X873878Y49412D02*
X876300Y46990D01*
X873878Y49412D02*
Y54690D01*
X873760Y54808D02*
X873878Y54690D01*
X867710Y147020D02*
X873760Y140970D01*
Y54808D02*
Y140970D01*
X867710Y147020D02*
Y166370D01*
X850900Y45720D02*
Y46990D01*
X844460Y175870D02*
X858520Y161810D01*
X841710Y175870D02*
X844460D01*
X858520Y130320D02*
Y161810D01*
X834390Y96520D02*
X850970D01*
X855270Y100820D01*
X858520D01*
X834390Y96520D02*
Y112365D01*
X773992Y172762D02*
X834390Y112365D01*
X768168Y172762D02*
X773992D01*
X728980Y211950D02*
X768168Y172762D01*
X728980Y211950D02*
Y218950D01*
X619763Y200753D02*
X636540Y217530D01*
X651510Y186193D02*
Y208535D01*
X660000Y217024D01*
Y219400D01*
X664480Y223880D02*
X665480D01*
X660000Y219400D02*
X664480Y223880D01*
X597790Y127806D02*
Y129430D01*
X597310Y129910D02*
X597790Y129430D01*
X603810Y129910D02*
X604290Y130390D01*
X636540Y217530D02*
X637540D01*
X617389Y222010D02*
X633060D01*
X613868Y231952D02*
X656408D01*
X633060Y222010D02*
X637540Y217530D01*
X656408Y231952D02*
X664480Y223880D01*
D19*
X533400Y110420D02*
D03*
Y133420D02*
D03*
X660400Y118040D02*
D03*
Y141040D02*
D03*
X388620Y539680D02*
D03*
Y562680D02*
D03*
X354330Y532060D02*
D03*
Y555060D02*
D03*
X222250Y565760D02*
D03*
Y546760D02*
D03*
X322580Y549840D02*
D03*
Y572840D02*
D03*
X172720Y544760D02*
D03*
Y567760D02*
D03*
D20*
X625500Y247650D02*
D03*
X644500D02*
D03*
X534010Y179070D02*
D03*
X515010D02*
D03*
X434950Y254000D02*
D03*
X415950D02*
D03*
X542950Y351790D02*
D03*
X561950D02*
D03*
X577920Y375920D02*
D03*
X554920D02*
D03*
D21*
X844550Y275850D02*
D03*
Y244850D02*
D03*
X869950Y220980D02*
D03*
Y251980D02*
D03*
X160020Y106940D02*
D03*
Y75940D02*
D03*
X99060Y87370D02*
D03*
Y118370D02*
D03*
X256540Y352800D02*
D03*
Y383800D02*
D03*
X679450Y339350D02*
D03*
Y308350D02*
D03*
X651510Y339350D02*
D03*
Y308350D02*
D03*
X233680Y636010D02*
D03*
Y667010D02*
D03*
D22*
X798070Y269240D02*
D03*
X703070D02*
D03*
D23*
X622300Y306970D02*
D03*
Y292470D02*
D03*
D24*
X893590Y515620D02*
D03*
X864090D02*
D03*
X727710Y309880D02*
D03*
X757210D02*
D03*
X834390Y96520D02*
D03*
X804890D02*
D03*
X780270Y516890D02*
D03*
X809770D02*
D03*
X685020Y515620D02*
D03*
X714520D02*
D03*
X584690Y515000D02*
D03*
X614190D02*
D03*
X511030D02*
D03*
X540530D02*
D03*
X866630Y470000D02*
D03*
X896130D02*
D03*
X781540D02*
D03*
X811040D02*
D03*
X686290D02*
D03*
X715790D02*
D03*
X593090D02*
D03*
X622590D02*
D03*
X543070D02*
D03*
X513570D02*
D03*
X355110Y302260D02*
D03*
X325610D02*
D03*
D25*
X901700Y190010D02*
D03*
Y160510D02*
D03*
X162560Y422130D02*
D03*
Y451630D02*
D03*
X858520Y130320D02*
D03*
Y100820D02*
D03*
X201930Y422420D02*
D03*
Y392920D02*
D03*
D26*
X496780Y321620D02*
D03*
X501780D02*
D03*
X506780D02*
D03*
X511780D02*
D03*
X516780D02*
D03*
X521780D02*
D03*
X526780D02*
D03*
X531780D02*
D03*
X536780D02*
D03*
X541780D02*
D03*
X546780D02*
D03*
X551780D02*
D03*
X556780D02*
D03*
X561780D02*
D03*
X566780D02*
D03*
X571780D02*
D03*
Y208220D02*
D03*
X566780D02*
D03*
X561780D02*
D03*
X556780D02*
D03*
X551780D02*
D03*
X546780D02*
D03*
X541780D02*
D03*
X536780D02*
D03*
X531780D02*
D03*
X526780D02*
D03*
X521780D02*
D03*
X516780D02*
D03*
X511780D02*
D03*
X506780D02*
D03*
X501780D02*
D03*
X496780D02*
D03*
D27*
X590980Y302420D02*
D03*
Y297420D02*
D03*
Y292420D02*
D03*
Y287420D02*
D03*
Y282420D02*
D03*
Y277420D02*
D03*
Y272420D02*
D03*
Y267420D02*
D03*
Y262420D02*
D03*
Y257420D02*
D03*
Y252420D02*
D03*
Y247420D02*
D03*
Y242420D02*
D03*
Y237420D02*
D03*
Y232420D02*
D03*
Y227420D02*
D03*
X477580D02*
D03*
Y232420D02*
D03*
Y237420D02*
D03*
Y242420D02*
D03*
Y247420D02*
D03*
Y252420D02*
D03*
Y257420D02*
D03*
Y262420D02*
D03*
Y267420D02*
D03*
Y272420D02*
D03*
Y277420D02*
D03*
Y282420D02*
D03*
Y287420D02*
D03*
Y292420D02*
D03*
Y297420D02*
D03*
Y302420D02*
D03*
D28*
X237490Y291240D02*
D03*
Y310740D02*
D03*
D29*
X164130Y363880D02*
D03*
Y382880D02*
D03*
X138130Y373380D02*
D03*
X802340Y337160D02*
D03*
Y318160D02*
D03*
X828340Y327660D02*
D03*
X867710Y166370D02*
D03*
X841710Y156870D02*
D03*
Y175870D02*
D03*
D30*
X887730Y115930D02*
D03*
Y97430D02*
D03*
X173990Y512530D02*
D03*
Y494030D02*
D03*
X128270Y82190D02*
D03*
Y100690D02*
D03*
X341630Y193950D02*
D03*
Y212450D02*
D03*
X193040Y201210D02*
D03*
Y219710D02*
D03*
X165100Y235310D02*
D03*
Y216810D02*
D03*
X665480Y223880D02*
D03*
Y205380D02*
D03*
X637540Y217530D02*
D03*
Y199030D02*
D03*
X378460Y382590D02*
D03*
Y364090D02*
D03*
X448310Y380090D02*
D03*
Y361590D02*
D03*
X313690Y383900D02*
D03*
Y365400D02*
D03*
X415290Y382630D02*
D03*
Y364130D02*
D03*
X347980Y383900D02*
D03*
Y365400D02*
D03*
X420370Y564240D02*
D03*
Y545740D02*
D03*
X67310Y146600D02*
D03*
Y165100D02*
D03*
X455930Y139340D02*
D03*
Y157840D02*
D03*
X425450Y179430D02*
D03*
Y160930D02*
D03*
D31*
X262610Y563880D02*
D03*
X291110D02*
D03*
D32*
X176530Y152400D02*
D03*
X158030D02*
D03*
X348890Y245110D02*
D03*
X367390D02*
D03*
X385720Y287020D02*
D03*
X404220D02*
D03*
X225510Y353060D02*
D03*
X207010D02*
D03*
X127910Y264160D02*
D03*
X146410D02*
D03*
X908410Y246380D02*
D03*
X889910D02*
D03*
X290470Y524510D02*
D03*
X308970D02*
D03*
D33*
X64510Y234950D02*
D03*
X95510D02*
D03*
X130550Y295910D02*
D03*
X161550D02*
D03*
X899420Y430530D02*
D03*
X868420D02*
D03*
X814330Y431800D02*
D03*
X783330D02*
D03*
X717810Y435610D02*
D03*
X686810D02*
D03*
X626370D02*
D03*
X595370D02*
D03*
X512820Y436880D02*
D03*
X543820D02*
D03*
X267710Y295910D02*
D03*
X298710D02*
D03*
X307600Y248920D02*
D03*
X276600D02*
D03*
D34*
X149890Y328930D02*
D03*
X121890D02*
D03*
D35*
X716280Y123950D02*
D03*
X728980D02*
D03*
X741680D02*
D03*
X754380D02*
D03*
X767080D02*
D03*
X779780D02*
D03*
X792480D02*
D03*
X805180D02*
D03*
X716280Y218950D02*
D03*
X728980D02*
D03*
X741680D02*
D03*
X754380D02*
D03*
X767080D02*
D03*
X779780D02*
D03*
X792480D02*
D03*
X805180D02*
D03*
D36*
X452120Y422570D02*
D03*
Y443570D02*
D03*
X316230Y423840D02*
D03*
Y444840D02*
D03*
X349250Y422570D02*
D03*
Y443570D02*
D03*
X379730Y422840D02*
D03*
Y443840D02*
D03*
X419100Y422570D02*
D03*
Y443570D02*
D03*
X452120Y536870D02*
D03*
Y557870D02*
D03*
X213360Y492420D02*
D03*
Y513420D02*
D03*
X260350Y523580D02*
D03*
Y502580D02*
D03*
D37*
X426720Y598420D02*
D03*
D38*
X403720Y661420D02*
D03*
X426720D02*
D03*
X449720D02*
D03*
D39*
X91990Y433070D02*
D03*
X116290Y442570D02*
D03*
Y423570D02*
D03*
D40*
X888640Y658910D02*
D03*
Y567910D02*
D03*
X843640D02*
D03*
Y658910D02*
D03*
X799740D02*
D03*
Y567910D02*
D03*
X754740D02*
D03*
Y658910D02*
D03*
X710840D02*
D03*
Y567910D02*
D03*
X665840D02*
D03*
Y658910D02*
D03*
X621940D02*
D03*
Y567910D02*
D03*
X576940D02*
D03*
Y658910D02*
D03*
X538120D02*
D03*
Y567910D02*
D03*
X493120D02*
D03*
Y658910D02*
D03*
D41*
X309880Y217750D02*
D03*
X297180D02*
D03*
X284480D02*
D03*
X271780D02*
D03*
X259080D02*
D03*
X246380D02*
D03*
X233680D02*
D03*
X309880Y163250D02*
D03*
X297180D02*
D03*
X284480D02*
D03*
X271780D02*
D03*
X259080D02*
D03*
X246380D02*
D03*
X233680D02*
D03*
D42*
X141540Y646430D02*
D03*
X181040D02*
D03*
D84*
X616810Y144410D02*
D03*
X610310D02*
D03*
X603810D02*
D03*
X597310D02*
D03*
Y129910D02*
D03*
X603810D02*
D03*
X610310D02*
D03*
X616810D02*
D03*
D85*
X541780Y188840D02*
Y208220D01*
X534010Y181070D02*
X541780Y188840D01*
X534010Y179070D02*
Y181070D01*
X424250Y241300D02*
X434950Y252000D01*
X397510Y241300D02*
X424250D01*
X434950Y252000D02*
Y254000D01*
Y254420D02*
X437950Y257420D01*
X434950Y254000D02*
Y254420D01*
X542950Y389280D02*
X570230Y416560D01*
X542950Y351790D02*
Y389280D01*
X539950Y348790D02*
X542950Y351790D01*
X539950Y341915D02*
Y348790D01*
X531780Y333745D02*
X539950Y341915D01*
X259080Y167500D02*
X272425Y180845D01*
X278635D01*
X279400Y181610D01*
X92710Y147320D02*
X134620Y189230D01*
X296560D02*
X336550Y229220D01*
X134620Y189230D02*
X296560D01*
X258040Y218790D02*
X259080Y217750D01*
X258040Y218790D02*
Y229500D01*
X243332Y196820D02*
X247722Y201210D01*
X204398D02*
X208788Y196820D01*
X193040Y201210D02*
X204398D01*
X256540Y231000D02*
Y293690D01*
Y231000D02*
X258040Y229500D01*
X247722Y201210D02*
X284890D01*
X208788Y196820D02*
X243332D01*
X284890Y201210D02*
X297180Y213500D01*
X610130Y285220D02*
X663066D01*
X673756Y295910D01*
X718040D01*
Y296960D01*
X602930Y292420D02*
X610130Y285220D01*
X590980Y292420D02*
X602930D01*
X727710Y306630D02*
Y309880D01*
X718040Y296960D02*
X727710Y306630D01*
X590980Y292420D02*
X590980Y292420D01*
X568960Y299720D02*
X569725Y298955D01*
Y296094D02*
Y298955D01*
Y296094D02*
X578400Y287420D01*
X496780Y181240D02*
Y208220D01*
X464130Y148590D02*
X496780Y181240D01*
X447730Y148590D02*
X464130D01*
X239490Y310740D02*
X256540Y293690D01*
X237490Y310740D02*
X239490D01*
X284480Y167500D02*
X320180Y203200D01*
X384230D01*
X457446Y227420D02*
X477580D01*
X444510Y232420D02*
X477580D01*
X437036Y207010D02*
X457446Y227420D01*
X244880Y211860D02*
Y216250D01*
X246380Y217750D01*
X239380Y206360D02*
X244880Y211860D01*
X212740Y206360D02*
X239380D01*
X202533Y216567D02*
X212740Y206360D01*
X494840Y277320D02*
X506730Y265430D01*
Y231870D02*
Y265430D01*
X479751Y277320D02*
X494840D01*
X456930Y157840D02*
X491780Y192690D01*
Y216920D01*
X506730Y231870D01*
X429260Y217170D02*
X444510Y232420D01*
X426720Y207010D02*
X437036D01*
X420370Y545740D02*
X442750D01*
X451620Y536870D01*
X452120D01*
X576378Y237420D02*
X590980D01*
X574040Y238675D02*
X575122D01*
X576378Y237420D01*
X554990Y276860D02*
X555450Y277320D01*
X563880Y284480D02*
X572522D01*
X555450Y277320D02*
X567429D01*
X599780Y232320D02*
X608524Y223575D01*
Y219598D02*
X609290Y218833D01*
X608524Y219598D02*
Y223575D01*
X531780Y321620D02*
Y333745D01*
X590980Y232420D02*
X591080Y232320D01*
X599780D01*
X437950Y257420D02*
X477580D01*
X605296Y252420D02*
X610066Y247650D01*
X590980Y252420D02*
X605296D01*
X610066Y247650D02*
X619500D01*
X68030Y147320D02*
X92710D01*
X67310Y146600D02*
X68030Y147320D01*
X336550Y229220D02*
Y261620D01*
X251320Y175260D02*
X259080Y167500D01*
X176530Y153400D02*
X198390Y175260D01*
X251320D01*
X347350Y272420D02*
X477580D01*
X336550Y261620D02*
X347350Y272420D01*
X348890Y246110D02*
X370200Y267420D01*
X477580D01*
Y277420D02*
X479651D01*
X479751Y277320D01*
X348890Y245110D02*
Y246110D01*
X193040Y219710D02*
X196183Y216567D01*
X202533D01*
X181700Y219710D02*
X193040D01*
X259080Y163250D02*
Y167500D01*
X176530Y152400D02*
Y153400D01*
X160020Y134890D02*
X176530Y151400D01*
Y152400D01*
X160020Y106940D02*
Y134890D01*
X99060Y87370D02*
X122090D01*
X127270Y82190D01*
X27940Y129540D02*
X45000Y146600D01*
X67310D01*
X56150Y154940D02*
X66310Y165100D01*
X27940Y154940D02*
X56150D01*
X66310Y165100D02*
X67310D01*
X477580Y237420D02*
X477580Y237420D01*
X460282Y237420D02*
X477580D01*
X215019Y95790D02*
X365030D01*
X309880Y163250D02*
Y167500D01*
X332080Y189700D01*
X337380D01*
X408580Y160930D02*
X425450D01*
X389890Y120650D02*
Y142240D01*
X408580Y160930D01*
X365030Y95790D02*
X389890Y120650D01*
X232180Y157896D02*
X233680Y159396D01*
X228420Y157896D02*
X232180D01*
X209390Y138866D02*
X228420Y157896D01*
X209390Y101419D02*
Y138866D01*
X233680Y159396D02*
Y163156D01*
X209390Y101419D02*
X215019Y95790D01*
X384230Y203200D02*
X417250Y170180D01*
X433650D01*
X440690Y163140D01*
Y155630D02*
Y163140D01*
Y155630D02*
X447730Y148590D01*
X284480Y163250D02*
Y167500D01*
X454930Y157840D02*
X455930D01*
X456930D01*
X429700Y175180D02*
X437590D01*
X454930Y157840D01*
X425450Y179430D02*
X429700Y175180D01*
X283210Y143510D02*
X283845Y144145D01*
Y162615D02*
X284480Y163250D01*
X283845Y144145D02*
Y162615D01*
X259080Y109032D02*
X262890Y105222D01*
X259080Y109032D02*
Y163250D01*
X262890Y104140D02*
Y105222D01*
X348890Y244110D02*
Y245110D01*
X341630Y212450D02*
Y236850D01*
X348890Y244110D01*
X337380Y189700D02*
X341630Y193950D01*
X297180Y217750D02*
X309880D01*
X297180Y213500D02*
Y217750D01*
X166100Y235310D02*
X181700Y219710D01*
X165100Y235310D02*
X166100D01*
X121890Y306570D02*
Y328080D01*
Y328930D01*
X53340Y322580D02*
X116390D01*
X121890Y328080D01*
X64510Y236950D02*
Y268230D01*
Y234950D02*
Y236950D01*
X53340Y279400D02*
X64510Y268230D01*
X53340Y279400D02*
X53340D01*
X91720Y264160D02*
X127910D01*
X64510Y236950D02*
X91720Y264160D01*
X121890Y306570D02*
X130550Y297910D01*
X225510Y353060D02*
X225770Y352800D01*
X256540D01*
X225510Y352060D02*
X237490Y340080D01*
Y310740D02*
Y340080D01*
X225510Y352060D02*
Y353060D01*
X305210Y289410D02*
X311410Y283210D01*
X353060D02*
X355110Y285260D01*
X311410Y283210D02*
X353060D01*
X371480Y302260D02*
X385720Y288020D01*
Y287020D02*
Y288020D01*
X355110Y302260D02*
X371480D01*
X355110Y285260D02*
Y302260D01*
X303210Y289410D02*
X305210D01*
X298710Y293910D02*
Y295910D01*
Y293910D02*
X303210Y289410D01*
X284480Y237850D02*
X294210Y247580D01*
Y291410D01*
X284480Y217750D02*
Y237850D01*
X294210Y291410D02*
X298710Y295910D01*
X168461Y365620D02*
Y368211D01*
X166721Y363880D02*
X168461Y365620D01*
X182279Y382029D02*
Y406019D01*
X164130Y363880D02*
X166721D01*
X168461Y368211D02*
X182279Y382029D01*
X198680Y422420D02*
X201930D01*
X182279Y406019D02*
X198680Y422420D01*
X118790Y423570D02*
X161120D01*
X138130Y373380D02*
Y404230D01*
X118790Y423570D02*
X138130Y404230D01*
X116290Y423570D02*
X118790D01*
X161120D02*
X162560Y422130D01*
X595370Y435610D02*
Y467720D01*
X686810Y435610D02*
Y469480D01*
X866630Y432320D02*
Y469900D01*
X543560Y436880D02*
Y469510D01*
X543070Y470000D02*
X543560Y469510D01*
X572522Y284480D02*
X574582Y282420D01*
X590980D01*
X567429Y277320D02*
X567529Y277420D01*
X569600Y272420D02*
X590980D01*
X562610Y265430D02*
X569600Y272420D01*
X567529Y277420D02*
X590980D01*
X578400Y287420D02*
X590980D01*
X684068Y121458D02*
Y232120D01*
X692230Y233211D02*
X696469Y237450D01*
X644457Y72957D02*
X692230Y120730D01*
X684068Y232120D02*
X694398Y242450D01*
X698500Y230693D02*
X700257Y232450D01*
X735290D02*
X740180Y227560D01*
X694398Y242450D02*
X758310D01*
X700257Y232450D02*
X735290D01*
X692230Y120730D02*
Y233211D01*
X698500Y116840D02*
Y230693D01*
X696469Y237450D02*
X742880D01*
X740180Y220450D02*
X741680Y218950D01*
X740180Y220450D02*
Y227560D01*
X640567Y77957D02*
X684068Y121458D01*
X630984Y49324D02*
X698500Y116840D01*
X758310Y242450D02*
X767080Y233680D01*
X742880Y237450D02*
X754380Y225950D01*
X767080Y218950D02*
Y233680D01*
X612170Y77957D02*
X640567D01*
X632570Y72957D02*
X644457D01*
X622300Y46990D02*
X624634Y49324D01*
X630984D01*
X608937D02*
X632570Y72957D01*
X596900Y46990D02*
X599234Y49324D01*
X608937D01*
X754380Y218950D02*
Y225950D01*
X573834Y49324D02*
X583537D01*
X612170Y77957D01*
X571500Y46990D02*
X573834Y49324D01*
X824340Y46990D02*
X825500D01*
X754380Y116950D02*
Y123950D01*
Y116950D02*
X824340Y46990D01*
X741680Y105410D02*
X800100Y46990D01*
X741680Y105410D02*
Y123950D01*
X728980Y92710D02*
X774700Y46990D01*
X728980Y92710D02*
Y123950D01*
X716280Y80010D02*
Y123950D01*
Y80010D02*
X749300Y46990D01*
X908410Y259540D02*
X938530Y289660D01*
X908410Y246380D02*
Y259540D01*
X616800Y304177D02*
Y304720D01*
X590980Y302420D02*
X615043D01*
X616800Y304177D01*
Y304720D02*
X619050Y306970D01*
X590980Y297420D02*
X614100D01*
X619050Y292470D01*
X622300D01*
X935532Y365660D02*
X938530D01*
X866630Y432320D02*
X868420Y430530D01*
X781540Y470000D02*
X783330Y468210D01*
Y431800D02*
Y468210D01*
X622590Y470000D02*
Y503350D01*
X614190Y511750D02*
X622590Y503350D01*
X614190Y511750D02*
Y515000D01*
X593090Y470000D02*
X595370Y467720D01*
X686290Y470000D02*
X686810Y469480D01*
X714520Y515620D02*
X715790Y514350D01*
Y470000D02*
Y514350D01*
X811040Y470000D02*
Y515620D01*
X809770Y516890D02*
X811040Y515620D01*
X896130Y470000D02*
Y513080D01*
X893590Y515620D02*
X896130Y513080D01*
X893590Y515620D02*
Y562960D01*
X888640Y567910D02*
X893590Y562960D01*
X809770Y516890D02*
Y554380D01*
X799740Y564410D02*
X809770Y554380D01*
X799740Y564410D02*
Y567910D01*
X714520Y515620D02*
Y564230D01*
X710840Y567910D02*
X714520Y564230D01*
X614190Y515000D02*
Y556660D01*
X621940Y564410D01*
Y567910D01*
X540530Y515000D02*
Y565500D01*
X538120Y567910D02*
X540530Y565500D01*
X391060Y564240D02*
X420370D01*
X388620Y566680D02*
X391060Y564240D01*
X421370D02*
X426720Y569590D01*
Y598420D01*
X260350Y523580D02*
X289540D01*
X290470Y524510D01*
D86*
X220250Y565760D02*
X222250D01*
X176720D02*
X220250D01*
X174720Y567760D02*
X176720Y565760D01*
X172720Y567760D02*
X174720D01*
X208280Y577730D02*
X220250Y565760D01*
X211100Y646430D02*
X231680Y667010D01*
X208280Y577730D02*
Y646430D01*
X352330Y559060D02*
X356330D01*
X358330Y561060D01*
Y563060D01*
X403720Y608450D01*
Y661420D01*
X308970Y559230D02*
X320580Y570840D01*
X308970Y524510D02*
Y559230D01*
X324580Y570840D02*
X341080D01*
X320580D02*
X324580D01*
X341080D02*
X350330Y561590D01*
Y561060D02*
Y561590D01*
Y561060D02*
X352330Y559060D01*
X324580Y570840D02*
X349250Y595510D01*
Y624840D01*
X291110Y615606D02*
X298450Y622946D01*
X291110Y563880D02*
Y615606D01*
X298450Y622946D02*
Y624840D01*
X231680Y667010D02*
X233680D01*
X181040Y646430D02*
X211100D01*
X138250Y558370D02*
X181040Y601160D01*
X138250Y547370D02*
Y558370D01*
X181040Y601160D02*
Y646430D01*
D87*
X283600Y80000D02*
D03*
X373650D02*
D03*
X193600D02*
D03*
D88*
X309000Y105400D02*
D03*
X334400Y80000D02*
D03*
X424450D02*
D03*
X399050Y105400D02*
D03*
X219000D02*
D03*
X244400Y80000D02*
D03*
D89*
X876300Y46990D02*
D03*
X850900D02*
D03*
X825500D02*
D03*
X800100D02*
D03*
X749300D02*
D03*
X698500D02*
D03*
X673100D02*
D03*
X622300D02*
D03*
X596900D02*
D03*
X571500D02*
D03*
X520700D02*
D03*
X546100D02*
D03*
X647700D02*
D03*
X723900D02*
D03*
X774700D02*
D03*
D90*
X495300D02*
D03*
D91*
X972820Y454660D02*
D03*
Y480060D02*
D03*
X947420Y454660D02*
D03*
Y480060D02*
D03*
X972820Y505460D02*
D03*
X947420D02*
D03*
Y530860D02*
D03*
X946150Y213360D02*
D03*
Y187960D02*
D03*
X971550D02*
D03*
X946150Y162560D02*
D03*
Y137160D02*
D03*
X971550Y162560D02*
D03*
Y137160D02*
D03*
X323850Y624840D02*
D03*
X349250D02*
D03*
X298450D02*
D03*
D92*
X972820Y530860D02*
D03*
X971550Y213360D02*
D03*
D93*
X27940Y279400D02*
D03*
Y322580D02*
D03*
D94*
X53340Y279400D02*
D03*
Y322580D02*
D03*
D95*
X36830Y401320D02*
D03*
X27940Y231140D02*
D03*
Y205740D02*
D03*
Y180340D02*
D03*
Y154940D02*
D03*
D96*
X36830Y426720D02*
D03*
D97*
X938530Y289660D02*
D03*
Y365660D02*
D03*
D98*
X50000Y650000D02*
D03*
X950000Y650000D02*
D03*
X50000Y50000D02*
D03*
X950000Y50000D02*
D03*
D99*
X138250Y547370D02*
D03*
X80250D02*
D03*
D100*
X108250Y499370D02*
D03*
D101*
X27940Y129540D02*
D03*
D102*
X674370Y135890D02*
D03*
X641350Y156210D02*
D03*
X673100Y154940D02*
D03*
X960000Y600000D02*
D03*
X980000Y560000D02*
D03*
X960000Y520000D02*
D03*
Y440000D02*
D03*
X980000Y400000D02*
D03*
X960000Y360000D02*
D03*
X980000Y320000D02*
D03*
X960000Y280000D02*
D03*
X980000Y240000D02*
D03*
X960000Y120000D02*
D03*
X980000Y80000D02*
D03*
X920000Y680000D02*
D03*
Y600000D02*
D03*
X940000Y560000D02*
D03*
X920000Y520000D02*
D03*
X940000Y400000D02*
D03*
X920000Y360000D02*
D03*
X940000Y320000D02*
D03*
Y240000D02*
D03*
X920000Y200000D02*
D03*
Y120000D02*
D03*
X880000Y680000D02*
D03*
X900000Y640000D02*
D03*
X880000Y600000D02*
D03*
Y520000D02*
D03*
Y360000D02*
D03*
X900000Y320000D02*
D03*
X880000Y280000D02*
D03*
Y200000D02*
D03*
X900000Y80000D02*
D03*
X840000Y680000D02*
D03*
X860000Y640000D02*
D03*
X840000Y600000D02*
D03*
X860000Y560000D02*
D03*
X840000Y520000D02*
D03*
X860000Y320000D02*
D03*
Y240000D02*
D03*
X840000Y200000D02*
D03*
Y120000D02*
D03*
X860000Y80000D02*
D03*
X800000Y680000D02*
D03*
X820000Y640000D02*
D03*
X800000Y600000D02*
D03*
X820000Y560000D02*
D03*
X800000Y440000D02*
D03*
X820000Y320000D02*
D03*
X800000Y200000D02*
D03*
X820000Y80000D02*
D03*
X760000Y680000D02*
D03*
X780000Y640000D02*
D03*
X760000Y600000D02*
D03*
X780000Y560000D02*
D03*
X760000Y520000D02*
D03*
Y440000D02*
D03*
X780000Y80000D02*
D03*
X720000Y680000D02*
D03*
X740000Y640000D02*
D03*
X720000Y600000D02*
D03*
X740000Y560000D02*
D03*
Y320000D02*
D03*
X720000Y200000D02*
D03*
X680000Y680000D02*
D03*
X700000Y640000D02*
D03*
X680000Y600000D02*
D03*
X700000Y320000D02*
D03*
Y80000D02*
D03*
X640000Y680000D02*
D03*
X660000Y640000D02*
D03*
X640000Y600000D02*
D03*
Y520000D02*
D03*
Y440000D02*
D03*
X660000Y320000D02*
D03*
Y240000D02*
D03*
X600000Y680000D02*
D03*
X620000Y640000D02*
D03*
X600000Y600000D02*
D03*
Y520000D02*
D03*
X560000Y680000D02*
D03*
X580000Y640000D02*
D03*
X560000Y600000D02*
D03*
Y520000D02*
D03*
X580000Y480000D02*
D03*
X560000Y440000D02*
D03*
X580000Y400000D02*
D03*
Y160000D02*
D03*
X560000Y120000D02*
D03*
X580000Y80000D02*
D03*
X560000Y40000D02*
D03*
X520000Y680000D02*
D03*
X540000Y640000D02*
D03*
X520000Y600000D02*
D03*
X540000Y160000D02*
D03*
X520000Y120000D02*
D03*
X540000Y80000D02*
D03*
X480000Y680000D02*
D03*
X500000Y640000D02*
D03*
X480000Y600000D02*
D03*
Y520000D02*
D03*
Y440000D02*
D03*
X500000Y400000D02*
D03*
X480000Y360000D02*
D03*
Y200000D02*
D03*
X500000Y160000D02*
D03*
X480000Y120000D02*
D03*
Y40000D02*
D03*
X440000Y680000D02*
D03*
X460000Y640000D02*
D03*
X440000Y520000D02*
D03*
X460000Y480000D02*
D03*
X440000Y440000D02*
D03*
X460000Y400000D02*
D03*
Y320000D02*
D03*
X440000Y120000D02*
D03*
Y40000D02*
D03*
X400000Y680000D02*
D03*
Y520000D02*
D03*
X420000Y480000D02*
D03*
X400000Y440000D02*
D03*
Y360000D02*
D03*
Y120000D02*
D03*
Y40000D02*
D03*
X360000Y680000D02*
D03*
X380000Y640000D02*
D03*
X360000Y600000D02*
D03*
Y520000D02*
D03*
X380000Y480000D02*
D03*
X360000Y440000D02*
D03*
X380000Y320000D02*
D03*
X360000Y280000D02*
D03*
X380000Y240000D02*
D03*
Y160000D02*
D03*
X320000Y680000D02*
D03*
X340000Y640000D02*
D03*
X320000Y600000D02*
D03*
X340000Y480000D02*
D03*
Y400000D02*
D03*
Y320000D02*
D03*
Y160000D02*
D03*
X320000Y120000D02*
D03*
X280000Y680000D02*
D03*
X300000Y640000D02*
D03*
X280000Y600000D02*
D03*
X300000Y480000D02*
D03*
X280000Y440000D02*
D03*
X300000Y400000D02*
D03*
X280000Y360000D02*
D03*
X300000Y320000D02*
D03*
X280000Y120000D02*
D03*
X300000Y80000D02*
D03*
X240000Y680000D02*
D03*
X260000Y640000D02*
D03*
X240000Y600000D02*
D03*
Y440000D02*
D03*
Y360000D02*
D03*
X260000Y320000D02*
D03*
X240000Y120000D02*
D03*
X200000Y680000D02*
D03*
X220000Y640000D02*
D03*
X200000Y520000D02*
D03*
X220000Y480000D02*
D03*
X200000Y440000D02*
D03*
X220000Y400000D02*
D03*
Y320000D02*
D03*
X200000Y280000D02*
D03*
X220000Y160000D02*
D03*
X200000Y120000D02*
D03*
X160000Y680000D02*
D03*
Y600000D02*
D03*
X180000Y480000D02*
D03*
X160000Y440000D02*
D03*
X180000Y320000D02*
D03*
X160000Y280000D02*
D03*
X180000Y240000D02*
D03*
X160000Y200000D02*
D03*
X180000Y80000D02*
D03*
X160000Y40000D02*
D03*
X120000Y680000D02*
D03*
Y600000D02*
D03*
Y520000D02*
D03*
X140000Y480000D02*
D03*
X120000Y360000D02*
D03*
Y280000D02*
D03*
X140000Y240000D02*
D03*
X120000Y200000D02*
D03*
X140000Y160000D02*
D03*
X120000Y120000D02*
D03*
X80000Y680000D02*
D03*
X100000Y640000D02*
D03*
X80000Y600000D02*
D03*
X100000Y560000D02*
D03*
X80000Y520000D02*
D03*
X100000Y480000D02*
D03*
Y400000D02*
D03*
X80000Y360000D02*
D03*
Y280000D02*
D03*
Y200000D02*
D03*
Y120000D02*
D03*
X40000Y600000D02*
D03*
X60000Y560000D02*
D03*
X40000Y520000D02*
D03*
X60000Y480000D02*
D03*
Y400000D02*
D03*
X40000Y360000D02*
D03*
X779780Y129540D02*
D03*
X789940Y114300D02*
D03*
X397510Y241300D02*
D03*
X279400Y181610D02*
D03*
X218487Y213360D02*
D03*
X585470Y356870D02*
D03*
X619500Y247650D02*
D03*
X548640Y300990D02*
D03*
X568960Y299720D02*
D03*
X106680Y46990D02*
D03*
X549910Y146050D02*
D03*
X181610Y33020D02*
D03*
X128270Y265430D02*
D03*
X494030Y261190D02*
D03*
X457200Y239420D02*
D03*
X132080Y294640D02*
D03*
X233680Y213360D02*
D03*
X494030Y234950D02*
D03*
Y247650D02*
D03*
X429260Y217170D02*
D03*
X426720Y207010D02*
D03*
X631190Y146050D02*
D03*
X426720Y628650D02*
D03*
X234950Y267970D02*
D03*
X309880Y331470D02*
D03*
X889000Y115570D02*
D03*
X787400Y99060D02*
D03*
X574040Y238675D02*
D03*
X494030Y337820D02*
D03*
X563880Y284480D02*
D03*
X554990Y276860D02*
D03*
X514350Y358140D02*
D03*
X609290Y218833D02*
D03*
X494030Y355600D02*
D03*
X601980Y207010D02*
D03*
X619763Y200753D02*
D03*
X262890Y104140D02*
D03*
X283210Y143510D02*
D03*
X595630Y435610D02*
D03*
X687070D02*
D03*
X783590Y430530D02*
D03*
X867410Y469900D02*
D03*
X543560Y436880D02*
D03*
X562610Y265430D02*
D03*
X50000Y677500D02*
D03*
X70000Y670000D02*
D03*
X77500Y650000D02*
D03*
X70000Y630000D02*
D03*
X50000Y622500D02*
D03*
X30000Y630000D02*
D03*
X22500Y650000D02*
D03*
X30000Y670000D02*
D03*
X950000Y677500D02*
D03*
X970000Y670000D02*
D03*
X977500Y650000D02*
D03*
X970000Y630000D02*
D03*
X950000Y622500D02*
D03*
X930000Y630000D02*
D03*
X922500Y650000D02*
D03*
X930000Y670000D02*
D03*
X50000Y77500D02*
D03*
X70000Y70000D02*
D03*
X77500Y50000D02*
D03*
X70000Y30000D02*
D03*
X50000Y22500D02*
D03*
X30000Y30000D02*
D03*
X22500Y50000D02*
D03*
X30000Y70000D02*
D03*
X950000Y77500D02*
D03*
X970000Y70000D02*
D03*
X977500Y50000D02*
D03*
X970000Y30000D02*
D03*
X950000Y22500D02*
D03*
X930000Y30000D02*
D03*
X922500Y50000D02*
D03*
X930000Y70000D02*
D03*
M02*
