G04*
G04 #@! TF.GenerationSoftware,Altium Limited,Altium Designer,24.1.2 (44)*
G04*
G04 Layer_Color=8421504*
%FSLAX44Y44*%
%MOMM*%
G71*
G04*
G04 #@! TF.SameCoordinates,51815DC6-8F92-44A8-A11D-F5E15FB87907*
G04*
G04*
G04 #@! TF.FilePolarity,Positive*
G04*
G01*
G75*
%ADD18C,0.1750*%
%ADD19R,1.6000X1.2000*%
%ADD20R,5.5000X2.0000*%
%ADD21R,1.4000X0.7500*%
%ADD22R,1.1000X1.7500*%
%ADD23R,1.7500X1.1000*%
%ADD24R,0.2800X1.4700*%
%ADD25R,1.4700X0.2800*%
%ADD26R,1.4000X1.0000*%
G04:AMPARAMS|DCode=27|XSize=0.65mm|YSize=1.2mm|CornerRadius=0.1625mm|HoleSize=0mm|Usage=FLASHONLY|Rotation=270.000|XOffset=0mm|YOffset=0mm|HoleType=Round|Shape=RoundedRectangle|*
%AMROUNDEDRECTD27*
21,1,0.6500,0.8750,0,0,270.0*
21,1,0.3250,1.2000,0,0,270.0*
1,1,0.3250,-0.4375,-0.1625*
1,1,0.3250,-0.4375,0.1625*
1,1,0.3250,0.4375,0.1625*
1,1,0.3250,0.4375,-0.1625*
%
%ADD27ROUNDEDRECTD27*%
%ADD28R,1.3500X1.1500*%
G04:AMPARAMS|DCode=29|XSize=1.75mm|YSize=1.25mm|CornerRadius=0.3125mm|HoleSize=0mm|Usage=FLASHONLY|Rotation=90.000|XOffset=0mm|YOffset=0mm|HoleType=Round|Shape=RoundedRectangle|*
%AMROUNDEDRECTD29*
21,1,1.7500,0.6250,0,0,90.0*
21,1,1.1250,1.2500,0,0,90.0*
1,1,0.6250,0.3125,0.5625*
1,1,0.6250,0.3125,-0.5625*
1,1,0.6250,-0.3125,-0.5625*
1,1,0.6250,-0.3125,0.5625*
%
%ADD29ROUNDEDRECTD29*%
%ADD30R,1.3000X0.9000*%
%ADD31R,1.1500X1.3500*%
%ADD32R,1.2000X1.6000*%
%ADD33R,1.4000X1.9500*%
%ADD34R,0.6000X2.0000*%
%ADD35R,0.9000X1.3000*%
G04:AMPARAMS|DCode=36|XSize=1.2mm|YSize=1.1mm|CornerRadius=0.275mm|HoleSize=0mm|Usage=FLASHONLY|Rotation=0.000|XOffset=0mm|YOffset=0mm|HoleType=Round|Shape=RoundedRectangle|*
%AMROUNDEDRECTD36*
21,1,1.2000,0.5500,0,0,0.0*
21,1,0.6500,1.1000,0,0,0.0*
1,1,0.5500,0.3250,-0.2750*
1,1,0.5500,-0.3250,-0.2750*
1,1,0.5500,-0.3250,0.2750*
1,1,0.5500,0.3250,0.2750*
%
%ADD36ROUNDEDRECTD36*%
G04:AMPARAMS|DCode=37|XSize=3.3mm|YSize=2.1mm|CornerRadius=0.525mm|HoleSize=0mm|Usage=FLASHONLY|Rotation=0.000|XOffset=0mm|YOffset=0mm|HoleType=Round|Shape=RoundedRectangle|*
%AMROUNDEDRECTD37*
21,1,3.3000,1.0500,0,0,0.0*
21,1,2.2500,2.1000,0,0,0.0*
1,1,1.0500,1.1250,-0.5250*
1,1,1.0500,-1.1250,-0.5250*
1,1,1.0500,-1.1250,0.5250*
1,1,1.0500,1.1250,0.5250*
%
%ADD37ROUNDEDRECTD37*%
G04:AMPARAMS|DCode=38|XSize=1mm|YSize=2.1mm|CornerRadius=0.25mm|HoleSize=0mm|Usage=FLASHONLY|Rotation=0.000|XOffset=0mm|YOffset=0mm|HoleType=Round|Shape=RoundedRectangle|*
%AMROUNDEDRECTD38*
21,1,1.0000,1.6000,0,0,0.0*
21,1,0.5000,2.1000,0,0,0.0*
1,1,0.5000,0.2500,-0.8000*
1,1,0.5000,-0.2500,-0.8000*
1,1,0.5000,-0.2500,0.8000*
1,1,0.5000,0.2500,0.8000*
%
%ADD38ROUNDEDRECTD38*%
%ADD39R,1.1000X0.6000*%
%ADD40R,1.4000X2.1000*%
%ADD41R,0.6000X1.4500*%
G04:AMPARAMS|DCode=42|XSize=1.7mm|YSize=2.5mm|CornerRadius=0.425mm|HoleSize=0mm|Usage=FLASHONLY|Rotation=270.000|XOffset=0mm|YOffset=0mm|HoleType=Round|Shape=RoundedRectangle|*
%AMROUNDEDRECTD42*
21,1,1.7000,1.6500,0,0,270.0*
21,1,0.8500,2.5000,0,0,270.0*
1,1,0.8500,-0.8250,-0.4250*
1,1,0.8500,-0.8250,0.4250*
1,1,0.8500,0.8250,0.4250*
1,1,0.8500,0.8250,-0.4250*
%
%ADD42ROUNDEDRECTD42*%
D18*
X617685Y144410D02*
G03*
X617685Y144410I-875J0D01*
G01*
X611185D02*
G03*
X611185Y144410I-875J0D01*
G01*
X604685D02*
G03*
X604685Y144410I-875J0D01*
G01*
X598185D02*
G03*
X598185Y144410I-875J0D01*
G01*
X617685Y129910D02*
G03*
X617685Y129910I-875J0D01*
G01*
X611185D02*
G03*
X611185Y129910I-875J0D01*
G01*
X604685D02*
G03*
X604685Y129910I-875J0D01*
G01*
X598185D02*
G03*
X598185Y129910I-875J0D01*
G01*
D19*
X844550Y275850D02*
D03*
Y244850D02*
D03*
X869950Y220980D02*
D03*
Y251980D02*
D03*
X222250Y571760D02*
D03*
Y540760D02*
D03*
X160020Y106940D02*
D03*
Y75940D02*
D03*
X99060Y87370D02*
D03*
Y118370D02*
D03*
X652780Y145040D02*
D03*
Y114040D02*
D03*
X571500Y152660D02*
D03*
Y121660D02*
D03*
X256540Y352800D02*
D03*
Y383800D02*
D03*
X679450Y339350D02*
D03*
Y308350D02*
D03*
X651510Y339350D02*
D03*
Y308350D02*
D03*
X354330Y528060D02*
D03*
Y559060D02*
D03*
X388620Y535680D02*
D03*
Y566680D02*
D03*
X233680Y636010D02*
D03*
Y667010D02*
D03*
D20*
X798070Y269240D02*
D03*
X703070D02*
D03*
D21*
X622300Y306970D02*
D03*
Y292470D02*
D03*
D22*
X893590Y515620D02*
D03*
X864090D02*
D03*
X727710Y309880D02*
D03*
X757210D02*
D03*
X834390Y96520D02*
D03*
X804890D02*
D03*
X780270Y516890D02*
D03*
X809770D02*
D03*
X685020Y515620D02*
D03*
X714520D02*
D03*
X584690Y515000D02*
D03*
X614190D02*
D03*
X511030D02*
D03*
X540530D02*
D03*
X866630Y470000D02*
D03*
X896130D02*
D03*
X781540D02*
D03*
X811040D02*
D03*
X686290D02*
D03*
X715790D02*
D03*
X593090D02*
D03*
X622590D02*
D03*
X543070D02*
D03*
X513570D02*
D03*
X355110Y302260D02*
D03*
X325610D02*
D03*
D23*
X901700Y190010D02*
D03*
Y160510D02*
D03*
X162560Y422130D02*
D03*
Y451630D02*
D03*
X858520Y130320D02*
D03*
Y100820D02*
D03*
X201930Y422420D02*
D03*
Y392920D02*
D03*
D24*
X496780Y321620D02*
D03*
X501780D02*
D03*
X506780D02*
D03*
X511780D02*
D03*
X516780D02*
D03*
X521780D02*
D03*
X526780D02*
D03*
X531780D02*
D03*
X536780D02*
D03*
X541780D02*
D03*
X546780D02*
D03*
X551780D02*
D03*
X556780D02*
D03*
X561780D02*
D03*
X566780D02*
D03*
X571780D02*
D03*
Y208220D02*
D03*
X566780D02*
D03*
X561780D02*
D03*
X556780D02*
D03*
X551780D02*
D03*
X546780D02*
D03*
X541780D02*
D03*
X536780D02*
D03*
X531780D02*
D03*
X526780D02*
D03*
X521780D02*
D03*
X516780D02*
D03*
X511780D02*
D03*
X506780D02*
D03*
X501780D02*
D03*
X496780D02*
D03*
D25*
X590980Y302420D02*
D03*
Y297420D02*
D03*
Y292420D02*
D03*
Y287420D02*
D03*
Y282420D02*
D03*
Y277420D02*
D03*
Y272420D02*
D03*
Y267420D02*
D03*
Y262420D02*
D03*
Y257420D02*
D03*
Y252420D02*
D03*
Y247420D02*
D03*
Y242420D02*
D03*
Y237420D02*
D03*
Y232420D02*
D03*
Y227420D02*
D03*
X477580D02*
D03*
Y232420D02*
D03*
Y237420D02*
D03*
Y242420D02*
D03*
Y247420D02*
D03*
Y252420D02*
D03*
Y257420D02*
D03*
Y262420D02*
D03*
Y267420D02*
D03*
Y272420D02*
D03*
Y277420D02*
D03*
Y282420D02*
D03*
Y287420D02*
D03*
Y292420D02*
D03*
Y297420D02*
D03*
Y302420D02*
D03*
D26*
X237490Y291240D02*
D03*
Y310740D02*
D03*
D27*
X164130Y363880D02*
D03*
Y382880D02*
D03*
X138130Y373380D02*
D03*
X802340Y337160D02*
D03*
Y318160D02*
D03*
X828340Y327660D02*
D03*
X867710Y166370D02*
D03*
X841710Y156870D02*
D03*
Y175870D02*
D03*
D28*
X887730Y115930D02*
D03*
Y97430D02*
D03*
X173990Y512530D02*
D03*
Y494030D02*
D03*
X128270Y82190D02*
D03*
Y100690D02*
D03*
X341630Y193950D02*
D03*
Y212450D02*
D03*
X193040Y201210D02*
D03*
Y219710D02*
D03*
X165100Y235310D02*
D03*
Y216810D02*
D03*
X665480Y223880D02*
D03*
Y205380D02*
D03*
X637540Y217530D02*
D03*
Y199030D02*
D03*
X378460Y382590D02*
D03*
Y364090D02*
D03*
X448310Y380090D02*
D03*
Y361590D02*
D03*
X313690Y383900D02*
D03*
Y365400D02*
D03*
X415290Y382630D02*
D03*
Y364130D02*
D03*
X347980Y383900D02*
D03*
Y365400D02*
D03*
X420370Y564240D02*
D03*
Y545740D02*
D03*
X67310Y146600D02*
D03*
Y165100D02*
D03*
X455930Y139340D02*
D03*
Y157840D02*
D03*
X425450Y179430D02*
D03*
Y160930D02*
D03*
D29*
X262610Y563880D02*
D03*
X291110D02*
D03*
D30*
X171450Y548030D02*
D03*
Y567030D02*
D03*
X322580Y570840D02*
D03*
Y551840D02*
D03*
D31*
X176530Y152400D02*
D03*
X158030D02*
D03*
X348890Y245110D02*
D03*
X367390D02*
D03*
X385720Y287020D02*
D03*
X404220D02*
D03*
X225510Y353060D02*
D03*
X207010D02*
D03*
X127910Y264160D02*
D03*
X146410D02*
D03*
X908410Y246380D02*
D03*
X889910D02*
D03*
X290470Y524510D02*
D03*
X308970D02*
D03*
D32*
X64510Y234950D02*
D03*
X95510D02*
D03*
X130550Y295910D02*
D03*
X161550D02*
D03*
X650500Y247650D02*
D03*
X619500D02*
D03*
X567950Y351790D02*
D03*
X536950D02*
D03*
X509010Y179070D02*
D03*
X540010D02*
D03*
X409950Y254000D02*
D03*
X440950D02*
D03*
X899420Y430530D02*
D03*
X868420D02*
D03*
X814330Y431800D02*
D03*
X783330D02*
D03*
X717810Y435610D02*
D03*
X686810D02*
D03*
X626370D02*
D03*
X595370D02*
D03*
X512820Y436880D02*
D03*
X543820D02*
D03*
X267710Y295910D02*
D03*
X298710D02*
D03*
X307600Y248920D02*
D03*
X276600D02*
D03*
D33*
X149890Y328930D02*
D03*
X121890D02*
D03*
D34*
X716280Y123950D02*
D03*
X728980D02*
D03*
X741680D02*
D03*
X754380D02*
D03*
X767080D02*
D03*
X779780D02*
D03*
X792480D02*
D03*
X805180D02*
D03*
X716280Y218950D02*
D03*
X728980D02*
D03*
X741680D02*
D03*
X754380D02*
D03*
X767080D02*
D03*
X779780D02*
D03*
X792480D02*
D03*
X805180D02*
D03*
D35*
X577920Y375920D02*
D03*
X554920D02*
D03*
D36*
X452120Y422570D02*
D03*
Y443570D02*
D03*
X316230Y423840D02*
D03*
Y444840D02*
D03*
X349250Y422570D02*
D03*
Y443570D02*
D03*
X379730Y422840D02*
D03*
Y443840D02*
D03*
X419100Y422570D02*
D03*
Y443570D02*
D03*
X452120Y536870D02*
D03*
Y557870D02*
D03*
X213360Y492420D02*
D03*
Y513420D02*
D03*
X260350Y523580D02*
D03*
Y502580D02*
D03*
D37*
X426720Y598420D02*
D03*
D38*
X403720Y661420D02*
D03*
X426720D02*
D03*
X449720D02*
D03*
D39*
X91990Y433070D02*
D03*
X116290Y442570D02*
D03*
Y423570D02*
D03*
D40*
X888640Y658910D02*
D03*
Y567910D02*
D03*
X843640D02*
D03*
Y658910D02*
D03*
X799740D02*
D03*
Y567910D02*
D03*
X754740D02*
D03*
Y658910D02*
D03*
X710840D02*
D03*
Y567910D02*
D03*
X665840D02*
D03*
Y658910D02*
D03*
X621940D02*
D03*
Y567910D02*
D03*
X576940D02*
D03*
Y658910D02*
D03*
X538120D02*
D03*
Y567910D02*
D03*
X493120D02*
D03*
Y658910D02*
D03*
D41*
X309880Y217750D02*
D03*
X297180D02*
D03*
X284480D02*
D03*
X271780D02*
D03*
X259080D02*
D03*
X246380D02*
D03*
X233680D02*
D03*
X309880Y163250D02*
D03*
X297180D02*
D03*
X284480D02*
D03*
X271780D02*
D03*
X259080D02*
D03*
X246380D02*
D03*
X233680D02*
D03*
D42*
X141540Y646430D02*
D03*
X181040D02*
D03*
M02*
