G04*
G04 #@! TF.GenerationSoftware,Altium Limited,Altium Designer,24.1.2 (44)*
G04*
G04 Layer_Physical_Order=2*
G04 Layer_Color=36540*
%FSLAX44Y44*%
%MOMM*%
G71*
G04*
G04 #@! TF.SameCoordinates,E654AB1A-9A9C-4F51-8A7F-7F7880494425*
G04*
G04*
G04 #@! TF.FilePolarity,Positive*
G04*
G01*
G75*
%ADD87C,1.5200*%
G04:AMPARAMS|DCode=88|XSize=1.52mm|YSize=1.52mm|CornerRadius=0.38mm|HoleSize=0mm|Usage=FLASHONLY|Rotation=0.000|XOffset=0mm|YOffset=0mm|HoleType=Round|Shape=RoundedRectangle|*
%AMROUNDEDRECTD88*
21,1,1.5200,0.7600,0,0,0.0*
21,1,0.7600,1.5200,0,0,0.0*
1,1,0.7600,0.3800,-0.3800*
1,1,0.7600,-0.3800,-0.3800*
1,1,0.7600,-0.3800,0.3800*
1,1,0.7600,0.3800,0.3800*
%
%ADD88ROUNDEDRECTD88*%
%ADD89C,1.5000*%
G04:AMPARAMS|DCode=90|XSize=1.5mm|YSize=1.5mm|CornerRadius=0.375mm|HoleSize=0mm|Usage=FLASHONLY|Rotation=270.000|XOffset=0mm|YOffset=0mm|HoleType=Round|Shape=RoundedRectangle|*
%AMROUNDEDRECTD90*
21,1,1.5000,0.7500,0,0,270.0*
21,1,0.7500,1.5000,0,0,270.0*
1,1,0.7500,-0.3750,-0.3750*
1,1,0.7500,-0.3750,0.3750*
1,1,0.7500,0.3750,0.3750*
1,1,0.7500,0.3750,-0.3750*
%
%ADD90ROUNDEDRECTD90*%
%ADD92C,1.2220*%
%ADD93R,1.5400X1.5240*%
%ADD94O,1.5400X1.5240*%
%ADD95C,1.8000*%
%ADD97C,1.4080*%
%ADD98C,7.0000*%
G04:AMPARAMS|DCode=99|XSize=4mm|YSize=1.8mm|CornerRadius=0.45mm|HoleSize=0mm|Usage=FLASHONLY|Rotation=90.000|XOffset=0mm|YOffset=0mm|HoleType=Round|Shape=RoundedRectangle|*
%AMROUNDEDRECTD99*
21,1,4.0000,0.9000,0,0,90.0*
21,1,3.1000,1.8000,0,0,90.0*
1,1,0.9000,0.4500,1.5500*
1,1,0.9000,0.4500,-1.5500*
1,1,0.9000,-0.4500,-1.5500*
1,1,0.9000,-0.4500,1.5500*
%
%ADD99ROUNDEDRECTD99*%
G04:AMPARAMS|DCode=100|XSize=4mm|YSize=1.8mm|CornerRadius=0.45mm|HoleSize=0mm|Usage=FLASHONLY|Rotation=180.000|XOffset=0mm|YOffset=0mm|HoleType=Round|Shape=RoundedRectangle|*
%AMROUNDEDRECTD100*
21,1,4.0000,0.9000,0,0,180.0*
21,1,3.1000,1.8000,0,0,180.0*
1,1,0.9000,-1.5500,0.4500*
1,1,0.9000,1.5500,0.4500*
1,1,0.9000,1.5500,-0.4500*
1,1,0.9000,-1.5500,-0.4500*
%
%ADD100ROUNDEDRECTD100*%
G04:AMPARAMS|DCode=101|XSize=1.8mm|YSize=1.8mm|CornerRadius=0.45mm|HoleSize=0mm|Usage=FLASHONLY|Rotation=180.000|XOffset=0mm|YOffset=0mm|HoleType=Round|Shape=RoundedRectangle|*
%AMROUNDEDRECTD101*
21,1,1.8000,0.9000,0,0,180.0*
21,1,0.9000,1.8000,0,0,180.0*
1,1,0.9000,-0.4500,0.4500*
1,1,0.9000,0.4500,0.4500*
1,1,0.9000,0.4500,-0.4500*
1,1,0.9000,-0.4500,-0.4500*
%
%ADD101ROUNDEDRECTD101*%
%ADD102C,0.7000*%
G36*
X950000Y700000D02*
X953277D01*
X959775Y699144D01*
X966106Y697448D01*
X972162Y694940D01*
X977838Y691663D01*
X983038Y687673D01*
X987673Y683038D01*
X991663Y677838D01*
X994940Y672162D01*
X997448Y666106D01*
X999144Y659775D01*
X1000000Y653277D01*
Y650000D01*
X1000000Y650000D01*
X1000000Y650000D01*
X1000000Y50000D01*
Y46723D01*
X999145Y40224D01*
X997448Y33893D01*
X994940Y27838D01*
X991663Y22162D01*
X987673Y16962D01*
X983038Y12327D01*
X977838Y8337D01*
X972162Y5060D01*
X966106Y2552D01*
X959775Y856D01*
X953277Y0D01*
X950000Y0D01*
X50000Y0D01*
X46723D01*
X40224Y856D01*
X33893Y2552D01*
X27838Y5060D01*
X22162Y8337D01*
X16962Y12327D01*
X12327Y16962D01*
X8337Y22162D01*
X5060Y27838D01*
X2552Y33893D01*
X856Y40224D01*
X0Y46723D01*
X0Y50000D01*
X0Y650000D01*
Y653277D01*
X856Y659775D01*
X2552Y666106D01*
X5060Y672162D01*
X8337Y677838D01*
X12327Y683038D01*
X16962Y687673D01*
X22162Y691663D01*
X27838Y694940D01*
X33893Y697448D01*
X40224Y699144D01*
X46723Y700000D01*
X50000Y700000D01*
X50000Y700000D01*
X950000Y700000D01*
D02*
G37*
%LPC*%
G36*
X426720Y634258D02*
X424574Y633831D01*
X422755Y632615D01*
X421539Y630796D01*
X421112Y628650D01*
X421539Y626504D01*
X422755Y624685D01*
X424574Y623469D01*
X426720Y623042D01*
X428866Y623469D01*
X430685Y624685D01*
X431901Y626504D01*
X432328Y628650D01*
X431901Y630796D01*
X430685Y632615D01*
X428866Y633831D01*
X426720Y634258D01*
D02*
G37*
G36*
X349250Y634422D02*
X346770Y634095D01*
X344459Y633138D01*
X342475Y631615D01*
X340952Y629631D01*
X339995Y627320D01*
X339668Y624840D01*
X339995Y622360D01*
X340952Y620049D01*
X342475Y618064D01*
X344459Y616542D01*
X346770Y615584D01*
X349250Y615258D01*
X351730Y615584D01*
X354041Y616542D01*
X356025Y618064D01*
X357548Y620049D01*
X358506Y622360D01*
X358832Y624840D01*
X358506Y627320D01*
X357548Y629631D01*
X356025Y631615D01*
X354041Y633138D01*
X351730Y634095D01*
X349250Y634422D01*
D02*
G37*
G36*
X298450D02*
X295970Y634095D01*
X293659Y633138D01*
X291675Y631615D01*
X290152Y629631D01*
X289195Y627320D01*
X288868Y624840D01*
X289195Y622360D01*
X290152Y620049D01*
X291675Y618064D01*
X293659Y616542D01*
X295970Y615584D01*
X298450Y615258D01*
X300930Y615584D01*
X303241Y616542D01*
X305226Y618064D01*
X306748Y620049D01*
X307705Y622360D01*
X308032Y624840D01*
X307705Y627320D01*
X306748Y629631D01*
X305226Y631615D01*
X303241Y633138D01*
X300930Y634095D01*
X298450Y634422D01*
D02*
G37*
G36*
X142750Y569426D02*
X133750D01*
X132053Y569203D01*
X130472Y568548D01*
X129114Y567506D01*
X128072Y566148D01*
X127417Y564567D01*
X127194Y562870D01*
Y531870D01*
X127417Y530173D01*
X128072Y528592D01*
X129114Y527234D01*
X130472Y526192D01*
X132053Y525537D01*
X133750Y525314D01*
X142750D01*
X144447Y525537D01*
X146028Y526192D01*
X147386Y527234D01*
X148428Y528592D01*
X149083Y530173D01*
X149306Y531870D01*
Y562870D01*
X149083Y564567D01*
X148428Y566148D01*
X147386Y567506D01*
X146028Y568548D01*
X144447Y569203D01*
X142750Y569426D01*
D02*
G37*
G36*
X947420Y540442D02*
X944940Y540116D01*
X942629Y539158D01*
X940645Y537635D01*
X939122Y535651D01*
X938165Y533340D01*
X937838Y530860D01*
X938165Y528380D01*
X939122Y526069D01*
X940645Y524085D01*
X942629Y522562D01*
X944940Y521604D01*
X947420Y521278D01*
X949900Y521604D01*
X952211Y522562D01*
X954195Y524085D01*
X955718Y526069D01*
X956675Y528380D01*
X957002Y530860D01*
X956675Y533340D01*
X955718Y535651D01*
X954195Y537635D01*
X952211Y539158D01*
X949900Y540116D01*
X947420Y540442D01*
D02*
G37*
G36*
X976570Y540473D02*
X969070D01*
X966826Y540026D01*
X964924Y538755D01*
X963654Y536853D01*
X963207Y534610D01*
Y527110D01*
X963654Y524866D01*
X964924Y522965D01*
X966826Y521694D01*
X969070Y521247D01*
X976570D01*
X978813Y521694D01*
X980715Y522965D01*
X981986Y524866D01*
X982433Y527110D01*
Y534610D01*
X981986Y536853D01*
X980715Y538755D01*
X978813Y540026D01*
X976570Y540473D01*
D02*
G37*
G36*
X972820Y515042D02*
X970340Y514715D01*
X968029Y513758D01*
X966044Y512235D01*
X964522Y510251D01*
X963565Y507940D01*
X963238Y505460D01*
X963565Y502980D01*
X964522Y500669D01*
X966044Y498685D01*
X968029Y497162D01*
X970340Y496204D01*
X972820Y495878D01*
X975300Y496204D01*
X977611Y497162D01*
X979595Y498685D01*
X981118Y500669D01*
X982076Y502980D01*
X982402Y505460D01*
X982076Y507940D01*
X981118Y510251D01*
X979595Y512235D01*
X977611Y513758D01*
X975300Y514715D01*
X972820Y515042D01*
D02*
G37*
G36*
X947420D02*
X944940Y514715D01*
X942629Y513758D01*
X940645Y512235D01*
X939122Y510251D01*
X938165Y507940D01*
X937838Y505460D01*
X938165Y502980D01*
X939122Y500669D01*
X940645Y498685D01*
X942629Y497162D01*
X944940Y496204D01*
X947420Y495878D01*
X949900Y496204D01*
X952211Y497162D01*
X954195Y498685D01*
X955718Y500669D01*
X956675Y502980D01*
X957002Y505460D01*
X956675Y507940D01*
X955718Y510251D01*
X954195Y512235D01*
X952211Y513758D01*
X949900Y514715D01*
X947420Y515042D01*
D02*
G37*
G36*
X972820Y489642D02*
X970340Y489315D01*
X968029Y488358D01*
X966044Y486835D01*
X964522Y484851D01*
X963565Y482540D01*
X963238Y480060D01*
X963565Y477580D01*
X964522Y475269D01*
X966044Y473284D01*
X968029Y471762D01*
X970340Y470804D01*
X972820Y470478D01*
X975300Y470804D01*
X977611Y471762D01*
X979595Y473284D01*
X981118Y475269D01*
X982076Y477580D01*
X982402Y480060D01*
X982076Y482540D01*
X981118Y484851D01*
X979595Y486835D01*
X977611Y488358D01*
X975300Y489315D01*
X972820Y489642D01*
D02*
G37*
G36*
X947420D02*
X944940Y489315D01*
X942629Y488358D01*
X940645Y486835D01*
X939122Y484851D01*
X938165Y482540D01*
X937838Y480060D01*
X938165Y477580D01*
X939122Y475269D01*
X940645Y473284D01*
X942629Y471762D01*
X944940Y470804D01*
X947420Y470478D01*
X949900Y470804D01*
X952211Y471762D01*
X954195Y473284D01*
X955718Y475269D01*
X956675Y477580D01*
X957002Y480060D01*
X956675Y482540D01*
X955718Y484851D01*
X954195Y486835D01*
X952211Y488358D01*
X949900Y489315D01*
X947420Y489642D01*
D02*
G37*
G36*
X867410Y475508D02*
X865264Y475081D01*
X863445Y473865D01*
X862229Y472046D01*
X861802Y469900D01*
X862229Y467754D01*
X863445Y465935D01*
X865264Y464719D01*
X867410Y464292D01*
X869556Y464719D01*
X871375Y465935D01*
X872591Y467754D01*
X873018Y469900D01*
X872591Y472046D01*
X871375Y473865D01*
X869556Y475081D01*
X867410Y475508D01*
D02*
G37*
G36*
X972820Y464242D02*
X970340Y463915D01*
X968029Y462958D01*
X966044Y461435D01*
X964522Y459451D01*
X963565Y457140D01*
X963238Y454660D01*
X963565Y452180D01*
X964522Y449869D01*
X966044Y447884D01*
X968029Y446362D01*
X970340Y445405D01*
X972820Y445078D01*
X975300Y445405D01*
X977611Y446362D01*
X979595Y447884D01*
X981118Y449869D01*
X982076Y452180D01*
X982402Y454660D01*
X982076Y457140D01*
X981118Y459451D01*
X979595Y461435D01*
X977611Y462958D01*
X975300Y463915D01*
X972820Y464242D01*
D02*
G37*
G36*
X543560Y442488D02*
X541414Y442061D01*
X539595Y440845D01*
X538379Y439026D01*
X537952Y436880D01*
X538379Y434734D01*
X539595Y432915D01*
X541414Y431699D01*
X543560Y431272D01*
X545706Y431699D01*
X547525Y432915D01*
X548741Y434734D01*
X549168Y436880D01*
X548741Y439026D01*
X547525Y440845D01*
X545706Y442061D01*
X543560Y442488D01*
D02*
G37*
G36*
X687070Y441218D02*
X684924Y440791D01*
X683105Y439575D01*
X681889Y437756D01*
X681462Y435610D01*
X681889Y433464D01*
X683105Y431645D01*
X684924Y430429D01*
X687070Y430002D01*
X689216Y430429D01*
X691035Y431645D01*
X692251Y433464D01*
X692678Y435610D01*
X692251Y437756D01*
X691035Y439575D01*
X689216Y440791D01*
X687070Y441218D01*
D02*
G37*
G36*
X595630D02*
X593484Y440791D01*
X591665Y439575D01*
X590449Y437756D01*
X590022Y435610D01*
X590449Y433464D01*
X591665Y431645D01*
X593484Y430429D01*
X595630Y430002D01*
X597776Y430429D01*
X599595Y431645D01*
X600811Y433464D01*
X601238Y435610D01*
X600811Y437756D01*
X599595Y439575D01*
X597776Y440791D01*
X595630Y441218D01*
D02*
G37*
G36*
X783590Y436138D02*
X781444Y435711D01*
X779625Y434495D01*
X778409Y432676D01*
X777982Y430530D01*
X778409Y428384D01*
X779625Y426565D01*
X781444Y425349D01*
X783590Y424922D01*
X785736Y425349D01*
X787555Y426565D01*
X788771Y428384D01*
X789198Y430530D01*
X788771Y432676D01*
X787555Y434495D01*
X785736Y435711D01*
X783590Y436138D01*
D02*
G37*
G36*
X36830Y437815D02*
X33958Y437437D01*
X31282Y436329D01*
X28985Y434565D01*
X27222Y432267D01*
X26113Y429592D01*
X25735Y426720D01*
X26113Y423848D01*
X27222Y421172D01*
X28985Y418875D01*
X31282Y417112D01*
X33958Y416003D01*
X36830Y415625D01*
X39702Y416003D01*
X42378Y417112D01*
X44675Y418875D01*
X46438Y421172D01*
X47547Y423848D01*
X47925Y426720D01*
X47547Y429592D01*
X46438Y432267D01*
X44675Y434565D01*
X42378Y436329D01*
X39702Y437437D01*
X36830Y437815D01*
D02*
G37*
G36*
Y412415D02*
X33958Y412037D01*
X31282Y410928D01*
X28985Y409165D01*
X27222Y406867D01*
X26113Y404192D01*
X25735Y401320D01*
X26113Y398448D01*
X27222Y395773D01*
X28985Y393475D01*
X31282Y391712D01*
X33958Y390603D01*
X36830Y390225D01*
X39702Y390603D01*
X42378Y391712D01*
X44675Y393475D01*
X46438Y395773D01*
X47547Y398448D01*
X47925Y401320D01*
X47547Y404192D01*
X46438Y406867D01*
X44675Y409165D01*
X42378Y410928D01*
X39702Y412037D01*
X36830Y412415D01*
D02*
G37*
G36*
X938530Y374778D02*
X936170Y374467D01*
X933971Y373556D01*
X932083Y372107D01*
X930634Y370219D01*
X929723Y368020D01*
X929412Y365660D01*
X929723Y363300D01*
X930634Y361101D01*
X932083Y359213D01*
X933971Y357764D01*
X936170Y356853D01*
X938530Y356542D01*
X940890Y356853D01*
X943089Y357764D01*
X944977Y359213D01*
X946426Y361101D01*
X947337Y363300D01*
X947648Y365660D01*
X947337Y368020D01*
X946426Y370219D01*
X944977Y372107D01*
X943089Y373556D01*
X940890Y374467D01*
X938530Y374778D01*
D02*
G37*
G36*
X514350Y363748D02*
X512204Y363321D01*
X510385Y362105D01*
X509169Y360286D01*
X508742Y358140D01*
X509169Y355994D01*
X510385Y354175D01*
X512204Y352959D01*
X514350Y352532D01*
X516496Y352959D01*
X518315Y354175D01*
X519531Y355994D01*
X519958Y358140D01*
X519531Y360286D01*
X518315Y362105D01*
X516496Y363321D01*
X514350Y363748D01*
D02*
G37*
G36*
X494030Y361208D02*
X491884Y360781D01*
X490065Y359565D01*
X488849Y357746D01*
X488422Y355600D01*
X488849Y353454D01*
X490065Y351635D01*
X491884Y350419D01*
X494030Y349992D01*
X496176Y350419D01*
X497995Y351635D01*
X499211Y353454D01*
X499638Y355600D01*
X499211Y357746D01*
X497995Y359565D01*
X496176Y360781D01*
X494030Y361208D01*
D02*
G37*
G36*
Y343428D02*
X491884Y343001D01*
X490065Y341785D01*
X488849Y339966D01*
X488422Y337820D01*
X488849Y335674D01*
X490065Y333855D01*
X491884Y332639D01*
X494030Y332212D01*
X496176Y332639D01*
X497995Y333855D01*
X499211Y335674D01*
X499638Y337820D01*
X499211Y339966D01*
X497995Y341785D01*
X496176Y343001D01*
X494030Y343428D01*
D02*
G37*
G36*
X309880Y337078D02*
X307734Y336651D01*
X305915Y335435D01*
X304699Y333616D01*
X304272Y331470D01*
X304699Y329324D01*
X305915Y327505D01*
X307734Y326289D01*
X309880Y325862D01*
X312026Y326289D01*
X313845Y327505D01*
X315061Y329324D01*
X315488Y331470D01*
X315061Y333616D01*
X313845Y335435D01*
X312026Y336651D01*
X309880Y337078D01*
D02*
G37*
G36*
X37640Y332200D02*
X18240D01*
Y312960D01*
X37640D01*
Y332200D01*
D02*
G37*
G36*
X53420Y332283D02*
X53260D01*
X50749Y331952D01*
X48408Y330983D01*
X46399Y329441D01*
X44857Y327431D01*
X43888Y325091D01*
X43557Y322580D01*
X43888Y320069D01*
X44857Y317729D01*
X46399Y315719D01*
X48408Y314177D01*
X50749Y313208D01*
X53260Y312877D01*
X53420D01*
X55931Y313208D01*
X58271Y314177D01*
X60281Y315719D01*
X61823Y317729D01*
X62792Y320069D01*
X63123Y322580D01*
X62792Y325091D01*
X61823Y327431D01*
X60281Y329441D01*
X58271Y330983D01*
X55931Y331952D01*
X53420Y332283D01*
D02*
G37*
G36*
X548640Y306598D02*
X546494Y306171D01*
X544675Y304955D01*
X543459Y303136D01*
X543032Y300990D01*
X543459Y298844D01*
X544675Y297025D01*
X546494Y295809D01*
X548640Y295382D01*
X550786Y295809D01*
X552605Y297025D01*
X553821Y298844D01*
X554248Y300990D01*
X553821Y303136D01*
X552605Y304955D01*
X550786Y306171D01*
X548640Y306598D01*
D02*
G37*
G36*
X568960Y305328D02*
X566814Y304901D01*
X564995Y303685D01*
X563779Y301866D01*
X563352Y299720D01*
X563779Y297574D01*
X564995Y295755D01*
X566814Y294539D01*
X568960Y294112D01*
X571106Y294539D01*
X572925Y295755D01*
X574141Y297574D01*
X574568Y299720D01*
X574141Y301866D01*
X572925Y303685D01*
X571106Y304901D01*
X568960Y305328D01*
D02*
G37*
G36*
X132080Y300248D02*
X129934Y299821D01*
X128115Y298605D01*
X126899Y296786D01*
X126472Y294640D01*
X126899Y292494D01*
X128115Y290675D01*
X129934Y289459D01*
X132080Y289032D01*
X134226Y289459D01*
X136045Y290675D01*
X137261Y292494D01*
X137688Y294640D01*
X137261Y296786D01*
X136045Y298605D01*
X134226Y299821D01*
X132080Y300248D01*
D02*
G37*
G36*
X563880Y290088D02*
X561734Y289661D01*
X559915Y288445D01*
X558699Y286626D01*
X558272Y284480D01*
X558656Y282553D01*
X558133Y282006D01*
X557626Y281713D01*
X557136Y282041D01*
X554990Y282468D01*
X552844Y282041D01*
X551025Y280825D01*
X549809Y279006D01*
X549382Y276860D01*
X549809Y274714D01*
X551025Y272895D01*
X552844Y271679D01*
X554990Y271252D01*
X557136Y271679D01*
X558955Y272895D01*
X560171Y274714D01*
X560598Y276860D01*
X560214Y278787D01*
X560737Y279333D01*
X561244Y279627D01*
X561734Y279299D01*
X563880Y278872D01*
X566026Y279299D01*
X567845Y280515D01*
X569061Y282334D01*
X569488Y284480D01*
X569061Y286626D01*
X567845Y288445D01*
X566026Y289661D01*
X563880Y290088D01*
D02*
G37*
G36*
X938530Y298778D02*
X936170Y298467D01*
X933971Y297556D01*
X932083Y296107D01*
X930634Y294219D01*
X929723Y292020D01*
X929412Y289660D01*
X929723Y287300D01*
X930634Y285101D01*
X932083Y283213D01*
X933971Y281764D01*
X936170Y280853D01*
X938530Y280542D01*
X940890Y280853D01*
X943089Y281764D01*
X944977Y283213D01*
X946426Y285101D01*
X947337Y287300D01*
X947648Y289660D01*
X947337Y292020D01*
X946426Y294219D01*
X944977Y296107D01*
X943089Y297556D01*
X940890Y298467D01*
X938530Y298778D01*
D02*
G37*
G36*
X37640Y289020D02*
X18240D01*
Y269780D01*
X37640D01*
Y289020D01*
D02*
G37*
G36*
X53420Y289103D02*
X53260D01*
X50749Y288772D01*
X48408Y287803D01*
X46399Y286261D01*
X44857Y284251D01*
X43888Y281911D01*
X43557Y279400D01*
X43888Y276889D01*
X44857Y274548D01*
X46399Y272539D01*
X48408Y270997D01*
X50749Y270028D01*
X53260Y269697D01*
X53420D01*
X55931Y270028D01*
X58271Y270997D01*
X60281Y272539D01*
X61823Y274548D01*
X62792Y276889D01*
X63123Y279400D01*
X62792Y281911D01*
X61823Y284251D01*
X60281Y286261D01*
X58271Y287803D01*
X55931Y288772D01*
X53420Y289103D01*
D02*
G37*
G36*
X234950Y273578D02*
X232804Y273151D01*
X230985Y271935D01*
X229769Y270116D01*
X229342Y267970D01*
X229769Y265824D01*
X230985Y264005D01*
X232804Y262789D01*
X234950Y262362D01*
X237096Y262789D01*
X238915Y264005D01*
X240131Y265824D01*
X240558Y267970D01*
X240131Y270116D01*
X238915Y271935D01*
X237096Y273151D01*
X234950Y273578D01*
D02*
G37*
G36*
X562610Y271038D02*
X560464Y270611D01*
X558645Y269395D01*
X557429Y267576D01*
X557002Y265430D01*
X557429Y263284D01*
X558645Y261465D01*
X560464Y260249D01*
X562610Y259822D01*
X564756Y260249D01*
X566575Y261465D01*
X567791Y263284D01*
X568218Y265430D01*
X567791Y267576D01*
X566575Y269395D01*
X564756Y270611D01*
X562610Y271038D01*
D02*
G37*
G36*
X128270D02*
X126124Y270611D01*
X124305Y269395D01*
X123089Y267576D01*
X122662Y265430D01*
X123089Y263284D01*
X124305Y261465D01*
X126124Y260249D01*
X128270Y259822D01*
X130416Y260249D01*
X132235Y261465D01*
X133451Y263284D01*
X133878Y265430D01*
X133451Y267576D01*
X132235Y269395D01*
X130416Y270611D01*
X128270Y271038D01*
D02*
G37*
G36*
X494030Y266798D02*
X491884Y266371D01*
X490065Y265155D01*
X488849Y263336D01*
X488422Y261190D01*
X488849Y259044D01*
X490065Y257225D01*
X491884Y256009D01*
X494030Y255582D01*
X496176Y256009D01*
X497995Y257225D01*
X499211Y259044D01*
X499638Y261190D01*
X499211Y263336D01*
X497995Y265155D01*
X496176Y266371D01*
X494030Y266798D01*
D02*
G37*
G36*
X619500Y253258D02*
X617354Y252831D01*
X615535Y251615D01*
X614319Y249796D01*
X613892Y247650D01*
X614319Y245504D01*
X615535Y243685D01*
X617354Y242469D01*
X619500Y242042D01*
X621646Y242469D01*
X623465Y243685D01*
X624681Y245504D01*
X625108Y247650D01*
X624681Y249796D01*
X623465Y251615D01*
X621646Y252831D01*
X619500Y253258D01*
D02*
G37*
G36*
X494030D02*
X491884Y252831D01*
X490065Y251615D01*
X488849Y249796D01*
X488422Y247650D01*
X488849Y245504D01*
X490065Y243685D01*
X491884Y242469D01*
X494030Y242042D01*
X496176Y242469D01*
X497995Y243685D01*
X499211Y245504D01*
X499638Y247650D01*
X499211Y249796D01*
X497995Y251615D01*
X496176Y252831D01*
X494030Y253258D01*
D02*
G37*
G36*
X392430Y249448D02*
X390284Y249021D01*
X388465Y247805D01*
X387249Y245986D01*
X386822Y243840D01*
X387249Y241694D01*
X388465Y239875D01*
X390284Y238659D01*
X392430Y238232D01*
X394576Y238659D01*
X396395Y239875D01*
X397611Y241694D01*
X398038Y243840D01*
X397611Y245986D01*
X396395Y247805D01*
X394576Y249021D01*
X392430Y249448D01*
D02*
G37*
G36*
X457200Y245028D02*
X455054Y244601D01*
X453235Y243385D01*
X452019Y241566D01*
X451592Y239420D01*
X452019Y237274D01*
X453235Y235455D01*
X455054Y234239D01*
X457200Y233812D01*
X459346Y234239D01*
X461165Y235455D01*
X462381Y237274D01*
X462808Y239420D01*
X462381Y241566D01*
X461165Y243385D01*
X459346Y244601D01*
X457200Y245028D01*
D02*
G37*
G36*
X574040Y244283D02*
X571894Y243856D01*
X570075Y242640D01*
X568859Y240821D01*
X568432Y238675D01*
X568859Y236529D01*
X570075Y234710D01*
X571894Y233494D01*
X574040Y233067D01*
X576186Y233494D01*
X578005Y234710D01*
X579221Y236529D01*
X579648Y238675D01*
X579221Y240821D01*
X578005Y242640D01*
X576186Y243856D01*
X574040Y244283D01*
D02*
G37*
G36*
X494030Y240558D02*
X491884Y240131D01*
X490065Y238915D01*
X488849Y237096D01*
X488422Y234950D01*
X488849Y232804D01*
X490065Y230985D01*
X491884Y229769D01*
X494030Y229342D01*
X496176Y229769D01*
X497995Y230985D01*
X499211Y232804D01*
X499638Y234950D01*
X499211Y237096D01*
X497995Y238915D01*
X496176Y240131D01*
X494030Y240558D01*
D02*
G37*
G36*
X27940Y242235D02*
X25068Y241857D01*
X22392Y240749D01*
X20095Y238985D01*
X18332Y236688D01*
X17223Y234012D01*
X16845Y231140D01*
X17223Y228268D01*
X18332Y225592D01*
X20095Y223295D01*
X22392Y221532D01*
X25068Y220423D01*
X27940Y220045D01*
X30812Y220423D01*
X33487Y221532D01*
X35785Y223295D01*
X37548Y225592D01*
X38657Y228268D01*
X39035Y231140D01*
X38657Y234012D01*
X37548Y236688D01*
X35785Y238985D01*
X33488Y240749D01*
X30812Y241857D01*
X27940Y242235D01*
D02*
G37*
G36*
X609290Y224441D02*
X607144Y224014D01*
X605324Y222798D01*
X604109Y220979D01*
X603682Y218833D01*
X604109Y216687D01*
X605324Y214868D01*
X607144Y213652D01*
X609290Y213225D01*
X611436Y213652D01*
X613255Y214868D01*
X614471Y216687D01*
X614897Y218833D01*
X614471Y220979D01*
X613255Y222798D01*
X611436Y224014D01*
X609290Y224441D01*
D02*
G37*
G36*
X233680Y218968D02*
X231534Y218541D01*
X229715Y217325D01*
X228499Y215506D01*
X228072Y213360D01*
X228499Y211214D01*
X229715Y209395D01*
X231534Y208179D01*
X233680Y207752D01*
X235826Y208179D01*
X237645Y209395D01*
X238861Y211214D01*
X239288Y213360D01*
X238861Y215506D01*
X237645Y217325D01*
X235826Y218541D01*
X233680Y218968D01*
D02*
G37*
G36*
X218487D02*
X216341Y218541D01*
X214522Y217325D01*
X213307Y215506D01*
X212880Y213360D01*
X213307Y211214D01*
X214522Y209395D01*
X216341Y208179D01*
X218487Y207752D01*
X220634Y208179D01*
X222453Y209395D01*
X223668Y211214D01*
X224095Y213360D01*
X223668Y215506D01*
X222453Y217325D01*
X220634Y218541D01*
X218487Y218968D01*
D02*
G37*
G36*
X946150Y222942D02*
X943670Y222616D01*
X941359Y221658D01*
X939375Y220135D01*
X937852Y218151D01*
X936895Y215840D01*
X936568Y213360D01*
X936895Y210880D01*
X937852Y208569D01*
X939375Y206585D01*
X941359Y205062D01*
X943670Y204104D01*
X946150Y203778D01*
X948630Y204104D01*
X950941Y205062D01*
X952925Y206585D01*
X954448Y208569D01*
X955406Y210880D01*
X955732Y213360D01*
X955406Y215840D01*
X954448Y218151D01*
X952925Y220135D01*
X950941Y221658D01*
X948630Y222616D01*
X946150Y222942D01*
D02*
G37*
G36*
X601980Y212618D02*
X599834Y212191D01*
X598015Y210975D01*
X596799Y209156D01*
X596372Y207010D01*
X596799Y204864D01*
X598015Y203045D01*
X599834Y201829D01*
X601980Y201402D01*
X604126Y201829D01*
X605945Y203045D01*
X607161Y204864D01*
X607588Y207010D01*
X607161Y209156D01*
X605945Y210975D01*
X604126Y212191D01*
X601980Y212618D01*
D02*
G37*
G36*
X429260Y222778D02*
X427114Y222351D01*
X425295Y221135D01*
X424079Y219316D01*
X423652Y217170D01*
X424079Y215024D01*
X425044Y213579D01*
X424671Y212210D01*
X424574Y212191D01*
X422755Y210975D01*
X421539Y209156D01*
X421112Y207010D01*
X421539Y204864D01*
X422755Y203045D01*
X424574Y201829D01*
X426720Y201402D01*
X428866Y201829D01*
X430685Y203045D01*
X431901Y204864D01*
X432328Y207010D01*
X431901Y209156D01*
X430936Y210601D01*
X431309Y211970D01*
X431406Y211989D01*
X433225Y213205D01*
X434441Y215024D01*
X434868Y217170D01*
X434441Y219316D01*
X433225Y221135D01*
X431406Y222351D01*
X429260Y222778D01*
D02*
G37*
G36*
X619763Y206361D02*
X617617Y205934D01*
X615798Y204718D01*
X614582Y202899D01*
X614155Y200753D01*
X614582Y198607D01*
X615798Y196788D01*
X617617Y195572D01*
X619763Y195145D01*
X621909Y195572D01*
X623728Y196788D01*
X624944Y198607D01*
X625371Y200753D01*
X624944Y202899D01*
X623728Y204718D01*
X621909Y205934D01*
X619763Y206361D01*
D02*
G37*
G36*
X27940Y216835D02*
X25068Y216457D01*
X22392Y215348D01*
X20095Y213585D01*
X18332Y211287D01*
X17223Y208612D01*
X16845Y205740D01*
X17223Y202868D01*
X18332Y200193D01*
X20095Y197895D01*
X22392Y196131D01*
X25068Y195023D01*
X27940Y194645D01*
X30812Y195023D01*
X33487Y196131D01*
X35785Y197895D01*
X37548Y200193D01*
X38657Y202868D01*
X39035Y205740D01*
X38657Y208612D01*
X37548Y211287D01*
X35785Y213585D01*
X33488Y215348D01*
X30812Y216457D01*
X27940Y216835D01*
D02*
G37*
G36*
X971550Y197542D02*
X969070Y197215D01*
X966759Y196258D01*
X964774Y194735D01*
X963252Y192751D01*
X962294Y190440D01*
X961968Y187960D01*
X962294Y185480D01*
X963252Y183169D01*
X964774Y181185D01*
X966759Y179662D01*
X969070Y178704D01*
X971550Y178378D01*
X974030Y178704D01*
X976341Y179662D01*
X978325Y181185D01*
X979848Y183169D01*
X980806Y185480D01*
X981132Y187960D01*
X980806Y190440D01*
X979848Y192751D01*
X978325Y194735D01*
X976341Y196258D01*
X974030Y197215D01*
X971550Y197542D01*
D02*
G37*
G36*
X946150D02*
X943670Y197215D01*
X941359Y196258D01*
X939375Y194735D01*
X937852Y192751D01*
X936895Y190440D01*
X936568Y187960D01*
X936895Y185480D01*
X937852Y183169D01*
X939375Y181185D01*
X941359Y179662D01*
X943670Y178704D01*
X946150Y178378D01*
X948630Y178704D01*
X950941Y179662D01*
X952925Y181185D01*
X954448Y183169D01*
X955406Y185480D01*
X955732Y187960D01*
X955406Y190440D01*
X954448Y192751D01*
X952925Y194735D01*
X950941Y196258D01*
X948630Y197215D01*
X946150Y197542D01*
D02*
G37*
G36*
X279400Y187218D02*
X277254Y186791D01*
X275435Y185575D01*
X274219Y183756D01*
X273792Y181610D01*
X274219Y179464D01*
X275435Y177645D01*
X277254Y176429D01*
X279400Y176002D01*
X281546Y176429D01*
X283365Y177645D01*
X284581Y179464D01*
X285008Y181610D01*
X284581Y183756D01*
X283365Y185575D01*
X281546Y186791D01*
X279400Y187218D01*
D02*
G37*
G36*
X671830Y179598D02*
X669684Y179171D01*
X667865Y177955D01*
X666649Y176136D01*
X666222Y173990D01*
X666649Y171844D01*
X667865Y170025D01*
X669684Y168809D01*
X671830Y168382D01*
X673976Y168809D01*
X675795Y170025D01*
X677011Y171844D01*
X677438Y173990D01*
X677011Y176136D01*
X675795Y177955D01*
X673976Y179171D01*
X671830Y179598D01*
D02*
G37*
G36*
X579120Y171978D02*
X576974Y171551D01*
X575155Y170335D01*
X573939Y168516D01*
X573512Y166370D01*
X573939Y164224D01*
X575155Y162405D01*
X576974Y161189D01*
X579120Y160762D01*
X581266Y161189D01*
X583085Y162405D01*
X584301Y164224D01*
X584728Y166370D01*
X584301Y168516D01*
X583085Y170335D01*
X581266Y171551D01*
X579120Y171978D01*
D02*
G37*
G36*
X971550Y172142D02*
X969070Y171815D01*
X966759Y170858D01*
X964774Y169335D01*
X963252Y167351D01*
X962294Y165040D01*
X961968Y162560D01*
X962294Y160080D01*
X963252Y157769D01*
X964774Y155785D01*
X966759Y154262D01*
X969070Y153305D01*
X971550Y152978D01*
X974030Y153305D01*
X976341Y154262D01*
X978325Y155785D01*
X979848Y157769D01*
X980806Y160080D01*
X981132Y162560D01*
X980806Y165040D01*
X979848Y167351D01*
X978325Y169335D01*
X976341Y170858D01*
X974030Y171815D01*
X971550Y172142D01*
D02*
G37*
G36*
X946150D02*
X943670Y171815D01*
X941359Y170858D01*
X939375Y169335D01*
X937852Y167351D01*
X936895Y165040D01*
X936568Y162560D01*
X936895Y160080D01*
X937852Y157769D01*
X939375Y155785D01*
X941359Y154262D01*
X943670Y153305D01*
X946150Y152978D01*
X948630Y153305D01*
X950941Y154262D01*
X952925Y155785D01*
X954448Y157769D01*
X955406Y160080D01*
X955732Y162560D01*
X955406Y165040D01*
X954448Y167351D01*
X952925Y169335D01*
X950941Y170858D01*
X948630Y171815D01*
X946150Y172142D01*
D02*
G37*
G36*
X27940Y166035D02*
X25068Y165657D01*
X22392Y164548D01*
X20095Y162785D01*
X18332Y160487D01*
X17223Y157812D01*
X16845Y154940D01*
X17223Y152068D01*
X18332Y149392D01*
X20095Y147095D01*
X22392Y145331D01*
X25068Y144223D01*
X27940Y143845D01*
X30812Y144223D01*
X33487Y145331D01*
X35785Y147095D01*
X37548Y149392D01*
X38657Y152068D01*
X39035Y154940D01*
X38657Y157812D01*
X37548Y160487D01*
X35785Y162785D01*
X33488Y164548D01*
X30812Y165657D01*
X27940Y166035D01*
D02*
G37*
G36*
X631190Y151658D02*
X629044Y151231D01*
X627225Y150015D01*
X626009Y148196D01*
X625582Y146050D01*
X626009Y143904D01*
X627225Y142085D01*
X629044Y140869D01*
X631190Y140442D01*
X633336Y140869D01*
X635155Y142085D01*
X636371Y143904D01*
X636798Y146050D01*
X636371Y148196D01*
X635155Y150015D01*
X633336Y151231D01*
X631190Y151658D01*
D02*
G37*
G36*
X283210Y149118D02*
X281064Y148691D01*
X279245Y147475D01*
X278029Y145656D01*
X277602Y143510D01*
X278029Y141364D01*
X279245Y139545D01*
X281064Y138329D01*
X283210Y137902D01*
X285356Y138329D01*
X287175Y139545D01*
X288391Y141364D01*
X288818Y143510D01*
X288391Y145656D01*
X287175Y147475D01*
X285356Y148691D01*
X283210Y149118D01*
D02*
G37*
G36*
X670560Y141498D02*
X668414Y141071D01*
X666595Y139855D01*
X665379Y138036D01*
X664952Y135890D01*
X665379Y133744D01*
X666595Y131925D01*
X668414Y130709D01*
X670560Y130282D01*
X672706Y130709D01*
X674525Y131925D01*
X675741Y133744D01*
X676168Y135890D01*
X675741Y138036D01*
X674525Y139855D01*
X672706Y141071D01*
X670560Y141498D01*
D02*
G37*
G36*
X971550Y146742D02*
X969070Y146416D01*
X966759Y145458D01*
X964774Y143935D01*
X963252Y141951D01*
X962294Y139640D01*
X961968Y137160D01*
X962294Y134680D01*
X963252Y132369D01*
X964774Y130385D01*
X966759Y128862D01*
X969070Y127905D01*
X971550Y127578D01*
X974030Y127905D01*
X976341Y128862D01*
X978325Y130385D01*
X979848Y132369D01*
X980806Y134680D01*
X981132Y137160D01*
X980806Y139640D01*
X979848Y141951D01*
X978325Y143935D01*
X976341Y145458D01*
X974030Y146416D01*
X971550Y146742D01*
D02*
G37*
G36*
X946150D02*
X943670Y146416D01*
X941359Y145458D01*
X939375Y143935D01*
X937852Y141951D01*
X936895Y139640D01*
X936568Y137160D01*
X936895Y134680D01*
X937852Y132369D01*
X939375Y130385D01*
X941359Y128862D01*
X943670Y127905D01*
X946150Y127578D01*
X948630Y127905D01*
X950941Y128862D01*
X952925Y130385D01*
X954448Y132369D01*
X955406Y134680D01*
X955732Y137160D01*
X955406Y139640D01*
X954448Y141951D01*
X952925Y143935D01*
X950941Y145458D01*
X948630Y146416D01*
X946150Y146742D01*
D02*
G37*
G36*
X779780Y132608D02*
X777634Y132181D01*
X775815Y130965D01*
X774599Y129146D01*
X774172Y127000D01*
X774599Y124854D01*
X775815Y123035D01*
X777634Y121819D01*
X779780Y121392D01*
X781926Y121819D01*
X783745Y123035D01*
X784961Y124854D01*
X785388Y127000D01*
X784961Y129146D01*
X783745Y130965D01*
X781926Y132181D01*
X779780Y132608D01*
D02*
G37*
G36*
X32440Y140596D02*
X23440D01*
X21743Y140373D01*
X20162Y139718D01*
X18804Y138676D01*
X17762Y137318D01*
X17107Y135737D01*
X16884Y134040D01*
Y125040D01*
X17107Y123343D01*
X17762Y121762D01*
X18804Y120404D01*
X20162Y119362D01*
X21743Y118707D01*
X23440Y118484D01*
X32440D01*
X34137Y118707D01*
X35718Y119362D01*
X37076Y120404D01*
X38118Y121762D01*
X38773Y123343D01*
X38996Y125040D01*
Y134040D01*
X38773Y135737D01*
X38118Y137318D01*
X37076Y138676D01*
X35718Y139718D01*
X34137Y140373D01*
X32440Y140596D01*
D02*
G37*
G36*
X792480Y128798D02*
X790334Y128371D01*
X788515Y127155D01*
X787299Y125336D01*
X786872Y123190D01*
X787299Y121044D01*
X788515Y119225D01*
X790334Y118009D01*
X792480Y117582D01*
X794626Y118009D01*
X796445Y119225D01*
X797661Y121044D01*
X798088Y123190D01*
X797661Y125336D01*
X796445Y127155D01*
X794626Y128371D01*
X792480Y128798D01*
D02*
G37*
G36*
X889000Y121178D02*
X886854Y120751D01*
X885035Y119535D01*
X883819Y117716D01*
X883392Y115570D01*
X883819Y113424D01*
X885035Y111605D01*
X886854Y110389D01*
X889000Y109962D01*
X891146Y110389D01*
X892965Y111605D01*
X894181Y113424D01*
X894608Y115570D01*
X894181Y117716D01*
X892965Y119535D01*
X891146Y120751D01*
X889000Y121178D01*
D02*
G37*
G36*
X262890Y109748D02*
X260744Y109321D01*
X258925Y108105D01*
X257709Y106286D01*
X257282Y104140D01*
X257709Y101994D01*
X258925Y100175D01*
X260744Y98959D01*
X262890Y98532D01*
X265036Y98959D01*
X266855Y100175D01*
X268071Y101994D01*
X268498Y104140D01*
X268071Y106286D01*
X266855Y108105D01*
X265036Y109321D01*
X262890Y109748D01*
D02*
G37*
G36*
X399050Y113580D02*
X396933Y113301D01*
X394960Y112484D01*
X393266Y111184D01*
X391966Y109490D01*
X391149Y107517D01*
X390870Y105400D01*
X391149Y103283D01*
X391966Y101310D01*
X393266Y99616D01*
X394960Y98316D01*
X396933Y97499D01*
X399050Y97220D01*
X401167Y97499D01*
X403140Y98316D01*
X404834Y99616D01*
X406134Y101310D01*
X406951Y103283D01*
X407230Y105400D01*
X406951Y107517D01*
X406134Y109490D01*
X404834Y111184D01*
X403140Y112484D01*
X401167Y113301D01*
X399050Y113580D01*
D02*
G37*
G36*
X309000D02*
X306883Y113301D01*
X304910Y112484D01*
X303216Y111184D01*
X301916Y109490D01*
X301099Y107517D01*
X300820Y105400D01*
X301099Y103283D01*
X301916Y101310D01*
X303216Y99616D01*
X304910Y98316D01*
X306883Y97499D01*
X309000Y97220D01*
X311117Y97499D01*
X313090Y98316D01*
X314784Y99616D01*
X316084Y101310D01*
X316901Y103283D01*
X317180Y105400D01*
X316901Y107517D01*
X316084Y109490D01*
X314784Y111184D01*
X313090Y112484D01*
X311117Y113301D01*
X309000Y113580D01*
D02*
G37*
G36*
X219000D02*
X216883Y113301D01*
X214910Y112484D01*
X213216Y111184D01*
X211916Y109490D01*
X211099Y107517D01*
X210820Y105400D01*
X211099Y103283D01*
X211916Y101310D01*
X213216Y99616D01*
X214910Y98316D01*
X216883Y97499D01*
X219000Y97220D01*
X221117Y97499D01*
X223090Y98316D01*
X224784Y99616D01*
X226084Y101310D01*
X226901Y103283D01*
X227180Y105400D01*
X226901Y107517D01*
X226084Y109490D01*
X224784Y111184D01*
X223090Y112484D01*
X221117Y113301D01*
X219000Y113580D01*
D02*
G37*
G36*
X787400Y104668D02*
X785254Y104241D01*
X783435Y103025D01*
X782219Y101206D01*
X781792Y99060D01*
X782219Y96914D01*
X783435Y95095D01*
X785254Y93879D01*
X787400Y93452D01*
X789546Y93879D01*
X791365Y95095D01*
X792581Y96914D01*
X793008Y99060D01*
X792581Y101206D01*
X791365Y103025D01*
X789546Y104241D01*
X787400Y104668D01*
D02*
G37*
G36*
X424450Y88180D02*
X422333Y87901D01*
X420360Y87084D01*
X418666Y85784D01*
X417366Y84090D01*
X416549Y82117D01*
X416270Y80000D01*
X416549Y77883D01*
X417366Y75910D01*
X418666Y74216D01*
X420360Y72916D01*
X422333Y72099D01*
X424450Y71820D01*
X426567Y72099D01*
X428540Y72916D01*
X430234Y74216D01*
X431534Y75910D01*
X432351Y77883D01*
X432630Y80000D01*
X432351Y82117D01*
X431534Y84090D01*
X430234Y85784D01*
X428540Y87084D01*
X426567Y87901D01*
X424450Y88180D01*
D02*
G37*
G36*
X334400D02*
X332283Y87901D01*
X330310Y87084D01*
X328616Y85784D01*
X327316Y84090D01*
X326499Y82117D01*
X326220Y80000D01*
X326499Y77883D01*
X327316Y75910D01*
X328616Y74216D01*
X330310Y72916D01*
X332283Y72099D01*
X334400Y71820D01*
X336517Y72099D01*
X338490Y72916D01*
X340184Y74216D01*
X341484Y75910D01*
X342301Y77883D01*
X342580Y80000D01*
X342301Y82117D01*
X341484Y84090D01*
X340184Y85784D01*
X338490Y87084D01*
X336517Y87901D01*
X334400Y88180D01*
D02*
G37*
G36*
X244400D02*
X242283Y87901D01*
X240310Y87084D01*
X238616Y85784D01*
X237316Y84090D01*
X236499Y82117D01*
X236220Y80000D01*
X236499Y77883D01*
X237316Y75910D01*
X238616Y74216D01*
X240310Y72916D01*
X242283Y72099D01*
X244400Y71820D01*
X246517Y72099D01*
X248490Y72916D01*
X250184Y74216D01*
X251484Y75910D01*
X252301Y77883D01*
X252580Y80000D01*
X252301Y82117D01*
X251484Y84090D01*
X250184Y85784D01*
X248490Y87084D01*
X246517Y87901D01*
X244400Y88180D01*
D02*
G37*
G36*
X106680Y52598D02*
X104534Y52171D01*
X102715Y50955D01*
X101499Y49136D01*
X101072Y46990D01*
X101499Y44844D01*
X102715Y43025D01*
X104534Y41809D01*
X106680Y41382D01*
X108826Y41809D01*
X110645Y43025D01*
X111861Y44844D01*
X112288Y46990D01*
X111861Y49136D01*
X110645Y50955D01*
X108826Y52171D01*
X106680Y52598D01*
D02*
G37*
G36*
X876300Y56673D02*
X873794Y56343D01*
X871459Y55376D01*
X869453Y53837D01*
X867914Y51831D01*
X866947Y49496D01*
X866617Y46990D01*
X866947Y44484D01*
X867914Y42149D01*
X869453Y40143D01*
X871459Y38604D01*
X873794Y37637D01*
X876300Y37307D01*
X878806Y37637D01*
X881141Y38604D01*
X883147Y40143D01*
X884686Y42149D01*
X885653Y44484D01*
X885983Y46990D01*
X885653Y49496D01*
X884686Y51831D01*
X883147Y53837D01*
X881141Y55376D01*
X878806Y56343D01*
X876300Y56673D01*
D02*
G37*
G36*
X850900D02*
X848394Y56343D01*
X846059Y55376D01*
X844053Y53837D01*
X842514Y51831D01*
X841547Y49496D01*
X841217Y46990D01*
X841547Y44484D01*
X842514Y42149D01*
X844053Y40143D01*
X846059Y38604D01*
X848394Y37637D01*
X850900Y37307D01*
X853406Y37637D01*
X855741Y38604D01*
X857747Y40143D01*
X859286Y42149D01*
X860253Y44484D01*
X860583Y46990D01*
X860253Y49496D01*
X859286Y51831D01*
X857747Y53837D01*
X855741Y55376D01*
X853406Y56343D01*
X850900Y56673D01*
D02*
G37*
G36*
X825500D02*
X822994Y56343D01*
X820659Y55376D01*
X818653Y53837D01*
X817114Y51831D01*
X816147Y49496D01*
X815817Y46990D01*
X816147Y44484D01*
X817114Y42149D01*
X818653Y40143D01*
X820659Y38604D01*
X822994Y37637D01*
X825500Y37307D01*
X828006Y37637D01*
X830341Y38604D01*
X832347Y40143D01*
X833886Y42149D01*
X834853Y44484D01*
X835183Y46990D01*
X834853Y49496D01*
X833886Y51831D01*
X832347Y53837D01*
X830341Y55376D01*
X828006Y56343D01*
X825500Y56673D01*
D02*
G37*
G36*
X800100D02*
X797594Y56343D01*
X795259Y55376D01*
X793253Y53837D01*
X791714Y51831D01*
X790747Y49496D01*
X790417Y46990D01*
X790747Y44484D01*
X791714Y42149D01*
X793253Y40143D01*
X795259Y38604D01*
X797594Y37637D01*
X800100Y37307D01*
X802606Y37637D01*
X804941Y38604D01*
X806947Y40143D01*
X808486Y42149D01*
X809453Y44484D01*
X809783Y46990D01*
X809453Y49496D01*
X808486Y51831D01*
X806947Y53837D01*
X804941Y55376D01*
X802606Y56343D01*
X800100Y56673D01*
D02*
G37*
G36*
X774700D02*
X772194Y56343D01*
X769859Y55376D01*
X767853Y53837D01*
X766314Y51831D01*
X765347Y49496D01*
X765017Y46990D01*
X765347Y44484D01*
X766314Y42149D01*
X767853Y40143D01*
X769859Y38604D01*
X772194Y37637D01*
X774700Y37307D01*
X777206Y37637D01*
X779541Y38604D01*
X781547Y40143D01*
X783086Y42149D01*
X784053Y44484D01*
X784383Y46990D01*
X784053Y49496D01*
X783086Y51831D01*
X781547Y53837D01*
X779541Y55376D01*
X777206Y56343D01*
X774700Y56673D01*
D02*
G37*
G36*
X749300D02*
X746794Y56343D01*
X744459Y55376D01*
X742453Y53837D01*
X740914Y51831D01*
X739947Y49496D01*
X739617Y46990D01*
X739947Y44484D01*
X740914Y42149D01*
X742453Y40143D01*
X744459Y38604D01*
X746794Y37637D01*
X749300Y37307D01*
X751806Y37637D01*
X754141Y38604D01*
X756147Y40143D01*
X757686Y42149D01*
X758653Y44484D01*
X758983Y46990D01*
X758653Y49496D01*
X757686Y51831D01*
X756147Y53837D01*
X754141Y55376D01*
X751806Y56343D01*
X749300Y56673D01*
D02*
G37*
G36*
X723900D02*
X721394Y56343D01*
X719059Y55376D01*
X717053Y53837D01*
X715514Y51831D01*
X714547Y49496D01*
X714217Y46990D01*
X714547Y44484D01*
X715514Y42149D01*
X717053Y40143D01*
X719059Y38604D01*
X721394Y37637D01*
X723900Y37307D01*
X726406Y37637D01*
X728741Y38604D01*
X730747Y40143D01*
X732286Y42149D01*
X733253Y44484D01*
X733583Y46990D01*
X733253Y49496D01*
X732286Y51831D01*
X730747Y53837D01*
X728741Y55376D01*
X726406Y56343D01*
X723900Y56673D01*
D02*
G37*
G36*
X698500D02*
X695994Y56343D01*
X693659Y55376D01*
X691653Y53837D01*
X690114Y51831D01*
X689147Y49496D01*
X688817Y46990D01*
X689147Y44484D01*
X690114Y42149D01*
X691653Y40143D01*
X693659Y38604D01*
X695994Y37637D01*
X698500Y37307D01*
X701006Y37637D01*
X703341Y38604D01*
X705347Y40143D01*
X706886Y42149D01*
X707853Y44484D01*
X708183Y46990D01*
X707853Y49496D01*
X706886Y51831D01*
X705347Y53837D01*
X703341Y55376D01*
X701006Y56343D01*
X698500Y56673D01*
D02*
G37*
G36*
X673100D02*
X670594Y56343D01*
X668259Y55376D01*
X666253Y53837D01*
X664714Y51831D01*
X663747Y49496D01*
X663417Y46990D01*
X663747Y44484D01*
X664714Y42149D01*
X666253Y40143D01*
X668259Y38604D01*
X670594Y37637D01*
X673100Y37307D01*
X675606Y37637D01*
X677941Y38604D01*
X679947Y40143D01*
X681486Y42149D01*
X682453Y44484D01*
X682783Y46990D01*
X682453Y49496D01*
X681486Y51831D01*
X679947Y53837D01*
X677941Y55376D01*
X675606Y56343D01*
X673100Y56673D01*
D02*
G37*
G36*
X647700D02*
X645194Y56343D01*
X642859Y55376D01*
X640853Y53837D01*
X639314Y51831D01*
X638347Y49496D01*
X638017Y46990D01*
X638347Y44484D01*
X639314Y42149D01*
X640853Y40143D01*
X642859Y38604D01*
X645194Y37637D01*
X647700Y37307D01*
X650206Y37637D01*
X652541Y38604D01*
X654547Y40143D01*
X656086Y42149D01*
X657053Y44484D01*
X657383Y46990D01*
X657053Y49496D01*
X656086Y51831D01*
X654547Y53837D01*
X652541Y55376D01*
X650206Y56343D01*
X647700Y56673D01*
D02*
G37*
G36*
X622300D02*
X619794Y56343D01*
X617459Y55376D01*
X615453Y53837D01*
X613914Y51831D01*
X612947Y49496D01*
X612617Y46990D01*
X612947Y44484D01*
X613914Y42149D01*
X615453Y40143D01*
X617459Y38604D01*
X619794Y37637D01*
X622300Y37307D01*
X624806Y37637D01*
X627141Y38604D01*
X629147Y40143D01*
X630686Y42149D01*
X631653Y44484D01*
X631983Y46990D01*
X631653Y49496D01*
X630686Y51831D01*
X629147Y53837D01*
X627141Y55376D01*
X624806Y56343D01*
X622300Y56673D01*
D02*
G37*
G36*
X596900D02*
X594394Y56343D01*
X592059Y55376D01*
X590053Y53837D01*
X588514Y51831D01*
X587547Y49496D01*
X587217Y46990D01*
X587547Y44484D01*
X588514Y42149D01*
X590053Y40143D01*
X592059Y38604D01*
X594394Y37637D01*
X596900Y37307D01*
X599406Y37637D01*
X601741Y38604D01*
X603747Y40143D01*
X605286Y42149D01*
X606253Y44484D01*
X606583Y46990D01*
X606253Y49496D01*
X605286Y51831D01*
X603747Y53837D01*
X601741Y55376D01*
X599406Y56343D01*
X596900Y56673D01*
D02*
G37*
G36*
X571500D02*
X568994Y56343D01*
X566659Y55376D01*
X564653Y53837D01*
X563114Y51831D01*
X562147Y49496D01*
X561817Y46990D01*
X562147Y44484D01*
X563114Y42149D01*
X564653Y40143D01*
X566659Y38604D01*
X568994Y37637D01*
X571500Y37307D01*
X574006Y37637D01*
X576341Y38604D01*
X578347Y40143D01*
X579886Y42149D01*
X580853Y44484D01*
X581183Y46990D01*
X580853Y49496D01*
X579886Y51831D01*
X578347Y53837D01*
X576341Y55376D01*
X574006Y56343D01*
X571500Y56673D01*
D02*
G37*
G36*
X546100D02*
X543594Y56343D01*
X541259Y55376D01*
X539253Y53837D01*
X537714Y51831D01*
X536747Y49496D01*
X536417Y46990D01*
X536747Y44484D01*
X537714Y42149D01*
X539253Y40143D01*
X541259Y38604D01*
X543594Y37637D01*
X546100Y37307D01*
X548606Y37637D01*
X550941Y38604D01*
X552947Y40143D01*
X554486Y42149D01*
X555453Y44484D01*
X555783Y46990D01*
X555453Y49496D01*
X554486Y51831D01*
X552947Y53837D01*
X550941Y55376D01*
X548606Y56343D01*
X546100Y56673D01*
D02*
G37*
G36*
X520700D02*
X518194Y56343D01*
X515859Y55376D01*
X513853Y53837D01*
X512314Y51831D01*
X511347Y49496D01*
X511017Y46990D01*
X511347Y44484D01*
X512314Y42149D01*
X513853Y40143D01*
X515859Y38604D01*
X518194Y37637D01*
X520700Y37307D01*
X523206Y37637D01*
X525541Y38604D01*
X527547Y40143D01*
X529086Y42149D01*
X530053Y44484D01*
X530383Y46990D01*
X530053Y49496D01*
X529086Y51831D01*
X527547Y53837D01*
X525541Y55376D01*
X523206Y56343D01*
X520700Y56673D01*
D02*
G37*
G36*
X181610Y38628D02*
X179464Y38201D01*
X177645Y36985D01*
X176429Y35166D01*
X176002Y33020D01*
X176429Y30874D01*
X177645Y29055D01*
X179464Y27839D01*
X181610Y27412D01*
X183756Y27839D01*
X185575Y29055D01*
X186791Y30874D01*
X187218Y33020D01*
X186791Y35166D01*
X185575Y36985D01*
X183756Y38201D01*
X181610Y38628D01*
D02*
G37*
%LPD*%
D87*
X876300Y46990D02*
D03*
X850900D02*
D03*
X825500D02*
D03*
X800100D02*
D03*
X749300D02*
D03*
X698500D02*
D03*
X673100D02*
D03*
X622300D02*
D03*
X596900D02*
D03*
X571500D02*
D03*
X520700D02*
D03*
X546100D02*
D03*
X647700D02*
D03*
X723900D02*
D03*
X774700D02*
D03*
D88*
X495300D02*
D03*
D89*
X972820Y454660D02*
D03*
Y480060D02*
D03*
X947420Y454660D02*
D03*
Y480060D02*
D03*
X972820Y505460D02*
D03*
X947420D02*
D03*
Y530860D02*
D03*
X946150Y213360D02*
D03*
Y187960D02*
D03*
X971550D02*
D03*
X946150Y162560D02*
D03*
Y137160D02*
D03*
X971550Y162560D02*
D03*
Y137160D02*
D03*
X323850Y624840D02*
D03*
X349250D02*
D03*
X298450D02*
D03*
D90*
X972820Y530860D02*
D03*
X971550Y213360D02*
D03*
D92*
X373650Y80000D02*
D03*
X399050Y105400D02*
D03*
X424450Y80000D02*
D03*
X244400D02*
D03*
X219000Y105400D02*
D03*
X193600Y80000D02*
D03*
X334400D02*
D03*
X309000Y105400D02*
D03*
X283600Y80000D02*
D03*
D93*
X27940Y279400D02*
D03*
Y322580D02*
D03*
D94*
X53340Y279400D02*
D03*
Y322580D02*
D03*
D95*
X36830Y401320D02*
D03*
Y426720D02*
D03*
X27940Y231140D02*
D03*
Y205740D02*
D03*
Y180340D02*
D03*
Y154940D02*
D03*
D97*
X938530Y289660D02*
D03*
Y365660D02*
D03*
D98*
X50000Y650000D02*
D03*
X950000Y650000D02*
D03*
X50000Y50000D02*
D03*
X950000Y50000D02*
D03*
D99*
X138250Y547370D02*
D03*
X80250D02*
D03*
D100*
X108250Y499370D02*
D03*
D101*
X27940Y129540D02*
D03*
D102*
X279400Y181610D02*
D03*
X218487Y213360D02*
D03*
X585470Y356870D02*
D03*
X960000Y600000D02*
D03*
X980000Y560000D02*
D03*
X960000Y520000D02*
D03*
Y440000D02*
D03*
X980000Y400000D02*
D03*
X960000Y360000D02*
D03*
X980000Y320000D02*
D03*
X960000Y280000D02*
D03*
X980000Y240000D02*
D03*
X960000Y120000D02*
D03*
X980000Y80000D02*
D03*
X920000Y680000D02*
D03*
Y600000D02*
D03*
X940000Y560000D02*
D03*
X920000Y520000D02*
D03*
X940000Y400000D02*
D03*
X920000Y360000D02*
D03*
X940000Y320000D02*
D03*
Y240000D02*
D03*
X920000Y200000D02*
D03*
Y120000D02*
D03*
X880000Y680000D02*
D03*
X900000Y640000D02*
D03*
X880000Y600000D02*
D03*
Y520000D02*
D03*
Y360000D02*
D03*
X900000Y320000D02*
D03*
X880000Y280000D02*
D03*
Y200000D02*
D03*
X900000Y80000D02*
D03*
X840000Y680000D02*
D03*
X860000Y640000D02*
D03*
X840000Y600000D02*
D03*
X860000Y560000D02*
D03*
X840000Y520000D02*
D03*
X860000Y320000D02*
D03*
Y240000D02*
D03*
X840000Y200000D02*
D03*
Y120000D02*
D03*
X860000Y80000D02*
D03*
X800000Y680000D02*
D03*
X820000Y640000D02*
D03*
X800000Y600000D02*
D03*
X820000Y560000D02*
D03*
X800000Y440000D02*
D03*
X820000Y320000D02*
D03*
X800000Y200000D02*
D03*
X820000Y80000D02*
D03*
X760000Y680000D02*
D03*
X780000Y640000D02*
D03*
X760000Y600000D02*
D03*
X780000Y560000D02*
D03*
X760000Y520000D02*
D03*
Y440000D02*
D03*
X780000Y80000D02*
D03*
X720000Y680000D02*
D03*
X740000Y640000D02*
D03*
X720000Y600000D02*
D03*
X740000Y560000D02*
D03*
Y320000D02*
D03*
X680000Y680000D02*
D03*
X700000Y640000D02*
D03*
X680000Y600000D02*
D03*
X700000Y320000D02*
D03*
Y80000D02*
D03*
X640000Y680000D02*
D03*
X660000Y640000D02*
D03*
X640000Y600000D02*
D03*
Y520000D02*
D03*
Y440000D02*
D03*
X660000Y320000D02*
D03*
X600000Y680000D02*
D03*
X620000Y640000D02*
D03*
X600000Y600000D02*
D03*
Y520000D02*
D03*
X560000Y680000D02*
D03*
X580000Y640000D02*
D03*
X560000Y600000D02*
D03*
Y520000D02*
D03*
X580000Y480000D02*
D03*
X560000Y440000D02*
D03*
X580000Y400000D02*
D03*
Y80000D02*
D03*
X560000Y40000D02*
D03*
X520000Y680000D02*
D03*
X540000Y640000D02*
D03*
X520000Y600000D02*
D03*
X540000Y160000D02*
D03*
X520000Y120000D02*
D03*
X540000Y80000D02*
D03*
X480000Y680000D02*
D03*
X500000Y640000D02*
D03*
X480000Y600000D02*
D03*
Y520000D02*
D03*
Y440000D02*
D03*
X500000Y400000D02*
D03*
X480000Y360000D02*
D03*
Y200000D02*
D03*
X500000Y160000D02*
D03*
X480000Y120000D02*
D03*
Y40000D02*
D03*
X440000Y680000D02*
D03*
X460000Y640000D02*
D03*
X440000Y520000D02*
D03*
X460000Y480000D02*
D03*
X440000Y440000D02*
D03*
X460000Y400000D02*
D03*
Y320000D02*
D03*
X440000Y120000D02*
D03*
Y40000D02*
D03*
X400000Y680000D02*
D03*
Y520000D02*
D03*
X420000Y480000D02*
D03*
X400000Y440000D02*
D03*
Y360000D02*
D03*
Y120000D02*
D03*
Y40000D02*
D03*
X360000Y680000D02*
D03*
X380000Y640000D02*
D03*
X360000Y600000D02*
D03*
X380000Y480000D02*
D03*
Y320000D02*
D03*
X360000Y280000D02*
D03*
X380000Y240000D02*
D03*
Y160000D02*
D03*
X320000Y680000D02*
D03*
X340000Y640000D02*
D03*
X320000Y600000D02*
D03*
X340000Y480000D02*
D03*
Y400000D02*
D03*
Y320000D02*
D03*
Y160000D02*
D03*
X320000Y120000D02*
D03*
X280000Y680000D02*
D03*
X300000Y640000D02*
D03*
X280000Y600000D02*
D03*
X300000Y480000D02*
D03*
X280000Y440000D02*
D03*
X300000Y400000D02*
D03*
X280000Y360000D02*
D03*
X300000Y320000D02*
D03*
X280000Y120000D02*
D03*
X300000Y80000D02*
D03*
X240000Y680000D02*
D03*
X260000Y640000D02*
D03*
X240000Y600000D02*
D03*
Y440000D02*
D03*
Y360000D02*
D03*
X260000Y320000D02*
D03*
X240000Y120000D02*
D03*
X200000Y680000D02*
D03*
X220000Y640000D02*
D03*
X200000Y520000D02*
D03*
X220000Y480000D02*
D03*
X200000Y440000D02*
D03*
X220000Y400000D02*
D03*
Y320000D02*
D03*
X200000Y280000D02*
D03*
X220000Y160000D02*
D03*
X200000Y120000D02*
D03*
X160000Y680000D02*
D03*
Y600000D02*
D03*
X180000Y480000D02*
D03*
X160000Y440000D02*
D03*
X180000Y320000D02*
D03*
X160000Y280000D02*
D03*
X180000Y240000D02*
D03*
X160000Y200000D02*
D03*
X180000Y80000D02*
D03*
X160000Y40000D02*
D03*
X120000Y680000D02*
D03*
Y600000D02*
D03*
Y520000D02*
D03*
X140000Y480000D02*
D03*
X120000Y360000D02*
D03*
Y280000D02*
D03*
X140000Y240000D02*
D03*
X120000Y200000D02*
D03*
X140000Y160000D02*
D03*
X120000Y120000D02*
D03*
X80000Y680000D02*
D03*
X100000Y640000D02*
D03*
X80000Y600000D02*
D03*
X100000Y560000D02*
D03*
X80000Y520000D02*
D03*
X100000Y480000D02*
D03*
Y400000D02*
D03*
X80000Y360000D02*
D03*
Y280000D02*
D03*
Y200000D02*
D03*
Y120000D02*
D03*
X40000Y600000D02*
D03*
X60000Y560000D02*
D03*
X40000Y520000D02*
D03*
X60000Y480000D02*
D03*
Y400000D02*
D03*
X40000Y360000D02*
D03*
X619500Y247650D02*
D03*
X548640Y300990D02*
D03*
X568960Y299720D02*
D03*
X106680Y46990D02*
D03*
X670560Y135890D02*
D03*
X579120Y166370D02*
D03*
X181610Y33020D02*
D03*
X128270Y265430D02*
D03*
X494030Y261190D02*
D03*
X457200Y239420D02*
D03*
X132080Y294640D02*
D03*
X233680Y213360D02*
D03*
X494030Y234950D02*
D03*
Y247650D02*
D03*
X429260Y217170D02*
D03*
X426720Y207010D02*
D03*
X631190Y146050D02*
D03*
X426720Y628650D02*
D03*
X234950Y267970D02*
D03*
X309880Y331470D02*
D03*
X392430Y243840D02*
D03*
X889000Y115570D02*
D03*
X787400Y99060D02*
D03*
X574040Y238675D02*
D03*
X494030Y337820D02*
D03*
X563880Y284480D02*
D03*
X554990Y276860D02*
D03*
X514350Y358140D02*
D03*
X609290Y218833D02*
D03*
X494030Y355600D02*
D03*
X601980Y207010D02*
D03*
X619763Y200753D02*
D03*
X262890Y104140D02*
D03*
X283210Y143510D02*
D03*
X595630Y435610D02*
D03*
X687070D02*
D03*
X783590Y430530D02*
D03*
X867410Y469900D02*
D03*
X543560Y436880D02*
D03*
X562610Y265430D02*
D03*
X792480Y123190D02*
D03*
X779780Y127000D02*
D03*
X671830Y173990D02*
D03*
X50000Y677500D02*
D03*
X70000Y670000D02*
D03*
X77500Y650000D02*
D03*
X70000Y630000D02*
D03*
X50000Y622500D02*
D03*
X30000Y630000D02*
D03*
X22500Y650000D02*
D03*
X30000Y670000D02*
D03*
X950000Y677500D02*
D03*
X970000Y670000D02*
D03*
X977500Y650000D02*
D03*
X970000Y630000D02*
D03*
X950000Y622500D02*
D03*
X930000Y630000D02*
D03*
X922500Y650000D02*
D03*
X930000Y670000D02*
D03*
X50000Y77500D02*
D03*
X70000Y70000D02*
D03*
X77500Y50000D02*
D03*
X70000Y30000D02*
D03*
X50000Y22500D02*
D03*
X30000Y30000D02*
D03*
X22500Y50000D02*
D03*
X30000Y70000D02*
D03*
X950000Y77500D02*
D03*
X970000Y70000D02*
D03*
X977500Y50000D02*
D03*
X970000Y30000D02*
D03*
X950000Y22500D02*
D03*
X930000Y30000D02*
D03*
X922500Y50000D02*
D03*
X930000Y70000D02*
D03*
M02*
