G04*
G04 #@! TF.GenerationSoftware,Altium Limited,Altium Designer,24.1.2 (44)*
G04*
G04 Layer_Physical_Order=3*
G04 Layer_Color=16440176*
%FSLAX44Y44*%
%MOMM*%
G71*
G04*
G04 #@! TF.SameCoordinates,51815DC6-8F92-44A8-A11D-F5E15FB87907*
G04*
G04*
G04 #@! TF.FilePolarity,Positive*
G04*
G01*
G75*
%ADD87C,1.5200*%
G04:AMPARAMS|DCode=88|XSize=1.52mm|YSize=1.52mm|CornerRadius=0.38mm|HoleSize=0mm|Usage=FLASHONLY|Rotation=0.000|XOffset=0mm|YOffset=0mm|HoleType=Round|Shape=RoundedRectangle|*
%AMROUNDEDRECTD88*
21,1,1.5200,0.7600,0,0,0.0*
21,1,0.7600,1.5200,0,0,0.0*
1,1,0.7600,0.3800,-0.3800*
1,1,0.7600,-0.3800,-0.3800*
1,1,0.7600,-0.3800,0.3800*
1,1,0.7600,0.3800,0.3800*
%
%ADD88ROUNDEDRECTD88*%
%ADD89C,1.5000*%
G04:AMPARAMS|DCode=90|XSize=1.5mm|YSize=1.5mm|CornerRadius=0.375mm|HoleSize=0mm|Usage=FLASHONLY|Rotation=270.000|XOffset=0mm|YOffset=0mm|HoleType=Round|Shape=RoundedRectangle|*
%AMROUNDEDRECTD90*
21,1,1.5000,0.7500,0,0,270.0*
21,1,0.7500,1.5000,0,0,270.0*
1,1,0.7500,-0.3750,-0.3750*
1,1,0.7500,-0.3750,0.3750*
1,1,0.7500,0.3750,0.3750*
1,1,0.7500,0.3750,-0.3750*
%
%ADD90ROUNDEDRECTD90*%
%ADD92C,1.2220*%
%ADD93R,1.5400X1.5240*%
%ADD94O,1.5400X1.5240*%
%ADD95C,1.8000*%
%ADD97C,1.4080*%
%ADD98C,7.0000*%
G04:AMPARAMS|DCode=99|XSize=4mm|YSize=1.8mm|CornerRadius=0.45mm|HoleSize=0mm|Usage=FLASHONLY|Rotation=90.000|XOffset=0mm|YOffset=0mm|HoleType=Round|Shape=RoundedRectangle|*
%AMROUNDEDRECTD99*
21,1,4.0000,0.9000,0,0,90.0*
21,1,3.1000,1.8000,0,0,90.0*
1,1,0.9000,0.4500,1.5500*
1,1,0.9000,0.4500,-1.5500*
1,1,0.9000,-0.4500,-1.5500*
1,1,0.9000,-0.4500,1.5500*
%
%ADD99ROUNDEDRECTD99*%
G04:AMPARAMS|DCode=100|XSize=4mm|YSize=1.8mm|CornerRadius=0.45mm|HoleSize=0mm|Usage=FLASHONLY|Rotation=180.000|XOffset=0mm|YOffset=0mm|HoleType=Round|Shape=RoundedRectangle|*
%AMROUNDEDRECTD100*
21,1,4.0000,0.9000,0,0,180.0*
21,1,3.1000,1.8000,0,0,180.0*
1,1,0.9000,-1.5500,0.4500*
1,1,0.9000,1.5500,0.4500*
1,1,0.9000,1.5500,-0.4500*
1,1,0.9000,-1.5500,-0.4500*
%
%ADD100ROUNDEDRECTD100*%
G04:AMPARAMS|DCode=101|XSize=1.8mm|YSize=1.8mm|CornerRadius=0.45mm|HoleSize=0mm|Usage=FLASHONLY|Rotation=180.000|XOffset=0mm|YOffset=0mm|HoleType=Round|Shape=RoundedRectangle|*
%AMROUNDEDRECTD101*
21,1,1.8000,0.9000,0,0,180.0*
21,1,0.9000,1.8000,0,0,180.0*
1,1,0.9000,-0.4500,0.4500*
1,1,0.9000,0.4500,0.4500*
1,1,0.9000,0.4500,-0.4500*
1,1,0.9000,-0.4500,-0.4500*
%
%ADD101ROUNDEDRECTD101*%
%ADD102C,0.7000*%
G36*
X950000Y700000D02*
X953277D01*
X959775Y699144D01*
X966106Y697448D01*
X972162Y694940D01*
X977838Y691663D01*
X983038Y687673D01*
X987673Y683038D01*
X991663Y677838D01*
X994940Y672162D01*
X997448Y666106D01*
X999144Y659775D01*
X1000000Y653277D01*
Y650000D01*
X1000000Y650000D01*
X1000000Y650000D01*
X1000000Y50000D01*
Y46723D01*
X999145Y40224D01*
X997448Y33893D01*
X994940Y27838D01*
X991663Y22162D01*
X987673Y16962D01*
X983038Y12327D01*
X977838Y8337D01*
X972162Y5060D01*
X966106Y2552D01*
X959775Y856D01*
X953277Y0D01*
X950000Y0D01*
X50000Y0D01*
X46723D01*
X40224Y856D01*
X33893Y2552D01*
X27838Y5060D01*
X22162Y8337D01*
X16962Y12327D01*
X12327Y16962D01*
X8337Y22162D01*
X5060Y27838D01*
X2552Y33893D01*
X856Y40224D01*
X0Y46723D01*
X0Y50000D01*
X0Y650000D01*
Y653277D01*
X856Y659775D01*
X2552Y666106D01*
X5060Y672162D01*
X8337Y677838D01*
X12327Y683038D01*
X16962Y687673D01*
X22162Y691663D01*
X27838Y694940D01*
X33893Y697448D01*
X40224Y699144D01*
X46723Y700000D01*
X50000Y700000D01*
X50000Y700000D01*
X950000Y700000D01*
D02*
G37*
%LPC*%
G36*
Y687114D02*
X944194Y686657D01*
X938531Y685298D01*
X933150Y683069D01*
X928185Y680026D01*
X926646Y678712D01*
X925487Y679392D01*
X925608Y680000D01*
X925181Y682146D01*
X923965Y683965D01*
X922146Y685181D01*
X920000Y685608D01*
X917854Y685181D01*
X916035Y683965D01*
X914819Y682146D01*
X914392Y680000D01*
X914819Y677854D01*
X916035Y676035D01*
X917854Y674819D01*
X920000Y674392D01*
X920608Y674513D01*
X921288Y673353D01*
X919974Y671815D01*
X916931Y666850D01*
X914702Y661469D01*
X913343Y655806D01*
X912886Y650000D01*
X913343Y644194D01*
X914702Y638531D01*
X916931Y633150D01*
X919974Y628185D01*
X923756Y623756D01*
X928185Y619974D01*
X933150Y616931D01*
X938531Y614702D01*
X944194Y613343D01*
X950000Y612886D01*
X955806Y613343D01*
X961469Y614702D01*
X966850Y616931D01*
X971815Y619974D01*
X976244Y623756D01*
X980026Y628185D01*
X983069Y633150D01*
X985298Y638531D01*
X986657Y644194D01*
X987114Y650000D01*
X986657Y655806D01*
X985298Y661469D01*
X983069Y666850D01*
X980026Y671815D01*
X976244Y676244D01*
X971815Y680026D01*
X966850Y683069D01*
X961469Y685298D01*
X955806Y686657D01*
X950000Y687114D01*
D02*
G37*
G36*
X880000Y685608D02*
X877854Y685181D01*
X876035Y683965D01*
X874819Y682146D01*
X874392Y680000D01*
X874819Y677854D01*
X876035Y676035D01*
X877854Y674819D01*
X880000Y674392D01*
X882146Y674819D01*
X883965Y676035D01*
X885181Y677854D01*
X885608Y680000D01*
X885181Y682146D01*
X883965Y683965D01*
X882146Y685181D01*
X880000Y685608D01*
D02*
G37*
G36*
X840000D02*
X837854Y685181D01*
X836035Y683965D01*
X834819Y682146D01*
X834392Y680000D01*
X834819Y677854D01*
X836035Y676035D01*
X837854Y674819D01*
X840000Y674392D01*
X842146Y674819D01*
X843965Y676035D01*
X845181Y677854D01*
X845608Y680000D01*
X845181Y682146D01*
X843965Y683965D01*
X842146Y685181D01*
X840000Y685608D01*
D02*
G37*
G36*
X800000D02*
X797854Y685181D01*
X796035Y683965D01*
X794819Y682146D01*
X794392Y680000D01*
X794819Y677854D01*
X796035Y676035D01*
X797854Y674819D01*
X800000Y674392D01*
X802146Y674819D01*
X803965Y676035D01*
X805181Y677854D01*
X805608Y680000D01*
X805181Y682146D01*
X803965Y683965D01*
X802146Y685181D01*
X800000Y685608D01*
D02*
G37*
G36*
X760000D02*
X757854Y685181D01*
X756035Y683965D01*
X754819Y682146D01*
X754392Y680000D01*
X754819Y677854D01*
X756035Y676035D01*
X757854Y674819D01*
X760000Y674392D01*
X762146Y674819D01*
X763965Y676035D01*
X765181Y677854D01*
X765608Y680000D01*
X765181Y682146D01*
X763965Y683965D01*
X762146Y685181D01*
X760000Y685608D01*
D02*
G37*
G36*
X720000D02*
X717854Y685181D01*
X716035Y683965D01*
X714819Y682146D01*
X714392Y680000D01*
X714819Y677854D01*
X716035Y676035D01*
X717854Y674819D01*
X720000Y674392D01*
X722146Y674819D01*
X723965Y676035D01*
X725181Y677854D01*
X725608Y680000D01*
X725181Y682146D01*
X723965Y683965D01*
X722146Y685181D01*
X720000Y685608D01*
D02*
G37*
G36*
X680000D02*
X677854Y685181D01*
X676035Y683965D01*
X674819Y682146D01*
X674392Y680000D01*
X674819Y677854D01*
X676035Y676035D01*
X677854Y674819D01*
X680000Y674392D01*
X682146Y674819D01*
X683965Y676035D01*
X685181Y677854D01*
X685608Y680000D01*
X685181Y682146D01*
X683965Y683965D01*
X682146Y685181D01*
X680000Y685608D01*
D02*
G37*
G36*
X640000D02*
X637854Y685181D01*
X636035Y683965D01*
X634819Y682146D01*
X634392Y680000D01*
X634819Y677854D01*
X636035Y676035D01*
X637854Y674819D01*
X640000Y674392D01*
X642146Y674819D01*
X643965Y676035D01*
X645181Y677854D01*
X645608Y680000D01*
X645181Y682146D01*
X643965Y683965D01*
X642146Y685181D01*
X640000Y685608D01*
D02*
G37*
G36*
X600000D02*
X597854Y685181D01*
X596035Y683965D01*
X594819Y682146D01*
X594392Y680000D01*
X594819Y677854D01*
X596035Y676035D01*
X597854Y674819D01*
X600000Y674392D01*
X602146Y674819D01*
X603965Y676035D01*
X605181Y677854D01*
X605608Y680000D01*
X605181Y682146D01*
X603965Y683965D01*
X602146Y685181D01*
X600000Y685608D01*
D02*
G37*
G36*
X560000D02*
X557854Y685181D01*
X556035Y683965D01*
X554819Y682146D01*
X554392Y680000D01*
X554819Y677854D01*
X556035Y676035D01*
X557854Y674819D01*
X560000Y674392D01*
X562146Y674819D01*
X563965Y676035D01*
X565181Y677854D01*
X565608Y680000D01*
X565181Y682146D01*
X563965Y683965D01*
X562146Y685181D01*
X560000Y685608D01*
D02*
G37*
G36*
X520000D02*
X517854Y685181D01*
X516035Y683965D01*
X514819Y682146D01*
X514392Y680000D01*
X514819Y677854D01*
X516035Y676035D01*
X517854Y674819D01*
X520000Y674392D01*
X522146Y674819D01*
X523965Y676035D01*
X525181Y677854D01*
X525608Y680000D01*
X525181Y682146D01*
X523965Y683965D01*
X522146Y685181D01*
X520000Y685608D01*
D02*
G37*
G36*
X480000D02*
X477854Y685181D01*
X476035Y683965D01*
X474819Y682146D01*
X474392Y680000D01*
X474819Y677854D01*
X476035Y676035D01*
X477854Y674819D01*
X480000Y674392D01*
X482146Y674819D01*
X483965Y676035D01*
X485181Y677854D01*
X485608Y680000D01*
X485181Y682146D01*
X483965Y683965D01*
X482146Y685181D01*
X480000Y685608D01*
D02*
G37*
G36*
X440000D02*
X437854Y685181D01*
X436035Y683965D01*
X434819Y682146D01*
X434392Y680000D01*
X434819Y677854D01*
X436035Y676035D01*
X437854Y674819D01*
X440000Y674392D01*
X442146Y674819D01*
X443965Y676035D01*
X445181Y677854D01*
X445608Y680000D01*
X445181Y682146D01*
X443965Y683965D01*
X442146Y685181D01*
X440000Y685608D01*
D02*
G37*
G36*
X400000D02*
X397854Y685181D01*
X396035Y683965D01*
X394819Y682146D01*
X394392Y680000D01*
X394819Y677854D01*
X396035Y676035D01*
X397854Y674819D01*
X400000Y674392D01*
X402146Y674819D01*
X403965Y676035D01*
X405181Y677854D01*
X405608Y680000D01*
X405181Y682146D01*
X403965Y683965D01*
X402146Y685181D01*
X400000Y685608D01*
D02*
G37*
G36*
X360000D02*
X357854Y685181D01*
X356035Y683965D01*
X354819Y682146D01*
X354392Y680000D01*
X354819Y677854D01*
X356035Y676035D01*
X357854Y674819D01*
X360000Y674392D01*
X362146Y674819D01*
X363965Y676035D01*
X365181Y677854D01*
X365608Y680000D01*
X365181Y682146D01*
X363965Y683965D01*
X362146Y685181D01*
X360000Y685608D01*
D02*
G37*
G36*
X320000D02*
X317854Y685181D01*
X316035Y683965D01*
X314819Y682146D01*
X314392Y680000D01*
X314819Y677854D01*
X316035Y676035D01*
X317854Y674819D01*
X320000Y674392D01*
X322146Y674819D01*
X323965Y676035D01*
X325181Y677854D01*
X325608Y680000D01*
X325181Y682146D01*
X323965Y683965D01*
X322146Y685181D01*
X320000Y685608D01*
D02*
G37*
G36*
X280000D02*
X277854Y685181D01*
X276035Y683965D01*
X274819Y682146D01*
X274392Y680000D01*
X274819Y677854D01*
X276035Y676035D01*
X277854Y674819D01*
X280000Y674392D01*
X282146Y674819D01*
X283965Y676035D01*
X285181Y677854D01*
X285608Y680000D01*
X285181Y682146D01*
X283965Y683965D01*
X282146Y685181D01*
X280000Y685608D01*
D02*
G37*
G36*
X240000D02*
X237854Y685181D01*
X236035Y683965D01*
X234819Y682146D01*
X234392Y680000D01*
X234819Y677854D01*
X236035Y676035D01*
X237854Y674819D01*
X240000Y674392D01*
X242146Y674819D01*
X243965Y676035D01*
X245181Y677854D01*
X245608Y680000D01*
X245181Y682146D01*
X243965Y683965D01*
X242146Y685181D01*
X240000Y685608D01*
D02*
G37*
G36*
X200000D02*
X197854Y685181D01*
X196035Y683965D01*
X194819Y682146D01*
X194392Y680000D01*
X194819Y677854D01*
X196035Y676035D01*
X197854Y674819D01*
X200000Y674392D01*
X202146Y674819D01*
X203965Y676035D01*
X205181Y677854D01*
X205608Y680000D01*
X205181Y682146D01*
X203965Y683965D01*
X202146Y685181D01*
X200000Y685608D01*
D02*
G37*
G36*
X160000D02*
X157854Y685181D01*
X156035Y683965D01*
X154819Y682146D01*
X154392Y680000D01*
X154819Y677854D01*
X156035Y676035D01*
X157854Y674819D01*
X160000Y674392D01*
X162146Y674819D01*
X163965Y676035D01*
X165181Y677854D01*
X165608Y680000D01*
X165181Y682146D01*
X163965Y683965D01*
X162146Y685181D01*
X160000Y685608D01*
D02*
G37*
G36*
X120000D02*
X117854Y685181D01*
X116035Y683965D01*
X114819Y682146D01*
X114392Y680000D01*
X114819Y677854D01*
X116035Y676035D01*
X117854Y674819D01*
X120000Y674392D01*
X122146Y674819D01*
X123965Y676035D01*
X125181Y677854D01*
X125608Y680000D01*
X125181Y682146D01*
X123965Y683965D01*
X122146Y685181D01*
X120000Y685608D01*
D02*
G37*
G36*
X50000Y687114D02*
X44194Y686657D01*
X38531Y685298D01*
X33150Y683069D01*
X28185Y680026D01*
X23756Y676244D01*
X19974Y671815D01*
X16931Y666850D01*
X14702Y661469D01*
X13342Y655806D01*
X12886Y650000D01*
X13342Y644194D01*
X14702Y638531D01*
X16931Y633150D01*
X19974Y628185D01*
X23756Y623756D01*
X28185Y619974D01*
X33150Y616931D01*
X38531Y614702D01*
X44194Y613343D01*
X50000Y612886D01*
X55806Y613343D01*
X61469Y614702D01*
X66850Y616931D01*
X71815Y619974D01*
X76244Y623756D01*
X80026Y628185D01*
X83069Y633150D01*
X85298Y638531D01*
X86657Y644194D01*
X87114Y650000D01*
X86657Y655806D01*
X85298Y661469D01*
X83069Y666850D01*
X80026Y671815D01*
X78713Y673353D01*
X79392Y674513D01*
X80000Y674392D01*
X82146Y674819D01*
X83965Y676035D01*
X85181Y677854D01*
X85608Y680000D01*
X85181Y682146D01*
X83965Y683965D01*
X82146Y685181D01*
X80000Y685608D01*
X77854Y685181D01*
X76035Y683965D01*
X74819Y682146D01*
X74392Y680000D01*
X74513Y679392D01*
X73354Y678712D01*
X71815Y680026D01*
X66850Y683069D01*
X61469Y685298D01*
X55806Y686657D01*
X50000Y687114D01*
D02*
G37*
G36*
X900000Y645608D02*
X897854Y645181D01*
X896035Y643965D01*
X894819Y642146D01*
X894392Y640000D01*
X894819Y637854D01*
X896035Y636035D01*
X897854Y634819D01*
X900000Y634392D01*
X902146Y634819D01*
X903965Y636035D01*
X905181Y637854D01*
X905608Y640000D01*
X905181Y642146D01*
X903965Y643965D01*
X902146Y645181D01*
X900000Y645608D01*
D02*
G37*
G36*
X860000D02*
X857854Y645181D01*
X856035Y643965D01*
X854819Y642146D01*
X854392Y640000D01*
X854819Y637854D01*
X856035Y636035D01*
X857854Y634819D01*
X860000Y634392D01*
X862146Y634819D01*
X863965Y636035D01*
X865181Y637854D01*
X865608Y640000D01*
X865181Y642146D01*
X863965Y643965D01*
X862146Y645181D01*
X860000Y645608D01*
D02*
G37*
G36*
X820000D02*
X817854Y645181D01*
X816035Y643965D01*
X814819Y642146D01*
X814392Y640000D01*
X814819Y637854D01*
X816035Y636035D01*
X817854Y634819D01*
X820000Y634392D01*
X822146Y634819D01*
X823965Y636035D01*
X825181Y637854D01*
X825608Y640000D01*
X825181Y642146D01*
X823965Y643965D01*
X822146Y645181D01*
X820000Y645608D01*
D02*
G37*
G36*
X780000D02*
X777854Y645181D01*
X776035Y643965D01*
X774819Y642146D01*
X774392Y640000D01*
X774819Y637854D01*
X776035Y636035D01*
X777854Y634819D01*
X780000Y634392D01*
X782146Y634819D01*
X783965Y636035D01*
X785181Y637854D01*
X785608Y640000D01*
X785181Y642146D01*
X783965Y643965D01*
X782146Y645181D01*
X780000Y645608D01*
D02*
G37*
G36*
X740000D02*
X737854Y645181D01*
X736035Y643965D01*
X734819Y642146D01*
X734392Y640000D01*
X734819Y637854D01*
X736035Y636035D01*
X737854Y634819D01*
X740000Y634392D01*
X742146Y634819D01*
X743965Y636035D01*
X745181Y637854D01*
X745608Y640000D01*
X745181Y642146D01*
X743965Y643965D01*
X742146Y645181D01*
X740000Y645608D01*
D02*
G37*
G36*
X700000D02*
X697854Y645181D01*
X696035Y643965D01*
X694819Y642146D01*
X694392Y640000D01*
X694819Y637854D01*
X696035Y636035D01*
X697854Y634819D01*
X700000Y634392D01*
X702146Y634819D01*
X703965Y636035D01*
X705181Y637854D01*
X705608Y640000D01*
X705181Y642146D01*
X703965Y643965D01*
X702146Y645181D01*
X700000Y645608D01*
D02*
G37*
G36*
X660000D02*
X657854Y645181D01*
X656035Y643965D01*
X654819Y642146D01*
X654392Y640000D01*
X654819Y637854D01*
X656035Y636035D01*
X657854Y634819D01*
X660000Y634392D01*
X662146Y634819D01*
X663965Y636035D01*
X665181Y637854D01*
X665608Y640000D01*
X665181Y642146D01*
X663965Y643965D01*
X662146Y645181D01*
X660000Y645608D01*
D02*
G37*
G36*
X620000D02*
X617854Y645181D01*
X616035Y643965D01*
X614819Y642146D01*
X614392Y640000D01*
X614819Y637854D01*
X616035Y636035D01*
X617854Y634819D01*
X620000Y634392D01*
X622146Y634819D01*
X623965Y636035D01*
X625181Y637854D01*
X625608Y640000D01*
X625181Y642146D01*
X623965Y643965D01*
X622146Y645181D01*
X620000Y645608D01*
D02*
G37*
G36*
X580000D02*
X577854Y645181D01*
X576035Y643965D01*
X574819Y642146D01*
X574392Y640000D01*
X574819Y637854D01*
X576035Y636035D01*
X577854Y634819D01*
X580000Y634392D01*
X582146Y634819D01*
X583965Y636035D01*
X585181Y637854D01*
X585608Y640000D01*
X585181Y642146D01*
X583965Y643965D01*
X582146Y645181D01*
X580000Y645608D01*
D02*
G37*
G36*
X540000D02*
X537854Y645181D01*
X536035Y643965D01*
X534819Y642146D01*
X534392Y640000D01*
X534819Y637854D01*
X536035Y636035D01*
X537854Y634819D01*
X540000Y634392D01*
X542146Y634819D01*
X543965Y636035D01*
X545181Y637854D01*
X545608Y640000D01*
X545181Y642146D01*
X543965Y643965D01*
X542146Y645181D01*
X540000Y645608D01*
D02*
G37*
G36*
X500000D02*
X497854Y645181D01*
X496035Y643965D01*
X494819Y642146D01*
X494392Y640000D01*
X494819Y637854D01*
X496035Y636035D01*
X497854Y634819D01*
X500000Y634392D01*
X502146Y634819D01*
X503965Y636035D01*
X505181Y637854D01*
X505608Y640000D01*
X505181Y642146D01*
X503965Y643965D01*
X502146Y645181D01*
X500000Y645608D01*
D02*
G37*
G36*
X460000D02*
X457854Y645181D01*
X456035Y643965D01*
X454819Y642146D01*
X454392Y640000D01*
X454819Y637854D01*
X456035Y636035D01*
X457854Y634819D01*
X460000Y634392D01*
X462146Y634819D01*
X463965Y636035D01*
X465181Y637854D01*
X465608Y640000D01*
X465181Y642146D01*
X463965Y643965D01*
X462146Y645181D01*
X460000Y645608D01*
D02*
G37*
G36*
X380000D02*
X377854Y645181D01*
X376035Y643965D01*
X374819Y642146D01*
X374392Y640000D01*
X374819Y637854D01*
X376035Y636035D01*
X377854Y634819D01*
X380000Y634392D01*
X382146Y634819D01*
X383965Y636035D01*
X385181Y637854D01*
X385608Y640000D01*
X385181Y642146D01*
X383965Y643965D01*
X382146Y645181D01*
X380000Y645608D01*
D02*
G37*
G36*
X340000D02*
X337854Y645181D01*
X336035Y643965D01*
X334819Y642146D01*
X334392Y640000D01*
X334819Y637854D01*
X336035Y636035D01*
X337854Y634819D01*
X340000Y634392D01*
X342146Y634819D01*
X343965Y636035D01*
X345181Y637854D01*
X345608Y640000D01*
X345181Y642146D01*
X343965Y643965D01*
X342146Y645181D01*
X340000Y645608D01*
D02*
G37*
G36*
X260000D02*
X257854Y645181D01*
X256035Y643965D01*
X254819Y642146D01*
X254392Y640000D01*
X254819Y637854D01*
X256035Y636035D01*
X257854Y634819D01*
X260000Y634392D01*
X262146Y634819D01*
X263965Y636035D01*
X265181Y637854D01*
X265608Y640000D01*
X265181Y642146D01*
X263965Y643965D01*
X262146Y645181D01*
X260000Y645608D01*
D02*
G37*
G36*
X220000D02*
X217854Y645181D01*
X216035Y643965D01*
X214819Y642146D01*
X214392Y640000D01*
X214819Y637854D01*
X216035Y636035D01*
X217854Y634819D01*
X220000Y634392D01*
X222146Y634819D01*
X223965Y636035D01*
X225181Y637854D01*
X225608Y640000D01*
X225181Y642146D01*
X223965Y643965D01*
X222146Y645181D01*
X220000Y645608D01*
D02*
G37*
G36*
X100000D02*
X97854Y645181D01*
X96035Y643965D01*
X94819Y642146D01*
X94392Y640000D01*
X94819Y637854D01*
X96035Y636035D01*
X97854Y634819D01*
X100000Y634392D01*
X102146Y634819D01*
X103965Y636035D01*
X105181Y637854D01*
X105608Y640000D01*
X105181Y642146D01*
X103965Y643965D01*
X102146Y645181D01*
X100000Y645608D01*
D02*
G37*
G36*
X349250Y634422D02*
X346770Y634095D01*
X344459Y633138D01*
X342475Y631615D01*
X340952Y629631D01*
X339995Y627320D01*
X339668Y624840D01*
X339995Y622360D01*
X340952Y620049D01*
X342475Y618064D01*
X344459Y616542D01*
X346770Y615584D01*
X349250Y615258D01*
X351730Y615584D01*
X354041Y616542D01*
X356025Y618064D01*
X357548Y620049D01*
X358506Y622360D01*
X358832Y624840D01*
X358506Y627320D01*
X357548Y629631D01*
X356025Y631615D01*
X354041Y633138D01*
X351730Y634095D01*
X349250Y634422D01*
D02*
G37*
G36*
X323850D02*
X321370Y634095D01*
X319059Y633138D01*
X317075Y631615D01*
X315552Y629631D01*
X314594Y627320D01*
X314268Y624840D01*
X314594Y622360D01*
X315552Y620049D01*
X317075Y618064D01*
X319059Y616542D01*
X321370Y615584D01*
X323850Y615258D01*
X326330Y615584D01*
X328641Y616542D01*
X330625Y618064D01*
X332148Y620049D01*
X333106Y622360D01*
X333432Y624840D01*
X333106Y627320D01*
X332148Y629631D01*
X330625Y631615D01*
X328641Y633138D01*
X326330Y634095D01*
X323850Y634422D01*
D02*
G37*
G36*
X300000Y645608D02*
X297854Y645181D01*
X296035Y643965D01*
X294819Y642146D01*
X294392Y640000D01*
X294819Y637854D01*
X296035Y636035D01*
X296847Y635492D01*
X296539Y634170D01*
X295970Y634095D01*
X293659Y633138D01*
X291675Y631615D01*
X290152Y629631D01*
X289195Y627320D01*
X288868Y624840D01*
X289195Y622360D01*
X290152Y620049D01*
X291675Y618064D01*
X293659Y616542D01*
X295970Y615584D01*
X298450Y615258D01*
X300930Y615584D01*
X303241Y616542D01*
X305226Y618064D01*
X306748Y620049D01*
X307705Y622360D01*
X308032Y624840D01*
X307705Y627320D01*
X306748Y629631D01*
X305226Y631615D01*
X303241Y633138D01*
X302256Y633546D01*
X302192Y634285D01*
X302282Y634910D01*
X303965Y636035D01*
X305181Y637854D01*
X305608Y640000D01*
X305181Y642146D01*
X303965Y643965D01*
X302146Y645181D01*
X300000Y645608D01*
D02*
G37*
G36*
X960000Y605608D02*
X957854Y605181D01*
X956035Y603965D01*
X954819Y602146D01*
X954392Y600000D01*
X954819Y597854D01*
X956035Y596035D01*
X957854Y594819D01*
X960000Y594392D01*
X962146Y594819D01*
X963965Y596035D01*
X965181Y597854D01*
X965608Y600000D01*
X965181Y602146D01*
X963965Y603965D01*
X962146Y605181D01*
X960000Y605608D01*
D02*
G37*
G36*
X920000D02*
X917854Y605181D01*
X916035Y603965D01*
X914819Y602146D01*
X914392Y600000D01*
X914819Y597854D01*
X916035Y596035D01*
X917854Y594819D01*
X920000Y594392D01*
X922146Y594819D01*
X923965Y596035D01*
X925181Y597854D01*
X925608Y600000D01*
X925181Y602146D01*
X923965Y603965D01*
X922146Y605181D01*
X920000Y605608D01*
D02*
G37*
G36*
X880000D02*
X877854Y605181D01*
X876035Y603965D01*
X874819Y602146D01*
X874392Y600000D01*
X874819Y597854D01*
X876035Y596035D01*
X877854Y594819D01*
X880000Y594392D01*
X882146Y594819D01*
X883965Y596035D01*
X885181Y597854D01*
X885608Y600000D01*
X885181Y602146D01*
X883965Y603965D01*
X882146Y605181D01*
X880000Y605608D01*
D02*
G37*
G36*
X840000D02*
X837854Y605181D01*
X836035Y603965D01*
X834819Y602146D01*
X834392Y600000D01*
X834819Y597854D01*
X836035Y596035D01*
X837854Y594819D01*
X840000Y594392D01*
X842146Y594819D01*
X843965Y596035D01*
X845181Y597854D01*
X845608Y600000D01*
X845181Y602146D01*
X843965Y603965D01*
X842146Y605181D01*
X840000Y605608D01*
D02*
G37*
G36*
X800000D02*
X797854Y605181D01*
X796035Y603965D01*
X794819Y602146D01*
X794392Y600000D01*
X794819Y597854D01*
X796035Y596035D01*
X797854Y594819D01*
X800000Y594392D01*
X802146Y594819D01*
X803965Y596035D01*
X805181Y597854D01*
X805608Y600000D01*
X805181Y602146D01*
X803965Y603965D01*
X802146Y605181D01*
X800000Y605608D01*
D02*
G37*
G36*
X760000D02*
X757854Y605181D01*
X756035Y603965D01*
X754819Y602146D01*
X754392Y600000D01*
X754819Y597854D01*
X756035Y596035D01*
X757854Y594819D01*
X760000Y594392D01*
X762146Y594819D01*
X763965Y596035D01*
X765181Y597854D01*
X765608Y600000D01*
X765181Y602146D01*
X763965Y603965D01*
X762146Y605181D01*
X760000Y605608D01*
D02*
G37*
G36*
X720000D02*
X717854Y605181D01*
X716035Y603965D01*
X714819Y602146D01*
X714392Y600000D01*
X714819Y597854D01*
X716035Y596035D01*
X717854Y594819D01*
X720000Y594392D01*
X722146Y594819D01*
X723965Y596035D01*
X725181Y597854D01*
X725608Y600000D01*
X725181Y602146D01*
X723965Y603965D01*
X722146Y605181D01*
X720000Y605608D01*
D02*
G37*
G36*
X680000D02*
X677854Y605181D01*
X676035Y603965D01*
X674819Y602146D01*
X674392Y600000D01*
X674819Y597854D01*
X676035Y596035D01*
X677854Y594819D01*
X680000Y594392D01*
X682146Y594819D01*
X683965Y596035D01*
X685181Y597854D01*
X685608Y600000D01*
X685181Y602146D01*
X683965Y603965D01*
X682146Y605181D01*
X680000Y605608D01*
D02*
G37*
G36*
X640000D02*
X637854Y605181D01*
X636035Y603965D01*
X634819Y602146D01*
X634392Y600000D01*
X634819Y597854D01*
X636035Y596035D01*
X637854Y594819D01*
X640000Y594392D01*
X642146Y594819D01*
X643965Y596035D01*
X645181Y597854D01*
X645608Y600000D01*
X645181Y602146D01*
X643965Y603965D01*
X642146Y605181D01*
X640000Y605608D01*
D02*
G37*
G36*
X600000D02*
X597854Y605181D01*
X596035Y603965D01*
X594819Y602146D01*
X594392Y600000D01*
X594819Y597854D01*
X596035Y596035D01*
X597854Y594819D01*
X600000Y594392D01*
X602146Y594819D01*
X603965Y596035D01*
X605181Y597854D01*
X605608Y600000D01*
X605181Y602146D01*
X603965Y603965D01*
X602146Y605181D01*
X600000Y605608D01*
D02*
G37*
G36*
X560000D02*
X557854Y605181D01*
X556035Y603965D01*
X554819Y602146D01*
X554392Y600000D01*
X554819Y597854D01*
X556035Y596035D01*
X557854Y594819D01*
X560000Y594392D01*
X562146Y594819D01*
X563965Y596035D01*
X565181Y597854D01*
X565608Y600000D01*
X565181Y602146D01*
X563965Y603965D01*
X562146Y605181D01*
X560000Y605608D01*
D02*
G37*
G36*
X520000D02*
X517854Y605181D01*
X516035Y603965D01*
X514819Y602146D01*
X514392Y600000D01*
X514819Y597854D01*
X516035Y596035D01*
X517854Y594819D01*
X520000Y594392D01*
X522146Y594819D01*
X523965Y596035D01*
X525181Y597854D01*
X525608Y600000D01*
X525181Y602146D01*
X523965Y603965D01*
X522146Y605181D01*
X520000Y605608D01*
D02*
G37*
G36*
X480000D02*
X477854Y605181D01*
X476035Y603965D01*
X474819Y602146D01*
X474392Y600000D01*
X474819Y597854D01*
X476035Y596035D01*
X477854Y594819D01*
X480000Y594392D01*
X482146Y594819D01*
X483965Y596035D01*
X485181Y597854D01*
X485608Y600000D01*
X485181Y602146D01*
X483965Y603965D01*
X482146Y605181D01*
X480000Y605608D01*
D02*
G37*
G36*
X360000D02*
X357854Y605181D01*
X356035Y603965D01*
X354819Y602146D01*
X354392Y600000D01*
X354819Y597854D01*
X356035Y596035D01*
X357854Y594819D01*
X360000Y594392D01*
X362146Y594819D01*
X363965Y596035D01*
X365181Y597854D01*
X365608Y600000D01*
X365181Y602146D01*
X363965Y603965D01*
X362146Y605181D01*
X360000Y605608D01*
D02*
G37*
G36*
X320000D02*
X317854Y605181D01*
X316035Y603965D01*
X314819Y602146D01*
X314392Y600000D01*
X314819Y597854D01*
X316035Y596035D01*
X317854Y594819D01*
X320000Y594392D01*
X322146Y594819D01*
X323965Y596035D01*
X325181Y597854D01*
X325608Y600000D01*
X325181Y602146D01*
X323965Y603965D01*
X322146Y605181D01*
X320000Y605608D01*
D02*
G37*
G36*
X280000D02*
X277854Y605181D01*
X276035Y603965D01*
X274819Y602146D01*
X274392Y600000D01*
X274819Y597854D01*
X276035Y596035D01*
X277854Y594819D01*
X280000Y594392D01*
X282146Y594819D01*
X283965Y596035D01*
X285181Y597854D01*
X285608Y600000D01*
X285181Y602146D01*
X283965Y603965D01*
X282146Y605181D01*
X280000Y605608D01*
D02*
G37*
G36*
X240000D02*
X237854Y605181D01*
X236035Y603965D01*
X234819Y602146D01*
X234392Y600000D01*
X234819Y597854D01*
X236035Y596035D01*
X237854Y594819D01*
X240000Y594392D01*
X242146Y594819D01*
X243965Y596035D01*
X245181Y597854D01*
X245608Y600000D01*
X245181Y602146D01*
X243965Y603965D01*
X242146Y605181D01*
X240000Y605608D01*
D02*
G37*
G36*
X160000D02*
X157854Y605181D01*
X156035Y603965D01*
X154819Y602146D01*
X154392Y600000D01*
X154819Y597854D01*
X156035Y596035D01*
X157854Y594819D01*
X160000Y594392D01*
X162146Y594819D01*
X163965Y596035D01*
X165181Y597854D01*
X165608Y600000D01*
X165181Y602146D01*
X163965Y603965D01*
X162146Y605181D01*
X160000Y605608D01*
D02*
G37*
G36*
X120000D02*
X117854Y605181D01*
X116035Y603965D01*
X114819Y602146D01*
X114392Y600000D01*
X114819Y597854D01*
X116035Y596035D01*
X117854Y594819D01*
X120000Y594392D01*
X122146Y594819D01*
X123965Y596035D01*
X125181Y597854D01*
X125608Y600000D01*
X125181Y602146D01*
X123965Y603965D01*
X122146Y605181D01*
X120000Y605608D01*
D02*
G37*
G36*
X80000D02*
X77854Y605181D01*
X76035Y603965D01*
X74819Y602146D01*
X74392Y600000D01*
X74819Y597854D01*
X76035Y596035D01*
X77854Y594819D01*
X80000Y594392D01*
X82146Y594819D01*
X83965Y596035D01*
X85181Y597854D01*
X85608Y600000D01*
X85181Y602146D01*
X83965Y603965D01*
X82146Y605181D01*
X80000Y605608D01*
D02*
G37*
G36*
X40000D02*
X37854Y605181D01*
X36035Y603965D01*
X34819Y602146D01*
X34392Y600000D01*
X34819Y597854D01*
X36035Y596035D01*
X37854Y594819D01*
X40000Y594392D01*
X42146Y594819D01*
X43965Y596035D01*
X45181Y597854D01*
X45608Y600000D01*
X45181Y602146D01*
X43965Y603965D01*
X42146Y605181D01*
X40000Y605608D01*
D02*
G37*
G36*
X980000Y565608D02*
X977854Y565181D01*
X976035Y563965D01*
X974819Y562146D01*
X974392Y560000D01*
X974819Y557854D01*
X976035Y556035D01*
X977854Y554819D01*
X980000Y554392D01*
X982146Y554819D01*
X983965Y556035D01*
X985181Y557854D01*
X985608Y560000D01*
X985181Y562146D01*
X983965Y563965D01*
X982146Y565181D01*
X980000Y565608D01*
D02*
G37*
G36*
X940000D02*
X937854Y565181D01*
X936035Y563965D01*
X934819Y562146D01*
X934392Y560000D01*
X934819Y557854D01*
X936035Y556035D01*
X937854Y554819D01*
X940000Y554392D01*
X942146Y554819D01*
X943965Y556035D01*
X945181Y557854D01*
X945608Y560000D01*
X945181Y562146D01*
X943965Y563965D01*
X942146Y565181D01*
X940000Y565608D01*
D02*
G37*
G36*
X860000D02*
X857854Y565181D01*
X856035Y563965D01*
X854819Y562146D01*
X854392Y560000D01*
X854819Y557854D01*
X856035Y556035D01*
X857854Y554819D01*
X860000Y554392D01*
X862146Y554819D01*
X863965Y556035D01*
X865181Y557854D01*
X865608Y560000D01*
X865181Y562146D01*
X863965Y563965D01*
X862146Y565181D01*
X860000Y565608D01*
D02*
G37*
G36*
X820000D02*
X817854Y565181D01*
X816035Y563965D01*
X814819Y562146D01*
X814392Y560000D01*
X814819Y557854D01*
X816035Y556035D01*
X817854Y554819D01*
X820000Y554392D01*
X822146Y554819D01*
X823965Y556035D01*
X825181Y557854D01*
X825608Y560000D01*
X825181Y562146D01*
X823965Y563965D01*
X822146Y565181D01*
X820000Y565608D01*
D02*
G37*
G36*
X780000D02*
X777854Y565181D01*
X776035Y563965D01*
X774819Y562146D01*
X774392Y560000D01*
X774819Y557854D01*
X776035Y556035D01*
X777854Y554819D01*
X780000Y554392D01*
X782146Y554819D01*
X783965Y556035D01*
X785181Y557854D01*
X785608Y560000D01*
X785181Y562146D01*
X783965Y563965D01*
X782146Y565181D01*
X780000Y565608D01*
D02*
G37*
G36*
X740000D02*
X737854Y565181D01*
X736035Y563965D01*
X734819Y562146D01*
X734392Y560000D01*
X734819Y557854D01*
X736035Y556035D01*
X737854Y554819D01*
X740000Y554392D01*
X742146Y554819D01*
X743965Y556035D01*
X745181Y557854D01*
X745608Y560000D01*
X745181Y562146D01*
X743965Y563965D01*
X742146Y565181D01*
X740000Y565608D01*
D02*
G37*
G36*
X100000D02*
X97854Y565181D01*
X96035Y563965D01*
X94819Y562146D01*
X94392Y560000D01*
X94819Y557854D01*
X96035Y556035D01*
X97854Y554819D01*
X100000Y554392D01*
X102146Y554819D01*
X103965Y556035D01*
X105181Y557854D01*
X105608Y560000D01*
X105181Y562146D01*
X103965Y563965D01*
X102146Y565181D01*
X100000Y565608D01*
D02*
G37*
G36*
X60000D02*
X57854Y565181D01*
X56035Y563965D01*
X54819Y562146D01*
X54392Y560000D01*
X54819Y557854D01*
X56035Y556035D01*
X57854Y554819D01*
X60000Y554392D01*
X62146Y554819D01*
X63965Y556035D01*
X65181Y557854D01*
X65608Y560000D01*
X65181Y562146D01*
X63965Y563965D01*
X62146Y565181D01*
X60000Y565608D01*
D02*
G37*
G36*
X142750Y569426D02*
X133750D01*
X132053Y569203D01*
X130472Y568548D01*
X129114Y567506D01*
X128072Y566148D01*
X127417Y564567D01*
X127194Y562870D01*
Y531870D01*
X127417Y530173D01*
X128072Y528592D01*
X129114Y527234D01*
X130472Y526192D01*
X132053Y525537D01*
X133750Y525314D01*
X142750D01*
X144447Y525537D01*
X146028Y526192D01*
X147386Y527234D01*
X148428Y528592D01*
X149083Y530173D01*
X149306Y531870D01*
Y562870D01*
X149083Y564567D01*
X148428Y566148D01*
X147386Y567506D01*
X146028Y568548D01*
X144447Y569203D01*
X142750Y569426D01*
D02*
G37*
G36*
X960000Y525608D02*
X957854Y525181D01*
X956035Y523965D01*
X954819Y522146D01*
X954392Y520000D01*
X954819Y517854D01*
X956035Y516035D01*
X957854Y514819D01*
X960000Y514392D01*
X962146Y514819D01*
X963965Y516035D01*
X965181Y517854D01*
X965608Y520000D01*
X965181Y522146D01*
X963965Y523965D01*
X962146Y525181D01*
X960000Y525608D01*
D02*
G37*
G36*
X920000D02*
X917854Y525181D01*
X916035Y523965D01*
X914819Y522146D01*
X914392Y520000D01*
X914819Y517854D01*
X916035Y516035D01*
X917854Y514819D01*
X920000Y514392D01*
X922146Y514819D01*
X923965Y516035D01*
X925181Y517854D01*
X925608Y520000D01*
X925181Y522146D01*
X923965Y523965D01*
X922146Y525181D01*
X920000Y525608D01*
D02*
G37*
G36*
X880000D02*
X877854Y525181D01*
X876035Y523965D01*
X874819Y522146D01*
X874392Y520000D01*
X874819Y517854D01*
X876035Y516035D01*
X877854Y514819D01*
X880000Y514392D01*
X882146Y514819D01*
X883965Y516035D01*
X885181Y517854D01*
X885608Y520000D01*
X885181Y522146D01*
X883965Y523965D01*
X882146Y525181D01*
X880000Y525608D01*
D02*
G37*
G36*
X840000D02*
X837854Y525181D01*
X836035Y523965D01*
X834819Y522146D01*
X834392Y520000D01*
X834819Y517854D01*
X836035Y516035D01*
X837854Y514819D01*
X840000Y514392D01*
X842146Y514819D01*
X843965Y516035D01*
X845181Y517854D01*
X845608Y520000D01*
X845181Y522146D01*
X843965Y523965D01*
X842146Y525181D01*
X840000Y525608D01*
D02*
G37*
G36*
X760000D02*
X757854Y525181D01*
X756035Y523965D01*
X754819Y522146D01*
X754392Y520000D01*
X754819Y517854D01*
X756035Y516035D01*
X757854Y514819D01*
X760000Y514392D01*
X762146Y514819D01*
X763965Y516035D01*
X765181Y517854D01*
X765608Y520000D01*
X765181Y522146D01*
X763965Y523965D01*
X762146Y525181D01*
X760000Y525608D01*
D02*
G37*
G36*
X640000D02*
X637854Y525181D01*
X636035Y523965D01*
X634819Y522146D01*
X634392Y520000D01*
X634819Y517854D01*
X636035Y516035D01*
X637854Y514819D01*
X640000Y514392D01*
X642146Y514819D01*
X643965Y516035D01*
X645181Y517854D01*
X645608Y520000D01*
X645181Y522146D01*
X643965Y523965D01*
X642146Y525181D01*
X640000Y525608D01*
D02*
G37*
G36*
X600000D02*
X597854Y525181D01*
X596035Y523965D01*
X594819Y522146D01*
X594392Y520000D01*
X594819Y517854D01*
X596035Y516035D01*
X597854Y514819D01*
X600000Y514392D01*
X602146Y514819D01*
X603965Y516035D01*
X605181Y517854D01*
X605608Y520000D01*
X605181Y522146D01*
X603965Y523965D01*
X602146Y525181D01*
X600000Y525608D01*
D02*
G37*
G36*
X560000D02*
X557854Y525181D01*
X556035Y523965D01*
X554819Y522146D01*
X554392Y520000D01*
X554819Y517854D01*
X556035Y516035D01*
X557854Y514819D01*
X560000Y514392D01*
X562146Y514819D01*
X563965Y516035D01*
X565181Y517854D01*
X565608Y520000D01*
X565181Y522146D01*
X563965Y523965D01*
X562146Y525181D01*
X560000Y525608D01*
D02*
G37*
G36*
X480000D02*
X477854Y525181D01*
X476035Y523965D01*
X474819Y522146D01*
X474392Y520000D01*
X474819Y517854D01*
X476035Y516035D01*
X477854Y514819D01*
X480000Y514392D01*
X482146Y514819D01*
X483965Y516035D01*
X485181Y517854D01*
X485608Y520000D01*
X485181Y522146D01*
X483965Y523965D01*
X482146Y525181D01*
X480000Y525608D01*
D02*
G37*
G36*
X440000D02*
X437854Y525181D01*
X436035Y523965D01*
X434819Y522146D01*
X434392Y520000D01*
X434819Y517854D01*
X436035Y516035D01*
X437854Y514819D01*
X440000Y514392D01*
X442146Y514819D01*
X443965Y516035D01*
X445181Y517854D01*
X445608Y520000D01*
X445181Y522146D01*
X443965Y523965D01*
X442146Y525181D01*
X440000Y525608D01*
D02*
G37*
G36*
X400000D02*
X397854Y525181D01*
X396035Y523965D01*
X394819Y522146D01*
X394392Y520000D01*
X394819Y517854D01*
X396035Y516035D01*
X397854Y514819D01*
X400000Y514392D01*
X402146Y514819D01*
X403965Y516035D01*
X405181Y517854D01*
X405608Y520000D01*
X405181Y522146D01*
X403965Y523965D01*
X402146Y525181D01*
X400000Y525608D01*
D02*
G37*
G36*
X200000D02*
X197854Y525181D01*
X196035Y523965D01*
X194819Y522146D01*
X194392Y520000D01*
X194819Y517854D01*
X196035Y516035D01*
X197854Y514819D01*
X200000Y514392D01*
X202146Y514819D01*
X203965Y516035D01*
X205181Y517854D01*
X205608Y520000D01*
X205181Y522146D01*
X203965Y523965D01*
X202146Y525181D01*
X200000Y525608D01*
D02*
G37*
G36*
X120000D02*
X117854Y525181D01*
X116035Y523965D01*
X114819Y522146D01*
X114392Y520000D01*
X114819Y517854D01*
X116035Y516035D01*
X117854Y514819D01*
X120000Y514392D01*
X122146Y514819D01*
X123965Y516035D01*
X125181Y517854D01*
X125608Y520000D01*
X125181Y522146D01*
X123965Y523965D01*
X122146Y525181D01*
X120000Y525608D01*
D02*
G37*
G36*
X84750Y569426D02*
X75750D01*
X74053Y569203D01*
X72472Y568548D01*
X71114Y567506D01*
X70072Y566148D01*
X69417Y564567D01*
X69194Y562870D01*
Y531870D01*
X69417Y530173D01*
X70072Y528592D01*
X71114Y527234D01*
X72472Y526192D01*
X74053Y525537D01*
X75750Y525314D01*
X75767D01*
X76153Y524044D01*
X76035Y523965D01*
X74819Y522146D01*
X74392Y520000D01*
X74819Y517854D01*
X76035Y516035D01*
X77854Y514819D01*
X80000Y514392D01*
X82146Y514819D01*
X83965Y516035D01*
X85181Y517854D01*
X85608Y520000D01*
X85181Y522146D01*
X83965Y523965D01*
X83848Y524044D01*
X84233Y525314D01*
X84750D01*
X86447Y525537D01*
X88028Y526192D01*
X89386Y527234D01*
X90428Y528592D01*
X91083Y530173D01*
X91306Y531870D01*
Y562870D01*
X91083Y564567D01*
X90428Y566148D01*
X89386Y567506D01*
X88028Y568548D01*
X86447Y569203D01*
X84750Y569426D01*
D02*
G37*
G36*
X40000Y525608D02*
X37854Y525181D01*
X36035Y523965D01*
X34819Y522146D01*
X34392Y520000D01*
X34819Y517854D01*
X36035Y516035D01*
X37854Y514819D01*
X40000Y514392D01*
X42146Y514819D01*
X43965Y516035D01*
X45181Y517854D01*
X45608Y520000D01*
X45181Y522146D01*
X43965Y523965D01*
X42146Y525181D01*
X40000Y525608D01*
D02*
G37*
G36*
X972820Y515042D02*
X970340Y514715D01*
X968029Y513758D01*
X966044Y512235D01*
X964522Y510251D01*
X963565Y507940D01*
X963238Y505460D01*
X963565Y502980D01*
X964522Y500669D01*
X966044Y498685D01*
X968029Y497162D01*
X970340Y496204D01*
X972820Y495878D01*
X975300Y496204D01*
X977611Y497162D01*
X979595Y498685D01*
X981118Y500669D01*
X982076Y502980D01*
X982402Y505460D01*
X982076Y507940D01*
X981118Y510251D01*
X979595Y512235D01*
X977611Y513758D01*
X975300Y514715D01*
X972820Y515042D01*
D02*
G37*
G36*
X947420D02*
X944940Y514715D01*
X942629Y513758D01*
X940645Y512235D01*
X939122Y510251D01*
X938165Y507940D01*
X937838Y505460D01*
X938165Y502980D01*
X939122Y500669D01*
X940645Y498685D01*
X942629Y497162D01*
X944940Y496204D01*
X947420Y495878D01*
X949900Y496204D01*
X952211Y497162D01*
X954195Y498685D01*
X955718Y500669D01*
X956675Y502980D01*
X957002Y505460D01*
X956675Y507940D01*
X955718Y510251D01*
X954195Y512235D01*
X952211Y513758D01*
X949900Y514715D01*
X947420Y515042D01*
D02*
G37*
G36*
X123750Y510426D02*
X92750D01*
X91053Y510203D01*
X89472Y509548D01*
X88114Y508506D01*
X87072Y507148D01*
X86417Y505567D01*
X86194Y503870D01*
Y494870D01*
X86417Y493173D01*
X87072Y491592D01*
X88114Y490234D01*
X89472Y489192D01*
X91053Y488537D01*
X92750Y488314D01*
X123750D01*
X125447Y488537D01*
X127028Y489192D01*
X128386Y490234D01*
X129428Y491592D01*
X130083Y493173D01*
X130306Y494870D01*
Y503870D01*
X130083Y505567D01*
X129428Y507148D01*
X128386Y508506D01*
X127028Y509548D01*
X125447Y510203D01*
X123750Y510426D01*
D02*
G37*
G36*
X580000Y485608D02*
X577854Y485181D01*
X576035Y483965D01*
X574819Y482146D01*
X574392Y480000D01*
X574819Y477854D01*
X576035Y476035D01*
X577854Y474819D01*
X580000Y474392D01*
X582146Y474819D01*
X583965Y476035D01*
X585181Y477854D01*
X585608Y480000D01*
X585181Y482146D01*
X583965Y483965D01*
X582146Y485181D01*
X580000Y485608D01*
D02*
G37*
G36*
X460000D02*
X457854Y485181D01*
X456035Y483965D01*
X454819Y482146D01*
X454392Y480000D01*
X454819Y477854D01*
X456035Y476035D01*
X457854Y474819D01*
X460000Y474392D01*
X462146Y474819D01*
X463965Y476035D01*
X465181Y477854D01*
X465608Y480000D01*
X465181Y482146D01*
X463965Y483965D01*
X462146Y485181D01*
X460000Y485608D01*
D02*
G37*
G36*
X420000D02*
X417854Y485181D01*
X416035Y483965D01*
X414819Y482146D01*
X414392Y480000D01*
X414819Y477854D01*
X416035Y476035D01*
X417854Y474819D01*
X420000Y474392D01*
X422146Y474819D01*
X423965Y476035D01*
X425181Y477854D01*
X425608Y480000D01*
X425181Y482146D01*
X423965Y483965D01*
X422146Y485181D01*
X420000Y485608D01*
D02*
G37*
G36*
X380000D02*
X377854Y485181D01*
X376035Y483965D01*
X374819Y482146D01*
X374392Y480000D01*
X374819Y477854D01*
X376035Y476035D01*
X377854Y474819D01*
X380000Y474392D01*
X382146Y474819D01*
X383965Y476035D01*
X385181Y477854D01*
X385608Y480000D01*
X385181Y482146D01*
X383965Y483965D01*
X382146Y485181D01*
X380000Y485608D01*
D02*
G37*
G36*
X340000D02*
X337854Y485181D01*
X336035Y483965D01*
X334819Y482146D01*
X334392Y480000D01*
X334819Y477854D01*
X336035Y476035D01*
X337854Y474819D01*
X340000Y474392D01*
X342146Y474819D01*
X343965Y476035D01*
X345181Y477854D01*
X345608Y480000D01*
X345181Y482146D01*
X343965Y483965D01*
X342146Y485181D01*
X340000Y485608D01*
D02*
G37*
G36*
X300000D02*
X297854Y485181D01*
X296035Y483965D01*
X294819Y482146D01*
X294392Y480000D01*
X294819Y477854D01*
X296035Y476035D01*
X297854Y474819D01*
X300000Y474392D01*
X302146Y474819D01*
X303965Y476035D01*
X305181Y477854D01*
X305608Y480000D01*
X305181Y482146D01*
X303965Y483965D01*
X302146Y485181D01*
X300000Y485608D01*
D02*
G37*
G36*
X220000D02*
X217854Y485181D01*
X216035Y483965D01*
X214819Y482146D01*
X214392Y480000D01*
X214819Y477854D01*
X216035Y476035D01*
X217854Y474819D01*
X220000Y474392D01*
X222146Y474819D01*
X223965Y476035D01*
X225181Y477854D01*
X225608Y480000D01*
X225181Y482146D01*
X223965Y483965D01*
X222146Y485181D01*
X220000Y485608D01*
D02*
G37*
G36*
X180000D02*
X177854Y485181D01*
X176035Y483965D01*
X174819Y482146D01*
X174392Y480000D01*
X174819Y477854D01*
X176035Y476035D01*
X177854Y474819D01*
X180000Y474392D01*
X182146Y474819D01*
X183965Y476035D01*
X185181Y477854D01*
X185608Y480000D01*
X185181Y482146D01*
X183965Y483965D01*
X182146Y485181D01*
X180000Y485608D01*
D02*
G37*
G36*
X140000D02*
X137854Y485181D01*
X136035Y483965D01*
X134819Y482146D01*
X134392Y480000D01*
X134819Y477854D01*
X136035Y476035D01*
X137854Y474819D01*
X140000Y474392D01*
X142146Y474819D01*
X143965Y476035D01*
X145181Y477854D01*
X145608Y480000D01*
X145181Y482146D01*
X143965Y483965D01*
X142146Y485181D01*
X140000Y485608D01*
D02*
G37*
G36*
X100000D02*
X97854Y485181D01*
X96035Y483965D01*
X94819Y482146D01*
X94392Y480000D01*
X94819Y477854D01*
X96035Y476035D01*
X97854Y474819D01*
X100000Y474392D01*
X102146Y474819D01*
X103965Y476035D01*
X105181Y477854D01*
X105608Y480000D01*
X105181Y482146D01*
X103965Y483965D01*
X102146Y485181D01*
X100000Y485608D01*
D02*
G37*
G36*
X60000D02*
X57854Y485181D01*
X56035Y483965D01*
X54819Y482146D01*
X54392Y480000D01*
X54819Y477854D01*
X56035Y476035D01*
X57854Y474819D01*
X60000Y474392D01*
X62146Y474819D01*
X63965Y476035D01*
X65181Y477854D01*
X65608Y480000D01*
X65181Y482146D01*
X63965Y483965D01*
X62146Y485181D01*
X60000Y485608D01*
D02*
G37*
G36*
X972820Y489642D02*
X970340Y489315D01*
X968029Y488358D01*
X966044Y486835D01*
X964522Y484851D01*
X963565Y482540D01*
X963238Y480060D01*
X963565Y477580D01*
X964522Y475269D01*
X966044Y473284D01*
X968029Y471762D01*
X970340Y470804D01*
X972820Y470478D01*
X975300Y470804D01*
X977611Y471762D01*
X979595Y473284D01*
X981118Y475269D01*
X982076Y477580D01*
X982402Y480060D01*
X982076Y482540D01*
X981118Y484851D01*
X979595Y486835D01*
X977611Y488358D01*
X975300Y489315D01*
X972820Y489642D01*
D02*
G37*
G36*
X947420D02*
X944940Y489315D01*
X942629Y488358D01*
X940645Y486835D01*
X939122Y484851D01*
X938165Y482540D01*
X937838Y480060D01*
X938165Y477580D01*
X939122Y475269D01*
X940645Y473284D01*
X942629Y471762D01*
X944940Y470804D01*
X947420Y470478D01*
X949900Y470804D01*
X952211Y471762D01*
X954195Y473284D01*
X955718Y475269D01*
X956675Y477580D01*
X957002Y480060D01*
X956675Y482540D01*
X955718Y484851D01*
X954195Y486835D01*
X952211Y488358D01*
X949900Y489315D01*
X947420Y489642D01*
D02*
G37*
G36*
X867410Y475508D02*
X865264Y475081D01*
X863445Y473865D01*
X862229Y472046D01*
X861802Y469900D01*
X862229Y467754D01*
X863445Y465935D01*
X865264Y464719D01*
X867410Y464292D01*
X869556Y464719D01*
X871375Y465935D01*
X872591Y467754D01*
X873018Y469900D01*
X872591Y472046D01*
X871375Y473865D01*
X869556Y475081D01*
X867410Y475508D01*
D02*
G37*
G36*
X972820Y464242D02*
X970340Y463915D01*
X968029Y462958D01*
X966044Y461435D01*
X964522Y459451D01*
X963565Y457140D01*
X963238Y454660D01*
X963565Y452180D01*
X964522Y449869D01*
X966044Y447884D01*
X968029Y446362D01*
X970340Y445405D01*
X972820Y445078D01*
X975300Y445405D01*
X977611Y446362D01*
X979595Y447884D01*
X981118Y449869D01*
X982076Y452180D01*
X982402Y454660D01*
X982076Y457140D01*
X981118Y459451D01*
X979595Y461435D01*
X977611Y462958D01*
X975300Y463915D01*
X972820Y464242D01*
D02*
G37*
G36*
X947420D02*
X944940Y463915D01*
X942629Y462958D01*
X940645Y461435D01*
X939122Y459451D01*
X938165Y457140D01*
X937838Y454660D01*
X938165Y452180D01*
X939122Y449869D01*
X940645Y447884D01*
X942629Y446362D01*
X944940Y445405D01*
X947420Y445078D01*
X949900Y445405D01*
X952211Y446362D01*
X954195Y447884D01*
X955718Y449869D01*
X956675Y452180D01*
X957002Y454660D01*
X956675Y457140D01*
X955718Y459451D01*
X954195Y461435D01*
X952211Y462958D01*
X949900Y463915D01*
X947420Y464242D01*
D02*
G37*
G36*
X960000Y445608D02*
X957854Y445181D01*
X956035Y443965D01*
X954819Y442146D01*
X954392Y440000D01*
X954819Y437854D01*
X956035Y436035D01*
X957854Y434819D01*
X960000Y434392D01*
X962146Y434819D01*
X963965Y436035D01*
X965181Y437854D01*
X965608Y440000D01*
X965181Y442146D01*
X963965Y443965D01*
X962146Y445181D01*
X960000Y445608D01*
D02*
G37*
G36*
X800000D02*
X797854Y445181D01*
X796035Y443965D01*
X794819Y442146D01*
X794392Y440000D01*
X794819Y437854D01*
X796035Y436035D01*
X797854Y434819D01*
X800000Y434392D01*
X802146Y434819D01*
X803965Y436035D01*
X805181Y437854D01*
X805608Y440000D01*
X805181Y442146D01*
X803965Y443965D01*
X802146Y445181D01*
X800000Y445608D01*
D02*
G37*
G36*
X760000D02*
X757854Y445181D01*
X756035Y443965D01*
X754819Y442146D01*
X754392Y440000D01*
X754819Y437854D01*
X756035Y436035D01*
X757854Y434819D01*
X760000Y434392D01*
X762146Y434819D01*
X763965Y436035D01*
X765181Y437854D01*
X765608Y440000D01*
X765181Y442146D01*
X763965Y443965D01*
X762146Y445181D01*
X760000Y445608D01*
D02*
G37*
G36*
X640000D02*
X637854Y445181D01*
X636035Y443965D01*
X634819Y442146D01*
X634392Y440000D01*
X634819Y437854D01*
X636035Y436035D01*
X637854Y434819D01*
X640000Y434392D01*
X642146Y434819D01*
X643965Y436035D01*
X645181Y437854D01*
X645608Y440000D01*
X645181Y442146D01*
X643965Y443965D01*
X642146Y445181D01*
X640000Y445608D01*
D02*
G37*
G36*
X560000D02*
X557854Y445181D01*
X556035Y443965D01*
X554819Y442146D01*
X554392Y440000D01*
X554819Y437854D01*
X556035Y436035D01*
X557854Y434819D01*
X560000Y434392D01*
X562146Y434819D01*
X563965Y436035D01*
X565181Y437854D01*
X565608Y440000D01*
X565181Y442146D01*
X563965Y443965D01*
X562146Y445181D01*
X560000Y445608D01*
D02*
G37*
G36*
X480000D02*
X477854Y445181D01*
X476035Y443965D01*
X474819Y442146D01*
X474392Y440000D01*
X474819Y437854D01*
X476035Y436035D01*
X477854Y434819D01*
X480000Y434392D01*
X482146Y434819D01*
X483965Y436035D01*
X485181Y437854D01*
X485608Y440000D01*
X485181Y442146D01*
X483965Y443965D01*
X482146Y445181D01*
X480000Y445608D01*
D02*
G37*
G36*
X440000D02*
X437854Y445181D01*
X436035Y443965D01*
X434819Y442146D01*
X434392Y440000D01*
X434819Y437854D01*
X436035Y436035D01*
X437854Y434819D01*
X440000Y434392D01*
X442146Y434819D01*
X443965Y436035D01*
X445181Y437854D01*
X445608Y440000D01*
X445181Y442146D01*
X443965Y443965D01*
X442146Y445181D01*
X440000Y445608D01*
D02*
G37*
G36*
X400000D02*
X397854Y445181D01*
X396035Y443965D01*
X394819Y442146D01*
X394392Y440000D01*
X394819Y437854D01*
X396035Y436035D01*
X397854Y434819D01*
X400000Y434392D01*
X402146Y434819D01*
X403965Y436035D01*
X405181Y437854D01*
X405608Y440000D01*
X405181Y442146D01*
X403965Y443965D01*
X402146Y445181D01*
X400000Y445608D01*
D02*
G37*
G36*
X280000D02*
X277854Y445181D01*
X276035Y443965D01*
X274819Y442146D01*
X274392Y440000D01*
X274819Y437854D01*
X276035Y436035D01*
X277854Y434819D01*
X280000Y434392D01*
X282146Y434819D01*
X283965Y436035D01*
X285181Y437854D01*
X285608Y440000D01*
X285181Y442146D01*
X283965Y443965D01*
X282146Y445181D01*
X280000Y445608D01*
D02*
G37*
G36*
X240000D02*
X237854Y445181D01*
X236035Y443965D01*
X234819Y442146D01*
X234392Y440000D01*
X234819Y437854D01*
X236035Y436035D01*
X237854Y434819D01*
X240000Y434392D01*
X242146Y434819D01*
X243965Y436035D01*
X245181Y437854D01*
X245608Y440000D01*
X245181Y442146D01*
X243965Y443965D01*
X242146Y445181D01*
X240000Y445608D01*
D02*
G37*
G36*
X200000D02*
X197854Y445181D01*
X196035Y443965D01*
X194819Y442146D01*
X194392Y440000D01*
X194819Y437854D01*
X196035Y436035D01*
X197854Y434819D01*
X200000Y434392D01*
X202146Y434819D01*
X203965Y436035D01*
X205181Y437854D01*
X205608Y440000D01*
X205181Y442146D01*
X203965Y443965D01*
X202146Y445181D01*
X200000Y445608D01*
D02*
G37*
G36*
X160000D02*
X157854Y445181D01*
X156035Y443965D01*
X154819Y442146D01*
X154392Y440000D01*
X154819Y437854D01*
X156035Y436035D01*
X157854Y434819D01*
X160000Y434392D01*
X162146Y434819D01*
X163965Y436035D01*
X165181Y437854D01*
X165608Y440000D01*
X165181Y442146D01*
X163965Y443965D01*
X162146Y445181D01*
X160000Y445608D01*
D02*
G37*
G36*
X543560Y442488D02*
X541414Y442061D01*
X539595Y440845D01*
X538379Y439026D01*
X537952Y436880D01*
X538379Y434734D01*
X539595Y432915D01*
X541414Y431699D01*
X543560Y431272D01*
X545706Y431699D01*
X547525Y432915D01*
X548741Y434734D01*
X549168Y436880D01*
X548741Y439026D01*
X547525Y440845D01*
X545706Y442061D01*
X543560Y442488D01*
D02*
G37*
G36*
X687070Y441218D02*
X684924Y440791D01*
X683105Y439575D01*
X681889Y437756D01*
X681462Y435610D01*
X681889Y433464D01*
X683105Y431645D01*
X684924Y430429D01*
X687070Y430002D01*
X689216Y430429D01*
X691035Y431645D01*
X692251Y433464D01*
X692678Y435610D01*
X692251Y437756D01*
X691035Y439575D01*
X689216Y440791D01*
X687070Y441218D01*
D02*
G37*
G36*
X595630D02*
X593484Y440791D01*
X591665Y439575D01*
X590449Y437756D01*
X590022Y435610D01*
X590449Y433464D01*
X591665Y431645D01*
X593484Y430429D01*
X595630Y430002D01*
X597776Y430429D01*
X599595Y431645D01*
X600811Y433464D01*
X601238Y435610D01*
X600811Y437756D01*
X599595Y439575D01*
X597776Y440791D01*
X595630Y441218D01*
D02*
G37*
G36*
X783590Y436138D02*
X781444Y435711D01*
X779625Y434495D01*
X778409Y432676D01*
X777982Y430530D01*
X778409Y428384D01*
X779625Y426565D01*
X781444Y425349D01*
X783590Y424922D01*
X785736Y425349D01*
X787555Y426565D01*
X788771Y428384D01*
X789198Y430530D01*
X788771Y432676D01*
X787555Y434495D01*
X785736Y435711D01*
X783590Y436138D01*
D02*
G37*
G36*
X36830Y437815D02*
X33958Y437437D01*
X31282Y436329D01*
X28985Y434565D01*
X27222Y432267D01*
X26113Y429592D01*
X25735Y426720D01*
X26113Y423848D01*
X27222Y421172D01*
X28985Y418875D01*
X31282Y417112D01*
X33958Y416003D01*
X36830Y415625D01*
X39702Y416003D01*
X42378Y417112D01*
X44675Y418875D01*
X46438Y421172D01*
X47547Y423848D01*
X47925Y426720D01*
X47547Y429592D01*
X46438Y432267D01*
X44675Y434565D01*
X42378Y436329D01*
X39702Y437437D01*
X36830Y437815D01*
D02*
G37*
G36*
X980000Y405608D02*
X977854Y405181D01*
X976035Y403965D01*
X974819Y402146D01*
X974392Y400000D01*
X974819Y397854D01*
X976035Y396035D01*
X977854Y394819D01*
X980000Y394392D01*
X982146Y394819D01*
X983965Y396035D01*
X985181Y397854D01*
X985608Y400000D01*
X985181Y402146D01*
X983965Y403965D01*
X982146Y405181D01*
X980000Y405608D01*
D02*
G37*
G36*
X940000D02*
X937854Y405181D01*
X936035Y403965D01*
X934819Y402146D01*
X934392Y400000D01*
X934819Y397854D01*
X936035Y396035D01*
X937854Y394819D01*
X940000Y394392D01*
X942146Y394819D01*
X943965Y396035D01*
X945181Y397854D01*
X945608Y400000D01*
X945181Y402146D01*
X943965Y403965D01*
X942146Y405181D01*
X940000Y405608D01*
D02*
G37*
G36*
X580000D02*
X577854Y405181D01*
X576035Y403965D01*
X574819Y402146D01*
X574392Y400000D01*
X574819Y397854D01*
X576035Y396035D01*
X577854Y394819D01*
X580000Y394392D01*
X582146Y394819D01*
X583965Y396035D01*
X585181Y397854D01*
X585608Y400000D01*
X585181Y402146D01*
X583965Y403965D01*
X582146Y405181D01*
X580000Y405608D01*
D02*
G37*
G36*
X500000D02*
X497854Y405181D01*
X496035Y403965D01*
X494819Y402146D01*
X494392Y400000D01*
X494819Y397854D01*
X496035Y396035D01*
X497854Y394819D01*
X500000Y394392D01*
X502146Y394819D01*
X503965Y396035D01*
X505181Y397854D01*
X505608Y400000D01*
X505181Y402146D01*
X503965Y403965D01*
X502146Y405181D01*
X500000Y405608D01*
D02*
G37*
G36*
X460000D02*
X457854Y405181D01*
X456035Y403965D01*
X454819Y402146D01*
X454392Y400000D01*
X454819Y397854D01*
X456035Y396035D01*
X457854Y394819D01*
X460000Y394392D01*
X462146Y394819D01*
X463965Y396035D01*
X465181Y397854D01*
X465608Y400000D01*
X465181Y402146D01*
X463965Y403965D01*
X462146Y405181D01*
X460000Y405608D01*
D02*
G37*
G36*
X340000D02*
X337854Y405181D01*
X336035Y403965D01*
X334819Y402146D01*
X334392Y400000D01*
X334819Y397854D01*
X336035Y396035D01*
X337854Y394819D01*
X340000Y394392D01*
X342146Y394819D01*
X343965Y396035D01*
X345181Y397854D01*
X345608Y400000D01*
X345181Y402146D01*
X343965Y403965D01*
X342146Y405181D01*
X340000Y405608D01*
D02*
G37*
G36*
X300000D02*
X297854Y405181D01*
X296035Y403965D01*
X294819Y402146D01*
X294392Y400000D01*
X294819Y397854D01*
X296035Y396035D01*
X297854Y394819D01*
X300000Y394392D01*
X302146Y394819D01*
X303965Y396035D01*
X305181Y397854D01*
X305608Y400000D01*
X305181Y402146D01*
X303965Y403965D01*
X302146Y405181D01*
X300000Y405608D01*
D02*
G37*
G36*
X220000D02*
X217854Y405181D01*
X216035Y403965D01*
X214819Y402146D01*
X214392Y400000D01*
X214819Y397854D01*
X216035Y396035D01*
X217854Y394819D01*
X220000Y394392D01*
X222146Y394819D01*
X223965Y396035D01*
X225181Y397854D01*
X225608Y400000D01*
X225181Y402146D01*
X223965Y403965D01*
X222146Y405181D01*
X220000Y405608D01*
D02*
G37*
G36*
X100000D02*
X97854Y405181D01*
X96035Y403965D01*
X94819Y402146D01*
X94392Y400000D01*
X94819Y397854D01*
X96035Y396035D01*
X97854Y394819D01*
X100000Y394392D01*
X102146Y394819D01*
X103965Y396035D01*
X105181Y397854D01*
X105608Y400000D01*
X105181Y402146D01*
X103965Y403965D01*
X102146Y405181D01*
X100000Y405608D01*
D02*
G37*
G36*
X60000D02*
X57854Y405181D01*
X56035Y403965D01*
X54819Y402146D01*
X54392Y400000D01*
X54819Y397854D01*
X56035Y396035D01*
X57854Y394819D01*
X60000Y394392D01*
X62146Y394819D01*
X63965Y396035D01*
X65181Y397854D01*
X65608Y400000D01*
X65181Y402146D01*
X63965Y403965D01*
X62146Y405181D01*
X60000Y405608D01*
D02*
G37*
G36*
X36830Y412415D02*
X33958Y412037D01*
X31282Y410928D01*
X28985Y409165D01*
X27222Y406867D01*
X26113Y404192D01*
X25735Y401320D01*
X26113Y398448D01*
X27222Y395773D01*
X28985Y393475D01*
X31282Y391712D01*
X33958Y390603D01*
X36830Y390225D01*
X39702Y390603D01*
X42378Y391712D01*
X44675Y393475D01*
X46438Y395773D01*
X47547Y398448D01*
X47925Y401320D01*
X47547Y404192D01*
X46438Y406867D01*
X44675Y409165D01*
X42378Y410928D01*
X39702Y412037D01*
X36830Y412415D01*
D02*
G37*
G36*
X938530Y374778D02*
X936170Y374467D01*
X933971Y373556D01*
X932083Y372107D01*
X930634Y370219D01*
X929723Y368020D01*
X929412Y365660D01*
X929723Y363300D01*
X930634Y361101D01*
X932083Y359213D01*
X933971Y357764D01*
X936170Y356853D01*
X938530Y356542D01*
X940890Y356853D01*
X943089Y357764D01*
X944977Y359213D01*
X946426Y361101D01*
X947337Y363300D01*
X947648Y365660D01*
X947337Y368020D01*
X946426Y370219D01*
X944977Y372107D01*
X943089Y373556D01*
X940890Y374467D01*
X938530Y374778D01*
D02*
G37*
G36*
X960000Y365608D02*
X957854Y365181D01*
X956035Y363965D01*
X954819Y362146D01*
X954392Y360000D01*
X954819Y357854D01*
X956035Y356035D01*
X957854Y354819D01*
X960000Y354392D01*
X962146Y354819D01*
X963965Y356035D01*
X965181Y357854D01*
X965608Y360000D01*
X965181Y362146D01*
X963965Y363965D01*
X962146Y365181D01*
X960000Y365608D01*
D02*
G37*
G36*
X920000D02*
X917854Y365181D01*
X916035Y363965D01*
X914819Y362146D01*
X914392Y360000D01*
X914819Y357854D01*
X916035Y356035D01*
X917854Y354819D01*
X920000Y354392D01*
X922146Y354819D01*
X923965Y356035D01*
X925181Y357854D01*
X925608Y360000D01*
X925181Y362146D01*
X923965Y363965D01*
X922146Y365181D01*
X920000Y365608D01*
D02*
G37*
G36*
X880000D02*
X877854Y365181D01*
X876035Y363965D01*
X874819Y362146D01*
X874392Y360000D01*
X874819Y357854D01*
X876035Y356035D01*
X877854Y354819D01*
X880000Y354392D01*
X882146Y354819D01*
X883965Y356035D01*
X885181Y357854D01*
X885608Y360000D01*
X885181Y362146D01*
X883965Y363965D01*
X882146Y365181D01*
X880000Y365608D01*
D02*
G37*
G36*
X480000D02*
X477854Y365181D01*
X476035Y363965D01*
X474819Y362146D01*
X474392Y360000D01*
X474819Y357854D01*
X476035Y356035D01*
X477854Y354819D01*
X480000Y354392D01*
X482146Y354819D01*
X483965Y356035D01*
X485181Y357854D01*
X485608Y360000D01*
X485181Y362146D01*
X483965Y363965D01*
X482146Y365181D01*
X480000Y365608D01*
D02*
G37*
G36*
X400000D02*
X397854Y365181D01*
X396035Y363965D01*
X394819Y362146D01*
X394392Y360000D01*
X394819Y357854D01*
X396035Y356035D01*
X397854Y354819D01*
X400000Y354392D01*
X402146Y354819D01*
X403965Y356035D01*
X405181Y357854D01*
X405608Y360000D01*
X405181Y362146D01*
X403965Y363965D01*
X402146Y365181D01*
X400000Y365608D01*
D02*
G37*
G36*
X280000D02*
X277854Y365181D01*
X276035Y363965D01*
X274819Y362146D01*
X274392Y360000D01*
X274819Y357854D01*
X276035Y356035D01*
X277854Y354819D01*
X280000Y354392D01*
X282146Y354819D01*
X283965Y356035D01*
X285181Y357854D01*
X285608Y360000D01*
X285181Y362146D01*
X283965Y363965D01*
X282146Y365181D01*
X280000Y365608D01*
D02*
G37*
G36*
X240000D02*
X237854Y365181D01*
X236035Y363965D01*
X234819Y362146D01*
X234392Y360000D01*
X234819Y357854D01*
X236035Y356035D01*
X237854Y354819D01*
X240000Y354392D01*
X242146Y354819D01*
X243965Y356035D01*
X245181Y357854D01*
X245608Y360000D01*
X245181Y362146D01*
X243965Y363965D01*
X242146Y365181D01*
X240000Y365608D01*
D02*
G37*
G36*
X120000D02*
X117854Y365181D01*
X116035Y363965D01*
X114819Y362146D01*
X114392Y360000D01*
X114819Y357854D01*
X116035Y356035D01*
X117854Y354819D01*
X120000Y354392D01*
X122146Y354819D01*
X123965Y356035D01*
X125181Y357854D01*
X125608Y360000D01*
X125181Y362146D01*
X123965Y363965D01*
X122146Y365181D01*
X120000Y365608D01*
D02*
G37*
G36*
X80000D02*
X77854Y365181D01*
X76035Y363965D01*
X74819Y362146D01*
X74392Y360000D01*
X74819Y357854D01*
X76035Y356035D01*
X77854Y354819D01*
X80000Y354392D01*
X82146Y354819D01*
X83965Y356035D01*
X85181Y357854D01*
X85608Y360000D01*
X85181Y362146D01*
X83965Y363965D01*
X82146Y365181D01*
X80000Y365608D01*
D02*
G37*
G36*
X40000D02*
X37854Y365181D01*
X36035Y363965D01*
X34819Y362146D01*
X34392Y360000D01*
X34819Y357854D01*
X36035Y356035D01*
X37854Y354819D01*
X40000Y354392D01*
X42146Y354819D01*
X43965Y356035D01*
X45181Y357854D01*
X45608Y360000D01*
X45181Y362146D01*
X43965Y363965D01*
X42146Y365181D01*
X40000Y365608D01*
D02*
G37*
G36*
X514350Y363748D02*
X512204Y363321D01*
X510385Y362105D01*
X509169Y360286D01*
X508742Y358140D01*
X509169Y355994D01*
X510385Y354175D01*
X512204Y352959D01*
X514350Y352532D01*
X516496Y352959D01*
X518315Y354175D01*
X519531Y355994D01*
X519958Y358140D01*
X519531Y360286D01*
X518315Y362105D01*
X516496Y363321D01*
X514350Y363748D01*
D02*
G37*
G36*
X585470Y362478D02*
X583324Y362051D01*
X581505Y360835D01*
X580289Y359016D01*
X579862Y356870D01*
X580289Y354724D01*
X581505Y352905D01*
X583324Y351689D01*
X585470Y351262D01*
X587616Y351689D01*
X589435Y352905D01*
X590651Y354724D01*
X591078Y356870D01*
X590651Y359016D01*
X589435Y360835D01*
X587616Y362051D01*
X585470Y362478D01*
D02*
G37*
G36*
X494030Y361208D02*
X491884Y360781D01*
X490065Y359565D01*
X488849Y357746D01*
X488422Y355600D01*
X488849Y353454D01*
X490065Y351635D01*
X491884Y350419D01*
X494030Y349992D01*
X496176Y350419D01*
X497995Y351635D01*
X499211Y353454D01*
X499638Y355600D01*
X499211Y357746D01*
X497995Y359565D01*
X496176Y360781D01*
X494030Y361208D01*
D02*
G37*
G36*
Y343428D02*
X491884Y343001D01*
X490065Y341785D01*
X488849Y339966D01*
X488422Y337820D01*
X488849Y335674D01*
X490065Y333855D01*
X491884Y332639D01*
X494030Y332212D01*
X496176Y332639D01*
X497995Y333855D01*
X499211Y335674D01*
X499638Y337820D01*
X499211Y339966D01*
X497995Y341785D01*
X496176Y343001D01*
X494030Y343428D01*
D02*
G37*
G36*
X980000Y325608D02*
X977854Y325181D01*
X976035Y323965D01*
X974819Y322146D01*
X974392Y320000D01*
X974819Y317854D01*
X976035Y316035D01*
X977854Y314819D01*
X980000Y314392D01*
X982146Y314819D01*
X983965Y316035D01*
X985181Y317854D01*
X985608Y320000D01*
X985181Y322146D01*
X983965Y323965D01*
X982146Y325181D01*
X980000Y325608D01*
D02*
G37*
G36*
X940000D02*
X937854Y325181D01*
X936035Y323965D01*
X934819Y322146D01*
X934392Y320000D01*
X934819Y317854D01*
X936035Y316035D01*
X937854Y314819D01*
X940000Y314392D01*
X942146Y314819D01*
X943965Y316035D01*
X945181Y317854D01*
X945608Y320000D01*
X945181Y322146D01*
X943965Y323965D01*
X942146Y325181D01*
X940000Y325608D01*
D02*
G37*
G36*
X900000D02*
X897854Y325181D01*
X896035Y323965D01*
X894819Y322146D01*
X894392Y320000D01*
X894819Y317854D01*
X896035Y316035D01*
X897854Y314819D01*
X900000Y314392D01*
X902146Y314819D01*
X903965Y316035D01*
X905181Y317854D01*
X905608Y320000D01*
X905181Y322146D01*
X903965Y323965D01*
X902146Y325181D01*
X900000Y325608D01*
D02*
G37*
G36*
X860000D02*
X857854Y325181D01*
X856035Y323965D01*
X854819Y322146D01*
X854392Y320000D01*
X854819Y317854D01*
X856035Y316035D01*
X857854Y314819D01*
X860000Y314392D01*
X862146Y314819D01*
X863965Y316035D01*
X865181Y317854D01*
X865608Y320000D01*
X865181Y322146D01*
X863965Y323965D01*
X862146Y325181D01*
X860000Y325608D01*
D02*
G37*
G36*
X820000D02*
X817854Y325181D01*
X816035Y323965D01*
X814819Y322146D01*
X814392Y320000D01*
X814819Y317854D01*
X816035Y316035D01*
X817854Y314819D01*
X820000Y314392D01*
X822146Y314819D01*
X823965Y316035D01*
X825181Y317854D01*
X825608Y320000D01*
X825181Y322146D01*
X823965Y323965D01*
X822146Y325181D01*
X820000Y325608D01*
D02*
G37*
G36*
X740000D02*
X737854Y325181D01*
X736035Y323965D01*
X734819Y322146D01*
X734392Y320000D01*
X734819Y317854D01*
X736035Y316035D01*
X737854Y314819D01*
X740000Y314392D01*
X742146Y314819D01*
X743965Y316035D01*
X745181Y317854D01*
X745608Y320000D01*
X745181Y322146D01*
X743965Y323965D01*
X742146Y325181D01*
X740000Y325608D01*
D02*
G37*
G36*
X700000D02*
X697854Y325181D01*
X696035Y323965D01*
X694819Y322146D01*
X694392Y320000D01*
X694819Y317854D01*
X696035Y316035D01*
X697854Y314819D01*
X700000Y314392D01*
X702146Y314819D01*
X703965Y316035D01*
X705181Y317854D01*
X705608Y320000D01*
X705181Y322146D01*
X703965Y323965D01*
X702146Y325181D01*
X700000Y325608D01*
D02*
G37*
G36*
X660000D02*
X657854Y325181D01*
X656035Y323965D01*
X654819Y322146D01*
X654392Y320000D01*
X654819Y317854D01*
X656035Y316035D01*
X657854Y314819D01*
X660000Y314392D01*
X662146Y314819D01*
X663965Y316035D01*
X665181Y317854D01*
X665608Y320000D01*
X665181Y322146D01*
X663965Y323965D01*
X662146Y325181D01*
X660000Y325608D01*
D02*
G37*
G36*
X460000D02*
X457854Y325181D01*
X456035Y323965D01*
X454819Y322146D01*
X454392Y320000D01*
X454819Y317854D01*
X456035Y316035D01*
X457854Y314819D01*
X460000Y314392D01*
X462146Y314819D01*
X463965Y316035D01*
X465181Y317854D01*
X465608Y320000D01*
X465181Y322146D01*
X463965Y323965D01*
X462146Y325181D01*
X460000Y325608D01*
D02*
G37*
G36*
X380000D02*
X377854Y325181D01*
X376035Y323965D01*
X374819Y322146D01*
X374392Y320000D01*
X374819Y317854D01*
X376035Y316035D01*
X377854Y314819D01*
X380000Y314392D01*
X382146Y314819D01*
X383965Y316035D01*
X385181Y317854D01*
X385608Y320000D01*
X385181Y322146D01*
X383965Y323965D01*
X382146Y325181D01*
X380000Y325608D01*
D02*
G37*
G36*
X340000D02*
X337854Y325181D01*
X336035Y323965D01*
X334819Y322146D01*
X334392Y320000D01*
X334819Y317854D01*
X336035Y316035D01*
X337854Y314819D01*
X340000Y314392D01*
X342146Y314819D01*
X343965Y316035D01*
X345181Y317854D01*
X345608Y320000D01*
X345181Y322146D01*
X343965Y323965D01*
X342146Y325181D01*
X340000Y325608D01*
D02*
G37*
G36*
X300000D02*
X297854Y325181D01*
X296035Y323965D01*
X294819Y322146D01*
X294392Y320000D01*
X294819Y317854D01*
X296035Y316035D01*
X297854Y314819D01*
X300000Y314392D01*
X302146Y314819D01*
X303965Y316035D01*
X305181Y317854D01*
X305608Y320000D01*
X305181Y322146D01*
X303965Y323965D01*
X302146Y325181D01*
X300000Y325608D01*
D02*
G37*
G36*
X260000D02*
X257854Y325181D01*
X256035Y323965D01*
X254819Y322146D01*
X254392Y320000D01*
X254819Y317854D01*
X256035Y316035D01*
X257854Y314819D01*
X260000Y314392D01*
X262146Y314819D01*
X263965Y316035D01*
X265181Y317854D01*
X265608Y320000D01*
X265181Y322146D01*
X263965Y323965D01*
X262146Y325181D01*
X260000Y325608D01*
D02*
G37*
G36*
X220000D02*
X217854Y325181D01*
X216035Y323965D01*
X214819Y322146D01*
X214392Y320000D01*
X214819Y317854D01*
X216035Y316035D01*
X217854Y314819D01*
X220000Y314392D01*
X222146Y314819D01*
X223965Y316035D01*
X225181Y317854D01*
X225608Y320000D01*
X225181Y322146D01*
X223965Y323965D01*
X222146Y325181D01*
X220000Y325608D01*
D02*
G37*
G36*
X180000D02*
X177854Y325181D01*
X176035Y323965D01*
X174819Y322146D01*
X174392Y320000D01*
X174819Y317854D01*
X176035Y316035D01*
X177854Y314819D01*
X180000Y314392D01*
X182146Y314819D01*
X183965Y316035D01*
X185181Y317854D01*
X185608Y320000D01*
X185181Y322146D01*
X183965Y323965D01*
X182146Y325181D01*
X180000Y325608D01*
D02*
G37*
G36*
X53420Y332283D02*
X53260D01*
X50749Y331952D01*
X48408Y330983D01*
X46399Y329441D01*
X44857Y327431D01*
X43888Y325091D01*
X43557Y322580D01*
X43888Y320069D01*
X44857Y317729D01*
X46399Y315719D01*
X48408Y314177D01*
X50749Y313208D01*
X53260Y312877D01*
X53420D01*
X55931Y313208D01*
X58271Y314177D01*
X60281Y315719D01*
X61823Y317729D01*
X62792Y320069D01*
X63123Y322580D01*
X62792Y325091D01*
X61823Y327431D01*
X60281Y329441D01*
X58271Y330983D01*
X55931Y331952D01*
X53420Y332283D01*
D02*
G37*
G36*
X548640Y306598D02*
X546494Y306171D01*
X544675Y304955D01*
X543459Y303136D01*
X543032Y300990D01*
X543459Y298844D01*
X544675Y297025D01*
X546494Y295809D01*
X548640Y295382D01*
X550786Y295809D01*
X552605Y297025D01*
X553821Y298844D01*
X554248Y300990D01*
X553821Y303136D01*
X552605Y304955D01*
X550786Y306171D01*
X548640Y306598D01*
D02*
G37*
G36*
X568960Y305328D02*
X566814Y304901D01*
X564995Y303685D01*
X563779Y301866D01*
X563352Y299720D01*
X563779Y297574D01*
X564995Y295755D01*
X566814Y294539D01*
X568960Y294112D01*
X571106Y294539D01*
X572925Y295755D01*
X574141Y297574D01*
X574568Y299720D01*
X574141Y301866D01*
X572925Y303685D01*
X571106Y304901D01*
X568960Y305328D01*
D02*
G37*
G36*
X132080Y300248D02*
X129934Y299821D01*
X128115Y298605D01*
X126899Y296786D01*
X126472Y294640D01*
X126899Y292494D01*
X128115Y290675D01*
X129934Y289459D01*
X132080Y289032D01*
X134226Y289459D01*
X136045Y290675D01*
X137261Y292494D01*
X137688Y294640D01*
X137261Y296786D01*
X136045Y298605D01*
X134226Y299821D01*
X132080Y300248D01*
D02*
G37*
G36*
X563880Y290088D02*
X561734Y289661D01*
X559915Y288445D01*
X558699Y286626D01*
X558272Y284480D01*
X558656Y282553D01*
X558133Y282006D01*
X557626Y281713D01*
X557136Y282041D01*
X554990Y282468D01*
X552844Y282041D01*
X551025Y280825D01*
X549809Y279006D01*
X549382Y276860D01*
X549809Y274714D01*
X551025Y272895D01*
X552844Y271679D01*
X554990Y271252D01*
X557136Y271679D01*
X558955Y272895D01*
X560171Y274714D01*
X560598Y276860D01*
X560214Y278787D01*
X560737Y279333D01*
X561244Y279627D01*
X561734Y279299D01*
X563880Y278872D01*
X566026Y279299D01*
X567845Y280515D01*
X569061Y282334D01*
X569488Y284480D01*
X569061Y286626D01*
X567845Y288445D01*
X566026Y289661D01*
X563880Y290088D01*
D02*
G37*
G36*
X938530Y298778D02*
X936170Y298467D01*
X933971Y297556D01*
X932083Y296107D01*
X930634Y294219D01*
X929723Y292020D01*
X929412Y289660D01*
X929723Y287300D01*
X930634Y285101D01*
X932083Y283213D01*
X933971Y281764D01*
X936170Y280853D01*
X938530Y280542D01*
X940890Y280853D01*
X943089Y281764D01*
X944977Y283213D01*
X946426Y285101D01*
X947337Y287300D01*
X947648Y289660D01*
X947337Y292020D01*
X946426Y294219D01*
X944977Y296107D01*
X943089Y297556D01*
X940890Y298467D01*
X938530Y298778D01*
D02*
G37*
G36*
X960000Y285608D02*
X957854Y285181D01*
X956035Y283965D01*
X954819Y282146D01*
X954392Y280000D01*
X954819Y277854D01*
X956035Y276035D01*
X957854Y274819D01*
X960000Y274392D01*
X962146Y274819D01*
X963965Y276035D01*
X965181Y277854D01*
X965608Y280000D01*
X965181Y282146D01*
X963965Y283965D01*
X962146Y285181D01*
X960000Y285608D01*
D02*
G37*
G36*
X880000D02*
X877854Y285181D01*
X876035Y283965D01*
X874819Y282146D01*
X874392Y280000D01*
X874819Y277854D01*
X876035Y276035D01*
X877854Y274819D01*
X880000Y274392D01*
X882146Y274819D01*
X883965Y276035D01*
X885181Y277854D01*
X885608Y280000D01*
X885181Y282146D01*
X883965Y283965D01*
X882146Y285181D01*
X880000Y285608D01*
D02*
G37*
G36*
X360000D02*
X357854Y285181D01*
X356035Y283965D01*
X354819Y282146D01*
X354392Y280000D01*
X354819Y277854D01*
X356035Y276035D01*
X357854Y274819D01*
X360000Y274392D01*
X362146Y274819D01*
X363965Y276035D01*
X365181Y277854D01*
X365608Y280000D01*
X365181Y282146D01*
X363965Y283965D01*
X362146Y285181D01*
X360000Y285608D01*
D02*
G37*
G36*
X200000D02*
X197854Y285181D01*
X196035Y283965D01*
X194819Y282146D01*
X194392Y280000D01*
X194819Y277854D01*
X196035Y276035D01*
X197854Y274819D01*
X200000Y274392D01*
X202146Y274819D01*
X203965Y276035D01*
X205181Y277854D01*
X205608Y280000D01*
X205181Y282146D01*
X203965Y283965D01*
X202146Y285181D01*
X200000Y285608D01*
D02*
G37*
G36*
X160000D02*
X157854Y285181D01*
X156035Y283965D01*
X154819Y282146D01*
X154392Y280000D01*
X154819Y277854D01*
X156035Y276035D01*
X157854Y274819D01*
X160000Y274392D01*
X162146Y274819D01*
X163965Y276035D01*
X165181Y277854D01*
X165608Y280000D01*
X165181Y282146D01*
X163965Y283965D01*
X162146Y285181D01*
X160000Y285608D01*
D02*
G37*
G36*
X120000D02*
X117854Y285181D01*
X116035Y283965D01*
X114819Y282146D01*
X114392Y280000D01*
X114819Y277854D01*
X116035Y276035D01*
X117854Y274819D01*
X120000Y274392D01*
X122146Y274819D01*
X123965Y276035D01*
X125181Y277854D01*
X125608Y280000D01*
X125181Y282146D01*
X123965Y283965D01*
X122146Y285181D01*
X120000Y285608D01*
D02*
G37*
G36*
X80000D02*
X77854Y285181D01*
X76035Y283965D01*
X74819Y282146D01*
X74392Y280000D01*
X74819Y277854D01*
X76035Y276035D01*
X77854Y274819D01*
X80000Y274392D01*
X82146Y274819D01*
X83965Y276035D01*
X85181Y277854D01*
X85608Y280000D01*
X85181Y282146D01*
X83965Y283965D01*
X82146Y285181D01*
X80000Y285608D01*
D02*
G37*
G36*
X53420Y289103D02*
X53260D01*
X50749Y288772D01*
X48408Y287803D01*
X46399Y286261D01*
X44857Y284251D01*
X43888Y281911D01*
X43557Y279400D01*
X43888Y276889D01*
X44857Y274548D01*
X46399Y272539D01*
X48408Y270997D01*
X50749Y270028D01*
X53260Y269697D01*
X53420D01*
X55931Y270028D01*
X58271Y270997D01*
X60281Y272539D01*
X61823Y274548D01*
X62792Y276889D01*
X63123Y279400D01*
X62792Y281911D01*
X61823Y284251D01*
X60281Y286261D01*
X58271Y287803D01*
X55931Y288772D01*
X53420Y289103D01*
D02*
G37*
G36*
X562610Y271038D02*
X560464Y270611D01*
X558645Y269395D01*
X557429Y267576D01*
X557002Y265430D01*
X557429Y263284D01*
X558645Y261465D01*
X560464Y260249D01*
X562610Y259822D01*
X564756Y260249D01*
X566575Y261465D01*
X567791Y263284D01*
X568218Y265430D01*
X567791Y267576D01*
X566575Y269395D01*
X564756Y270611D01*
X562610Y271038D01*
D02*
G37*
G36*
X128270D02*
X126124Y270611D01*
X124305Y269395D01*
X123089Y267576D01*
X122662Y265430D01*
X123089Y263284D01*
X124305Y261465D01*
X126124Y260249D01*
X128270Y259822D01*
X130416Y260249D01*
X132235Y261465D01*
X133451Y263284D01*
X133878Y265430D01*
X133451Y267576D01*
X132235Y269395D01*
X130416Y270611D01*
X128270Y271038D01*
D02*
G37*
G36*
X494030Y266798D02*
X491884Y266371D01*
X490065Y265155D01*
X488849Y263336D01*
X488422Y261190D01*
X488849Y259044D01*
X490065Y257225D01*
X491884Y256009D01*
X494030Y255582D01*
X496176Y256009D01*
X497995Y257225D01*
X499211Y259044D01*
X499638Y261190D01*
X499211Y263336D01*
X497995Y265155D01*
X496176Y266371D01*
X494030Y266798D01*
D02*
G37*
G36*
Y253258D02*
X491884Y252831D01*
X490065Y251615D01*
X488849Y249796D01*
X488422Y247650D01*
X488849Y245504D01*
X490065Y243685D01*
X491884Y242469D01*
X494030Y242042D01*
X496176Y242469D01*
X497995Y243685D01*
X499211Y245504D01*
X499638Y247650D01*
X499211Y249796D01*
X497995Y251615D01*
X496176Y252831D01*
X494030Y253258D01*
D02*
G37*
G36*
X980000Y245608D02*
X977854Y245181D01*
X976035Y243965D01*
X974819Y242146D01*
X974392Y240000D01*
X974819Y237854D01*
X976035Y236035D01*
X977854Y234819D01*
X980000Y234392D01*
X982146Y234819D01*
X983965Y236035D01*
X985181Y237854D01*
X985608Y240000D01*
X985181Y242146D01*
X983965Y243965D01*
X982146Y245181D01*
X980000Y245608D01*
D02*
G37*
G36*
X940000D02*
X937854Y245181D01*
X936035Y243965D01*
X934819Y242146D01*
X934392Y240000D01*
X934819Y237854D01*
X936035Y236035D01*
X937854Y234819D01*
X940000Y234392D01*
X942146Y234819D01*
X943965Y236035D01*
X945181Y237854D01*
X945608Y240000D01*
X945181Y242146D01*
X943965Y243965D01*
X942146Y245181D01*
X940000Y245608D01*
D02*
G37*
G36*
X860000D02*
X857854Y245181D01*
X856035Y243965D01*
X854819Y242146D01*
X854392Y240000D01*
X854819Y237854D01*
X856035Y236035D01*
X857854Y234819D01*
X860000Y234392D01*
X862146Y234819D01*
X863965Y236035D01*
X865181Y237854D01*
X865608Y240000D01*
X865181Y242146D01*
X863965Y243965D01*
X862146Y245181D01*
X860000Y245608D01*
D02*
G37*
G36*
X380000D02*
X377854Y245181D01*
X376035Y243965D01*
X374819Y242146D01*
X374392Y240000D01*
X374819Y237854D01*
X376035Y236035D01*
X377854Y234819D01*
X380000Y234392D01*
X382146Y234819D01*
X383965Y236035D01*
X385181Y237854D01*
X385608Y240000D01*
X385181Y242146D01*
X383965Y243965D01*
X382146Y245181D01*
X380000Y245608D01*
D02*
G37*
G36*
X180000D02*
X177854Y245181D01*
X176035Y243965D01*
X174819Y242146D01*
X174392Y240000D01*
X174819Y237854D01*
X176035Y236035D01*
X177854Y234819D01*
X180000Y234392D01*
X182146Y234819D01*
X183965Y236035D01*
X185181Y237854D01*
X185608Y240000D01*
X185181Y242146D01*
X183965Y243965D01*
X182146Y245181D01*
X180000Y245608D01*
D02*
G37*
G36*
X140000D02*
X137854Y245181D01*
X136035Y243965D01*
X134819Y242146D01*
X134392Y240000D01*
X134819Y237854D01*
X136035Y236035D01*
X137854Y234819D01*
X140000Y234392D01*
X142146Y234819D01*
X143965Y236035D01*
X145181Y237854D01*
X145608Y240000D01*
X145181Y242146D01*
X143965Y243965D01*
X142146Y245181D01*
X140000Y245608D01*
D02*
G37*
G36*
X457200Y245028D02*
X455054Y244601D01*
X453235Y243385D01*
X452019Y241566D01*
X451592Y239420D01*
X452019Y237274D01*
X453235Y235455D01*
X455054Y234239D01*
X457200Y233812D01*
X459346Y234239D01*
X461165Y235455D01*
X462381Y237274D01*
X462808Y239420D01*
X462381Y241566D01*
X461165Y243385D01*
X459346Y244601D01*
X457200Y245028D01*
D02*
G37*
G36*
X574040Y244283D02*
X571894Y243856D01*
X570075Y242640D01*
X568859Y240821D01*
X568432Y238675D01*
X568859Y236529D01*
X570075Y234710D01*
X571894Y233494D01*
X574040Y233067D01*
X576186Y233494D01*
X578005Y234710D01*
X579221Y236529D01*
X579648Y238675D01*
X579221Y240821D01*
X578005Y242640D01*
X576186Y243856D01*
X574040Y244283D01*
D02*
G37*
G36*
X494030Y240558D02*
X491884Y240131D01*
X490065Y238915D01*
X488849Y237096D01*
X488422Y234950D01*
X488849Y232804D01*
X490065Y230985D01*
X491884Y229769D01*
X494030Y229342D01*
X496176Y229769D01*
X497995Y230985D01*
X499211Y232804D01*
X499638Y234950D01*
X499211Y237096D01*
X497995Y238915D01*
X496176Y240131D01*
X494030Y240558D01*
D02*
G37*
G36*
X27940Y242235D02*
X25068Y241857D01*
X22392Y240749D01*
X20095Y238985D01*
X18332Y236688D01*
X17223Y234012D01*
X16845Y231140D01*
X17223Y228268D01*
X18332Y225592D01*
X20095Y223295D01*
X22392Y221532D01*
X25068Y220423D01*
X27940Y220045D01*
X30812Y220423D01*
X33487Y221532D01*
X35785Y223295D01*
X37548Y225592D01*
X38657Y228268D01*
X39035Y231140D01*
X38657Y234012D01*
X37548Y236688D01*
X35785Y238985D01*
X33488Y240749D01*
X30812Y241857D01*
X27940Y242235D01*
D02*
G37*
G36*
X609290Y224441D02*
X607144Y224014D01*
X605324Y222798D01*
X604109Y220979D01*
X603682Y218833D01*
X604109Y216687D01*
X605324Y214868D01*
X607144Y213652D01*
X609290Y213225D01*
X611436Y213652D01*
X613255Y214868D01*
X614471Y216687D01*
X614897Y218833D01*
X614471Y220979D01*
X613255Y222798D01*
X611436Y224014D01*
X609290Y224441D01*
D02*
G37*
G36*
X233680Y218968D02*
X231534Y218541D01*
X229715Y217325D01*
X228499Y215506D01*
X228072Y213360D01*
X228499Y211214D01*
X229715Y209395D01*
X231534Y208179D01*
X233680Y207752D01*
X235826Y208179D01*
X237645Y209395D01*
X238861Y211214D01*
X239288Y213360D01*
X238861Y215506D01*
X237645Y217325D01*
X235826Y218541D01*
X233680Y218968D01*
D02*
G37*
G36*
X218487D02*
X216341Y218541D01*
X214522Y217325D01*
X213307Y215506D01*
X212880Y213360D01*
X213307Y211214D01*
X214522Y209395D01*
X216341Y208179D01*
X218487Y207752D01*
X220634Y208179D01*
X222453Y209395D01*
X223668Y211214D01*
X224095Y213360D01*
X223668Y215506D01*
X222453Y217325D01*
X220634Y218541D01*
X218487Y218968D01*
D02*
G37*
G36*
X946150Y222942D02*
X943670Y222616D01*
X941359Y221658D01*
X939375Y220135D01*
X937852Y218151D01*
X936895Y215840D01*
X936568Y213360D01*
X936895Y210880D01*
X937852Y208569D01*
X939375Y206585D01*
X941359Y205062D01*
X943670Y204104D01*
X946150Y203778D01*
X948630Y204104D01*
X950941Y205062D01*
X952925Y206585D01*
X954448Y208569D01*
X955406Y210880D01*
X955732Y213360D01*
X955406Y215840D01*
X954448Y218151D01*
X952925Y220135D01*
X950941Y221658D01*
X948630Y222616D01*
X946150Y222942D01*
D02*
G37*
G36*
X975300Y222973D02*
X967800D01*
X965556Y222526D01*
X963654Y221255D01*
X962384Y219354D01*
X961937Y217110D01*
Y209610D01*
X962384Y207367D01*
X963654Y205464D01*
X965556Y204194D01*
X967800Y203747D01*
X975300D01*
X977543Y204194D01*
X979445Y205464D01*
X980716Y207367D01*
X981163Y209610D01*
Y217110D01*
X980716Y219354D01*
X979445Y221255D01*
X977543Y222526D01*
X975300Y222973D01*
D02*
G37*
G36*
X601980Y212618D02*
X599834Y212191D01*
X598015Y210975D01*
X596799Y209156D01*
X596372Y207010D01*
X596799Y204864D01*
X598015Y203045D01*
X599834Y201829D01*
X601980Y201402D01*
X604126Y201829D01*
X605945Y203045D01*
X607161Y204864D01*
X607588Y207010D01*
X607161Y209156D01*
X605945Y210975D01*
X604126Y212191D01*
X601980Y212618D01*
D02*
G37*
G36*
X429260Y222778D02*
X427114Y222351D01*
X425295Y221135D01*
X424079Y219316D01*
X423652Y217170D01*
X424079Y215024D01*
X425044Y213579D01*
X424671Y212210D01*
X424574Y212191D01*
X422755Y210975D01*
X421539Y209156D01*
X421112Y207010D01*
X421539Y204864D01*
X422755Y203045D01*
X424574Y201829D01*
X426720Y201402D01*
X428866Y201829D01*
X430685Y203045D01*
X431901Y204864D01*
X432328Y207010D01*
X431901Y209156D01*
X430936Y210601D01*
X431309Y211970D01*
X431406Y211989D01*
X433225Y213205D01*
X434441Y215024D01*
X434868Y217170D01*
X434441Y219316D01*
X433225Y221135D01*
X431406Y222351D01*
X429260Y222778D01*
D02*
G37*
G36*
X619763Y206361D02*
X617617Y205934D01*
X615798Y204718D01*
X614582Y202899D01*
X614155Y200753D01*
X614582Y198607D01*
X615798Y196788D01*
X617617Y195572D01*
X619763Y195145D01*
X621909Y195572D01*
X623728Y196788D01*
X624944Y198607D01*
X625371Y200753D01*
X624944Y202899D01*
X623728Y204718D01*
X621909Y205934D01*
X619763Y206361D01*
D02*
G37*
G36*
X27940Y216835D02*
X25068Y216457D01*
X22392Y215348D01*
X20095Y213585D01*
X18332Y211287D01*
X17223Y208612D01*
X16845Y205740D01*
X17223Y202868D01*
X18332Y200193D01*
X20095Y197895D01*
X22392Y196131D01*
X25068Y195023D01*
X27940Y194645D01*
X30812Y195023D01*
X33487Y196131D01*
X35785Y197895D01*
X37548Y200193D01*
X38657Y202868D01*
X39035Y205740D01*
X38657Y208612D01*
X37548Y211287D01*
X35785Y213585D01*
X33488Y215348D01*
X30812Y216457D01*
X27940Y216835D01*
D02*
G37*
G36*
X920000Y205608D02*
X917854Y205181D01*
X916035Y203965D01*
X914819Y202146D01*
X914392Y200000D01*
X914819Y197854D01*
X916035Y196035D01*
X917854Y194819D01*
X920000Y194392D01*
X922146Y194819D01*
X923965Y196035D01*
X925181Y197854D01*
X925608Y200000D01*
X925181Y202146D01*
X923965Y203965D01*
X922146Y205181D01*
X920000Y205608D01*
D02*
G37*
G36*
X880000D02*
X877854Y205181D01*
X876035Y203965D01*
X874819Y202146D01*
X874392Y200000D01*
X874819Y197854D01*
X876035Y196035D01*
X877854Y194819D01*
X880000Y194392D01*
X882146Y194819D01*
X883965Y196035D01*
X885181Y197854D01*
X885608Y200000D01*
X885181Y202146D01*
X883965Y203965D01*
X882146Y205181D01*
X880000Y205608D01*
D02*
G37*
G36*
X840000D02*
X837854Y205181D01*
X836035Y203965D01*
X834819Y202146D01*
X834392Y200000D01*
X834819Y197854D01*
X836035Y196035D01*
X837854Y194819D01*
X840000Y194392D01*
X842146Y194819D01*
X843965Y196035D01*
X845181Y197854D01*
X845608Y200000D01*
X845181Y202146D01*
X843965Y203965D01*
X842146Y205181D01*
X840000Y205608D01*
D02*
G37*
G36*
X800000D02*
X797854Y205181D01*
X796035Y203965D01*
X794819Y202146D01*
X794392Y200000D01*
X794819Y197854D01*
X796035Y196035D01*
X797854Y194819D01*
X800000Y194392D01*
X802146Y194819D01*
X803965Y196035D01*
X805181Y197854D01*
X805608Y200000D01*
X805181Y202146D01*
X803965Y203965D01*
X802146Y205181D01*
X800000Y205608D01*
D02*
G37*
G36*
X480000D02*
X477854Y205181D01*
X476035Y203965D01*
X474819Y202146D01*
X474392Y200000D01*
X474819Y197854D01*
X476035Y196035D01*
X477854Y194819D01*
X480000Y194392D01*
X482146Y194819D01*
X483965Y196035D01*
X485181Y197854D01*
X485608Y200000D01*
X485181Y202146D01*
X483965Y203965D01*
X482146Y205181D01*
X480000Y205608D01*
D02*
G37*
G36*
X160000D02*
X157854Y205181D01*
X156035Y203965D01*
X154819Y202146D01*
X154392Y200000D01*
X154819Y197854D01*
X156035Y196035D01*
X157854Y194819D01*
X160000Y194392D01*
X162146Y194819D01*
X163965Y196035D01*
X165181Y197854D01*
X165608Y200000D01*
X165181Y202146D01*
X163965Y203965D01*
X162146Y205181D01*
X160000Y205608D01*
D02*
G37*
G36*
X120000D02*
X117854Y205181D01*
X116035Y203965D01*
X114819Y202146D01*
X114392Y200000D01*
X114819Y197854D01*
X116035Y196035D01*
X117854Y194819D01*
X120000Y194392D01*
X122146Y194819D01*
X123965Y196035D01*
X125181Y197854D01*
X125608Y200000D01*
X125181Y202146D01*
X123965Y203965D01*
X122146Y205181D01*
X120000Y205608D01*
D02*
G37*
G36*
X80000D02*
X77854Y205181D01*
X76035Y203965D01*
X74819Y202146D01*
X74392Y200000D01*
X74819Y197854D01*
X76035Y196035D01*
X77854Y194819D01*
X80000Y194392D01*
X82146Y194819D01*
X83965Y196035D01*
X85181Y197854D01*
X85608Y200000D01*
X85181Y202146D01*
X83965Y203965D01*
X82146Y205181D01*
X80000Y205608D01*
D02*
G37*
G36*
X971550Y197542D02*
X969070Y197215D01*
X966759Y196258D01*
X964774Y194735D01*
X963252Y192751D01*
X962294Y190440D01*
X961968Y187960D01*
X962294Y185480D01*
X963252Y183169D01*
X964774Y181185D01*
X966759Y179662D01*
X969070Y178704D01*
X971550Y178378D01*
X974030Y178704D01*
X976341Y179662D01*
X978325Y181185D01*
X979848Y183169D01*
X980806Y185480D01*
X981132Y187960D01*
X980806Y190440D01*
X979848Y192751D01*
X978325Y194735D01*
X976341Y196258D01*
X974030Y197215D01*
X971550Y197542D01*
D02*
G37*
G36*
X279400Y187218D02*
X277254Y186791D01*
X275435Y185575D01*
X274219Y183756D01*
X273792Y181610D01*
X274219Y179464D01*
X275435Y177645D01*
X277254Y176429D01*
X279400Y176002D01*
X281546Y176429D01*
X283365Y177645D01*
X284581Y179464D01*
X285008Y181610D01*
X284581Y183756D01*
X283365Y185575D01*
X281546Y186791D01*
X279400Y187218D01*
D02*
G37*
G36*
X27940Y191435D02*
X25068Y191057D01*
X22392Y189949D01*
X20095Y188185D01*
X18332Y185888D01*
X17223Y183212D01*
X16845Y180340D01*
X17223Y177468D01*
X18332Y174792D01*
X20095Y172495D01*
X22392Y170732D01*
X25068Y169623D01*
X27940Y169245D01*
X30812Y169623D01*
X33487Y170732D01*
X35785Y172495D01*
X37548Y174792D01*
X38657Y177468D01*
X39035Y180340D01*
X38657Y183212D01*
X37548Y185888D01*
X35785Y188185D01*
X33488Y189949D01*
X30812Y191057D01*
X27940Y191435D01*
D02*
G37*
G36*
X671830Y179598D02*
X669684Y179171D01*
X667865Y177955D01*
X666649Y176136D01*
X666222Y173990D01*
X666649Y171844D01*
X667865Y170025D01*
X669684Y168809D01*
X671830Y168382D01*
X673976Y168809D01*
X675795Y170025D01*
X677011Y171844D01*
X677438Y173990D01*
X677011Y176136D01*
X675795Y177955D01*
X673976Y179171D01*
X671830Y179598D01*
D02*
G37*
G36*
X540000Y165608D02*
X537854Y165181D01*
X536035Y163965D01*
X534819Y162146D01*
X534392Y160000D01*
X534819Y157854D01*
X536035Y156035D01*
X537854Y154819D01*
X540000Y154392D01*
X542146Y154819D01*
X543965Y156035D01*
X545181Y157854D01*
X545608Y160000D01*
X545181Y162146D01*
X543965Y163965D01*
X542146Y165181D01*
X540000Y165608D01*
D02*
G37*
G36*
X500000D02*
X497854Y165181D01*
X496035Y163965D01*
X494819Y162146D01*
X494392Y160000D01*
X494819Y157854D01*
X496035Y156035D01*
X497854Y154819D01*
X500000Y154392D01*
X502146Y154819D01*
X503965Y156035D01*
X505181Y157854D01*
X505608Y160000D01*
X505181Y162146D01*
X503965Y163965D01*
X502146Y165181D01*
X500000Y165608D01*
D02*
G37*
G36*
X380000D02*
X377854Y165181D01*
X376035Y163965D01*
X374819Y162146D01*
X374392Y160000D01*
X374819Y157854D01*
X376035Y156035D01*
X377854Y154819D01*
X380000Y154392D01*
X382146Y154819D01*
X383965Y156035D01*
X385181Y157854D01*
X385608Y160000D01*
X385181Y162146D01*
X383965Y163965D01*
X382146Y165181D01*
X380000Y165608D01*
D02*
G37*
G36*
X340000D02*
X337854Y165181D01*
X336035Y163965D01*
X334819Y162146D01*
X334392Y160000D01*
X334819Y157854D01*
X336035Y156035D01*
X337854Y154819D01*
X340000Y154392D01*
X342146Y154819D01*
X343965Y156035D01*
X345181Y157854D01*
X345608Y160000D01*
X345181Y162146D01*
X343965Y163965D01*
X342146Y165181D01*
X340000Y165608D01*
D02*
G37*
G36*
X220000D02*
X217854Y165181D01*
X216035Y163965D01*
X214819Y162146D01*
X214392Y160000D01*
X214819Y157854D01*
X216035Y156035D01*
X217854Y154819D01*
X220000Y154392D01*
X222146Y154819D01*
X223965Y156035D01*
X225181Y157854D01*
X225608Y160000D01*
X225181Y162146D01*
X223965Y163965D01*
X222146Y165181D01*
X220000Y165608D01*
D02*
G37*
G36*
X140000D02*
X137854Y165181D01*
X136035Y163965D01*
X134819Y162146D01*
X134392Y160000D01*
X134819Y157854D01*
X136035Y156035D01*
X137854Y154819D01*
X140000Y154392D01*
X142146Y154819D01*
X143965Y156035D01*
X145181Y157854D01*
X145608Y160000D01*
X145181Y162146D01*
X143965Y163965D01*
X142146Y165181D01*
X140000Y165608D01*
D02*
G37*
G36*
X971550Y172142D02*
X969070Y171815D01*
X966759Y170858D01*
X964774Y169335D01*
X963252Y167351D01*
X962294Y165040D01*
X961968Y162560D01*
X962294Y160080D01*
X963252Y157769D01*
X964774Y155785D01*
X966759Y154262D01*
X969070Y153305D01*
X971550Y152978D01*
X974030Y153305D01*
X976341Y154262D01*
X978325Y155785D01*
X979848Y157769D01*
X980806Y160080D01*
X981132Y162560D01*
X980806Y165040D01*
X979848Y167351D01*
X978325Y169335D01*
X976341Y170858D01*
X974030Y171815D01*
X971550Y172142D01*
D02*
G37*
G36*
X946150D02*
X943670Y171815D01*
X941359Y170858D01*
X939375Y169335D01*
X937852Y167351D01*
X936895Y165040D01*
X936568Y162560D01*
X936895Y160080D01*
X937852Y157769D01*
X939375Y155785D01*
X941359Y154262D01*
X943670Y153305D01*
X946150Y152978D01*
X948630Y153305D01*
X950941Y154262D01*
X952925Y155785D01*
X954448Y157769D01*
X955406Y160080D01*
X955732Y162560D01*
X955406Y165040D01*
X954448Y167351D01*
X952925Y169335D01*
X950941Y170858D01*
X948630Y171815D01*
X946150Y172142D01*
D02*
G37*
G36*
X283210Y149118D02*
X281064Y148691D01*
X279245Y147475D01*
X278029Y145656D01*
X277602Y143510D01*
X278029Y141364D01*
X279245Y139545D01*
X281064Y138329D01*
X283210Y137902D01*
X285356Y138329D01*
X287175Y139545D01*
X288391Y141364D01*
X288818Y143510D01*
X288391Y145656D01*
X287175Y147475D01*
X285356Y148691D01*
X283210Y149118D01*
D02*
G37*
G36*
X971550Y146742D02*
X969070Y146416D01*
X966759Y145458D01*
X964774Y143935D01*
X963252Y141951D01*
X962294Y139640D01*
X961968Y137160D01*
X962294Y134680D01*
X963252Y132369D01*
X964774Y130385D01*
X966759Y128862D01*
X969070Y127905D01*
X971550Y127578D01*
X974030Y127905D01*
X976341Y128862D01*
X978325Y130385D01*
X979848Y132369D01*
X980806Y134680D01*
X981132Y137160D01*
X980806Y139640D01*
X979848Y141951D01*
X978325Y143935D01*
X976341Y145458D01*
X974030Y146416D01*
X971550Y146742D01*
D02*
G37*
G36*
X779780Y132608D02*
X777634Y132181D01*
X775815Y130965D01*
X774599Y129146D01*
X774172Y127000D01*
X774599Y124854D01*
X775815Y123035D01*
X777634Y121819D01*
X779780Y121392D01*
X781926Y121819D01*
X783745Y123035D01*
X784961Y124854D01*
X785388Y127000D01*
X784961Y129146D01*
X783745Y130965D01*
X781926Y132181D01*
X779780Y132608D01*
D02*
G37*
G36*
X32440Y140596D02*
X23440D01*
X21743Y140373D01*
X20162Y139718D01*
X18804Y138676D01*
X17762Y137318D01*
X17107Y135737D01*
X16884Y134040D01*
Y125040D01*
X17107Y123343D01*
X17762Y121762D01*
X18804Y120404D01*
X20162Y119362D01*
X21743Y118707D01*
X23440Y118484D01*
X32440D01*
X34137Y118707D01*
X35718Y119362D01*
X37076Y120404D01*
X38118Y121762D01*
X38773Y123343D01*
X38996Y125040D01*
Y134040D01*
X38773Y135737D01*
X38118Y137318D01*
X37076Y138676D01*
X35718Y139718D01*
X34137Y140373D01*
X32440Y140596D01*
D02*
G37*
G36*
X792480Y128798D02*
X790334Y128371D01*
X788515Y127155D01*
X787299Y125336D01*
X786872Y123190D01*
X787299Y121044D01*
X788515Y119225D01*
X790334Y118009D01*
X792480Y117582D01*
X794626Y118009D01*
X796445Y119225D01*
X797661Y121044D01*
X798088Y123190D01*
X797661Y125336D01*
X796445Y127155D01*
X794626Y128371D01*
X792480Y128798D01*
D02*
G37*
G36*
X960000Y125608D02*
X957854Y125181D01*
X956035Y123965D01*
X954819Y122146D01*
X954392Y120000D01*
X954819Y117854D01*
X956035Y116035D01*
X957854Y114819D01*
X960000Y114392D01*
X962146Y114819D01*
X963965Y116035D01*
X965181Y117854D01*
X965608Y120000D01*
X965181Y122146D01*
X963965Y123965D01*
X962146Y125181D01*
X960000Y125608D01*
D02*
G37*
G36*
X920000D02*
X917854Y125181D01*
X916035Y123965D01*
X914819Y122146D01*
X914392Y120000D01*
X914819Y117854D01*
X916035Y116035D01*
X917854Y114819D01*
X920000Y114392D01*
X922146Y114819D01*
X923965Y116035D01*
X925181Y117854D01*
X925608Y120000D01*
X925181Y122146D01*
X923965Y123965D01*
X922146Y125181D01*
X920000Y125608D01*
D02*
G37*
G36*
X840000D02*
X837854Y125181D01*
X836035Y123965D01*
X834819Y122146D01*
X834392Y120000D01*
X834819Y117854D01*
X836035Y116035D01*
X837854Y114819D01*
X840000Y114392D01*
X842146Y114819D01*
X843965Y116035D01*
X845181Y117854D01*
X845608Y120000D01*
X845181Y122146D01*
X843965Y123965D01*
X842146Y125181D01*
X840000Y125608D01*
D02*
G37*
G36*
X520000D02*
X517854Y125181D01*
X516035Y123965D01*
X514819Y122146D01*
X514392Y120000D01*
X514819Y117854D01*
X516035Y116035D01*
X517854Y114819D01*
X520000Y114392D01*
X522146Y114819D01*
X523965Y116035D01*
X525181Y117854D01*
X525608Y120000D01*
X525181Y122146D01*
X523965Y123965D01*
X522146Y125181D01*
X520000Y125608D01*
D02*
G37*
G36*
X480000D02*
X477854Y125181D01*
X476035Y123965D01*
X474819Y122146D01*
X474392Y120000D01*
X474819Y117854D01*
X476035Y116035D01*
X477854Y114819D01*
X480000Y114392D01*
X482146Y114819D01*
X483965Y116035D01*
X485181Y117854D01*
X485608Y120000D01*
X485181Y122146D01*
X483965Y123965D01*
X482146Y125181D01*
X480000Y125608D01*
D02*
G37*
G36*
X440000D02*
X437854Y125181D01*
X436035Y123965D01*
X434819Y122146D01*
X434392Y120000D01*
X434819Y117854D01*
X436035Y116035D01*
X437854Y114819D01*
X440000Y114392D01*
X442146Y114819D01*
X443965Y116035D01*
X445181Y117854D01*
X445608Y120000D01*
X445181Y122146D01*
X443965Y123965D01*
X442146Y125181D01*
X440000Y125608D01*
D02*
G37*
G36*
X320000D02*
X317854Y125181D01*
X316035Y123965D01*
X314819Y122146D01*
X314392Y120000D01*
X314819Y117854D01*
X316035Y116035D01*
X317854Y114819D01*
X320000Y114392D01*
X322146Y114819D01*
X323965Y116035D01*
X325181Y117854D01*
X325608Y120000D01*
X325181Y122146D01*
X323965Y123965D01*
X322146Y125181D01*
X320000Y125608D01*
D02*
G37*
G36*
X280000D02*
X277854Y125181D01*
X276035Y123965D01*
X274819Y122146D01*
X274392Y120000D01*
X274819Y117854D01*
X276035Y116035D01*
X277854Y114819D01*
X280000Y114392D01*
X282146Y114819D01*
X283965Y116035D01*
X285181Y117854D01*
X285608Y120000D01*
X285181Y122146D01*
X283965Y123965D01*
X282146Y125181D01*
X280000Y125608D01*
D02*
G37*
G36*
X240000D02*
X237854Y125181D01*
X236035Y123965D01*
X234819Y122146D01*
X234392Y120000D01*
X234819Y117854D01*
X236035Y116035D01*
X237854Y114819D01*
X240000Y114392D01*
X242146Y114819D01*
X243965Y116035D01*
X245181Y117854D01*
X245608Y120000D01*
X245181Y122146D01*
X243965Y123965D01*
X242146Y125181D01*
X240000Y125608D01*
D02*
G37*
G36*
X200000D02*
X197854Y125181D01*
X196035Y123965D01*
X194819Y122146D01*
X194392Y120000D01*
X194819Y117854D01*
X196035Y116035D01*
X197854Y114819D01*
X200000Y114392D01*
X202146Y114819D01*
X203965Y116035D01*
X205181Y117854D01*
X205608Y120000D01*
X205181Y122146D01*
X203965Y123965D01*
X202146Y125181D01*
X200000Y125608D01*
D02*
G37*
G36*
X120000D02*
X117854Y125181D01*
X116035Y123965D01*
X114819Y122146D01*
X114392Y120000D01*
X114819Y117854D01*
X116035Y116035D01*
X117854Y114819D01*
X120000Y114392D01*
X122146Y114819D01*
X123965Y116035D01*
X125181Y117854D01*
X125608Y120000D01*
X125181Y122146D01*
X123965Y123965D01*
X122146Y125181D01*
X120000Y125608D01*
D02*
G37*
G36*
X80000D02*
X77854Y125181D01*
X76035Y123965D01*
X74819Y122146D01*
X74392Y120000D01*
X74819Y117854D01*
X76035Y116035D01*
X77854Y114819D01*
X80000Y114392D01*
X82146Y114819D01*
X83965Y116035D01*
X85181Y117854D01*
X85608Y120000D01*
X85181Y122146D01*
X83965Y123965D01*
X82146Y125181D01*
X80000Y125608D01*
D02*
G37*
G36*
X889000Y121178D02*
X886854Y120751D01*
X885035Y119535D01*
X883819Y117716D01*
X883392Y115570D01*
X883819Y113424D01*
X885035Y111605D01*
X886854Y110389D01*
X889000Y109962D01*
X891146Y110389D01*
X892965Y111605D01*
X894181Y113424D01*
X894608Y115570D01*
X894181Y117716D01*
X892965Y119535D01*
X891146Y120751D01*
X889000Y121178D01*
D02*
G37*
G36*
X262890Y109748D02*
X260744Y109321D01*
X258925Y108105D01*
X257709Y106286D01*
X257282Y104140D01*
X257709Y101994D01*
X258925Y100175D01*
X260744Y98959D01*
X262890Y98532D01*
X265036Y98959D01*
X266855Y100175D01*
X268071Y101994D01*
X268498Y104140D01*
X268071Y106286D01*
X266855Y108105D01*
X265036Y109321D01*
X262890Y109748D01*
D02*
G37*
G36*
X400000Y125608D02*
X397854Y125181D01*
X396035Y123965D01*
X394819Y122146D01*
X394392Y120000D01*
X394819Y117854D01*
X396035Y116035D01*
X397854Y114819D01*
X398204Y114749D01*
X398162Y113463D01*
X396933Y113301D01*
X394960Y112484D01*
X393266Y111184D01*
X391966Y109490D01*
X391149Y107517D01*
X390870Y105400D01*
X391149Y103283D01*
X391966Y101310D01*
X393266Y99616D01*
X394960Y98316D01*
X396933Y97499D01*
X399050Y97220D01*
X401167Y97499D01*
X403140Y98316D01*
X404834Y99616D01*
X406134Y101310D01*
X406951Y103283D01*
X407230Y105400D01*
X406951Y107517D01*
X406134Y109490D01*
X404834Y111184D01*
X403140Y112484D01*
X401167Y113301D01*
X401082Y113313D01*
X401039Y114599D01*
X402146Y114819D01*
X403965Y116035D01*
X405181Y117854D01*
X405608Y120000D01*
X405181Y122146D01*
X403965Y123965D01*
X402146Y125181D01*
X400000Y125608D01*
D02*
G37*
G36*
X309000Y113580D02*
X306883Y113301D01*
X304910Y112484D01*
X303216Y111184D01*
X301916Y109490D01*
X301099Y107517D01*
X300820Y105400D01*
X301099Y103283D01*
X301916Y101310D01*
X303216Y99616D01*
X304910Y98316D01*
X306883Y97499D01*
X309000Y97220D01*
X311117Y97499D01*
X313090Y98316D01*
X314784Y99616D01*
X316084Y101310D01*
X316901Y103283D01*
X317180Y105400D01*
X316901Y107517D01*
X316084Y109490D01*
X314784Y111184D01*
X313090Y112484D01*
X311117Y113301D01*
X309000Y113580D01*
D02*
G37*
G36*
X219000D02*
X216883Y113301D01*
X214910Y112484D01*
X213216Y111184D01*
X211916Y109490D01*
X211099Y107517D01*
X210820Y105400D01*
X211099Y103283D01*
X211916Y101310D01*
X213216Y99616D01*
X214910Y98316D01*
X216883Y97499D01*
X219000Y97220D01*
X221117Y97499D01*
X223090Y98316D01*
X224784Y99616D01*
X226084Y101310D01*
X226901Y103283D01*
X227180Y105400D01*
X226901Y107517D01*
X226084Y109490D01*
X224784Y111184D01*
X223090Y112484D01*
X221117Y113301D01*
X219000Y113580D01*
D02*
G37*
G36*
X787400Y104668D02*
X785254Y104241D01*
X783435Y103025D01*
X782219Y101206D01*
X781792Y99060D01*
X782219Y96914D01*
X783435Y95095D01*
X785254Y93879D01*
X787400Y93452D01*
X789546Y93879D01*
X791365Y95095D01*
X792581Y96914D01*
X793008Y99060D01*
X792581Y101206D01*
X791365Y103025D01*
X789546Y104241D01*
X787400Y104668D01*
D02*
G37*
G36*
X193600Y88180D02*
X191483Y87901D01*
X189510Y87084D01*
X187816Y85784D01*
X186516Y84090D01*
X186092Y83068D01*
X184659Y82927D01*
X183965Y83965D01*
X182146Y85181D01*
X180000Y85608D01*
X177854Y85181D01*
X176035Y83965D01*
X174819Y82146D01*
X174392Y80000D01*
X174819Y77854D01*
X176035Y76035D01*
X177854Y74819D01*
X180000Y74392D01*
X182146Y74819D01*
X183965Y76035D01*
X184659Y77073D01*
X186092Y76932D01*
X186516Y75910D01*
X187816Y74216D01*
X189510Y72916D01*
X191483Y72099D01*
X193600Y71820D01*
X195717Y72099D01*
X197690Y72916D01*
X199384Y74216D01*
X200684Y75910D01*
X201501Y77883D01*
X201780Y80000D01*
X201501Y82117D01*
X200684Y84090D01*
X199384Y85784D01*
X197690Y87084D01*
X195717Y87901D01*
X193600Y88180D01*
D02*
G37*
G36*
X950000Y87114D02*
X944194Y86657D01*
X938531Y85298D01*
X933150Y83069D01*
X928185Y80026D01*
X923756Y76244D01*
X919974Y71815D01*
X916931Y66850D01*
X914702Y61469D01*
X913343Y55806D01*
X912886Y50000D01*
X913343Y44194D01*
X914702Y38531D01*
X916931Y33150D01*
X919974Y28185D01*
X923756Y23756D01*
X928185Y19974D01*
X933150Y16931D01*
X938531Y14702D01*
X944194Y13343D01*
X950000Y12886D01*
X955806Y13343D01*
X961469Y14702D01*
X966850Y16931D01*
X971815Y19974D01*
X976244Y23756D01*
X980026Y28185D01*
X983069Y33150D01*
X985298Y38531D01*
X986657Y44194D01*
X987114Y50000D01*
X986657Y55806D01*
X985298Y61469D01*
X983069Y66850D01*
X980026Y71815D01*
X978712Y73353D01*
X979392Y74513D01*
X980000Y74392D01*
X982146Y74819D01*
X983965Y76035D01*
X985181Y77854D01*
X985608Y80000D01*
X985181Y82146D01*
X983965Y83965D01*
X982146Y85181D01*
X980000Y85608D01*
X977854Y85181D01*
X976035Y83965D01*
X974819Y82146D01*
X974392Y80000D01*
X974513Y79392D01*
X973353Y78713D01*
X971815Y80026D01*
X966850Y83069D01*
X961469Y85298D01*
X955806Y86657D01*
X950000Y87114D01*
D02*
G37*
G36*
X900000Y85608D02*
X897854Y85181D01*
X896035Y83965D01*
X894819Y82146D01*
X894392Y80000D01*
X894819Y77854D01*
X896035Y76035D01*
X897854Y74819D01*
X900000Y74392D01*
X902146Y74819D01*
X903965Y76035D01*
X905181Y77854D01*
X905608Y80000D01*
X905181Y82146D01*
X903965Y83965D01*
X902146Y85181D01*
X900000Y85608D01*
D02*
G37*
G36*
X860000D02*
X857854Y85181D01*
X856035Y83965D01*
X854819Y82146D01*
X854392Y80000D01*
X854819Y77854D01*
X856035Y76035D01*
X857854Y74819D01*
X860000Y74392D01*
X862146Y74819D01*
X863965Y76035D01*
X865181Y77854D01*
X865608Y80000D01*
X865181Y82146D01*
X863965Y83965D01*
X862146Y85181D01*
X860000Y85608D01*
D02*
G37*
G36*
X820000D02*
X817854Y85181D01*
X816035Y83965D01*
X814819Y82146D01*
X814392Y80000D01*
X814819Y77854D01*
X816035Y76035D01*
X817854Y74819D01*
X820000Y74392D01*
X822146Y74819D01*
X823965Y76035D01*
X825181Y77854D01*
X825608Y80000D01*
X825181Y82146D01*
X823965Y83965D01*
X822146Y85181D01*
X820000Y85608D01*
D02*
G37*
G36*
X780000D02*
X777854Y85181D01*
X776035Y83965D01*
X774819Y82146D01*
X774392Y80000D01*
X774819Y77854D01*
X776035Y76035D01*
X777854Y74819D01*
X780000Y74392D01*
X782146Y74819D01*
X783965Y76035D01*
X785181Y77854D01*
X785608Y80000D01*
X785181Y82146D01*
X783965Y83965D01*
X782146Y85181D01*
X780000Y85608D01*
D02*
G37*
G36*
X700000D02*
X697854Y85181D01*
X696035Y83965D01*
X694819Y82146D01*
X694392Y80000D01*
X694819Y77854D01*
X696035Y76035D01*
X697854Y74819D01*
X700000Y74392D01*
X702146Y74819D01*
X703965Y76035D01*
X705181Y77854D01*
X705608Y80000D01*
X705181Y82146D01*
X703965Y83965D01*
X702146Y85181D01*
X700000Y85608D01*
D02*
G37*
G36*
X580000D02*
X577854Y85181D01*
X576035Y83965D01*
X574819Y82146D01*
X574392Y80000D01*
X574819Y77854D01*
X576035Y76035D01*
X577854Y74819D01*
X580000Y74392D01*
X582146Y74819D01*
X583965Y76035D01*
X585181Y77854D01*
X585608Y80000D01*
X585181Y82146D01*
X583965Y83965D01*
X582146Y85181D01*
X580000Y85608D01*
D02*
G37*
G36*
X540000D02*
X537854Y85181D01*
X536035Y83965D01*
X534819Y82146D01*
X534392Y80000D01*
X534819Y77854D01*
X536035Y76035D01*
X537854Y74819D01*
X540000Y74392D01*
X542146Y74819D01*
X543965Y76035D01*
X545181Y77854D01*
X545608Y80000D01*
X545181Y82146D01*
X543965Y83965D01*
X542146Y85181D01*
X540000Y85608D01*
D02*
G37*
G36*
X300000D02*
X297854Y85181D01*
X296035Y83965D01*
X294819Y82146D01*
X294392Y80000D01*
X294819Y77854D01*
X296035Y76035D01*
X297854Y74819D01*
X300000Y74392D01*
X302146Y74819D01*
X303965Y76035D01*
X305181Y77854D01*
X305608Y80000D01*
X305181Y82146D01*
X303965Y83965D01*
X302146Y85181D01*
X300000Y85608D01*
D02*
G37*
G36*
X424450Y88180D02*
X422333Y87901D01*
X420360Y87084D01*
X418666Y85784D01*
X417366Y84090D01*
X416549Y82117D01*
X416270Y80000D01*
X416549Y77883D01*
X417366Y75910D01*
X418666Y74216D01*
X420360Y72916D01*
X422333Y72099D01*
X424450Y71820D01*
X426567Y72099D01*
X428540Y72916D01*
X430234Y74216D01*
X431534Y75910D01*
X432351Y77883D01*
X432630Y80000D01*
X432351Y82117D01*
X431534Y84090D01*
X430234Y85784D01*
X428540Y87084D01*
X426567Y87901D01*
X424450Y88180D01*
D02*
G37*
G36*
X373650D02*
X371533Y87901D01*
X369560Y87084D01*
X367866Y85784D01*
X366566Y84090D01*
X365749Y82117D01*
X365470Y80000D01*
X365749Y77883D01*
X366566Y75910D01*
X367866Y74216D01*
X369560Y72916D01*
X371533Y72099D01*
X373650Y71820D01*
X375767Y72099D01*
X377740Y72916D01*
X379434Y74216D01*
X380734Y75910D01*
X381551Y77883D01*
X381830Y80000D01*
X381551Y82117D01*
X380734Y84090D01*
X379434Y85784D01*
X377740Y87084D01*
X375767Y87901D01*
X373650Y88180D01*
D02*
G37*
G36*
X283600D02*
X281483Y87901D01*
X279510Y87084D01*
X277816Y85784D01*
X276516Y84090D01*
X275699Y82117D01*
X275420Y80000D01*
X275699Y77883D01*
X276516Y75910D01*
X277816Y74216D01*
X279510Y72916D01*
X281483Y72099D01*
X283600Y71820D01*
X285717Y72099D01*
X287690Y72916D01*
X289384Y74216D01*
X290684Y75910D01*
X291501Y77883D01*
X291780Y80000D01*
X291501Y82117D01*
X290684Y84090D01*
X289384Y85784D01*
X287690Y87084D01*
X285717Y87901D01*
X283600Y88180D01*
D02*
G37*
G36*
X571500Y56673D02*
X568994Y56343D01*
X566659Y55376D01*
X564653Y53837D01*
X563114Y51831D01*
X562147Y49496D01*
X561817Y46990D01*
X561911Y46280D01*
X560984Y45412D01*
X560000Y45608D01*
X557854Y45181D01*
X556726Y44427D01*
X555542Y45164D01*
X555783Y46990D01*
X555453Y49496D01*
X554486Y51831D01*
X552947Y53837D01*
X550941Y55376D01*
X548606Y56343D01*
X546100Y56673D01*
X543594Y56343D01*
X541259Y55376D01*
X539253Y53837D01*
X537714Y51831D01*
X536747Y49496D01*
X536417Y46990D01*
X536747Y44484D01*
X537714Y42149D01*
X539253Y40143D01*
X541259Y38604D01*
X543594Y37637D01*
X546100Y37307D01*
X548606Y37637D01*
X550941Y38604D01*
X552947Y40143D01*
X553189Y40458D01*
X554226Y40063D01*
X554402Y39953D01*
X554819Y37854D01*
X556035Y36035D01*
X557854Y34819D01*
X560000Y34392D01*
X562146Y34819D01*
X563965Y36035D01*
X565181Y37854D01*
X565271Y38310D01*
X566460Y38757D01*
X566659Y38604D01*
X568994Y37637D01*
X571500Y37307D01*
X574006Y37637D01*
X576341Y38604D01*
X578347Y40143D01*
X579886Y42149D01*
X580853Y44484D01*
X581183Y46990D01*
X580853Y49496D01*
X579886Y51831D01*
X578347Y53837D01*
X576341Y55376D01*
X574006Y56343D01*
X571500Y56673D01*
D02*
G37*
G36*
X499100Y56704D02*
X491500D01*
X489237Y56253D01*
X487318Y54972D01*
X486036Y53053D01*
X485586Y50790D01*
Y43825D01*
X484316Y43440D01*
X483965Y43965D01*
X482146Y45181D01*
X480000Y45608D01*
X477854Y45181D01*
X476035Y43965D01*
X474819Y42146D01*
X474392Y40000D01*
X474819Y37854D01*
X476035Y36035D01*
X477854Y34819D01*
X480000Y34392D01*
X482146Y34819D01*
X483965Y36035D01*
X485181Y37854D01*
X485498Y39447D01*
X486846Y39715D01*
X487318Y39008D01*
X489237Y37727D01*
X491500Y37276D01*
X499100D01*
X501363Y37727D01*
X503282Y39008D01*
X504563Y40927D01*
X505014Y43190D01*
Y50790D01*
X504563Y53053D01*
X503282Y54972D01*
X501363Y56253D01*
X499100Y56704D01*
D02*
G37*
G36*
X876300Y56673D02*
X873794Y56343D01*
X871459Y55376D01*
X869453Y53837D01*
X867914Y51831D01*
X866947Y49496D01*
X866617Y46990D01*
X866947Y44484D01*
X867914Y42149D01*
X869453Y40143D01*
X871459Y38604D01*
X873794Y37637D01*
X876300Y37307D01*
X878806Y37637D01*
X881141Y38604D01*
X883147Y40143D01*
X884686Y42149D01*
X885653Y44484D01*
X885983Y46990D01*
X885653Y49496D01*
X884686Y51831D01*
X883147Y53837D01*
X881141Y55376D01*
X878806Y56343D01*
X876300Y56673D01*
D02*
G37*
G36*
X850900D02*
X848394Y56343D01*
X846059Y55376D01*
X844053Y53837D01*
X842514Y51831D01*
X841547Y49496D01*
X841217Y46990D01*
X841547Y44484D01*
X842514Y42149D01*
X844053Y40143D01*
X846059Y38604D01*
X848394Y37637D01*
X850900Y37307D01*
X853406Y37637D01*
X855741Y38604D01*
X857747Y40143D01*
X859286Y42149D01*
X860253Y44484D01*
X860583Y46990D01*
X860253Y49496D01*
X859286Y51831D01*
X857747Y53837D01*
X855741Y55376D01*
X853406Y56343D01*
X850900Y56673D01*
D02*
G37*
G36*
X825500D02*
X822994Y56343D01*
X820659Y55376D01*
X818653Y53837D01*
X817114Y51831D01*
X816147Y49496D01*
X815817Y46990D01*
X816147Y44484D01*
X817114Y42149D01*
X818653Y40143D01*
X820659Y38604D01*
X822994Y37637D01*
X825500Y37307D01*
X828006Y37637D01*
X830341Y38604D01*
X832347Y40143D01*
X833886Y42149D01*
X834853Y44484D01*
X835183Y46990D01*
X834853Y49496D01*
X833886Y51831D01*
X832347Y53837D01*
X830341Y55376D01*
X828006Y56343D01*
X825500Y56673D01*
D02*
G37*
G36*
X800100D02*
X797594Y56343D01*
X795259Y55376D01*
X793253Y53837D01*
X791714Y51831D01*
X790747Y49496D01*
X790417Y46990D01*
X790747Y44484D01*
X791714Y42149D01*
X793253Y40143D01*
X795259Y38604D01*
X797594Y37637D01*
X800100Y37307D01*
X802606Y37637D01*
X804941Y38604D01*
X806947Y40143D01*
X808486Y42149D01*
X809453Y44484D01*
X809783Y46990D01*
X809453Y49496D01*
X808486Y51831D01*
X806947Y53837D01*
X804941Y55376D01*
X802606Y56343D01*
X800100Y56673D01*
D02*
G37*
G36*
X774700D02*
X772194Y56343D01*
X769859Y55376D01*
X767853Y53837D01*
X766314Y51831D01*
X765347Y49496D01*
X765017Y46990D01*
X765347Y44484D01*
X766314Y42149D01*
X767853Y40143D01*
X769859Y38604D01*
X772194Y37637D01*
X774700Y37307D01*
X777206Y37637D01*
X779541Y38604D01*
X781547Y40143D01*
X783086Y42149D01*
X784053Y44484D01*
X784383Y46990D01*
X784053Y49496D01*
X783086Y51831D01*
X781547Y53837D01*
X779541Y55376D01*
X777206Y56343D01*
X774700Y56673D01*
D02*
G37*
G36*
X749300D02*
X746794Y56343D01*
X744459Y55376D01*
X742453Y53837D01*
X740914Y51831D01*
X739947Y49496D01*
X739617Y46990D01*
X739947Y44484D01*
X740914Y42149D01*
X742453Y40143D01*
X744459Y38604D01*
X746794Y37637D01*
X749300Y37307D01*
X751806Y37637D01*
X754141Y38604D01*
X756147Y40143D01*
X757686Y42149D01*
X758653Y44484D01*
X758983Y46990D01*
X758653Y49496D01*
X757686Y51831D01*
X756147Y53837D01*
X754141Y55376D01*
X751806Y56343D01*
X749300Y56673D01*
D02*
G37*
G36*
X723900D02*
X721394Y56343D01*
X719059Y55376D01*
X717053Y53837D01*
X715514Y51831D01*
X714547Y49496D01*
X714217Y46990D01*
X714547Y44484D01*
X715514Y42149D01*
X717053Y40143D01*
X719059Y38604D01*
X721394Y37637D01*
X723900Y37307D01*
X726406Y37637D01*
X728741Y38604D01*
X730747Y40143D01*
X732286Y42149D01*
X733253Y44484D01*
X733583Y46990D01*
X733253Y49496D01*
X732286Y51831D01*
X730747Y53837D01*
X728741Y55376D01*
X726406Y56343D01*
X723900Y56673D01*
D02*
G37*
G36*
X698500D02*
X695994Y56343D01*
X693659Y55376D01*
X691653Y53837D01*
X690114Y51831D01*
X689147Y49496D01*
X688817Y46990D01*
X689147Y44484D01*
X690114Y42149D01*
X691653Y40143D01*
X693659Y38604D01*
X695994Y37637D01*
X698500Y37307D01*
X701006Y37637D01*
X703341Y38604D01*
X705347Y40143D01*
X706886Y42149D01*
X707853Y44484D01*
X708183Y46990D01*
X707853Y49496D01*
X706886Y51831D01*
X705347Y53837D01*
X703341Y55376D01*
X701006Y56343D01*
X698500Y56673D01*
D02*
G37*
G36*
X673100D02*
X670594Y56343D01*
X668259Y55376D01*
X666253Y53837D01*
X664714Y51831D01*
X663747Y49496D01*
X663417Y46990D01*
X663747Y44484D01*
X664714Y42149D01*
X666253Y40143D01*
X668259Y38604D01*
X670594Y37637D01*
X673100Y37307D01*
X675606Y37637D01*
X677941Y38604D01*
X679947Y40143D01*
X681486Y42149D01*
X682453Y44484D01*
X682783Y46990D01*
X682453Y49496D01*
X681486Y51831D01*
X679947Y53837D01*
X677941Y55376D01*
X675606Y56343D01*
X673100Y56673D01*
D02*
G37*
G36*
X647700D02*
X645194Y56343D01*
X642859Y55376D01*
X640853Y53837D01*
X639314Y51831D01*
X638347Y49496D01*
X638017Y46990D01*
X638347Y44484D01*
X639314Y42149D01*
X640853Y40143D01*
X642859Y38604D01*
X645194Y37637D01*
X647700Y37307D01*
X650206Y37637D01*
X652541Y38604D01*
X654547Y40143D01*
X656086Y42149D01*
X657053Y44484D01*
X657383Y46990D01*
X657053Y49496D01*
X656086Y51831D01*
X654547Y53837D01*
X652541Y55376D01*
X650206Y56343D01*
X647700Y56673D01*
D02*
G37*
G36*
X622300D02*
X619794Y56343D01*
X617459Y55376D01*
X615453Y53837D01*
X613914Y51831D01*
X612947Y49496D01*
X612617Y46990D01*
X612947Y44484D01*
X613914Y42149D01*
X615453Y40143D01*
X617459Y38604D01*
X619794Y37637D01*
X622300Y37307D01*
X624806Y37637D01*
X627141Y38604D01*
X629147Y40143D01*
X630686Y42149D01*
X631653Y44484D01*
X631983Y46990D01*
X631653Y49496D01*
X630686Y51831D01*
X629147Y53837D01*
X627141Y55376D01*
X624806Y56343D01*
X622300Y56673D01*
D02*
G37*
G36*
X596900D02*
X594394Y56343D01*
X592059Y55376D01*
X590053Y53837D01*
X588514Y51831D01*
X587547Y49496D01*
X587217Y46990D01*
X587547Y44484D01*
X588514Y42149D01*
X590053Y40143D01*
X592059Y38604D01*
X594394Y37637D01*
X596900Y37307D01*
X599406Y37637D01*
X601741Y38604D01*
X603747Y40143D01*
X605286Y42149D01*
X606253Y44484D01*
X606583Y46990D01*
X606253Y49496D01*
X605286Y51831D01*
X603747Y53837D01*
X601741Y55376D01*
X599406Y56343D01*
X596900Y56673D01*
D02*
G37*
G36*
X520700D02*
X518194Y56343D01*
X515859Y55376D01*
X513853Y53837D01*
X512314Y51831D01*
X511347Y49496D01*
X511017Y46990D01*
X511347Y44484D01*
X512314Y42149D01*
X513853Y40143D01*
X515859Y38604D01*
X518194Y37637D01*
X520700Y37307D01*
X523206Y37637D01*
X525541Y38604D01*
X527547Y40143D01*
X529086Y42149D01*
X530053Y44484D01*
X530383Y46990D01*
X530053Y49496D01*
X529086Y51831D01*
X527547Y53837D01*
X525541Y55376D01*
X523206Y56343D01*
X520700Y56673D01*
D02*
G37*
G36*
X440000Y45608D02*
X437854Y45181D01*
X436035Y43965D01*
X434819Y42146D01*
X434392Y40000D01*
X434819Y37854D01*
X436035Y36035D01*
X437854Y34819D01*
X440000Y34392D01*
X442146Y34819D01*
X443965Y36035D01*
X445181Y37854D01*
X445608Y40000D01*
X445181Y42146D01*
X443965Y43965D01*
X442146Y45181D01*
X440000Y45608D01*
D02*
G37*
G36*
X400000D02*
X397854Y45181D01*
X396035Y43965D01*
X394819Y42146D01*
X394392Y40000D01*
X394819Y37854D01*
X396035Y36035D01*
X397854Y34819D01*
X400000Y34392D01*
X402146Y34819D01*
X403965Y36035D01*
X405181Y37854D01*
X405608Y40000D01*
X405181Y42146D01*
X403965Y43965D01*
X402146Y45181D01*
X400000Y45608D01*
D02*
G37*
G36*
X160000D02*
X157854Y45181D01*
X156035Y43965D01*
X154819Y42146D01*
X154392Y40000D01*
X154819Y37854D01*
X156035Y36035D01*
X157854Y34819D01*
X160000Y34392D01*
X162146Y34819D01*
X163965Y36035D01*
X165181Y37854D01*
X165608Y40000D01*
X165181Y42146D01*
X163965Y43965D01*
X162146Y45181D01*
X160000Y45608D01*
D02*
G37*
G36*
X181610Y38628D02*
X179464Y38201D01*
X177645Y36985D01*
X176429Y35166D01*
X176002Y33020D01*
X176429Y30874D01*
X177645Y29055D01*
X179464Y27839D01*
X181610Y27412D01*
X183756Y27839D01*
X185575Y29055D01*
X186791Y30874D01*
X187218Y33020D01*
X186791Y35166D01*
X185575Y36985D01*
X183756Y38201D01*
X181610Y38628D01*
D02*
G37*
G36*
X50000Y87114D02*
X44194Y86657D01*
X38531Y85298D01*
X33150Y83069D01*
X28185Y80026D01*
X23756Y76244D01*
X19974Y71815D01*
X16931Y66850D01*
X14702Y61469D01*
X13343Y55806D01*
X12886Y50000D01*
X13343Y44194D01*
X14702Y38531D01*
X16931Y33150D01*
X19974Y28185D01*
X23756Y23756D01*
X28185Y19974D01*
X33150Y16931D01*
X38531Y14702D01*
X44194Y13342D01*
X50000Y12886D01*
X55806Y13342D01*
X61469Y14702D01*
X66850Y16931D01*
X71815Y19974D01*
X76244Y23756D01*
X80026Y28185D01*
X83069Y33150D01*
X85298Y38531D01*
X86657Y44194D01*
X87114Y50000D01*
X86657Y55806D01*
X85298Y61469D01*
X83069Y66850D01*
X80026Y71815D01*
X76244Y76244D01*
X71815Y80026D01*
X66850Y83069D01*
X61469Y85298D01*
X55806Y86657D01*
X50000Y87114D01*
D02*
G37*
%LPD*%
D87*
X876300Y46990D02*
D03*
X850900D02*
D03*
X825500D02*
D03*
X800100D02*
D03*
X749300D02*
D03*
X698500D02*
D03*
X673100D02*
D03*
X622300D02*
D03*
X596900D02*
D03*
X571500D02*
D03*
X520700D02*
D03*
X546100D02*
D03*
X647700D02*
D03*
X723900D02*
D03*
X774700D02*
D03*
D88*
X495300D02*
D03*
D89*
X972820Y454660D02*
D03*
Y480060D02*
D03*
X947420Y454660D02*
D03*
Y480060D02*
D03*
X972820Y505460D02*
D03*
X947420D02*
D03*
Y530860D02*
D03*
X946150Y213360D02*
D03*
Y187960D02*
D03*
X971550D02*
D03*
X946150Y162560D02*
D03*
Y137160D02*
D03*
X971550Y162560D02*
D03*
Y137160D02*
D03*
X323850Y624840D02*
D03*
X349250D02*
D03*
X298450D02*
D03*
D90*
X972820Y530860D02*
D03*
X971550Y213360D02*
D03*
D92*
X373650Y80000D02*
D03*
X399050Y105400D02*
D03*
X424450Y80000D02*
D03*
X244400D02*
D03*
X219000Y105400D02*
D03*
X193600Y80000D02*
D03*
X334400D02*
D03*
X309000Y105400D02*
D03*
X283600Y80000D02*
D03*
D93*
X27940Y279400D02*
D03*
Y322580D02*
D03*
D94*
X53340Y279400D02*
D03*
Y322580D02*
D03*
D95*
X36830Y401320D02*
D03*
Y426720D02*
D03*
X27940Y231140D02*
D03*
Y205740D02*
D03*
Y180340D02*
D03*
Y154940D02*
D03*
D97*
X938530Y289660D02*
D03*
Y365660D02*
D03*
D98*
X50000Y650000D02*
D03*
X950000Y650000D02*
D03*
X50000Y50000D02*
D03*
X950000Y50000D02*
D03*
D99*
X138250Y547370D02*
D03*
X80250D02*
D03*
D100*
X108250Y499370D02*
D03*
D101*
X27940Y129540D02*
D03*
D102*
X585470Y356870D02*
D03*
X960000Y600000D02*
D03*
X980000Y560000D02*
D03*
X960000Y520000D02*
D03*
Y440000D02*
D03*
X980000Y400000D02*
D03*
X960000Y360000D02*
D03*
X980000Y320000D02*
D03*
X960000Y280000D02*
D03*
X980000Y240000D02*
D03*
X960000Y120000D02*
D03*
X980000Y80000D02*
D03*
X920000Y680000D02*
D03*
Y600000D02*
D03*
X940000Y560000D02*
D03*
X920000Y520000D02*
D03*
X940000Y400000D02*
D03*
X920000Y360000D02*
D03*
X940000Y320000D02*
D03*
Y240000D02*
D03*
X920000Y200000D02*
D03*
Y120000D02*
D03*
X880000Y680000D02*
D03*
X900000Y640000D02*
D03*
X880000Y600000D02*
D03*
Y520000D02*
D03*
Y360000D02*
D03*
X900000Y320000D02*
D03*
X880000Y280000D02*
D03*
Y200000D02*
D03*
X900000Y80000D02*
D03*
X840000Y680000D02*
D03*
X860000Y640000D02*
D03*
X840000Y600000D02*
D03*
X860000Y560000D02*
D03*
X840000Y520000D02*
D03*
X860000Y320000D02*
D03*
Y240000D02*
D03*
X840000Y200000D02*
D03*
Y120000D02*
D03*
X860000Y80000D02*
D03*
X800000Y680000D02*
D03*
X820000Y640000D02*
D03*
X800000Y600000D02*
D03*
X820000Y560000D02*
D03*
X800000Y440000D02*
D03*
X820000Y320000D02*
D03*
X800000Y200000D02*
D03*
X820000Y80000D02*
D03*
X760000Y680000D02*
D03*
X780000Y640000D02*
D03*
X760000Y600000D02*
D03*
X780000Y560000D02*
D03*
X760000Y520000D02*
D03*
Y440000D02*
D03*
X780000Y80000D02*
D03*
X720000Y680000D02*
D03*
X740000Y640000D02*
D03*
X720000Y600000D02*
D03*
X740000Y560000D02*
D03*
Y320000D02*
D03*
X680000Y680000D02*
D03*
X700000Y640000D02*
D03*
X680000Y600000D02*
D03*
X700000Y320000D02*
D03*
Y80000D02*
D03*
X640000Y680000D02*
D03*
X660000Y640000D02*
D03*
X640000Y600000D02*
D03*
Y520000D02*
D03*
Y440000D02*
D03*
X660000Y320000D02*
D03*
X600000Y680000D02*
D03*
X620000Y640000D02*
D03*
X600000Y600000D02*
D03*
Y520000D02*
D03*
X560000Y680000D02*
D03*
X580000Y640000D02*
D03*
X560000Y600000D02*
D03*
Y520000D02*
D03*
X580000Y480000D02*
D03*
X560000Y440000D02*
D03*
X580000Y400000D02*
D03*
Y80000D02*
D03*
X560000Y40000D02*
D03*
X520000Y680000D02*
D03*
X540000Y640000D02*
D03*
X520000Y600000D02*
D03*
X540000Y160000D02*
D03*
X520000Y120000D02*
D03*
X540000Y80000D02*
D03*
X480000Y680000D02*
D03*
X500000Y640000D02*
D03*
X480000Y600000D02*
D03*
Y520000D02*
D03*
Y440000D02*
D03*
X500000Y400000D02*
D03*
X480000Y360000D02*
D03*
Y200000D02*
D03*
X500000Y160000D02*
D03*
X480000Y120000D02*
D03*
Y40000D02*
D03*
X440000Y680000D02*
D03*
X460000Y640000D02*
D03*
X440000Y520000D02*
D03*
X460000Y480000D02*
D03*
X440000Y440000D02*
D03*
X460000Y400000D02*
D03*
Y320000D02*
D03*
X440000Y120000D02*
D03*
Y40000D02*
D03*
X400000Y680000D02*
D03*
Y520000D02*
D03*
X420000Y480000D02*
D03*
X400000Y440000D02*
D03*
Y360000D02*
D03*
Y120000D02*
D03*
Y40000D02*
D03*
X360000Y680000D02*
D03*
X380000Y640000D02*
D03*
X360000Y600000D02*
D03*
X380000Y480000D02*
D03*
Y320000D02*
D03*
X360000Y280000D02*
D03*
X380000Y240000D02*
D03*
Y160000D02*
D03*
X320000Y680000D02*
D03*
X340000Y640000D02*
D03*
X320000Y600000D02*
D03*
X340000Y480000D02*
D03*
Y400000D02*
D03*
Y320000D02*
D03*
Y160000D02*
D03*
X320000Y120000D02*
D03*
X280000Y680000D02*
D03*
X300000Y640000D02*
D03*
X280000Y600000D02*
D03*
X300000Y480000D02*
D03*
X280000Y440000D02*
D03*
X300000Y400000D02*
D03*
X280000Y360000D02*
D03*
X300000Y320000D02*
D03*
X280000Y120000D02*
D03*
X300000Y80000D02*
D03*
X240000Y680000D02*
D03*
X260000Y640000D02*
D03*
X240000Y600000D02*
D03*
Y440000D02*
D03*
Y360000D02*
D03*
X260000Y320000D02*
D03*
X240000Y120000D02*
D03*
X200000Y680000D02*
D03*
X220000Y640000D02*
D03*
X200000Y520000D02*
D03*
X220000Y480000D02*
D03*
X200000Y440000D02*
D03*
X220000Y400000D02*
D03*
Y320000D02*
D03*
X200000Y280000D02*
D03*
X220000Y160000D02*
D03*
X200000Y120000D02*
D03*
X160000Y680000D02*
D03*
Y600000D02*
D03*
X180000Y480000D02*
D03*
X160000Y440000D02*
D03*
X180000Y320000D02*
D03*
X160000Y280000D02*
D03*
X180000Y240000D02*
D03*
X160000Y200000D02*
D03*
X180000Y80000D02*
D03*
X160000Y40000D02*
D03*
X120000Y680000D02*
D03*
Y600000D02*
D03*
Y520000D02*
D03*
X140000Y480000D02*
D03*
X120000Y360000D02*
D03*
Y280000D02*
D03*
X140000Y240000D02*
D03*
X120000Y200000D02*
D03*
X140000Y160000D02*
D03*
X120000Y120000D02*
D03*
X80000Y680000D02*
D03*
X100000Y640000D02*
D03*
X80000Y600000D02*
D03*
X100000Y560000D02*
D03*
X80000Y520000D02*
D03*
X100000Y480000D02*
D03*
Y400000D02*
D03*
X80000Y360000D02*
D03*
Y280000D02*
D03*
Y200000D02*
D03*
Y120000D02*
D03*
X40000Y600000D02*
D03*
X60000Y560000D02*
D03*
X40000Y520000D02*
D03*
X60000Y480000D02*
D03*
Y400000D02*
D03*
X40000Y360000D02*
D03*
X619500Y247650D02*
D03*
X548640Y300990D02*
D03*
X568960Y299720D02*
D03*
X106680Y46990D02*
D03*
X670560Y135890D02*
D03*
X579120Y166370D02*
D03*
X218487Y213360D02*
D03*
X279400Y181610D02*
D03*
X181610Y33020D02*
D03*
X128270Y265430D02*
D03*
X494030Y261190D02*
D03*
X457200Y239420D02*
D03*
X132080Y294640D02*
D03*
X233680Y213360D02*
D03*
X494030Y234950D02*
D03*
Y247650D02*
D03*
X429260Y217170D02*
D03*
X426720Y207010D02*
D03*
X631190Y146050D02*
D03*
X426720Y628650D02*
D03*
X234950Y267970D02*
D03*
X309880Y331470D02*
D03*
X392430Y243840D02*
D03*
X889000Y115570D02*
D03*
X787400Y99060D02*
D03*
X574040Y238675D02*
D03*
X494030Y337820D02*
D03*
X563880Y284480D02*
D03*
X554990Y276860D02*
D03*
X514350Y358140D02*
D03*
X609290Y218833D02*
D03*
X494030Y355600D02*
D03*
X601980Y207010D02*
D03*
X619763Y200753D02*
D03*
X262890Y104140D02*
D03*
X283210Y143510D02*
D03*
X595630Y435610D02*
D03*
X687070D02*
D03*
X783590Y430530D02*
D03*
X867410Y469900D02*
D03*
X543560Y436880D02*
D03*
X562610Y265430D02*
D03*
X792480Y123190D02*
D03*
X779780Y127000D02*
D03*
X671830Y173990D02*
D03*
X50000Y677500D02*
D03*
X70000Y670000D02*
D03*
X77500Y650000D02*
D03*
X70000Y630000D02*
D03*
X50000Y622500D02*
D03*
X30000Y630000D02*
D03*
X22500Y650000D02*
D03*
X30000Y670000D02*
D03*
X950000Y677500D02*
D03*
X970000Y670000D02*
D03*
X977500Y650000D02*
D03*
X970000Y630000D02*
D03*
X950000Y622500D02*
D03*
X930000Y630000D02*
D03*
X922500Y650000D02*
D03*
X930000Y670000D02*
D03*
X50000Y77500D02*
D03*
X70000Y70000D02*
D03*
X77500Y50000D02*
D03*
X70000Y30000D02*
D03*
X50000Y22500D02*
D03*
X30000Y30000D02*
D03*
X22500Y50000D02*
D03*
X30000Y70000D02*
D03*
X950000Y77500D02*
D03*
X970000Y70000D02*
D03*
X977500Y50000D02*
D03*
X970000Y30000D02*
D03*
X950000Y22500D02*
D03*
X930000Y30000D02*
D03*
X922500Y50000D02*
D03*
X930000Y70000D02*
D03*
M02*
