G04*
G04 #@! TF.GenerationSoftware,Altium Limited,Altium Designer,24.1.2 (44)*
G04*
G04 Layer_Physical_Order=3*
G04 Layer_Color=16440176*
%FSLAX44Y44*%
%MOMM*%
G71*
G04*
G04 #@! TF.SameCoordinates,D2D56AAB-03D1-4060-B023-2ADA986DFB4E*
G04*
G04*
G04 #@! TF.FilePolarity,Positive*
G04*
G01*
G75*
%ADD88C,1.2220*%
%ADD89C,1.5200*%
G04:AMPARAMS|DCode=90|XSize=1.52mm|YSize=1.52mm|CornerRadius=0.38mm|HoleSize=0mm|Usage=FLASHONLY|Rotation=0.000|XOffset=0mm|YOffset=0mm|HoleType=Round|Shape=RoundedRectangle|*
%AMROUNDEDRECTD90*
21,1,1.5200,0.7600,0,0,0.0*
21,1,0.7600,1.5200,0,0,0.0*
1,1,0.7600,0.3800,-0.3800*
1,1,0.7600,-0.3800,-0.3800*
1,1,0.7600,-0.3800,0.3800*
1,1,0.7600,0.3800,0.3800*
%
%ADD90ROUNDEDRECTD90*%
%ADD91C,1.5000*%
G04:AMPARAMS|DCode=92|XSize=1.5mm|YSize=1.5mm|CornerRadius=0.375mm|HoleSize=0mm|Usage=FLASHONLY|Rotation=270.000|XOffset=0mm|YOffset=0mm|HoleType=Round|Shape=RoundedRectangle|*
%AMROUNDEDRECTD92*
21,1,1.5000,0.7500,0,0,270.0*
21,1,0.7500,1.5000,0,0,270.0*
1,1,0.7500,-0.3750,-0.3750*
1,1,0.7500,-0.3750,0.3750*
1,1,0.7500,0.3750,0.3750*
1,1,0.7500,0.3750,-0.3750*
%
%ADD92ROUNDEDRECTD92*%
%ADD93R,1.5400X1.5240*%
%ADD94O,1.5400X1.5240*%
%ADD95C,1.8000*%
%ADD97C,1.4080*%
%ADD98C,7.0000*%
G04:AMPARAMS|DCode=99|XSize=4mm|YSize=1.8mm|CornerRadius=0.45mm|HoleSize=0mm|Usage=FLASHONLY|Rotation=90.000|XOffset=0mm|YOffset=0mm|HoleType=Round|Shape=RoundedRectangle|*
%AMROUNDEDRECTD99*
21,1,4.0000,0.9000,0,0,90.0*
21,1,3.1000,1.8000,0,0,90.0*
1,1,0.9000,0.4500,1.5500*
1,1,0.9000,0.4500,-1.5500*
1,1,0.9000,-0.4500,-1.5500*
1,1,0.9000,-0.4500,1.5500*
%
%ADD99ROUNDEDRECTD99*%
G04:AMPARAMS|DCode=100|XSize=4mm|YSize=1.8mm|CornerRadius=0.45mm|HoleSize=0mm|Usage=FLASHONLY|Rotation=180.000|XOffset=0mm|YOffset=0mm|HoleType=Round|Shape=RoundedRectangle|*
%AMROUNDEDRECTD100*
21,1,4.0000,0.9000,0,0,180.0*
21,1,3.1000,1.8000,0,0,180.0*
1,1,0.9000,-1.5500,0.4500*
1,1,0.9000,1.5500,0.4500*
1,1,0.9000,1.5500,-0.4500*
1,1,0.9000,-1.5500,-0.4500*
%
%ADD100ROUNDEDRECTD100*%
G04:AMPARAMS|DCode=101|XSize=1.8mm|YSize=1.8mm|CornerRadius=0.45mm|HoleSize=0mm|Usage=FLASHONLY|Rotation=180.000|XOffset=0mm|YOffset=0mm|HoleType=Round|Shape=RoundedRectangle|*
%AMROUNDEDRECTD101*
21,1,1.8000,0.9000,0,0,180.0*
21,1,0.9000,1.8000,0,0,180.0*
1,1,0.9000,-0.4500,0.4500*
1,1,0.9000,0.4500,0.4500*
1,1,0.9000,0.4500,-0.4500*
1,1,0.9000,-0.4500,-0.4500*
%
%ADD101ROUNDEDRECTD101*%
%ADD102C,0.7000*%
G36*
X950000Y700000D02*
X953277D01*
X959775Y699144D01*
X966106Y697448D01*
X972162Y694940D01*
X977838Y691663D01*
X983038Y687673D01*
X987673Y683038D01*
X991663Y677838D01*
X994940Y672162D01*
X997448Y666106D01*
X999144Y659775D01*
X1000000Y653277D01*
Y650000D01*
X1000000Y650000D01*
X1000000Y650000D01*
X1000000Y50000D01*
Y46723D01*
X999145Y40224D01*
X997448Y33893D01*
X994940Y27838D01*
X991663Y22162D01*
X987673Y16962D01*
X983038Y12327D01*
X977838Y8337D01*
X972162Y5060D01*
X966106Y2552D01*
X959775Y856D01*
X953277Y0D01*
X950000Y0D01*
X50000Y0D01*
X46723D01*
X40224Y856D01*
X33893Y2552D01*
X27838Y5060D01*
X22162Y8337D01*
X16962Y12327D01*
X12327Y16962D01*
X8337Y22162D01*
X5060Y27838D01*
X2552Y33893D01*
X856Y40224D01*
X0Y46723D01*
X0Y50000D01*
X0Y650000D01*
Y653277D01*
X856Y659775D01*
X2552Y666106D01*
X5060Y672162D01*
X8337Y677838D01*
X12327Y683038D01*
X16962Y687673D01*
X22162Y691663D01*
X27838Y694940D01*
X33893Y697448D01*
X40224Y699144D01*
X46723Y700000D01*
X50000Y700000D01*
X50000Y700000D01*
X950000Y700000D01*
D02*
G37*
%LPC*%
G36*
X952912Y687000D02*
X947088D01*
X941336Y686089D01*
X935797Y684289D01*
X930608Y681645D01*
X926741Y678836D01*
X925500Y679504D01*
Y681094D01*
X924663Y683115D01*
X923115Y684663D01*
X921094Y685500D01*
X918906D01*
X916884Y684663D01*
X915337Y683115D01*
X914500Y681094D01*
Y678906D01*
X915337Y676884D01*
X916884Y675337D01*
X918906Y674500D01*
X920496D01*
X921164Y673259D01*
X918355Y669392D01*
X915711Y664203D01*
X913911Y658664D01*
X913000Y652912D01*
Y647088D01*
X913911Y641336D01*
X915711Y635797D01*
X918355Y630608D01*
X921778Y625896D01*
X925896Y621778D01*
X930608Y618355D01*
X935797Y615711D01*
X941336Y613911D01*
X947088Y613000D01*
X952912D01*
X958664Y613911D01*
X964203Y615711D01*
X969392Y618355D01*
X974104Y621778D01*
X978222Y625896D01*
X981645Y630608D01*
X984289Y635797D01*
X986089Y641336D01*
X987000Y647088D01*
Y652912D01*
X986089Y658664D01*
X984289Y664203D01*
X981645Y669392D01*
X978222Y674104D01*
X974104Y678222D01*
X969392Y681645D01*
X964203Y684289D01*
X958664Y686089D01*
X952912Y687000D01*
D02*
G37*
G36*
X881094Y685500D02*
X878906D01*
X876884Y684663D01*
X875337Y683115D01*
X874500Y681094D01*
Y678906D01*
X875337Y676884D01*
X876884Y675337D01*
X878906Y674500D01*
X881094D01*
X883115Y675337D01*
X884663Y676884D01*
X885500Y678906D01*
Y681094D01*
X884663Y683115D01*
X883115Y684663D01*
X881094Y685500D01*
D02*
G37*
G36*
X841094D02*
X838906D01*
X836884Y684663D01*
X835337Y683115D01*
X834500Y681094D01*
Y678906D01*
X835337Y676884D01*
X836884Y675337D01*
X838906Y674500D01*
X841094D01*
X843115Y675337D01*
X844663Y676884D01*
X845500Y678906D01*
Y681094D01*
X844663Y683115D01*
X843115Y684663D01*
X841094Y685500D01*
D02*
G37*
G36*
X801094D02*
X798906D01*
X796884Y684663D01*
X795337Y683115D01*
X794500Y681094D01*
Y678906D01*
X795337Y676884D01*
X796884Y675337D01*
X798906Y674500D01*
X801094D01*
X803115Y675337D01*
X804663Y676884D01*
X805500Y678906D01*
Y681094D01*
X804663Y683115D01*
X803115Y684663D01*
X801094Y685500D01*
D02*
G37*
G36*
X761094D02*
X758906D01*
X756884Y684663D01*
X755337Y683115D01*
X754500Y681094D01*
Y678906D01*
X755337Y676884D01*
X756884Y675337D01*
X758906Y674500D01*
X761094D01*
X763115Y675337D01*
X764663Y676884D01*
X765500Y678906D01*
Y681094D01*
X764663Y683115D01*
X763115Y684663D01*
X761094Y685500D01*
D02*
G37*
G36*
X721094D02*
X718906D01*
X716884Y684663D01*
X715337Y683115D01*
X714500Y681094D01*
Y678906D01*
X715337Y676884D01*
X716884Y675337D01*
X718906Y674500D01*
X721094D01*
X723115Y675337D01*
X724663Y676884D01*
X725500Y678906D01*
Y681094D01*
X724663Y683115D01*
X723115Y684663D01*
X721094Y685500D01*
D02*
G37*
G36*
X681094D02*
X678906D01*
X676884Y684663D01*
X675337Y683115D01*
X674500Y681094D01*
Y678906D01*
X675337Y676884D01*
X676884Y675337D01*
X678906Y674500D01*
X681094D01*
X683115Y675337D01*
X684663Y676884D01*
X685500Y678906D01*
Y681094D01*
X684663Y683115D01*
X683115Y684663D01*
X681094Y685500D01*
D02*
G37*
G36*
X641094D02*
X638906D01*
X636884Y684663D01*
X635337Y683115D01*
X634500Y681094D01*
Y678906D01*
X635337Y676884D01*
X636884Y675337D01*
X638906Y674500D01*
X641094D01*
X643115Y675337D01*
X644663Y676884D01*
X645500Y678906D01*
Y681094D01*
X644663Y683115D01*
X643115Y684663D01*
X641094Y685500D01*
D02*
G37*
G36*
X601094D02*
X598906D01*
X596884Y684663D01*
X595337Y683115D01*
X594500Y681094D01*
Y678906D01*
X595337Y676884D01*
X596884Y675337D01*
X598906Y674500D01*
X601094D01*
X603115Y675337D01*
X604663Y676884D01*
X605500Y678906D01*
Y681094D01*
X604663Y683115D01*
X603115Y684663D01*
X601094Y685500D01*
D02*
G37*
G36*
X561094D02*
X558906D01*
X556884Y684663D01*
X555337Y683115D01*
X554500Y681094D01*
Y678906D01*
X555337Y676884D01*
X556884Y675337D01*
X558906Y674500D01*
X561094D01*
X563115Y675337D01*
X564663Y676884D01*
X565500Y678906D01*
Y681094D01*
X564663Y683115D01*
X563115Y684663D01*
X561094Y685500D01*
D02*
G37*
G36*
X521094D02*
X518906D01*
X516884Y684663D01*
X515337Y683115D01*
X514500Y681094D01*
Y678906D01*
X515337Y676884D01*
X516884Y675337D01*
X518906Y674500D01*
X521094D01*
X523115Y675337D01*
X524663Y676884D01*
X525500Y678906D01*
Y681094D01*
X524663Y683115D01*
X523115Y684663D01*
X521094Y685500D01*
D02*
G37*
G36*
X481094D02*
X478906D01*
X476884Y684663D01*
X475337Y683115D01*
X474500Y681094D01*
Y678906D01*
X475337Y676884D01*
X476884Y675337D01*
X478906Y674500D01*
X481094D01*
X483115Y675337D01*
X484663Y676884D01*
X485500Y678906D01*
Y681094D01*
X484663Y683115D01*
X483115Y684663D01*
X481094Y685500D01*
D02*
G37*
G36*
X441094D02*
X438906D01*
X436884Y684663D01*
X435337Y683115D01*
X434500Y681094D01*
Y678906D01*
X435337Y676884D01*
X436884Y675337D01*
X438906Y674500D01*
X441094D01*
X443115Y675337D01*
X444663Y676884D01*
X445500Y678906D01*
Y681094D01*
X444663Y683115D01*
X443115Y684663D01*
X441094Y685500D01*
D02*
G37*
G36*
X401094D02*
X398906D01*
X396884Y684663D01*
X395337Y683115D01*
X394500Y681094D01*
Y678906D01*
X395337Y676884D01*
X396884Y675337D01*
X398906Y674500D01*
X401094D01*
X403115Y675337D01*
X404663Y676884D01*
X405500Y678906D01*
Y681094D01*
X404663Y683115D01*
X403115Y684663D01*
X401094Y685500D01*
D02*
G37*
G36*
X361094D02*
X358906D01*
X356884Y684663D01*
X355337Y683115D01*
X354500Y681094D01*
Y678906D01*
X355337Y676884D01*
X356884Y675337D01*
X358906Y674500D01*
X361094D01*
X363116Y675337D01*
X364663Y676884D01*
X365500Y678906D01*
Y681094D01*
X364663Y683115D01*
X363116Y684663D01*
X361094Y685500D01*
D02*
G37*
G36*
X321094D02*
X318906D01*
X316884Y684663D01*
X315337Y683115D01*
X314500Y681094D01*
Y678906D01*
X315337Y676884D01*
X316884Y675337D01*
X318906Y674500D01*
X321094D01*
X323116Y675337D01*
X324663Y676884D01*
X325500Y678906D01*
Y681094D01*
X324663Y683115D01*
X323116Y684663D01*
X321094Y685500D01*
D02*
G37*
G36*
X281094D02*
X278906D01*
X276884Y684663D01*
X275337Y683115D01*
X274500Y681094D01*
Y678906D01*
X275337Y676884D01*
X276884Y675337D01*
X278906Y674500D01*
X281094D01*
X283116Y675337D01*
X284663Y676884D01*
X285500Y678906D01*
Y681094D01*
X284663Y683115D01*
X283116Y684663D01*
X281094Y685500D01*
D02*
G37*
G36*
X241094D02*
X238906D01*
X236884Y684663D01*
X235337Y683115D01*
X234500Y681094D01*
Y678906D01*
X235337Y676884D01*
X236884Y675337D01*
X238906Y674500D01*
X241094D01*
X243116Y675337D01*
X244663Y676884D01*
X245500Y678906D01*
Y681094D01*
X244663Y683115D01*
X243116Y684663D01*
X241094Y685500D01*
D02*
G37*
G36*
X201094D02*
X198906D01*
X196884Y684663D01*
X195337Y683115D01*
X194500Y681094D01*
Y678906D01*
X195337Y676884D01*
X196884Y675337D01*
X198906Y674500D01*
X201094D01*
X203116Y675337D01*
X204663Y676884D01*
X205500Y678906D01*
Y681094D01*
X204663Y683115D01*
X203116Y684663D01*
X201094Y685500D01*
D02*
G37*
G36*
X161094D02*
X158906D01*
X156884Y684663D01*
X155337Y683115D01*
X154500Y681094D01*
Y678906D01*
X155337Y676884D01*
X156884Y675337D01*
X158906Y674500D01*
X161094D01*
X163116Y675337D01*
X164663Y676884D01*
X165500Y678906D01*
Y681094D01*
X164663Y683115D01*
X163116Y684663D01*
X161094Y685500D01*
D02*
G37*
G36*
X121094D02*
X118906D01*
X116884Y684663D01*
X115337Y683115D01*
X114500Y681094D01*
Y678906D01*
X115337Y676884D01*
X116884Y675337D01*
X118906Y674500D01*
X121094D01*
X123116Y675337D01*
X124663Y676884D01*
X125500Y678906D01*
Y681094D01*
X124663Y683115D01*
X123116Y684663D01*
X121094Y685500D01*
D02*
G37*
G36*
X901094Y645500D02*
X898906D01*
X896884Y644663D01*
X895337Y643115D01*
X894500Y641094D01*
Y638906D01*
X895337Y636884D01*
X896884Y635337D01*
X898906Y634500D01*
X901094D01*
X903115Y635337D01*
X904663Y636884D01*
X905500Y638906D01*
Y641094D01*
X904663Y643115D01*
X903115Y644663D01*
X901094Y645500D01*
D02*
G37*
G36*
X861094D02*
X858906D01*
X856884Y644663D01*
X855337Y643115D01*
X854500Y641094D01*
Y638906D01*
X855337Y636884D01*
X856884Y635337D01*
X858906Y634500D01*
X861094D01*
X863115Y635337D01*
X864663Y636884D01*
X865500Y638906D01*
Y641094D01*
X864663Y643115D01*
X863115Y644663D01*
X861094Y645500D01*
D02*
G37*
G36*
X821094D02*
X818906D01*
X816884Y644663D01*
X815337Y643115D01*
X814500Y641094D01*
Y638906D01*
X815337Y636884D01*
X816884Y635337D01*
X818906Y634500D01*
X821094D01*
X823115Y635337D01*
X824663Y636884D01*
X825500Y638906D01*
Y641094D01*
X824663Y643115D01*
X823115Y644663D01*
X821094Y645500D01*
D02*
G37*
G36*
X781094D02*
X778906D01*
X776884Y644663D01*
X775337Y643115D01*
X774500Y641094D01*
Y638906D01*
X775337Y636884D01*
X776884Y635337D01*
X778906Y634500D01*
X781094D01*
X783115Y635337D01*
X784663Y636884D01*
X785500Y638906D01*
Y641094D01*
X784663Y643115D01*
X783115Y644663D01*
X781094Y645500D01*
D02*
G37*
G36*
X741094D02*
X738906D01*
X736884Y644663D01*
X735337Y643115D01*
X734500Y641094D01*
Y638906D01*
X735337Y636884D01*
X736884Y635337D01*
X738906Y634500D01*
X741094D01*
X743115Y635337D01*
X744663Y636884D01*
X745500Y638906D01*
Y641094D01*
X744663Y643115D01*
X743115Y644663D01*
X741094Y645500D01*
D02*
G37*
G36*
X701094D02*
X698906D01*
X696884Y644663D01*
X695337Y643115D01*
X694500Y641094D01*
Y638906D01*
X695337Y636884D01*
X696884Y635337D01*
X698906Y634500D01*
X701094D01*
X703115Y635337D01*
X704663Y636884D01*
X705500Y638906D01*
Y641094D01*
X704663Y643115D01*
X703115Y644663D01*
X701094Y645500D01*
D02*
G37*
G36*
X661094D02*
X658906D01*
X656884Y644663D01*
X655337Y643115D01*
X654500Y641094D01*
Y638906D01*
X655337Y636884D01*
X656884Y635337D01*
X658906Y634500D01*
X661094D01*
X663115Y635337D01*
X664663Y636884D01*
X665500Y638906D01*
Y641094D01*
X664663Y643115D01*
X663115Y644663D01*
X661094Y645500D01*
D02*
G37*
G36*
X621094D02*
X618906D01*
X616884Y644663D01*
X615337Y643115D01*
X614500Y641094D01*
Y638906D01*
X615337Y636884D01*
X616884Y635337D01*
X618906Y634500D01*
X621094D01*
X623115Y635337D01*
X624663Y636884D01*
X625500Y638906D01*
Y641094D01*
X624663Y643115D01*
X623115Y644663D01*
X621094Y645500D01*
D02*
G37*
G36*
X581094D02*
X578906D01*
X576884Y644663D01*
X575337Y643115D01*
X574500Y641094D01*
Y638906D01*
X575337Y636884D01*
X576884Y635337D01*
X578906Y634500D01*
X581094D01*
X583115Y635337D01*
X584663Y636884D01*
X585500Y638906D01*
Y641094D01*
X584663Y643115D01*
X583115Y644663D01*
X581094Y645500D01*
D02*
G37*
G36*
X541094D02*
X538906D01*
X536884Y644663D01*
X535337Y643115D01*
X534500Y641094D01*
Y638906D01*
X535337Y636884D01*
X536884Y635337D01*
X538906Y634500D01*
X541094D01*
X543115Y635337D01*
X544663Y636884D01*
X545500Y638906D01*
Y641094D01*
X544663Y643115D01*
X543115Y644663D01*
X541094Y645500D01*
D02*
G37*
G36*
X501094D02*
X498906D01*
X496884Y644663D01*
X495337Y643115D01*
X494500Y641094D01*
Y638906D01*
X495337Y636884D01*
X496884Y635337D01*
X498906Y634500D01*
X501094D01*
X503115Y635337D01*
X504663Y636884D01*
X505500Y638906D01*
Y641094D01*
X504663Y643115D01*
X503115Y644663D01*
X501094Y645500D01*
D02*
G37*
G36*
X461094D02*
X458906D01*
X456884Y644663D01*
X455337Y643115D01*
X454500Y641094D01*
Y638906D01*
X455337Y636884D01*
X456884Y635337D01*
X458906Y634500D01*
X461094D01*
X463115Y635337D01*
X464663Y636884D01*
X465500Y638906D01*
Y641094D01*
X464663Y643115D01*
X463115Y644663D01*
X461094Y645500D01*
D02*
G37*
G36*
X381094D02*
X378906D01*
X376884Y644663D01*
X375337Y643115D01*
X374500Y641094D01*
Y638906D01*
X375337Y636884D01*
X376884Y635337D01*
X378906Y634500D01*
X381094D01*
X383115Y635337D01*
X384663Y636884D01*
X385500Y638906D01*
Y641094D01*
X384663Y643115D01*
X383115Y644663D01*
X381094Y645500D01*
D02*
G37*
G36*
X341094D02*
X338906D01*
X336884Y644663D01*
X335337Y643115D01*
X334500Y641094D01*
Y638906D01*
X335337Y636884D01*
X336884Y635337D01*
X338906Y634500D01*
X341094D01*
X343115Y635337D01*
X344663Y636884D01*
X345500Y638906D01*
Y641094D01*
X344663Y643115D01*
X343115Y644663D01*
X341094Y645500D01*
D02*
G37*
G36*
X261094D02*
X258906D01*
X256884Y644663D01*
X255337Y643115D01*
X254500Y641094D01*
Y638906D01*
X255337Y636884D01*
X256884Y635337D01*
X258906Y634500D01*
X261094D01*
X263116Y635337D01*
X264663Y636884D01*
X265500Y638906D01*
Y641094D01*
X264663Y643115D01*
X263116Y644663D01*
X261094Y645500D01*
D02*
G37*
G36*
X221094D02*
X218906D01*
X216884Y644663D01*
X215337Y643115D01*
X214500Y641094D01*
Y638906D01*
X215337Y636884D01*
X216884Y635337D01*
X218906Y634500D01*
X221094D01*
X223116Y635337D01*
X224663Y636884D01*
X225500Y638906D01*
Y641094D01*
X224663Y643115D01*
X223116Y644663D01*
X221094Y645500D01*
D02*
G37*
G36*
X101094D02*
X98906D01*
X96884Y644663D01*
X95337Y643115D01*
X94500Y641094D01*
Y638906D01*
X95337Y636884D01*
X96884Y635337D01*
X98906Y634500D01*
X101094D01*
X103116Y635337D01*
X104663Y636884D01*
X105500Y638906D01*
Y641094D01*
X104663Y643115D01*
X103116Y644663D01*
X101094Y645500D01*
D02*
G37*
G36*
X350501Y634340D02*
X347999D01*
X345583Y633693D01*
X343417Y632442D01*
X341648Y630673D01*
X340397Y628507D01*
X339750Y626091D01*
Y623589D01*
X340397Y621173D01*
X341648Y619007D01*
X343417Y617238D01*
X345583Y615987D01*
X347999Y615340D01*
X350501D01*
X352917Y615987D01*
X355083Y617238D01*
X356852Y619007D01*
X358103Y621173D01*
X358750Y623589D01*
Y626091D01*
X358103Y628507D01*
X356852Y630673D01*
X355083Y632442D01*
X352917Y633693D01*
X350501Y634340D01*
D02*
G37*
G36*
X325101D02*
X322599D01*
X320183Y633693D01*
X318017Y632442D01*
X316248Y630673D01*
X314997Y628507D01*
X314350Y626091D01*
Y623589D01*
X314997Y621173D01*
X316248Y619007D01*
X318017Y617238D01*
X320183Y615987D01*
X322599Y615340D01*
X325101D01*
X327517Y615987D01*
X329683Y617238D01*
X331452Y619007D01*
X332703Y621173D01*
X333350Y623589D01*
Y626091D01*
X332703Y628507D01*
X331452Y630673D01*
X329683Y632442D01*
X327517Y633693D01*
X325101Y634340D01*
D02*
G37*
G36*
X301094Y645500D02*
X298906D01*
X296884Y644663D01*
X295337Y643115D01*
X294500Y641094D01*
Y638906D01*
X295337Y636884D01*
X296701Y635521D01*
X296641Y634660D01*
X296455Y634141D01*
X294783Y633693D01*
X292617Y632442D01*
X290848Y630673D01*
X289597Y628507D01*
X288950Y626091D01*
Y623589D01*
X289597Y621173D01*
X290848Y619007D01*
X292617Y617238D01*
X294783Y615987D01*
X297199Y615340D01*
X299701D01*
X302117Y615987D01*
X304283Y617238D01*
X306052Y619007D01*
X307303Y621173D01*
X307950Y623589D01*
Y626091D01*
X307303Y628507D01*
X306052Y630673D01*
X304283Y632442D01*
X302262Y633609D01*
X302162Y634160D01*
X302240Y634975D01*
X303115Y635337D01*
X304663Y636884D01*
X305500Y638906D01*
Y641094D01*
X304663Y643115D01*
X303115Y644663D01*
X301094Y645500D01*
D02*
G37*
G36*
X52912Y687000D02*
X47088D01*
X41336Y686089D01*
X35797Y684289D01*
X30608Y681645D01*
X25896Y678222D01*
X21778Y674104D01*
X18355Y669392D01*
X15711Y664203D01*
X13911Y658664D01*
X13000Y652912D01*
Y647088D01*
X13911Y641336D01*
X15711Y635797D01*
X18355Y630608D01*
X21778Y625896D01*
X25896Y621778D01*
X30608Y618355D01*
X35797Y615711D01*
X41336Y613911D01*
X47088Y613000D01*
X52912D01*
X58664Y613911D01*
X64203Y615711D01*
X69392Y618355D01*
X74104Y621778D01*
X78222Y625896D01*
X81645Y630608D01*
X84289Y635797D01*
X86089Y641336D01*
X87000Y647088D01*
Y652912D01*
X86089Y658664D01*
X84289Y664203D01*
X81645Y669392D01*
X78836Y673259D01*
X79504Y674500D01*
X81094D01*
X83116Y675337D01*
X84663Y676884D01*
X85500Y678906D01*
Y681094D01*
X84663Y683115D01*
X83116Y684663D01*
X81094Y685500D01*
X78906D01*
X76884Y684663D01*
X75337Y683115D01*
X74500Y681094D01*
Y679504D01*
X73259Y678836D01*
X69392Y681645D01*
X64203Y684289D01*
X58664Y686089D01*
X52912Y687000D01*
D02*
G37*
G36*
X961094Y605500D02*
X958906D01*
X956884Y604663D01*
X955337Y603115D01*
X954500Y601094D01*
Y598906D01*
X955337Y596884D01*
X956884Y595337D01*
X958906Y594500D01*
X961094D01*
X963115Y595337D01*
X964663Y596884D01*
X965500Y598906D01*
Y601094D01*
X964663Y603115D01*
X963115Y604663D01*
X961094Y605500D01*
D02*
G37*
G36*
X921094D02*
X918906D01*
X916884Y604663D01*
X915337Y603115D01*
X914500Y601094D01*
Y598906D01*
X915337Y596884D01*
X916884Y595337D01*
X918906Y594500D01*
X921094D01*
X923115Y595337D01*
X924663Y596884D01*
X925500Y598906D01*
Y601094D01*
X924663Y603115D01*
X923115Y604663D01*
X921094Y605500D01*
D02*
G37*
G36*
X881094D02*
X878906D01*
X876884Y604663D01*
X875337Y603115D01*
X874500Y601094D01*
Y598906D01*
X875337Y596884D01*
X876884Y595337D01*
X878906Y594500D01*
X881094D01*
X883115Y595337D01*
X884663Y596884D01*
X885500Y598906D01*
Y601094D01*
X884663Y603115D01*
X883115Y604663D01*
X881094Y605500D01*
D02*
G37*
G36*
X841094D02*
X838906D01*
X836884Y604663D01*
X835337Y603115D01*
X834500Y601094D01*
Y598906D01*
X835337Y596884D01*
X836884Y595337D01*
X838906Y594500D01*
X841094D01*
X843115Y595337D01*
X844663Y596884D01*
X845500Y598906D01*
Y601094D01*
X844663Y603115D01*
X843115Y604663D01*
X841094Y605500D01*
D02*
G37*
G36*
X801094D02*
X798906D01*
X796884Y604663D01*
X795337Y603115D01*
X794500Y601094D01*
Y598906D01*
X795337Y596884D01*
X796884Y595337D01*
X798906Y594500D01*
X801094D01*
X803115Y595337D01*
X804663Y596884D01*
X805500Y598906D01*
Y601094D01*
X804663Y603115D01*
X803115Y604663D01*
X801094Y605500D01*
D02*
G37*
G36*
X761094D02*
X758906D01*
X756884Y604663D01*
X755337Y603115D01*
X754500Y601094D01*
Y598906D01*
X755337Y596884D01*
X756884Y595337D01*
X758906Y594500D01*
X761094D01*
X763115Y595337D01*
X764663Y596884D01*
X765500Y598906D01*
Y601094D01*
X764663Y603115D01*
X763115Y604663D01*
X761094Y605500D01*
D02*
G37*
G36*
X721094D02*
X718906D01*
X716884Y604663D01*
X715337Y603115D01*
X714500Y601094D01*
Y598906D01*
X715337Y596884D01*
X716884Y595337D01*
X718906Y594500D01*
X721094D01*
X723115Y595337D01*
X724663Y596884D01*
X725500Y598906D01*
Y601094D01*
X724663Y603115D01*
X723115Y604663D01*
X721094Y605500D01*
D02*
G37*
G36*
X681094D02*
X678906D01*
X676884Y604663D01*
X675337Y603115D01*
X674500Y601094D01*
Y598906D01*
X675337Y596884D01*
X676884Y595337D01*
X678906Y594500D01*
X681094D01*
X683115Y595337D01*
X684663Y596884D01*
X685500Y598906D01*
Y601094D01*
X684663Y603115D01*
X683115Y604663D01*
X681094Y605500D01*
D02*
G37*
G36*
X641094D02*
X638906D01*
X636884Y604663D01*
X635337Y603115D01*
X634500Y601094D01*
Y598906D01*
X635337Y596884D01*
X636884Y595337D01*
X638906Y594500D01*
X641094D01*
X643115Y595337D01*
X644663Y596884D01*
X645500Y598906D01*
Y601094D01*
X644663Y603115D01*
X643115Y604663D01*
X641094Y605500D01*
D02*
G37*
G36*
X601094D02*
X598906D01*
X596884Y604663D01*
X595337Y603115D01*
X594500Y601094D01*
Y598906D01*
X595337Y596884D01*
X596884Y595337D01*
X598906Y594500D01*
X601094D01*
X603115Y595337D01*
X604663Y596884D01*
X605500Y598906D01*
Y601094D01*
X604663Y603115D01*
X603115Y604663D01*
X601094Y605500D01*
D02*
G37*
G36*
X561094D02*
X558906D01*
X556884Y604663D01*
X555337Y603115D01*
X554500Y601094D01*
Y598906D01*
X555337Y596884D01*
X556884Y595337D01*
X558906Y594500D01*
X561094D01*
X563115Y595337D01*
X564663Y596884D01*
X565500Y598906D01*
Y601094D01*
X564663Y603115D01*
X563115Y604663D01*
X561094Y605500D01*
D02*
G37*
G36*
X521094D02*
X518906D01*
X516884Y604663D01*
X515337Y603115D01*
X514500Y601094D01*
Y598906D01*
X515337Y596884D01*
X516884Y595337D01*
X518906Y594500D01*
X521094D01*
X523115Y595337D01*
X524663Y596884D01*
X525500Y598906D01*
Y601094D01*
X524663Y603115D01*
X523115Y604663D01*
X521094Y605500D01*
D02*
G37*
G36*
X481094D02*
X478906D01*
X476884Y604663D01*
X475337Y603115D01*
X474500Y601094D01*
Y598906D01*
X475337Y596884D01*
X476884Y595337D01*
X478906Y594500D01*
X481094D01*
X483115Y595337D01*
X484663Y596884D01*
X485500Y598906D01*
Y601094D01*
X484663Y603115D01*
X483115Y604663D01*
X481094Y605500D01*
D02*
G37*
G36*
X361094D02*
X358906D01*
X356884Y604663D01*
X355337Y603115D01*
X354500Y601094D01*
Y598906D01*
X355337Y596884D01*
X356884Y595337D01*
X358906Y594500D01*
X361094D01*
X363116Y595337D01*
X364663Y596884D01*
X365500Y598906D01*
Y601094D01*
X364663Y603115D01*
X363116Y604663D01*
X361094Y605500D01*
D02*
G37*
G36*
X321094D02*
X318906D01*
X316884Y604663D01*
X315337Y603115D01*
X314500Y601094D01*
Y598906D01*
X315337Y596884D01*
X316884Y595337D01*
X318906Y594500D01*
X321094D01*
X323116Y595337D01*
X324663Y596884D01*
X325500Y598906D01*
Y601094D01*
X324663Y603115D01*
X323116Y604663D01*
X321094Y605500D01*
D02*
G37*
G36*
X281094D02*
X278906D01*
X276884Y604663D01*
X275337Y603115D01*
X274500Y601094D01*
Y598906D01*
X275337Y596884D01*
X276884Y595337D01*
X278906Y594500D01*
X281094D01*
X283116Y595337D01*
X284663Y596884D01*
X285500Y598906D01*
Y601094D01*
X284663Y603115D01*
X283116Y604663D01*
X281094Y605500D01*
D02*
G37*
G36*
X241094D02*
X238906D01*
X236884Y604663D01*
X235337Y603115D01*
X234500Y601094D01*
Y598906D01*
X235337Y596884D01*
X236884Y595337D01*
X238906Y594500D01*
X241094D01*
X243116Y595337D01*
X244663Y596884D01*
X245500Y598906D01*
Y601094D01*
X244663Y603115D01*
X243116Y604663D01*
X241094Y605500D01*
D02*
G37*
G36*
X161094D02*
X158906D01*
X156884Y604663D01*
X155337Y603115D01*
X154500Y601094D01*
Y598906D01*
X155337Y596884D01*
X156884Y595337D01*
X158906Y594500D01*
X161094D01*
X163116Y595337D01*
X164663Y596884D01*
X165500Y598906D01*
Y601094D01*
X164663Y603115D01*
X163116Y604663D01*
X161094Y605500D01*
D02*
G37*
G36*
X121094D02*
X118906D01*
X116884Y604663D01*
X115337Y603115D01*
X114500Y601094D01*
Y598906D01*
X115337Y596884D01*
X116884Y595337D01*
X118906Y594500D01*
X121094D01*
X123116Y595337D01*
X124663Y596884D01*
X125500Y598906D01*
Y601094D01*
X124663Y603115D01*
X123116Y604663D01*
X121094Y605500D01*
D02*
G37*
G36*
X81094D02*
X78906D01*
X76884Y604663D01*
X75337Y603115D01*
X74500Y601094D01*
Y598906D01*
X75337Y596884D01*
X76884Y595337D01*
X78906Y594500D01*
X81094D01*
X83116Y595337D01*
X84663Y596884D01*
X85500Y598906D01*
Y601094D01*
X84663Y603115D01*
X83116Y604663D01*
X81094Y605500D01*
D02*
G37*
G36*
X41094D02*
X38906D01*
X36885Y604663D01*
X35337Y603115D01*
X34500Y601094D01*
Y598906D01*
X35337Y596884D01*
X36885Y595337D01*
X38906Y594500D01*
X41094D01*
X43116Y595337D01*
X44663Y596884D01*
X45500Y598906D01*
Y601094D01*
X44663Y603115D01*
X43116Y604663D01*
X41094Y605500D01*
D02*
G37*
G36*
X981094Y565500D02*
X978906D01*
X976884Y564663D01*
X975337Y563115D01*
X974500Y561094D01*
Y558906D01*
X975337Y556884D01*
X976884Y555337D01*
X978906Y554500D01*
X981094D01*
X983115Y555337D01*
X984662Y556884D01*
X985500Y558906D01*
Y561094D01*
X984662Y563115D01*
X983115Y564663D01*
X981094Y565500D01*
D02*
G37*
G36*
X941094D02*
X938906D01*
X936884Y564663D01*
X935337Y563115D01*
X934500Y561094D01*
Y558906D01*
X935337Y556884D01*
X936884Y555337D01*
X938906Y554500D01*
X941094D01*
X943115Y555337D01*
X944663Y556884D01*
X945500Y558906D01*
Y561094D01*
X944663Y563115D01*
X943115Y564663D01*
X941094Y565500D01*
D02*
G37*
G36*
X861094D02*
X858906D01*
X856884Y564663D01*
X855337Y563115D01*
X854500Y561094D01*
Y558906D01*
X855337Y556884D01*
X856884Y555337D01*
X858906Y554500D01*
X861094D01*
X863115Y555337D01*
X864663Y556884D01*
X865500Y558906D01*
Y561094D01*
X864663Y563115D01*
X863115Y564663D01*
X861094Y565500D01*
D02*
G37*
G36*
X821094D02*
X818906D01*
X816884Y564663D01*
X815337Y563115D01*
X814500Y561094D01*
Y558906D01*
X815337Y556884D01*
X816884Y555337D01*
X818906Y554500D01*
X821094D01*
X823115Y555337D01*
X824663Y556884D01*
X825500Y558906D01*
Y561094D01*
X824663Y563115D01*
X823115Y564663D01*
X821094Y565500D01*
D02*
G37*
G36*
X781094D02*
X778906D01*
X776884Y564663D01*
X775337Y563115D01*
X774500Y561094D01*
Y558906D01*
X775337Y556884D01*
X776884Y555337D01*
X778906Y554500D01*
X781094D01*
X783115Y555337D01*
X784663Y556884D01*
X785500Y558906D01*
Y561094D01*
X784663Y563115D01*
X783115Y564663D01*
X781094Y565500D01*
D02*
G37*
G36*
X741094D02*
X738906D01*
X736884Y564663D01*
X735337Y563115D01*
X734500Y561094D01*
Y558906D01*
X735337Y556884D01*
X736884Y555337D01*
X738906Y554500D01*
X741094D01*
X743115Y555337D01*
X744663Y556884D01*
X745500Y558906D01*
Y561094D01*
X744663Y563115D01*
X743115Y564663D01*
X741094Y565500D01*
D02*
G37*
G36*
X101094D02*
X98906D01*
X96884Y564663D01*
X95337Y563115D01*
X94500Y561094D01*
Y558906D01*
X95337Y556884D01*
X96884Y555337D01*
X98906Y554500D01*
X101094D01*
X103116Y555337D01*
X104663Y556884D01*
X105500Y558906D01*
Y561094D01*
X104663Y563115D01*
X103116Y564663D01*
X101094Y565500D01*
D02*
G37*
G36*
X61094D02*
X58906D01*
X56884Y564663D01*
X55337Y563115D01*
X54500Y561094D01*
Y558906D01*
X55337Y556884D01*
X56884Y555337D01*
X58906Y554500D01*
X61094D01*
X63116Y555337D01*
X64663Y556884D01*
X65500Y558906D01*
Y561094D01*
X64663Y563115D01*
X63116Y564663D01*
X61094Y565500D01*
D02*
G37*
G36*
X142750Y569426D02*
X133750D01*
X132053Y569203D01*
X130472Y568548D01*
X129114Y567506D01*
X128072Y566148D01*
X127417Y564567D01*
X127194Y562870D01*
Y531870D01*
X127417Y530173D01*
X128072Y528592D01*
X129114Y527234D01*
X130472Y526192D01*
X132053Y525537D01*
X133750Y525314D01*
X142750D01*
X144447Y525537D01*
X146028Y526192D01*
X147386Y527234D01*
X148428Y528592D01*
X149083Y530173D01*
X149306Y531870D01*
Y562870D01*
X149083Y564567D01*
X148428Y566148D01*
X147386Y567506D01*
X146028Y568548D01*
X144447Y569203D01*
X142750Y569426D01*
D02*
G37*
G36*
X961094Y525500D02*
X958906D01*
X956884Y524663D01*
X955337Y523115D01*
X954500Y521094D01*
Y518906D01*
X955337Y516884D01*
X956884Y515337D01*
X958906Y514500D01*
X961094D01*
X963115Y515337D01*
X964663Y516884D01*
X965500Y518906D01*
Y521094D01*
X964663Y523115D01*
X963115Y524663D01*
X961094Y525500D01*
D02*
G37*
G36*
X921094D02*
X918906D01*
X916884Y524663D01*
X915337Y523115D01*
X914500Y521094D01*
Y518906D01*
X915337Y516884D01*
X916884Y515337D01*
X918906Y514500D01*
X921094D01*
X923115Y515337D01*
X924663Y516884D01*
X925500Y518906D01*
Y521094D01*
X924663Y523115D01*
X923115Y524663D01*
X921094Y525500D01*
D02*
G37*
G36*
X881094D02*
X878906D01*
X876884Y524663D01*
X875337Y523115D01*
X874500Y521094D01*
Y518906D01*
X875337Y516884D01*
X876884Y515337D01*
X878906Y514500D01*
X881094D01*
X883115Y515337D01*
X884663Y516884D01*
X885500Y518906D01*
Y521094D01*
X884663Y523115D01*
X883115Y524663D01*
X881094Y525500D01*
D02*
G37*
G36*
X841094D02*
X838906D01*
X836884Y524663D01*
X835337Y523115D01*
X834500Y521094D01*
Y518906D01*
X835337Y516884D01*
X836884Y515337D01*
X838906Y514500D01*
X841094D01*
X843115Y515337D01*
X844663Y516884D01*
X845500Y518906D01*
Y521094D01*
X844663Y523115D01*
X843115Y524663D01*
X841094Y525500D01*
D02*
G37*
G36*
X761094D02*
X758906D01*
X756884Y524663D01*
X755337Y523115D01*
X754500Y521094D01*
Y518906D01*
X755337Y516884D01*
X756884Y515337D01*
X758906Y514500D01*
X761094D01*
X763115Y515337D01*
X764663Y516884D01*
X765500Y518906D01*
Y521094D01*
X764663Y523115D01*
X763115Y524663D01*
X761094Y525500D01*
D02*
G37*
G36*
X641094D02*
X638906D01*
X636884Y524663D01*
X635337Y523115D01*
X634500Y521094D01*
Y518906D01*
X635337Y516884D01*
X636884Y515337D01*
X638906Y514500D01*
X641094D01*
X643115Y515337D01*
X644663Y516884D01*
X645500Y518906D01*
Y521094D01*
X644663Y523115D01*
X643115Y524663D01*
X641094Y525500D01*
D02*
G37*
G36*
X601094D02*
X598906D01*
X596884Y524663D01*
X595337Y523115D01*
X594500Y521094D01*
Y518906D01*
X595337Y516884D01*
X596884Y515337D01*
X598906Y514500D01*
X601094D01*
X603115Y515337D01*
X604663Y516884D01*
X605500Y518906D01*
Y521094D01*
X604663Y523115D01*
X603115Y524663D01*
X601094Y525500D01*
D02*
G37*
G36*
X561094D02*
X558906D01*
X556884Y524663D01*
X555337Y523115D01*
X554500Y521094D01*
Y518906D01*
X555337Y516884D01*
X556884Y515337D01*
X558906Y514500D01*
X561094D01*
X563115Y515337D01*
X564663Y516884D01*
X565500Y518906D01*
Y521094D01*
X564663Y523115D01*
X563115Y524663D01*
X561094Y525500D01*
D02*
G37*
G36*
X481094D02*
X478906D01*
X476884Y524663D01*
X475337Y523115D01*
X474500Y521094D01*
Y518906D01*
X475337Y516884D01*
X476884Y515337D01*
X478906Y514500D01*
X481094D01*
X483115Y515337D01*
X484663Y516884D01*
X485500Y518906D01*
Y521094D01*
X484663Y523115D01*
X483115Y524663D01*
X481094Y525500D01*
D02*
G37*
G36*
X441094D02*
X438906D01*
X436884Y524663D01*
X435337Y523115D01*
X434500Y521094D01*
Y518906D01*
X435337Y516884D01*
X436884Y515337D01*
X438906Y514500D01*
X441094D01*
X443115Y515337D01*
X444663Y516884D01*
X445500Y518906D01*
Y521094D01*
X444663Y523115D01*
X443115Y524663D01*
X441094Y525500D01*
D02*
G37*
G36*
X401094D02*
X398906D01*
X396884Y524663D01*
X395337Y523115D01*
X394500Y521094D01*
Y518906D01*
X395337Y516884D01*
X396884Y515337D01*
X398906Y514500D01*
X401094D01*
X403115Y515337D01*
X404663Y516884D01*
X405500Y518906D01*
Y521094D01*
X404663Y523115D01*
X403115Y524663D01*
X401094Y525500D01*
D02*
G37*
G36*
X361094D02*
X358906D01*
X356884Y524663D01*
X355337Y523115D01*
X354500Y521094D01*
Y518906D01*
X355337Y516884D01*
X356884Y515337D01*
X358906Y514500D01*
X361094D01*
X363116Y515337D01*
X364663Y516884D01*
X365500Y518906D01*
Y521094D01*
X364663Y523115D01*
X363116Y524663D01*
X361094Y525500D01*
D02*
G37*
G36*
X201094D02*
X198906D01*
X196884Y524663D01*
X195337Y523115D01*
X194500Y521094D01*
Y518906D01*
X195337Y516884D01*
X196884Y515337D01*
X198906Y514500D01*
X201094D01*
X203116Y515337D01*
X204663Y516884D01*
X205500Y518906D01*
Y521094D01*
X204663Y523115D01*
X203116Y524663D01*
X201094Y525500D01*
D02*
G37*
G36*
X121094D02*
X118906D01*
X116884Y524663D01*
X115337Y523115D01*
X114500Y521094D01*
Y518906D01*
X115337Y516884D01*
X116884Y515337D01*
X118906Y514500D01*
X121094D01*
X123116Y515337D01*
X124663Y516884D01*
X125500Y518906D01*
Y521094D01*
X124663Y523115D01*
X123116Y524663D01*
X121094Y525500D01*
D02*
G37*
G36*
X84750Y569426D02*
X75750D01*
X74053Y569203D01*
X72472Y568548D01*
X71114Y567506D01*
X70072Y566148D01*
X69417Y564567D01*
X69194Y562870D01*
Y531870D01*
X69417Y530173D01*
X70072Y528592D01*
X71114Y527234D01*
X72472Y526192D01*
X74053Y525537D01*
X75750Y525314D01*
X76266Y524044D01*
X75337Y523115D01*
X74500Y521094D01*
Y518906D01*
X75337Y516884D01*
X76884Y515337D01*
X78906Y514500D01*
X81094D01*
X83116Y515337D01*
X84663Y516884D01*
X85500Y518906D01*
Y521094D01*
X84663Y523115D01*
X83734Y524044D01*
X84260Y525314D01*
X84750D01*
X86447Y525537D01*
X88028Y526192D01*
X89386Y527234D01*
X90428Y528592D01*
X91083Y530173D01*
X91306Y531870D01*
Y562870D01*
X91083Y564567D01*
X90428Y566148D01*
X89386Y567506D01*
X88028Y568548D01*
X86447Y569203D01*
X84750Y569426D01*
D02*
G37*
G36*
X41094Y525500D02*
X38906D01*
X36885Y524663D01*
X35337Y523115D01*
X34500Y521094D01*
Y518906D01*
X35337Y516884D01*
X36885Y515337D01*
X38906Y514500D01*
X41094D01*
X43116Y515337D01*
X44663Y516884D01*
X45500Y518906D01*
Y521094D01*
X44663Y523115D01*
X43116Y524663D01*
X41094Y525500D01*
D02*
G37*
G36*
X974071Y514960D02*
X971569D01*
X969153Y514313D01*
X966987Y513062D01*
X965218Y511293D01*
X963967Y509127D01*
X963320Y506711D01*
Y504209D01*
X963967Y501793D01*
X965218Y499627D01*
X966987Y497858D01*
X969153Y496607D01*
X971569Y495960D01*
X974071D01*
X976487Y496607D01*
X978653Y497858D01*
X980422Y499627D01*
X981673Y501793D01*
X982320Y504209D01*
Y506711D01*
X981673Y509127D01*
X980422Y511293D01*
X978653Y513062D01*
X976487Y514313D01*
X974071Y514960D01*
D02*
G37*
G36*
X948671D02*
X946169D01*
X943753Y514313D01*
X941587Y513062D01*
X939818Y511293D01*
X938567Y509127D01*
X937920Y506711D01*
Y504209D01*
X938567Y501793D01*
X939818Y499627D01*
X941587Y497858D01*
X943753Y496607D01*
X946169Y495960D01*
X948671D01*
X951087Y496607D01*
X953253Y497858D01*
X955022Y499627D01*
X956273Y501793D01*
X956920Y504209D01*
Y506711D01*
X956273Y509127D01*
X955022Y511293D01*
X953253Y513062D01*
X951087Y514313D01*
X948671Y514960D01*
D02*
G37*
G36*
X123750Y510426D02*
X92750D01*
X91053Y510203D01*
X89472Y509548D01*
X88114Y508506D01*
X87072Y507148D01*
X86417Y505567D01*
X86194Y503870D01*
Y494870D01*
X86417Y493173D01*
X87072Y491592D01*
X88114Y490234D01*
X89472Y489192D01*
X91053Y488537D01*
X92750Y488314D01*
X123750D01*
X125447Y488537D01*
X127028Y489192D01*
X128386Y490234D01*
X129428Y491592D01*
X130083Y493173D01*
X130306Y494870D01*
Y503870D01*
X130083Y505567D01*
X129428Y507148D01*
X128386Y508506D01*
X127028Y509548D01*
X125447Y510203D01*
X123750Y510426D01*
D02*
G37*
G36*
X581094Y485500D02*
X578906D01*
X576884Y484663D01*
X575337Y483115D01*
X574500Y481094D01*
Y478906D01*
X575337Y476884D01*
X576884Y475337D01*
X578906Y474500D01*
X581094D01*
X583115Y475337D01*
X584663Y476884D01*
X585500Y478906D01*
Y481094D01*
X584663Y483115D01*
X583115Y484663D01*
X581094Y485500D01*
D02*
G37*
G36*
X461094D02*
X458906D01*
X456884Y484663D01*
X455337Y483115D01*
X454500Y481094D01*
Y478906D01*
X455337Y476884D01*
X456884Y475337D01*
X458906Y474500D01*
X461094D01*
X463115Y475337D01*
X464663Y476884D01*
X465500Y478906D01*
Y481094D01*
X464663Y483115D01*
X463115Y484663D01*
X461094Y485500D01*
D02*
G37*
G36*
X421094D02*
X418906D01*
X416884Y484663D01*
X415337Y483115D01*
X414500Y481094D01*
Y478906D01*
X415337Y476884D01*
X416884Y475337D01*
X418906Y474500D01*
X421094D01*
X423115Y475337D01*
X424663Y476884D01*
X425500Y478906D01*
Y481094D01*
X424663Y483115D01*
X423115Y484663D01*
X421094Y485500D01*
D02*
G37*
G36*
X381094D02*
X378906D01*
X376884Y484663D01*
X375337Y483115D01*
X374500Y481094D01*
Y478906D01*
X375337Y476884D01*
X376884Y475337D01*
X378906Y474500D01*
X381094D01*
X383115Y475337D01*
X384663Y476884D01*
X385500Y478906D01*
Y481094D01*
X384663Y483115D01*
X383115Y484663D01*
X381094Y485500D01*
D02*
G37*
G36*
X341094D02*
X338906D01*
X336884Y484663D01*
X335337Y483115D01*
X334500Y481094D01*
Y478906D01*
X335337Y476884D01*
X336884Y475337D01*
X338906Y474500D01*
X341094D01*
X343115Y475337D01*
X344663Y476884D01*
X345500Y478906D01*
Y481094D01*
X344663Y483115D01*
X343115Y484663D01*
X341094Y485500D01*
D02*
G37*
G36*
X301094D02*
X298906D01*
X296884Y484663D01*
X295337Y483115D01*
X294500Y481094D01*
Y478906D01*
X295337Y476884D01*
X296884Y475337D01*
X298906Y474500D01*
X301094D01*
X303115Y475337D01*
X304663Y476884D01*
X305500Y478906D01*
Y481094D01*
X304663Y483115D01*
X303115Y484663D01*
X301094Y485500D01*
D02*
G37*
G36*
X221094D02*
X218906D01*
X216884Y484663D01*
X215337Y483115D01*
X214500Y481094D01*
Y478906D01*
X215337Y476884D01*
X216884Y475337D01*
X218906Y474500D01*
X221094D01*
X223116Y475337D01*
X224663Y476884D01*
X225500Y478906D01*
Y481094D01*
X224663Y483115D01*
X223116Y484663D01*
X221094Y485500D01*
D02*
G37*
G36*
X181094D02*
X178906D01*
X176884Y484663D01*
X175337Y483115D01*
X174500Y481094D01*
Y478906D01*
X175337Y476884D01*
X176884Y475337D01*
X178906Y474500D01*
X181094D01*
X183116Y475337D01*
X184663Y476884D01*
X185500Y478906D01*
Y481094D01*
X184663Y483115D01*
X183116Y484663D01*
X181094Y485500D01*
D02*
G37*
G36*
X141094D02*
X138906D01*
X136884Y484663D01*
X135337Y483115D01*
X134500Y481094D01*
Y478906D01*
X135337Y476884D01*
X136884Y475337D01*
X138906Y474500D01*
X141094D01*
X143116Y475337D01*
X144663Y476884D01*
X145500Y478906D01*
Y481094D01*
X144663Y483115D01*
X143116Y484663D01*
X141094Y485500D01*
D02*
G37*
G36*
X101094D02*
X98906D01*
X96884Y484663D01*
X95337Y483115D01*
X94500Y481094D01*
Y478906D01*
X95337Y476884D01*
X96884Y475337D01*
X98906Y474500D01*
X101094D01*
X103116Y475337D01*
X104663Y476884D01*
X105500Y478906D01*
Y481094D01*
X104663Y483115D01*
X103116Y484663D01*
X101094Y485500D01*
D02*
G37*
G36*
X61094D02*
X58906D01*
X56884Y484663D01*
X55337Y483115D01*
X54500Y481094D01*
Y478906D01*
X55337Y476884D01*
X56884Y475337D01*
X58906Y474500D01*
X61094D01*
X63116Y475337D01*
X64663Y476884D01*
X65500Y478906D01*
Y481094D01*
X64663Y483115D01*
X63116Y484663D01*
X61094Y485500D01*
D02*
G37*
G36*
X974071Y489560D02*
X971569D01*
X969153Y488913D01*
X966987Y487662D01*
X965218Y485893D01*
X963967Y483727D01*
X963320Y481311D01*
Y478809D01*
X963967Y476393D01*
X965218Y474227D01*
X966987Y472458D01*
X969153Y471207D01*
X971569Y470560D01*
X974071D01*
X976487Y471207D01*
X978653Y472458D01*
X980422Y474227D01*
X981673Y476393D01*
X982320Y478809D01*
Y481311D01*
X981673Y483727D01*
X980422Y485893D01*
X978653Y487662D01*
X976487Y488913D01*
X974071Y489560D01*
D02*
G37*
G36*
X948671D02*
X946169D01*
X943753Y488913D01*
X941587Y487662D01*
X939818Y485893D01*
X938567Y483727D01*
X937920Y481311D01*
Y478809D01*
X938567Y476393D01*
X939818Y474227D01*
X941587Y472458D01*
X943753Y471207D01*
X946169Y470560D01*
X948671D01*
X951087Y471207D01*
X953253Y472458D01*
X955022Y474227D01*
X956273Y476393D01*
X956920Y478809D01*
Y481311D01*
X956273Y483727D01*
X955022Y485893D01*
X953253Y487662D01*
X951087Y488913D01*
X948671Y489560D01*
D02*
G37*
G36*
X868504Y475400D02*
X866316D01*
X864295Y474563D01*
X862747Y473016D01*
X861910Y470994D01*
Y468806D01*
X862747Y466785D01*
X864295Y465237D01*
X866316Y464400D01*
X868504D01*
X870526Y465237D01*
X872073Y466785D01*
X872910Y468806D01*
Y470994D01*
X872073Y473016D01*
X870526Y474563D01*
X868504Y475400D01*
D02*
G37*
G36*
X974071Y464160D02*
X971569D01*
X969153Y463513D01*
X966987Y462262D01*
X965218Y460493D01*
X963967Y458327D01*
X963320Y455911D01*
Y453409D01*
X963967Y450993D01*
X965218Y448827D01*
X966987Y447058D01*
X969153Y445807D01*
X971569Y445160D01*
X974071D01*
X976487Y445807D01*
X978653Y447058D01*
X980422Y448827D01*
X981673Y450993D01*
X982320Y453409D01*
Y455911D01*
X981673Y458327D01*
X980422Y460493D01*
X978653Y462262D01*
X976487Y463513D01*
X974071Y464160D01*
D02*
G37*
G36*
X948671D02*
X946169D01*
X943753Y463513D01*
X941587Y462262D01*
X939818Y460493D01*
X938567Y458327D01*
X937920Y455911D01*
Y453409D01*
X938567Y450993D01*
X939818Y448827D01*
X941587Y447058D01*
X943753Y445807D01*
X946169Y445160D01*
X948671D01*
X951087Y445807D01*
X953253Y447058D01*
X955022Y448827D01*
X956273Y450993D01*
X956920Y453409D01*
Y455911D01*
X956273Y458327D01*
X955022Y460493D01*
X953253Y462262D01*
X951087Y463513D01*
X948671Y464160D01*
D02*
G37*
G36*
X961094Y445500D02*
X958906D01*
X956884Y444663D01*
X955337Y443115D01*
X954500Y441094D01*
Y438906D01*
X955337Y436884D01*
X956884Y435337D01*
X958906Y434500D01*
X961094D01*
X963115Y435337D01*
X964663Y436884D01*
X965500Y438906D01*
Y441094D01*
X964663Y443115D01*
X963115Y444663D01*
X961094Y445500D01*
D02*
G37*
G36*
X801094D02*
X798906D01*
X796884Y444663D01*
X795337Y443115D01*
X794500Y441094D01*
Y438906D01*
X795337Y436884D01*
X796884Y435337D01*
X798906Y434500D01*
X801094D01*
X803115Y435337D01*
X804663Y436884D01*
X805500Y438906D01*
Y441094D01*
X804663Y443115D01*
X803115Y444663D01*
X801094Y445500D01*
D02*
G37*
G36*
X761094D02*
X758906D01*
X756884Y444663D01*
X755337Y443115D01*
X754500Y441094D01*
Y438906D01*
X755337Y436884D01*
X756884Y435337D01*
X758906Y434500D01*
X761094D01*
X763115Y435337D01*
X764663Y436884D01*
X765500Y438906D01*
Y441094D01*
X764663Y443115D01*
X763115Y444663D01*
X761094Y445500D01*
D02*
G37*
G36*
X641094D02*
X638906D01*
X636884Y444663D01*
X635337Y443115D01*
X634500Y441094D01*
Y438906D01*
X635337Y436884D01*
X636884Y435337D01*
X638906Y434500D01*
X641094D01*
X643115Y435337D01*
X644663Y436884D01*
X645500Y438906D01*
Y441094D01*
X644663Y443115D01*
X643115Y444663D01*
X641094Y445500D01*
D02*
G37*
G36*
X561094D02*
X558906D01*
X556884Y444663D01*
X555337Y443115D01*
X554500Y441094D01*
Y438906D01*
X555337Y436884D01*
X556884Y435337D01*
X558906Y434500D01*
X561094D01*
X563115Y435337D01*
X564663Y436884D01*
X565500Y438906D01*
Y441094D01*
X564663Y443115D01*
X563115Y444663D01*
X561094Y445500D01*
D02*
G37*
G36*
X481094D02*
X478906D01*
X476884Y444663D01*
X475337Y443115D01*
X474500Y441094D01*
Y438906D01*
X475337Y436884D01*
X476884Y435337D01*
X478906Y434500D01*
X481094D01*
X483115Y435337D01*
X484663Y436884D01*
X485500Y438906D01*
Y441094D01*
X484663Y443115D01*
X483115Y444663D01*
X481094Y445500D01*
D02*
G37*
G36*
X441094D02*
X438906D01*
X436884Y444663D01*
X435337Y443115D01*
X434500Y441094D01*
Y438906D01*
X435337Y436884D01*
X436884Y435337D01*
X438906Y434500D01*
X441094D01*
X443115Y435337D01*
X444663Y436884D01*
X445500Y438906D01*
Y441094D01*
X444663Y443115D01*
X443115Y444663D01*
X441094Y445500D01*
D02*
G37*
G36*
X401094D02*
X398906D01*
X396884Y444663D01*
X395337Y443115D01*
X394500Y441094D01*
Y438906D01*
X395337Y436884D01*
X396884Y435337D01*
X398906Y434500D01*
X401094D01*
X403115Y435337D01*
X404663Y436884D01*
X405500Y438906D01*
Y441094D01*
X404663Y443115D01*
X403115Y444663D01*
X401094Y445500D01*
D02*
G37*
G36*
X361094D02*
X358906D01*
X356884Y444663D01*
X355337Y443115D01*
X354500Y441094D01*
Y438906D01*
X355337Y436884D01*
X356884Y435337D01*
X358906Y434500D01*
X361094D01*
X363116Y435337D01*
X364663Y436884D01*
X365500Y438906D01*
Y441094D01*
X364663Y443115D01*
X363116Y444663D01*
X361094Y445500D01*
D02*
G37*
G36*
X281094D02*
X278906D01*
X276884Y444663D01*
X275337Y443115D01*
X274500Y441094D01*
Y438906D01*
X275337Y436884D01*
X276884Y435337D01*
X278906Y434500D01*
X281094D01*
X283116Y435337D01*
X284663Y436884D01*
X285500Y438906D01*
Y441094D01*
X284663Y443115D01*
X283116Y444663D01*
X281094Y445500D01*
D02*
G37*
G36*
X241094D02*
X238906D01*
X236884Y444663D01*
X235337Y443115D01*
X234500Y441094D01*
Y438906D01*
X235337Y436884D01*
X236884Y435337D01*
X238906Y434500D01*
X241094D01*
X243116Y435337D01*
X244663Y436884D01*
X245500Y438906D01*
Y441094D01*
X244663Y443115D01*
X243116Y444663D01*
X241094Y445500D01*
D02*
G37*
G36*
X201094D02*
X198906D01*
X196884Y444663D01*
X195337Y443115D01*
X194500Y441094D01*
Y438906D01*
X195337Y436884D01*
X196884Y435337D01*
X198906Y434500D01*
X201094D01*
X203116Y435337D01*
X204663Y436884D01*
X205500Y438906D01*
Y441094D01*
X204663Y443115D01*
X203116Y444663D01*
X201094Y445500D01*
D02*
G37*
G36*
X161094D02*
X158906D01*
X156884Y444663D01*
X155337Y443115D01*
X154500Y441094D01*
Y438906D01*
X155337Y436884D01*
X156884Y435337D01*
X158906Y434500D01*
X161094D01*
X163116Y435337D01*
X164663Y436884D01*
X165500Y438906D01*
Y441094D01*
X164663Y443115D01*
X163116Y444663D01*
X161094Y445500D01*
D02*
G37*
G36*
X544654Y442380D02*
X542466D01*
X540444Y441543D01*
X538897Y439995D01*
X538060Y437974D01*
Y435786D01*
X538897Y433764D01*
X540444Y432217D01*
X542466Y431380D01*
X544654D01*
X546675Y432217D01*
X548223Y433764D01*
X549060Y435786D01*
Y437974D01*
X548223Y439995D01*
X546675Y441543D01*
X544654Y442380D01*
D02*
G37*
G36*
X688164Y441110D02*
X685976D01*
X683954Y440273D01*
X682407Y438726D01*
X681570Y436704D01*
Y434516D01*
X682407Y432495D01*
X683954Y430947D01*
X685976Y430110D01*
X688164D01*
X690185Y430947D01*
X691733Y432495D01*
X692570Y434516D01*
Y436704D01*
X691733Y438726D01*
X690185Y440273D01*
X688164Y441110D01*
D02*
G37*
G36*
X596724D02*
X594536D01*
X592514Y440273D01*
X590967Y438726D01*
X590130Y436704D01*
Y434516D01*
X590967Y432495D01*
X592514Y430947D01*
X594536Y430110D01*
X596724D01*
X598745Y430947D01*
X600293Y432495D01*
X601130Y434516D01*
Y436704D01*
X600293Y438726D01*
X598745Y440273D01*
X596724Y441110D01*
D02*
G37*
G36*
X784684Y436030D02*
X782496D01*
X780474Y435193D01*
X778927Y433646D01*
X778090Y431624D01*
Y429436D01*
X778927Y427415D01*
X780474Y425867D01*
X782496Y425030D01*
X784684D01*
X786705Y425867D01*
X788253Y427415D01*
X789090Y429436D01*
Y431624D01*
X788253Y433646D01*
X786705Y435193D01*
X784684Y436030D01*
D02*
G37*
G36*
X38278Y437720D02*
X35382D01*
X32584Y436970D01*
X30076Y435522D01*
X28028Y433474D01*
X26580Y430966D01*
X25830Y428168D01*
Y425272D01*
X26580Y422474D01*
X28028Y419966D01*
X30076Y417918D01*
X32584Y416470D01*
X35382Y415720D01*
X38278D01*
X41076Y416470D01*
X43584Y417918D01*
X45632Y419966D01*
X47080Y422474D01*
X47830Y425272D01*
Y428168D01*
X47080Y430966D01*
X45632Y433474D01*
X43584Y435522D01*
X41076Y436970D01*
X38278Y437720D01*
D02*
G37*
G36*
X981094Y405500D02*
X978906D01*
X976884Y404663D01*
X975337Y403115D01*
X974500Y401094D01*
Y398906D01*
X975337Y396884D01*
X976884Y395337D01*
X978906Y394500D01*
X981094D01*
X983115Y395337D01*
X984662Y396884D01*
X985500Y398906D01*
Y401094D01*
X984662Y403115D01*
X983115Y404663D01*
X981094Y405500D01*
D02*
G37*
G36*
X941094D02*
X938906D01*
X936884Y404663D01*
X935337Y403115D01*
X934500Y401094D01*
Y398906D01*
X935337Y396884D01*
X936884Y395337D01*
X938906Y394500D01*
X941094D01*
X943115Y395337D01*
X944663Y396884D01*
X945500Y398906D01*
Y401094D01*
X944663Y403115D01*
X943115Y404663D01*
X941094Y405500D01*
D02*
G37*
G36*
X581094D02*
X578906D01*
X576884Y404663D01*
X575337Y403115D01*
X574500Y401094D01*
Y398906D01*
X575337Y396884D01*
X576884Y395337D01*
X578906Y394500D01*
X581094D01*
X583115Y395337D01*
X584663Y396884D01*
X585500Y398906D01*
Y401094D01*
X584663Y403115D01*
X583115Y404663D01*
X581094Y405500D01*
D02*
G37*
G36*
X501094D02*
X498906D01*
X496884Y404663D01*
X495337Y403115D01*
X494500Y401094D01*
Y398906D01*
X495337Y396884D01*
X496884Y395337D01*
X498906Y394500D01*
X501094D01*
X503115Y395337D01*
X504663Y396884D01*
X505500Y398906D01*
Y401094D01*
X504663Y403115D01*
X503115Y404663D01*
X501094Y405500D01*
D02*
G37*
G36*
X461094D02*
X458906D01*
X456884Y404663D01*
X455337Y403115D01*
X454500Y401094D01*
Y398906D01*
X455337Y396884D01*
X456884Y395337D01*
X458906Y394500D01*
X461094D01*
X463115Y395337D01*
X464663Y396884D01*
X465500Y398906D01*
Y401094D01*
X464663Y403115D01*
X463115Y404663D01*
X461094Y405500D01*
D02*
G37*
G36*
X341094D02*
X338906D01*
X336884Y404663D01*
X335337Y403115D01*
X334500Y401094D01*
Y398906D01*
X335337Y396884D01*
X336884Y395337D01*
X338906Y394500D01*
X341094D01*
X343115Y395337D01*
X344663Y396884D01*
X345500Y398906D01*
Y401094D01*
X344663Y403115D01*
X343115Y404663D01*
X341094Y405500D01*
D02*
G37*
G36*
X301094D02*
X298906D01*
X296884Y404663D01*
X295337Y403115D01*
X294500Y401094D01*
Y398906D01*
X295337Y396884D01*
X296884Y395337D01*
X298906Y394500D01*
X301094D01*
X303115Y395337D01*
X304663Y396884D01*
X305500Y398906D01*
Y401094D01*
X304663Y403115D01*
X303115Y404663D01*
X301094Y405500D01*
D02*
G37*
G36*
X221094D02*
X218906D01*
X216884Y404663D01*
X215337Y403115D01*
X214500Y401094D01*
Y398906D01*
X215337Y396884D01*
X216884Y395337D01*
X218906Y394500D01*
X221094D01*
X223116Y395337D01*
X224663Y396884D01*
X225500Y398906D01*
Y401094D01*
X224663Y403115D01*
X223116Y404663D01*
X221094Y405500D01*
D02*
G37*
G36*
X101094D02*
X98906D01*
X96884Y404663D01*
X95337Y403115D01*
X94500Y401094D01*
Y398906D01*
X95337Y396884D01*
X96884Y395337D01*
X98906Y394500D01*
X101094D01*
X103116Y395337D01*
X104663Y396884D01*
X105500Y398906D01*
Y401094D01*
X104663Y403115D01*
X103116Y404663D01*
X101094Y405500D01*
D02*
G37*
G36*
X61094D02*
X58906D01*
X56884Y404663D01*
X55337Y403115D01*
X54500Y401094D01*
Y398906D01*
X55337Y396884D01*
X56884Y395337D01*
X58906Y394500D01*
X61094D01*
X63116Y395337D01*
X64663Y396884D01*
X65500Y398906D01*
Y401094D01*
X64663Y403115D01*
X63116Y404663D01*
X61094Y405500D01*
D02*
G37*
G36*
X38278Y412320D02*
X35382D01*
X32584Y411570D01*
X30076Y410122D01*
X28028Y408074D01*
X26580Y405566D01*
X25830Y402768D01*
Y399872D01*
X26580Y397074D01*
X28028Y394566D01*
X30076Y392518D01*
X32584Y391070D01*
X35382Y390320D01*
X38278D01*
X41076Y391070D01*
X43584Y392518D01*
X45632Y394566D01*
X47080Y397074D01*
X47830Y399872D01*
Y402768D01*
X47080Y405566D01*
X45632Y408074D01*
X43584Y410122D01*
X41076Y411570D01*
X38278Y412320D01*
D02*
G37*
G36*
X939720Y374700D02*
X937340D01*
X935041Y374084D01*
X932979Y372894D01*
X931296Y371211D01*
X930106Y369149D01*
X929490Y366850D01*
Y364470D01*
X930106Y362171D01*
X931296Y360109D01*
X932979Y358426D01*
X935041Y357236D01*
X937340Y356620D01*
X939720D01*
X942019Y357236D01*
X944081Y358426D01*
X945764Y360109D01*
X946954Y362171D01*
X947570Y364470D01*
Y366850D01*
X946954Y369149D01*
X945764Y371211D01*
X944081Y372894D01*
X942019Y374084D01*
X939720Y374700D01*
D02*
G37*
G36*
X961094Y365500D02*
X958906D01*
X956884Y364663D01*
X955337Y363116D01*
X954500Y361094D01*
Y358906D01*
X955337Y356884D01*
X956884Y355337D01*
X958906Y354500D01*
X961094D01*
X963115Y355337D01*
X964663Y356884D01*
X965500Y358906D01*
Y361094D01*
X964663Y363116D01*
X963115Y364663D01*
X961094Y365500D01*
D02*
G37*
G36*
X921094D02*
X918906D01*
X916884Y364663D01*
X915337Y363116D01*
X914500Y361094D01*
Y358906D01*
X915337Y356884D01*
X916884Y355337D01*
X918906Y354500D01*
X921094D01*
X923115Y355337D01*
X924663Y356884D01*
X925500Y358906D01*
Y361094D01*
X924663Y363116D01*
X923115Y364663D01*
X921094Y365500D01*
D02*
G37*
G36*
X881094D02*
X878906D01*
X876884Y364663D01*
X875337Y363116D01*
X874500Y361094D01*
Y358906D01*
X875337Y356884D01*
X876884Y355337D01*
X878906Y354500D01*
X881094D01*
X883115Y355337D01*
X884663Y356884D01*
X885500Y358906D01*
Y361094D01*
X884663Y363116D01*
X883115Y364663D01*
X881094Y365500D01*
D02*
G37*
G36*
X481094D02*
X478906D01*
X476884Y364663D01*
X475337Y363116D01*
X474500Y361094D01*
Y358906D01*
X475337Y356884D01*
X476884Y355337D01*
X478906Y354500D01*
X481094D01*
X483115Y355337D01*
X484663Y356884D01*
X485500Y358906D01*
Y361094D01*
X484663Y363116D01*
X483115Y364663D01*
X481094Y365500D01*
D02*
G37*
G36*
X401094D02*
X398906D01*
X396884Y364663D01*
X395337Y363116D01*
X394500Y361094D01*
Y358906D01*
X395337Y356884D01*
X396884Y355337D01*
X398906Y354500D01*
X401094D01*
X403115Y355337D01*
X404663Y356884D01*
X405500Y358906D01*
Y361094D01*
X404663Y363116D01*
X403115Y364663D01*
X401094Y365500D01*
D02*
G37*
G36*
X281094D02*
X278906D01*
X276884Y364663D01*
X275337Y363116D01*
X274500Y361094D01*
Y358906D01*
X275337Y356884D01*
X276884Y355337D01*
X278906Y354500D01*
X281094D01*
X283116Y355337D01*
X284663Y356884D01*
X285500Y358906D01*
Y361094D01*
X284663Y363116D01*
X283116Y364663D01*
X281094Y365500D01*
D02*
G37*
G36*
X241094D02*
X238906D01*
X236884Y364663D01*
X235337Y363116D01*
X234500Y361094D01*
Y358906D01*
X235337Y356884D01*
X236884Y355337D01*
X238906Y354500D01*
X241094D01*
X243116Y355337D01*
X244663Y356884D01*
X245500Y358906D01*
Y361094D01*
X244663Y363116D01*
X243116Y364663D01*
X241094Y365500D01*
D02*
G37*
G36*
X121094D02*
X118906D01*
X116884Y364663D01*
X115337Y363116D01*
X114500Y361094D01*
Y358906D01*
X115337Y356884D01*
X116884Y355337D01*
X118906Y354500D01*
X121094D01*
X123116Y355337D01*
X124663Y356884D01*
X125500Y358906D01*
Y361094D01*
X124663Y363116D01*
X123116Y364663D01*
X121094Y365500D01*
D02*
G37*
G36*
X81094D02*
X78906D01*
X76884Y364663D01*
X75337Y363116D01*
X74500Y361094D01*
Y358906D01*
X75337Y356884D01*
X76884Y355337D01*
X78906Y354500D01*
X81094D01*
X83116Y355337D01*
X84663Y356884D01*
X85500Y358906D01*
Y361094D01*
X84663Y363116D01*
X83116Y364663D01*
X81094Y365500D01*
D02*
G37*
G36*
X41094D02*
X38906D01*
X36885Y364663D01*
X35337Y363116D01*
X34500Y361094D01*
Y358906D01*
X35337Y356884D01*
X36885Y355337D01*
X38906Y354500D01*
X41094D01*
X43116Y355337D01*
X44663Y356884D01*
X45500Y358906D01*
Y361094D01*
X44663Y363116D01*
X43116Y364663D01*
X41094Y365500D01*
D02*
G37*
G36*
X515444Y363640D02*
X513256D01*
X511235Y362803D01*
X509687Y361255D01*
X508850Y359234D01*
Y357046D01*
X509687Y355024D01*
X511235Y353477D01*
X513256Y352640D01*
X515444D01*
X517466Y353477D01*
X519013Y355024D01*
X519850Y357046D01*
Y359234D01*
X519013Y361255D01*
X517466Y362803D01*
X515444Y363640D01*
D02*
G37*
G36*
X586564Y362370D02*
X584376D01*
X582355Y361533D01*
X580807Y359986D01*
X579970Y357964D01*
Y355776D01*
X580807Y353755D01*
X582355Y352207D01*
X584376Y351370D01*
X586564D01*
X588586Y352207D01*
X590133Y353755D01*
X590970Y355776D01*
Y357964D01*
X590133Y359986D01*
X588586Y361533D01*
X586564Y362370D01*
D02*
G37*
G36*
X495124Y361100D02*
X492936D01*
X490914Y360263D01*
X489367Y358716D01*
X488530Y356694D01*
Y354506D01*
X489367Y352485D01*
X490914Y350937D01*
X492936Y350100D01*
X495124D01*
X497146Y350937D01*
X498693Y352485D01*
X499530Y354506D01*
Y356694D01*
X498693Y358716D01*
X497146Y360263D01*
X495124Y361100D01*
D02*
G37*
G36*
Y343320D02*
X492936D01*
X490914Y342483D01*
X489367Y340936D01*
X488530Y338914D01*
Y336726D01*
X489367Y334705D01*
X490914Y333157D01*
X492936Y332320D01*
X495124D01*
X497146Y333157D01*
X498693Y334705D01*
X499530Y336726D01*
Y338914D01*
X498693Y340936D01*
X497146Y342483D01*
X495124Y343320D01*
D02*
G37*
G36*
X981094Y325500D02*
X978906D01*
X976884Y324663D01*
X975337Y323116D01*
X974500Y321094D01*
Y318906D01*
X975337Y316884D01*
X976884Y315337D01*
X978906Y314500D01*
X981094D01*
X983115Y315337D01*
X984662Y316884D01*
X985500Y318906D01*
Y321094D01*
X984662Y323116D01*
X983115Y324663D01*
X981094Y325500D01*
D02*
G37*
G36*
X941094D02*
X938906D01*
X936884Y324663D01*
X935337Y323116D01*
X934500Y321094D01*
Y318906D01*
X935337Y316884D01*
X936884Y315337D01*
X938906Y314500D01*
X941094D01*
X943115Y315337D01*
X944663Y316884D01*
X945500Y318906D01*
Y321094D01*
X944663Y323116D01*
X943115Y324663D01*
X941094Y325500D01*
D02*
G37*
G36*
X901094D02*
X898906D01*
X896884Y324663D01*
X895337Y323116D01*
X894500Y321094D01*
Y318906D01*
X895337Y316884D01*
X896884Y315337D01*
X898906Y314500D01*
X901094D01*
X903115Y315337D01*
X904663Y316884D01*
X905500Y318906D01*
Y321094D01*
X904663Y323116D01*
X903115Y324663D01*
X901094Y325500D01*
D02*
G37*
G36*
X861094D02*
X858906D01*
X856884Y324663D01*
X855337Y323116D01*
X854500Y321094D01*
Y318906D01*
X855337Y316884D01*
X856884Y315337D01*
X858906Y314500D01*
X861094D01*
X863115Y315337D01*
X864663Y316884D01*
X865500Y318906D01*
Y321094D01*
X864663Y323116D01*
X863115Y324663D01*
X861094Y325500D01*
D02*
G37*
G36*
X821094D02*
X818906D01*
X816884Y324663D01*
X815337Y323116D01*
X814500Y321094D01*
Y318906D01*
X815337Y316884D01*
X816884Y315337D01*
X818906Y314500D01*
X821094D01*
X823115Y315337D01*
X824663Y316884D01*
X825500Y318906D01*
Y321094D01*
X824663Y323116D01*
X823115Y324663D01*
X821094Y325500D01*
D02*
G37*
G36*
X741094D02*
X738906D01*
X736884Y324663D01*
X735337Y323116D01*
X734500Y321094D01*
Y318906D01*
X735337Y316884D01*
X736884Y315337D01*
X738906Y314500D01*
X741094D01*
X743115Y315337D01*
X744663Y316884D01*
X745500Y318906D01*
Y321094D01*
X744663Y323116D01*
X743115Y324663D01*
X741094Y325500D01*
D02*
G37*
G36*
X701094D02*
X698906D01*
X696884Y324663D01*
X695337Y323116D01*
X694500Y321094D01*
Y318906D01*
X695337Y316884D01*
X696884Y315337D01*
X698906Y314500D01*
X701094D01*
X703115Y315337D01*
X704663Y316884D01*
X705500Y318906D01*
Y321094D01*
X704663Y323116D01*
X703115Y324663D01*
X701094Y325500D01*
D02*
G37*
G36*
X661094D02*
X658906D01*
X656884Y324663D01*
X655337Y323116D01*
X654500Y321094D01*
Y318906D01*
X655337Y316884D01*
X656884Y315337D01*
X658906Y314500D01*
X661094D01*
X663115Y315337D01*
X664663Y316884D01*
X665500Y318906D01*
Y321094D01*
X664663Y323116D01*
X663115Y324663D01*
X661094Y325500D01*
D02*
G37*
G36*
X461094D02*
X458906D01*
X456884Y324663D01*
X455337Y323116D01*
X454500Y321094D01*
Y318906D01*
X455337Y316884D01*
X456884Y315337D01*
X458906Y314500D01*
X461094D01*
X463115Y315337D01*
X464663Y316884D01*
X465500Y318906D01*
Y321094D01*
X464663Y323116D01*
X463115Y324663D01*
X461094Y325500D01*
D02*
G37*
G36*
X381094D02*
X378906D01*
X376884Y324663D01*
X375337Y323116D01*
X374500Y321094D01*
Y318906D01*
X375337Y316884D01*
X376884Y315337D01*
X378906Y314500D01*
X381094D01*
X383115Y315337D01*
X384663Y316884D01*
X385500Y318906D01*
Y321094D01*
X384663Y323116D01*
X383115Y324663D01*
X381094Y325500D01*
D02*
G37*
G36*
X341094D02*
X338906D01*
X336884Y324663D01*
X335337Y323116D01*
X334500Y321094D01*
Y318906D01*
X335337Y316884D01*
X336884Y315337D01*
X338906Y314500D01*
X341094D01*
X343115Y315337D01*
X344663Y316884D01*
X345500Y318906D01*
Y321094D01*
X344663Y323116D01*
X343115Y324663D01*
X341094Y325500D01*
D02*
G37*
G36*
X301094D02*
X298906D01*
X296884Y324663D01*
X295337Y323116D01*
X294500Y321094D01*
Y318906D01*
X295337Y316884D01*
X296884Y315337D01*
X298906Y314500D01*
X301094D01*
X303115Y315337D01*
X304663Y316884D01*
X305500Y318906D01*
Y321094D01*
X304663Y323116D01*
X303115Y324663D01*
X301094Y325500D01*
D02*
G37*
G36*
X261094D02*
X258906D01*
X256884Y324663D01*
X255337Y323116D01*
X254500Y321094D01*
Y318906D01*
X255337Y316884D01*
X256884Y315337D01*
X258906Y314500D01*
X261094D01*
X263116Y315337D01*
X264663Y316884D01*
X265500Y318906D01*
Y321094D01*
X264663Y323116D01*
X263116Y324663D01*
X261094Y325500D01*
D02*
G37*
G36*
X221094D02*
X218906D01*
X216884Y324663D01*
X215337Y323116D01*
X214500Y321094D01*
Y318906D01*
X215337Y316884D01*
X216884Y315337D01*
X218906Y314500D01*
X221094D01*
X223116Y315337D01*
X224663Y316884D01*
X225500Y318906D01*
Y321094D01*
X224663Y323116D01*
X223116Y324663D01*
X221094Y325500D01*
D02*
G37*
G36*
X181094D02*
X178906D01*
X176884Y324663D01*
X175337Y323116D01*
X174500Y321094D01*
Y318906D01*
X175337Y316884D01*
X176884Y315337D01*
X178906Y314500D01*
X181094D01*
X183116Y315337D01*
X184663Y316884D01*
X185500Y318906D01*
Y321094D01*
X184663Y323116D01*
X183116Y324663D01*
X181094Y325500D01*
D02*
G37*
G36*
X53420Y332283D02*
X53260D01*
X50749Y331952D01*
X48408Y330983D01*
X46399Y329441D01*
X44857Y327431D01*
X43888Y325091D01*
X43557Y322580D01*
X43888Y320069D01*
X44857Y317729D01*
X46399Y315719D01*
X48408Y314177D01*
X50749Y313208D01*
X53260Y312877D01*
X53420D01*
X55931Y313208D01*
X58271Y314177D01*
X60281Y315719D01*
X61823Y317729D01*
X62792Y320069D01*
X63123Y322580D01*
X62792Y325091D01*
X61823Y327431D01*
X60281Y329441D01*
X58271Y330983D01*
X55931Y331952D01*
X53420Y332283D01*
D02*
G37*
G36*
X549734Y306490D02*
X547546D01*
X545524Y305653D01*
X543977Y304105D01*
X543140Y302084D01*
Y299896D01*
X543977Y297875D01*
X545524Y296327D01*
X547546Y295490D01*
X549734D01*
X551755Y296327D01*
X553303Y297875D01*
X554140Y299896D01*
Y302084D01*
X553303Y304105D01*
X551755Y305653D01*
X549734Y306490D01*
D02*
G37*
G36*
X570054Y305220D02*
X567866D01*
X565844Y304383D01*
X564297Y302836D01*
X563460Y300814D01*
Y298626D01*
X564297Y296604D01*
X565844Y295057D01*
X567866Y294220D01*
X570054D01*
X572076Y295057D01*
X573623Y296604D01*
X574460Y298626D01*
Y300814D01*
X573623Y302836D01*
X572076Y304383D01*
X570054Y305220D01*
D02*
G37*
G36*
X133174Y300140D02*
X130986D01*
X128965Y299303D01*
X127417Y297756D01*
X126580Y295734D01*
Y293546D01*
X127417Y291525D01*
X128965Y289977D01*
X130986Y289140D01*
X133174D01*
X135196Y289977D01*
X136743Y291525D01*
X137580Y293546D01*
Y295734D01*
X136743Y297756D01*
X135196Y299303D01*
X133174Y300140D01*
D02*
G37*
G36*
X564974Y289980D02*
X562786D01*
X560765Y289143D01*
X559217Y287596D01*
X558380Y285574D01*
Y283386D01*
X558718Y282569D01*
X557709Y281687D01*
X556084Y282360D01*
X553896D01*
X551875Y281523D01*
X550327Y279975D01*
X549490Y277954D01*
Y275766D01*
X550327Y273745D01*
X551875Y272197D01*
X553896Y271360D01*
X556084D01*
X558106Y272197D01*
X559653Y273745D01*
X560490Y275766D01*
Y277954D01*
X560152Y278771D01*
X561161Y279653D01*
X562786Y278980D01*
X564974D01*
X566996Y279817D01*
X568543Y281364D01*
X569380Y283386D01*
Y285574D01*
X568543Y287596D01*
X566996Y289143D01*
X564974Y289980D01*
D02*
G37*
G36*
X939720Y298700D02*
X937340D01*
X935041Y298084D01*
X932979Y296894D01*
X931296Y295211D01*
X930106Y293149D01*
X929490Y290850D01*
Y288470D01*
X930106Y286171D01*
X931296Y284109D01*
X932979Y282426D01*
X935041Y281236D01*
X937340Y280620D01*
X939720D01*
X942019Y281236D01*
X944081Y282426D01*
X945764Y284109D01*
X946954Y286171D01*
X947570Y288470D01*
Y290850D01*
X946954Y293149D01*
X945764Y295211D01*
X944081Y296894D01*
X942019Y298084D01*
X939720Y298700D01*
D02*
G37*
G36*
X961094Y285500D02*
X958906D01*
X956884Y284663D01*
X955337Y283116D01*
X954500Y281094D01*
Y278906D01*
X955337Y276884D01*
X956884Y275337D01*
X958906Y274500D01*
X961094D01*
X963115Y275337D01*
X964663Y276884D01*
X965500Y278906D01*
Y281094D01*
X964663Y283116D01*
X963115Y284663D01*
X961094Y285500D01*
D02*
G37*
G36*
X881094D02*
X878906D01*
X876884Y284663D01*
X875337Y283116D01*
X874500Y281094D01*
Y278906D01*
X875337Y276884D01*
X876884Y275337D01*
X878906Y274500D01*
X881094D01*
X883115Y275337D01*
X884663Y276884D01*
X885500Y278906D01*
Y281094D01*
X884663Y283116D01*
X883115Y284663D01*
X881094Y285500D01*
D02*
G37*
G36*
X361094D02*
X358906D01*
X356884Y284663D01*
X355337Y283116D01*
X354500Y281094D01*
Y278906D01*
X355337Y276884D01*
X356884Y275337D01*
X358906Y274500D01*
X361094D01*
X363116Y275337D01*
X364663Y276884D01*
X365500Y278906D01*
Y281094D01*
X364663Y283116D01*
X363116Y284663D01*
X361094Y285500D01*
D02*
G37*
G36*
X201094D02*
X198906D01*
X196884Y284663D01*
X195337Y283116D01*
X194500Y281094D01*
Y278906D01*
X195337Y276884D01*
X196884Y275337D01*
X198906Y274500D01*
X201094D01*
X203116Y275337D01*
X204663Y276884D01*
X205500Y278906D01*
Y281094D01*
X204663Y283116D01*
X203116Y284663D01*
X201094Y285500D01*
D02*
G37*
G36*
X161094D02*
X158906D01*
X156884Y284663D01*
X155337Y283116D01*
X154500Y281094D01*
Y278906D01*
X155337Y276884D01*
X156884Y275337D01*
X158906Y274500D01*
X161094D01*
X163116Y275337D01*
X164663Y276884D01*
X165500Y278906D01*
Y281094D01*
X164663Y283116D01*
X163116Y284663D01*
X161094Y285500D01*
D02*
G37*
G36*
X121094D02*
X118906D01*
X116884Y284663D01*
X115337Y283116D01*
X114500Y281094D01*
Y278906D01*
X115337Y276884D01*
X116884Y275337D01*
X118906Y274500D01*
X121094D01*
X123116Y275337D01*
X124663Y276884D01*
X125500Y278906D01*
Y281094D01*
X124663Y283116D01*
X123116Y284663D01*
X121094Y285500D01*
D02*
G37*
G36*
X81094D02*
X78906D01*
X76884Y284663D01*
X75337Y283116D01*
X74500Y281094D01*
Y278906D01*
X75337Y276884D01*
X76884Y275337D01*
X78906Y274500D01*
X81094D01*
X83116Y275337D01*
X84663Y276884D01*
X85500Y278906D01*
Y281094D01*
X84663Y283116D01*
X83116Y284663D01*
X81094Y285500D01*
D02*
G37*
G36*
X53420Y289103D02*
X53260D01*
X50749Y288772D01*
X48408Y287803D01*
X46399Y286261D01*
X44857Y284251D01*
X43888Y281911D01*
X43557Y279400D01*
X43888Y276889D01*
X44857Y274548D01*
X46399Y272539D01*
X48408Y270997D01*
X50749Y270028D01*
X53260Y269697D01*
X53420D01*
X55931Y270028D01*
X58271Y270997D01*
X60281Y272539D01*
X61823Y274548D01*
X62792Y276889D01*
X63123Y279400D01*
X62792Y281911D01*
X61823Y284251D01*
X60281Y286261D01*
X58271Y287803D01*
X55931Y288772D01*
X53420Y289103D01*
D02*
G37*
G36*
X563704Y270930D02*
X561516D01*
X559495Y270093D01*
X557947Y268545D01*
X557110Y266524D01*
Y264336D01*
X557947Y262314D01*
X559495Y260767D01*
X561516Y259930D01*
X563704D01*
X565726Y260767D01*
X567273Y262314D01*
X568110Y264336D01*
Y266524D01*
X567273Y268545D01*
X565726Y270093D01*
X563704Y270930D01*
D02*
G37*
G36*
X129364D02*
X127176D01*
X125154Y270093D01*
X123607Y268545D01*
X122770Y266524D01*
Y264336D01*
X123607Y262314D01*
X125154Y260767D01*
X127176Y259930D01*
X129364D01*
X131385Y260767D01*
X132933Y262314D01*
X133770Y264336D01*
Y266524D01*
X132933Y268545D01*
X131385Y270093D01*
X129364Y270930D01*
D02*
G37*
G36*
X495124Y266690D02*
X492936D01*
X490914Y265853D01*
X489367Y264305D01*
X488530Y262284D01*
Y260096D01*
X489367Y258074D01*
X490914Y256527D01*
X492936Y255690D01*
X495124D01*
X497146Y256527D01*
X498693Y258074D01*
X499530Y260096D01*
Y262284D01*
X498693Y264305D01*
X497146Y265853D01*
X495124Y266690D01*
D02*
G37*
G36*
Y253150D02*
X492936D01*
X490914Y252313D01*
X489367Y250765D01*
X488530Y248744D01*
Y246556D01*
X489367Y244534D01*
X490914Y242987D01*
X492936Y242150D01*
X495124D01*
X497146Y242987D01*
X498693Y244534D01*
X499530Y246556D01*
Y248744D01*
X498693Y250765D01*
X497146Y252313D01*
X495124Y253150D01*
D02*
G37*
G36*
X981094Y245500D02*
X978906D01*
X976884Y244663D01*
X975337Y243116D01*
X974500Y241094D01*
Y238906D01*
X975337Y236884D01*
X976884Y235337D01*
X978906Y234500D01*
X981094D01*
X983115Y235337D01*
X984662Y236884D01*
X985500Y238906D01*
Y241094D01*
X984662Y243116D01*
X983115Y244663D01*
X981094Y245500D01*
D02*
G37*
G36*
X941094D02*
X938906D01*
X936884Y244663D01*
X935337Y243116D01*
X934500Y241094D01*
Y238906D01*
X935337Y236884D01*
X936884Y235337D01*
X938906Y234500D01*
X941094D01*
X943115Y235337D01*
X944663Y236884D01*
X945500Y238906D01*
Y241094D01*
X944663Y243116D01*
X943115Y244663D01*
X941094Y245500D01*
D02*
G37*
G36*
X861094D02*
X858906D01*
X856884Y244663D01*
X855337Y243116D01*
X854500Y241094D01*
Y238906D01*
X855337Y236884D01*
X856884Y235337D01*
X858906Y234500D01*
X861094D01*
X863115Y235337D01*
X864663Y236884D01*
X865500Y238906D01*
Y241094D01*
X864663Y243116D01*
X863115Y244663D01*
X861094Y245500D01*
D02*
G37*
G36*
X661094D02*
X658906D01*
X656884Y244663D01*
X655337Y243116D01*
X654500Y241094D01*
Y238906D01*
X655337Y236884D01*
X656884Y235337D01*
X658906Y234500D01*
X661094D01*
X663115Y235337D01*
X664663Y236884D01*
X665500Y238906D01*
Y241094D01*
X664663Y243116D01*
X663115Y244663D01*
X661094Y245500D01*
D02*
G37*
G36*
X381094D02*
X378906D01*
X376884Y244663D01*
X375337Y243116D01*
X374500Y241094D01*
Y238906D01*
X375337Y236884D01*
X376884Y235337D01*
X378906Y234500D01*
X381094D01*
X383115Y235337D01*
X384663Y236884D01*
X385500Y238906D01*
Y241094D01*
X384663Y243116D01*
X383115Y244663D01*
X381094Y245500D01*
D02*
G37*
G36*
X181094D02*
X178906D01*
X176884Y244663D01*
X175337Y243116D01*
X174500Y241094D01*
Y238906D01*
X175337Y236884D01*
X176884Y235337D01*
X178906Y234500D01*
X181094D01*
X183116Y235337D01*
X184663Y236884D01*
X185500Y238906D01*
Y241094D01*
X184663Y243116D01*
X183116Y244663D01*
X181094Y245500D01*
D02*
G37*
G36*
X141094D02*
X138906D01*
X136884Y244663D01*
X135337Y243116D01*
X134500Y241094D01*
Y238906D01*
X135337Y236884D01*
X136884Y235337D01*
X138906Y234500D01*
X141094D01*
X143116Y235337D01*
X144663Y236884D01*
X145500Y238906D01*
Y241094D01*
X144663Y243116D01*
X143116Y244663D01*
X141094Y245500D01*
D02*
G37*
G36*
X458294Y244920D02*
X456106D01*
X454085Y244083D01*
X452537Y242535D01*
X451700Y240514D01*
Y238326D01*
X452537Y236304D01*
X454085Y234757D01*
X456106Y233920D01*
X458294D01*
X460316Y234757D01*
X461863Y236304D01*
X462700Y238326D01*
Y240514D01*
X461863Y242535D01*
X460316Y244083D01*
X458294Y244920D01*
D02*
G37*
G36*
X575134Y244175D02*
X572946D01*
X570924Y243338D01*
X569377Y241791D01*
X568540Y239769D01*
Y237581D01*
X569377Y235560D01*
X570924Y234013D01*
X572946Y233175D01*
X575134D01*
X577155Y234013D01*
X578703Y235560D01*
X579540Y237581D01*
Y239769D01*
X578703Y241791D01*
X577155Y243338D01*
X575134Y244175D01*
D02*
G37*
G36*
X495124Y240450D02*
X492936D01*
X490914Y239613D01*
X489367Y238065D01*
X488530Y236044D01*
Y233856D01*
X489367Y231835D01*
X490914Y230287D01*
X492936Y229450D01*
X495124D01*
X497146Y230287D01*
X498693Y231835D01*
X499530Y233856D01*
Y236044D01*
X498693Y238065D01*
X497146Y239613D01*
X495124Y240450D01*
D02*
G37*
G36*
X29388Y242140D02*
X26492D01*
X23694Y241390D01*
X21186Y239942D01*
X19138Y237894D01*
X17690Y235386D01*
X16940Y232588D01*
Y229692D01*
X17690Y226894D01*
X19138Y224386D01*
X21186Y222338D01*
X23694Y220890D01*
X26492Y220140D01*
X29388D01*
X32186Y220890D01*
X34694Y222338D01*
X36742Y224386D01*
X38190Y226894D01*
X38940Y229692D01*
Y232588D01*
X38190Y235386D01*
X36742Y237894D01*
X34694Y239942D01*
X32186Y241390D01*
X29388Y242140D01*
D02*
G37*
G36*
X610384Y224333D02*
X608196D01*
X606174Y223496D01*
X604627Y221949D01*
X603790Y219927D01*
Y217739D01*
X604627Y215718D01*
X606174Y214170D01*
X608196Y213333D01*
X610384D01*
X612405Y214170D01*
X613952Y215718D01*
X614790Y217739D01*
Y219927D01*
X613952Y221949D01*
X612405Y223496D01*
X610384Y224333D01*
D02*
G37*
G36*
X234774Y218860D02*
X232586D01*
X230564Y218023D01*
X229017Y216476D01*
X228180Y214454D01*
Y212266D01*
X229017Y210245D01*
X230564Y208697D01*
X232586Y207860D01*
X234774D01*
X236796Y208697D01*
X238343Y210245D01*
X239180Y212266D01*
Y214454D01*
X238343Y216476D01*
X236796Y218023D01*
X234774Y218860D01*
D02*
G37*
G36*
X219582D02*
X217393D01*
X215372Y218023D01*
X213825Y216476D01*
X212987Y214454D01*
Y212266D01*
X213825Y210245D01*
X215372Y208697D01*
X217393Y207860D01*
X219582D01*
X221603Y208697D01*
X223150Y210245D01*
X223988Y212266D01*
Y214454D01*
X223150Y216476D01*
X221603Y218023D01*
X219582Y218860D01*
D02*
G37*
G36*
X947401Y222860D02*
X944899D01*
X942483Y222213D01*
X940317Y220962D01*
X938548Y219193D01*
X937297Y217027D01*
X936650Y214611D01*
Y212109D01*
X937297Y209693D01*
X938548Y207527D01*
X940317Y205758D01*
X942483Y204507D01*
X944899Y203860D01*
X947401D01*
X949817Y204507D01*
X951983Y205758D01*
X953752Y207527D01*
X955003Y209693D01*
X955650Y212109D01*
Y214611D01*
X955003Y217027D01*
X953752Y219193D01*
X951983Y220962D01*
X949817Y222213D01*
X947401Y222860D01*
D02*
G37*
G36*
X975300Y222973D02*
X967800D01*
X965556Y222526D01*
X963654Y221255D01*
X962384Y219354D01*
X961937Y217110D01*
Y209610D01*
X962384Y207367D01*
X963654Y205464D01*
X965556Y204194D01*
X967800Y203747D01*
X975300D01*
X977543Y204194D01*
X979445Y205464D01*
X980716Y207367D01*
X981163Y209610D01*
Y217110D01*
X980716Y219354D01*
X979445Y221255D01*
X977543Y222526D01*
X975300Y222973D01*
D02*
G37*
G36*
X603074Y212510D02*
X600886D01*
X598865Y211673D01*
X597317Y210126D01*
X596480Y208104D01*
Y205916D01*
X597317Y203895D01*
X598865Y202347D01*
X600886Y201510D01*
X603074D01*
X605095Y202347D01*
X606643Y203895D01*
X607480Y205916D01*
Y208104D01*
X606643Y210126D01*
X605095Y211673D01*
X603074Y212510D01*
D02*
G37*
G36*
X430354Y222670D02*
X428166D01*
X426144Y221833D01*
X424597Y220285D01*
X423760Y218264D01*
Y216076D01*
X424597Y214055D01*
X425019Y213633D01*
X424721Y212135D01*
X423605Y211673D01*
X422057Y210126D01*
X421220Y208104D01*
Y205916D01*
X422057Y203895D01*
X423605Y202347D01*
X425626Y201510D01*
X427814D01*
X429836Y202347D01*
X431383Y203895D01*
X432220Y205916D01*
Y208104D01*
X431383Y210126D01*
X430961Y210547D01*
X431259Y212045D01*
X432375Y212507D01*
X433923Y214055D01*
X434760Y216076D01*
Y218264D01*
X433923Y220285D01*
X432375Y221833D01*
X430354Y222670D01*
D02*
G37*
G36*
X620857Y206253D02*
X618669D01*
X616648Y205416D01*
X615100Y203869D01*
X614263Y201847D01*
Y199659D01*
X615100Y197638D01*
X616648Y196090D01*
X618669Y195253D01*
X620857D01*
X622879Y196090D01*
X624426Y197638D01*
X625263Y199659D01*
Y201847D01*
X624426Y203869D01*
X622879Y205416D01*
X620857Y206253D01*
D02*
G37*
G36*
X29388Y216740D02*
X26492D01*
X23694Y215990D01*
X21186Y214542D01*
X19138Y212494D01*
X17690Y209986D01*
X16940Y207188D01*
Y204292D01*
X17690Y201494D01*
X19138Y198986D01*
X21186Y196938D01*
X23694Y195490D01*
X26492Y194740D01*
X29388D01*
X32186Y195490D01*
X34694Y196938D01*
X36742Y198986D01*
X38190Y201494D01*
X38940Y204292D01*
Y207188D01*
X38190Y209986D01*
X36742Y212494D01*
X34694Y214542D01*
X32186Y215990D01*
X29388Y216740D01*
D02*
G37*
G36*
X921094Y205500D02*
X918906D01*
X916884Y204663D01*
X915337Y203116D01*
X914500Y201094D01*
Y198906D01*
X915337Y196884D01*
X916884Y195337D01*
X918906Y194500D01*
X921094D01*
X923115Y195337D01*
X924663Y196884D01*
X925500Y198906D01*
Y201094D01*
X924663Y203116D01*
X923115Y204663D01*
X921094Y205500D01*
D02*
G37*
G36*
X881094D02*
X878906D01*
X876884Y204663D01*
X875337Y203116D01*
X874500Y201094D01*
Y198906D01*
X875337Y196884D01*
X876884Y195337D01*
X878906Y194500D01*
X881094D01*
X883115Y195337D01*
X884663Y196884D01*
X885500Y198906D01*
Y201094D01*
X884663Y203116D01*
X883115Y204663D01*
X881094Y205500D01*
D02*
G37*
G36*
X841094D02*
X838906D01*
X836884Y204663D01*
X835337Y203116D01*
X834500Y201094D01*
Y198906D01*
X835337Y196884D01*
X836884Y195337D01*
X838906Y194500D01*
X841094D01*
X843115Y195337D01*
X844663Y196884D01*
X845500Y198906D01*
Y201094D01*
X844663Y203116D01*
X843115Y204663D01*
X841094Y205500D01*
D02*
G37*
G36*
X801094D02*
X798906D01*
X796884Y204663D01*
X795337Y203116D01*
X794500Y201094D01*
Y198906D01*
X795337Y196884D01*
X796884Y195337D01*
X798906Y194500D01*
X801094D01*
X803115Y195337D01*
X804663Y196884D01*
X805500Y198906D01*
Y201094D01*
X804663Y203116D01*
X803115Y204663D01*
X801094Y205500D01*
D02*
G37*
G36*
X721094D02*
X718906D01*
X716884Y204663D01*
X715337Y203116D01*
X714500Y201094D01*
Y198906D01*
X715337Y196884D01*
X716884Y195337D01*
X718906Y194500D01*
X721094D01*
X723115Y195337D01*
X724663Y196884D01*
X725500Y198906D01*
Y201094D01*
X724663Y203116D01*
X723115Y204663D01*
X721094Y205500D01*
D02*
G37*
G36*
X481094D02*
X478906D01*
X476884Y204663D01*
X475337Y203116D01*
X474500Y201094D01*
Y198906D01*
X475337Y196884D01*
X476884Y195337D01*
X478906Y194500D01*
X481094D01*
X483115Y195337D01*
X484663Y196884D01*
X485500Y198906D01*
Y201094D01*
X484663Y203116D01*
X483115Y204663D01*
X481094Y205500D01*
D02*
G37*
G36*
X161094D02*
X158906D01*
X156884Y204663D01*
X155337Y203116D01*
X154500Y201094D01*
Y198906D01*
X155337Y196884D01*
X156884Y195337D01*
X158906Y194500D01*
X161094D01*
X163116Y195337D01*
X164663Y196884D01*
X165500Y198906D01*
Y201094D01*
X164663Y203116D01*
X163116Y204663D01*
X161094Y205500D01*
D02*
G37*
G36*
X121094D02*
X118906D01*
X116884Y204663D01*
X115337Y203116D01*
X114500Y201094D01*
Y198906D01*
X115337Y196884D01*
X116884Y195337D01*
X118906Y194500D01*
X121094D01*
X123116Y195337D01*
X124663Y196884D01*
X125500Y198906D01*
Y201094D01*
X124663Y203116D01*
X123116Y204663D01*
X121094Y205500D01*
D02*
G37*
G36*
X81094D02*
X78906D01*
X76884Y204663D01*
X75337Y203116D01*
X74500Y201094D01*
Y198906D01*
X75337Y196884D01*
X76884Y195337D01*
X78906Y194500D01*
X81094D01*
X83116Y195337D01*
X84663Y196884D01*
X85500Y198906D01*
Y201094D01*
X84663Y203116D01*
X83116Y204663D01*
X81094Y205500D01*
D02*
G37*
G36*
X972801Y197460D02*
X970299D01*
X967883Y196813D01*
X965717Y195562D01*
X963948Y193793D01*
X962697Y191627D01*
X962050Y189211D01*
Y186709D01*
X962697Y184293D01*
X963948Y182127D01*
X965717Y180358D01*
X967883Y179107D01*
X970299Y178460D01*
X972801D01*
X975217Y179107D01*
X977383Y180358D01*
X979152Y182127D01*
X980403Y184293D01*
X981050Y186709D01*
Y189211D01*
X980403Y191627D01*
X979152Y193793D01*
X977383Y195562D01*
X975217Y196813D01*
X972801Y197460D01*
D02*
G37*
G36*
X280494Y187110D02*
X278306D01*
X276285Y186273D01*
X274737Y184725D01*
X273900Y182704D01*
Y180516D01*
X274737Y178494D01*
X276285Y176947D01*
X278306Y176110D01*
X280494D01*
X282516Y176947D01*
X284063Y178494D01*
X284900Y180516D01*
Y182704D01*
X284063Y184725D01*
X282516Y186273D01*
X280494Y187110D01*
D02*
G37*
G36*
X29388Y191340D02*
X26492D01*
X23694Y190590D01*
X21186Y189142D01*
X19138Y187094D01*
X17690Y184586D01*
X16940Y181788D01*
Y178892D01*
X17690Y176094D01*
X19138Y173586D01*
X21186Y171538D01*
X23694Y170090D01*
X26492Y169340D01*
X29388D01*
X32186Y170090D01*
X34694Y171538D01*
X36742Y173586D01*
X38190Y176094D01*
X38940Y178892D01*
Y181788D01*
X38190Y184586D01*
X36742Y187094D01*
X34694Y189142D01*
X32186Y190590D01*
X29388Y191340D01*
D02*
G37*
G36*
X581094Y165500D02*
X578906D01*
X576884Y164663D01*
X575337Y163116D01*
X574500Y161094D01*
Y158906D01*
X575337Y156884D01*
X576884Y155337D01*
X578906Y154500D01*
X581094D01*
X583115Y155337D01*
X584663Y156884D01*
X585500Y158906D01*
Y161094D01*
X584663Y163116D01*
X583115Y164663D01*
X581094Y165500D01*
D02*
G37*
G36*
X541094D02*
X538906D01*
X536884Y164663D01*
X535337Y163116D01*
X534500Y161094D01*
Y158906D01*
X535337Y156884D01*
X536884Y155337D01*
X538906Y154500D01*
X541094D01*
X543115Y155337D01*
X544663Y156884D01*
X545500Y158906D01*
Y161094D01*
X544663Y163116D01*
X543115Y164663D01*
X541094Y165500D01*
D02*
G37*
G36*
X501094D02*
X498906D01*
X496884Y164663D01*
X495337Y163116D01*
X494500Y161094D01*
Y158906D01*
X495337Y156884D01*
X496884Y155337D01*
X498906Y154500D01*
X501094D01*
X503115Y155337D01*
X504663Y156884D01*
X505500Y158906D01*
Y161094D01*
X504663Y163116D01*
X503115Y164663D01*
X501094Y165500D01*
D02*
G37*
G36*
X381094D02*
X378906D01*
X376884Y164663D01*
X375337Y163116D01*
X374500Y161094D01*
Y158906D01*
X375337Y156884D01*
X376884Y155337D01*
X378906Y154500D01*
X381094D01*
X383115Y155337D01*
X384663Y156884D01*
X385500Y158906D01*
Y161094D01*
X384663Y163116D01*
X383115Y164663D01*
X381094Y165500D01*
D02*
G37*
G36*
X341094D02*
X338906D01*
X336884Y164663D01*
X335337Y163116D01*
X334500Y161094D01*
Y158906D01*
X335337Y156884D01*
X336884Y155337D01*
X338906Y154500D01*
X341094D01*
X343115Y155337D01*
X344663Y156884D01*
X345500Y158906D01*
Y161094D01*
X344663Y163116D01*
X343115Y164663D01*
X341094Y165500D01*
D02*
G37*
G36*
X221094D02*
X218906D01*
X216884Y164663D01*
X215337Y163116D01*
X214500Y161094D01*
Y158906D01*
X215337Y156884D01*
X216884Y155337D01*
X218906Y154500D01*
X221094D01*
X223116Y155337D01*
X224663Y156884D01*
X225500Y158906D01*
Y161094D01*
X224663Y163116D01*
X223116Y164663D01*
X221094Y165500D01*
D02*
G37*
G36*
X141094D02*
X138906D01*
X136884Y164663D01*
X135337Y163116D01*
X134500Y161094D01*
Y158906D01*
X135337Y156884D01*
X136884Y155337D01*
X138906Y154500D01*
X141094D01*
X143116Y155337D01*
X144663Y156884D01*
X145500Y158906D01*
Y161094D01*
X144663Y163116D01*
X143116Y164663D01*
X141094Y165500D01*
D02*
G37*
G36*
X972801Y172060D02*
X970299D01*
X967883Y171413D01*
X965717Y170162D01*
X963948Y168393D01*
X962697Y166227D01*
X962050Y163811D01*
Y161309D01*
X962697Y158893D01*
X963948Y156727D01*
X965717Y154958D01*
X967883Y153707D01*
X970299Y153060D01*
X972801D01*
X975217Y153707D01*
X977383Y154958D01*
X979152Y156727D01*
X980403Y158893D01*
X981050Y161309D01*
Y163811D01*
X980403Y166227D01*
X979152Y168393D01*
X977383Y170162D01*
X975217Y171413D01*
X972801Y172060D01*
D02*
G37*
G36*
X947401D02*
X944899D01*
X942483Y171413D01*
X940317Y170162D01*
X938548Y168393D01*
X937297Y166227D01*
X936650Y163811D01*
Y161309D01*
X937297Y158893D01*
X938548Y156727D01*
X940317Y154958D01*
X942483Y153707D01*
X944899Y153060D01*
X947401D01*
X949817Y153707D01*
X951983Y154958D01*
X953752Y156727D01*
X955003Y158893D01*
X955650Y161309D01*
Y163811D01*
X955003Y166227D01*
X953752Y168393D01*
X951983Y170162D01*
X949817Y171413D01*
X947401Y172060D01*
D02*
G37*
G36*
X674194Y160440D02*
X672006D01*
X669985Y159603D01*
X668437Y158055D01*
X667600Y156034D01*
Y153846D01*
X668437Y151825D01*
X669985Y150277D01*
X672006Y149440D01*
X674194D01*
X676216Y150277D01*
X677763Y151825D01*
X678600Y153846D01*
Y156034D01*
X677763Y158055D01*
X676216Y159603D01*
X674194Y160440D01*
D02*
G37*
G36*
X642604Y155360D02*
X640416D01*
X638395Y154523D01*
X636847Y152976D01*
X636010Y150954D01*
Y148766D01*
X636847Y146744D01*
X638395Y145197D01*
X640416Y144360D01*
X642604D01*
X644625Y145197D01*
X646173Y146744D01*
X647010Y148766D01*
Y150954D01*
X646173Y152976D01*
X644625Y154523D01*
X642604Y155360D01*
D02*
G37*
G36*
X284304Y149010D02*
X282116D01*
X280095Y148173D01*
X278547Y146625D01*
X277710Y144604D01*
Y142416D01*
X278547Y140394D01*
X280095Y138847D01*
X282116Y138010D01*
X284304D01*
X286325Y138847D01*
X287873Y140394D01*
X288710Y142416D01*
Y144604D01*
X287873Y146625D01*
X286325Y148173D01*
X284304Y149010D01*
D02*
G37*
G36*
X972801Y146660D02*
X970299D01*
X967883Y146013D01*
X965717Y144762D01*
X963948Y142993D01*
X962697Y140827D01*
X962050Y138411D01*
Y135909D01*
X962697Y133493D01*
X963948Y131327D01*
X965717Y129558D01*
X967883Y128307D01*
X970299Y127660D01*
X972801D01*
X975217Y128307D01*
X977383Y129558D01*
X979152Y131327D01*
X980403Y133493D01*
X981050Y135909D01*
Y138411D01*
X980403Y140827D01*
X979152Y142993D01*
X977383Y144762D01*
X975217Y146013D01*
X972801Y146660D01*
D02*
G37*
G36*
X780874Y135040D02*
X778686D01*
X776665Y134203D01*
X775117Y132655D01*
X774280Y130634D01*
Y128446D01*
X775117Y126425D01*
X776665Y124877D01*
X778686Y124040D01*
X780874D01*
X782896Y124877D01*
X784443Y126425D01*
X785280Y128446D01*
Y130634D01*
X784443Y132655D01*
X782896Y134203D01*
X780874Y135040D01*
D02*
G37*
G36*
X32440Y140596D02*
X23440D01*
X21743Y140373D01*
X20162Y139718D01*
X18804Y138676D01*
X17762Y137318D01*
X17107Y135737D01*
X16884Y134040D01*
Y125040D01*
X17107Y123343D01*
X17762Y121762D01*
X18804Y120404D01*
X20162Y119362D01*
X21743Y118707D01*
X23440Y118484D01*
X32440D01*
X34137Y118707D01*
X35718Y119362D01*
X37076Y120404D01*
X38118Y121762D01*
X38773Y123343D01*
X38996Y125040D01*
Y134040D01*
X38773Y135737D01*
X38118Y137318D01*
X37076Y138676D01*
X35718Y139718D01*
X34137Y140373D01*
X32440Y140596D01*
D02*
G37*
G36*
X961094Y125500D02*
X958906D01*
X956884Y124663D01*
X955337Y123116D01*
X954500Y121094D01*
Y118906D01*
X955337Y116884D01*
X956884Y115337D01*
X958906Y114500D01*
X961094D01*
X963115Y115337D01*
X964663Y116884D01*
X965500Y118906D01*
Y121094D01*
X964663Y123116D01*
X963115Y124663D01*
X961094Y125500D01*
D02*
G37*
G36*
X921094D02*
X918906D01*
X916884Y124663D01*
X915337Y123116D01*
X914500Y121094D01*
Y118906D01*
X915337Y116884D01*
X916884Y115337D01*
X918906Y114500D01*
X921094D01*
X923115Y115337D01*
X924663Y116884D01*
X925500Y118906D01*
Y121094D01*
X924663Y123116D01*
X923115Y124663D01*
X921094Y125500D01*
D02*
G37*
G36*
X841094D02*
X838906D01*
X836884Y124663D01*
X835337Y123116D01*
X834500Y121094D01*
Y118906D01*
X835337Y116884D01*
X836884Y115337D01*
X838906Y114500D01*
X841094D01*
X843115Y115337D01*
X844663Y116884D01*
X845500Y118906D01*
Y121094D01*
X844663Y123116D01*
X843115Y124663D01*
X841094Y125500D01*
D02*
G37*
G36*
X561094D02*
X558906D01*
X556884Y124663D01*
X555337Y123116D01*
X554500Y121094D01*
Y118906D01*
X555337Y116884D01*
X556884Y115337D01*
X558906Y114500D01*
X561094D01*
X563115Y115337D01*
X564663Y116884D01*
X565500Y118906D01*
Y121094D01*
X564663Y123116D01*
X563115Y124663D01*
X561094Y125500D01*
D02*
G37*
G36*
X521094D02*
X518906D01*
X516884Y124663D01*
X515337Y123116D01*
X514500Y121094D01*
Y118906D01*
X515337Y116884D01*
X516884Y115337D01*
X518906Y114500D01*
X521094D01*
X523115Y115337D01*
X524663Y116884D01*
X525500Y118906D01*
Y121094D01*
X524663Y123116D01*
X523115Y124663D01*
X521094Y125500D01*
D02*
G37*
G36*
X481094D02*
X478906D01*
X476884Y124663D01*
X475337Y123116D01*
X474500Y121094D01*
Y118906D01*
X475337Y116884D01*
X476884Y115337D01*
X478906Y114500D01*
X481094D01*
X483115Y115337D01*
X484663Y116884D01*
X485500Y118906D01*
Y121094D01*
X484663Y123116D01*
X483115Y124663D01*
X481094Y125500D01*
D02*
G37*
G36*
X441094D02*
X438906D01*
X436884Y124663D01*
X435337Y123116D01*
X434500Y121094D01*
Y118906D01*
X435337Y116884D01*
X436884Y115337D01*
X438906Y114500D01*
X441094D01*
X443115Y115337D01*
X444663Y116884D01*
X445500Y118906D01*
Y121094D01*
X444663Y123116D01*
X443115Y124663D01*
X441094Y125500D01*
D02*
G37*
G36*
X321094D02*
X318906D01*
X316884Y124663D01*
X315337Y123116D01*
X314500Y121094D01*
Y118906D01*
X315337Y116884D01*
X316884Y115337D01*
X318906Y114500D01*
X321094D01*
X323116Y115337D01*
X324663Y116884D01*
X325500Y118906D01*
Y121094D01*
X324663Y123116D01*
X323116Y124663D01*
X321094Y125500D01*
D02*
G37*
G36*
X281094D02*
X278906D01*
X276884Y124663D01*
X275337Y123116D01*
X274500Y121094D01*
Y118906D01*
X275337Y116884D01*
X276884Y115337D01*
X278906Y114500D01*
X281094D01*
X283116Y115337D01*
X284663Y116884D01*
X285500Y118906D01*
Y121094D01*
X284663Y123116D01*
X283116Y124663D01*
X281094Y125500D01*
D02*
G37*
G36*
X241094D02*
X238906D01*
X236884Y124663D01*
X235337Y123116D01*
X234500Y121094D01*
Y118906D01*
X235337Y116884D01*
X236884Y115337D01*
X238906Y114500D01*
X241094D01*
X243116Y115337D01*
X244663Y116884D01*
X245500Y118906D01*
Y121094D01*
X244663Y123116D01*
X243116Y124663D01*
X241094Y125500D01*
D02*
G37*
G36*
X201094D02*
X198906D01*
X196884Y124663D01*
X195337Y123116D01*
X194500Y121094D01*
Y118906D01*
X195337Y116884D01*
X196884Y115337D01*
X198906Y114500D01*
X201094D01*
X203116Y115337D01*
X204663Y116884D01*
X205500Y118906D01*
Y121094D01*
X204663Y123116D01*
X203116Y124663D01*
X201094Y125500D01*
D02*
G37*
G36*
X121094D02*
X118906D01*
X116884Y124663D01*
X115337Y123116D01*
X114500Y121094D01*
Y118906D01*
X115337Y116884D01*
X116884Y115337D01*
X118906Y114500D01*
X121094D01*
X123116Y115337D01*
X124663Y116884D01*
X125500Y118906D01*
Y121094D01*
X124663Y123116D01*
X123116Y124663D01*
X121094Y125500D01*
D02*
G37*
G36*
X81094D02*
X78906D01*
X76884Y124663D01*
X75337Y123116D01*
X74500Y121094D01*
Y118906D01*
X75337Y116884D01*
X76884Y115337D01*
X78906Y114500D01*
X81094D01*
X83116Y115337D01*
X84663Y116884D01*
X85500Y118906D01*
Y121094D01*
X84663Y123116D01*
X83116Y124663D01*
X81094Y125500D01*
D02*
G37*
G36*
X890094Y121070D02*
X887906D01*
X885884Y120233D01*
X884337Y118686D01*
X883500Y116664D01*
Y114476D01*
X884337Y112455D01*
X885884Y110907D01*
X887906Y110070D01*
X890094D01*
X892115Y110907D01*
X893663Y112455D01*
X894500Y114476D01*
Y116664D01*
X893663Y118686D01*
X892115Y120233D01*
X890094Y121070D01*
D02*
G37*
G36*
X791034Y119800D02*
X788846D01*
X786824Y118963D01*
X785277Y117416D01*
X784440Y115394D01*
Y113206D01*
X785277Y111185D01*
X786824Y109637D01*
X788846Y108800D01*
X791034D01*
X793055Y109637D01*
X794603Y111185D01*
X795440Y113206D01*
Y115394D01*
X794603Y117416D01*
X793055Y118963D01*
X791034Y119800D01*
D02*
G37*
G36*
X263984Y109640D02*
X261796D01*
X259774Y108803D01*
X258227Y107255D01*
X257390Y105234D01*
Y103046D01*
X258227Y101025D01*
X259774Y99477D01*
X261796Y98640D01*
X263984D01*
X266005Y99477D01*
X267553Y101025D01*
X268390Y103046D01*
Y105234D01*
X267553Y107255D01*
X266005Y108803D01*
X263984Y109640D01*
D02*
G37*
G36*
X401094Y125500D02*
X398906D01*
X396884Y124663D01*
X395337Y123116D01*
X394500Y121094D01*
Y118906D01*
X395337Y116884D01*
X396884Y115337D01*
X398230Y114780D01*
X397982Y113510D01*
X395920Y112957D01*
X394070Y111890D01*
X392560Y110380D01*
X391493Y108530D01*
X390940Y106468D01*
Y104332D01*
X391493Y102270D01*
X392560Y100420D01*
X394070Y98910D01*
X395920Y97843D01*
X397982Y97290D01*
X400118D01*
X402180Y97843D01*
X404030Y98910D01*
X405540Y100420D01*
X406607Y102270D01*
X407160Y104332D01*
Y106468D01*
X406607Y108530D01*
X405540Y110380D01*
X404030Y111890D01*
X402180Y112957D01*
X401557Y113124D01*
X401152Y114429D01*
X401187Y114538D01*
X403115Y115337D01*
X404663Y116884D01*
X405500Y118906D01*
Y121094D01*
X404663Y123116D01*
X403115Y124663D01*
X401094Y125500D01*
D02*
G37*
G36*
X310068Y113510D02*
X307932D01*
X305870Y112957D01*
X304020Y111890D01*
X302510Y110380D01*
X301443Y108530D01*
X300890Y106468D01*
Y104332D01*
X301443Y102270D01*
X302510Y100420D01*
X304020Y98910D01*
X305870Y97843D01*
X307932Y97290D01*
X310068D01*
X312130Y97843D01*
X313980Y98910D01*
X315490Y100420D01*
X316557Y102270D01*
X317110Y104332D01*
Y106468D01*
X316557Y108530D01*
X315490Y110380D01*
X313980Y111890D01*
X312130Y112957D01*
X310068Y113510D01*
D02*
G37*
G36*
X220068D02*
X217932D01*
X215870Y112957D01*
X214020Y111890D01*
X212510Y110380D01*
X211443Y108530D01*
X210890Y106468D01*
Y104332D01*
X211443Y102270D01*
X212510Y100420D01*
X214020Y98910D01*
X215870Y97843D01*
X217932Y97290D01*
X220068D01*
X222130Y97843D01*
X223980Y98910D01*
X225490Y100420D01*
X226557Y102270D01*
X227110Y104332D01*
Y106468D01*
X226557Y108530D01*
X225490Y110380D01*
X223980Y111890D01*
X222130Y112957D01*
X220068Y113510D01*
D02*
G37*
G36*
X788494Y104560D02*
X786306D01*
X784285Y103723D01*
X782737Y102176D01*
X781900Y100154D01*
Y97966D01*
X782737Y95944D01*
X784285Y94397D01*
X786306Y93560D01*
X788494D01*
X790516Y94397D01*
X792063Y95944D01*
X792900Y97966D01*
Y100154D01*
X792063Y102176D01*
X790516Y103723D01*
X788494Y104560D01*
D02*
G37*
G36*
X194668Y88110D02*
X192532D01*
X190470Y87557D01*
X188620Y86490D01*
X187110Y84980D01*
X186043Y83130D01*
X186010Y83006D01*
X184742Y82923D01*
X184663Y83116D01*
X183116Y84663D01*
X181094Y85500D01*
X178906D01*
X176884Y84663D01*
X175337Y83116D01*
X174500Y81094D01*
Y78906D01*
X175337Y76884D01*
X176884Y75337D01*
X178906Y74500D01*
X181094D01*
X183116Y75337D01*
X184663Y76884D01*
X184742Y77077D01*
X186010Y76993D01*
X186043Y76870D01*
X187110Y75020D01*
X188620Y73510D01*
X190470Y72443D01*
X192532Y71890D01*
X194668D01*
X196730Y72443D01*
X198580Y73510D01*
X200090Y75020D01*
X201157Y76870D01*
X201710Y78932D01*
Y81068D01*
X201157Y83130D01*
X200090Y84980D01*
X198580Y86490D01*
X196730Y87557D01*
X194668Y88110D01*
D02*
G37*
G36*
X901094Y85500D02*
X898906D01*
X896884Y84663D01*
X895337Y83116D01*
X894500Y81094D01*
Y78906D01*
X895337Y76884D01*
X896884Y75337D01*
X898906Y74500D01*
X901094D01*
X903115Y75337D01*
X904663Y76884D01*
X905500Y78906D01*
Y81094D01*
X904663Y83116D01*
X903115Y84663D01*
X901094Y85500D01*
D02*
G37*
G36*
X861094D02*
X858906D01*
X856884Y84663D01*
X855337Y83116D01*
X854500Y81094D01*
Y78906D01*
X855337Y76884D01*
X856884Y75337D01*
X858906Y74500D01*
X861094D01*
X863115Y75337D01*
X864663Y76884D01*
X865500Y78906D01*
Y81094D01*
X864663Y83116D01*
X863115Y84663D01*
X861094Y85500D01*
D02*
G37*
G36*
X821094D02*
X818906D01*
X816884Y84663D01*
X815337Y83116D01*
X814500Y81094D01*
Y78906D01*
X815337Y76884D01*
X816884Y75337D01*
X818906Y74500D01*
X821094D01*
X823115Y75337D01*
X824663Y76884D01*
X825500Y78906D01*
Y81094D01*
X824663Y83116D01*
X823115Y84663D01*
X821094Y85500D01*
D02*
G37*
G36*
X781094D02*
X778906D01*
X776884Y84663D01*
X775337Y83116D01*
X774500Y81094D01*
Y78906D01*
X775337Y76884D01*
X776884Y75337D01*
X778906Y74500D01*
X781094D01*
X783115Y75337D01*
X784663Y76884D01*
X785500Y78906D01*
Y81094D01*
X784663Y83116D01*
X783115Y84663D01*
X781094Y85500D01*
D02*
G37*
G36*
X701094D02*
X698906D01*
X696884Y84663D01*
X695337Y83116D01*
X694500Y81094D01*
Y78906D01*
X695337Y76884D01*
X696884Y75337D01*
X698906Y74500D01*
X701094D01*
X703115Y75337D01*
X704663Y76884D01*
X705500Y78906D01*
Y81094D01*
X704663Y83116D01*
X703115Y84663D01*
X701094Y85500D01*
D02*
G37*
G36*
X581094D02*
X578906D01*
X576884Y84663D01*
X575337Y83116D01*
X574500Y81094D01*
Y78906D01*
X575337Y76884D01*
X576884Y75337D01*
X578906Y74500D01*
X581094D01*
X583115Y75337D01*
X584663Y76884D01*
X585500Y78906D01*
Y81094D01*
X584663Y83116D01*
X583115Y84663D01*
X581094Y85500D01*
D02*
G37*
G36*
X541094D02*
X538906D01*
X536884Y84663D01*
X535337Y83116D01*
X534500Y81094D01*
Y78906D01*
X535337Y76884D01*
X536884Y75337D01*
X538906Y74500D01*
X541094D01*
X543115Y75337D01*
X544663Y76884D01*
X545500Y78906D01*
Y81094D01*
X544663Y83116D01*
X543115Y84663D01*
X541094Y85500D01*
D02*
G37*
G36*
X301094D02*
X298906D01*
X296884Y84663D01*
X295337Y83116D01*
X294500Y81094D01*
Y78906D01*
X295337Y76884D01*
X296884Y75337D01*
X298906Y74500D01*
X301094D01*
X303115Y75337D01*
X304663Y76884D01*
X305500Y78906D01*
Y81094D01*
X304663Y83116D01*
X303115Y84663D01*
X301094Y85500D01*
D02*
G37*
G36*
X425518Y88110D02*
X423382D01*
X421320Y87557D01*
X419470Y86490D01*
X417960Y84980D01*
X416893Y83130D01*
X416340Y81068D01*
Y78932D01*
X416893Y76870D01*
X417960Y75020D01*
X419470Y73510D01*
X421320Y72443D01*
X423382Y71890D01*
X425518D01*
X427580Y72443D01*
X429430Y73510D01*
X430940Y75020D01*
X432007Y76870D01*
X432560Y78932D01*
Y81068D01*
X432007Y83130D01*
X430940Y84980D01*
X429430Y86490D01*
X427580Y87557D01*
X425518Y88110D01*
D02*
G37*
G36*
X374718D02*
X372582D01*
X370520Y87557D01*
X368670Y86490D01*
X367160Y84980D01*
X366093Y83130D01*
X365540Y81068D01*
Y78932D01*
X366093Y76870D01*
X367160Y75020D01*
X368670Y73510D01*
X370520Y72443D01*
X372582Y71890D01*
X374718D01*
X376780Y72443D01*
X378630Y73510D01*
X380140Y75020D01*
X381207Y76870D01*
X381760Y78932D01*
Y81068D01*
X381207Y83130D01*
X380140Y84980D01*
X378630Y86490D01*
X376780Y87557D01*
X374718Y88110D01*
D02*
G37*
G36*
X284668D02*
X282532D01*
X280470Y87557D01*
X278620Y86490D01*
X277110Y84980D01*
X276043Y83130D01*
X275490Y81068D01*
Y78932D01*
X276043Y76870D01*
X277110Y75020D01*
X278620Y73510D01*
X280470Y72443D01*
X282532Y71890D01*
X284668D01*
X286730Y72443D01*
X288580Y73510D01*
X290090Y75020D01*
X291157Y76870D01*
X291710Y78932D01*
Y81068D01*
X291157Y83130D01*
X290090Y84980D01*
X288580Y86490D01*
X286730Y87557D01*
X284668Y88110D01*
D02*
G37*
G36*
X572764Y56590D02*
X570236D01*
X567794Y55936D01*
X565606Y54672D01*
X563818Y52884D01*
X562554Y50696D01*
X561900Y48254D01*
Y46541D01*
X561163Y45589D01*
X560687Y45500D01*
X558906D01*
X556884Y44663D01*
X556673Y44451D01*
X555535Y45109D01*
X555700Y45726D01*
Y48254D01*
X555046Y50696D01*
X553782Y52884D01*
X551995Y54672D01*
X549805Y55936D01*
X547364Y56590D01*
X544836D01*
X542394Y55936D01*
X540205Y54672D01*
X538418Y52884D01*
X537154Y50696D01*
X536500Y48254D01*
Y45726D01*
X537154Y43285D01*
X538418Y41095D01*
X540205Y39308D01*
X542394Y38044D01*
X544836Y37390D01*
X547364D01*
X549805Y38044D01*
X551995Y39308D01*
X553230Y40543D01*
X554500Y40017D01*
Y38906D01*
X555337Y36885D01*
X556884Y35337D01*
X558906Y34500D01*
X561094D01*
X563115Y35337D01*
X564663Y36885D01*
X565164Y38096D01*
X566669Y38690D01*
X566680Y38688D01*
X567794Y38044D01*
X570236Y37390D01*
X572764D01*
X575205Y38044D01*
X577394Y39308D01*
X579182Y41095D01*
X580446Y43285D01*
X581100Y45726D01*
Y48254D01*
X580446Y50696D01*
X579182Y52884D01*
X577394Y54672D01*
X575205Y55936D01*
X572764Y56590D01*
D02*
G37*
G36*
X499100Y56704D02*
X491500D01*
X489237Y56253D01*
X487318Y54972D01*
X486036Y53053D01*
X485586Y50790D01*
Y43951D01*
X484316Y43462D01*
X483115Y44663D01*
X481094Y45500D01*
X478906D01*
X476884Y44663D01*
X475337Y43116D01*
X474500Y41094D01*
Y38906D01*
X475337Y36885D01*
X476884Y35337D01*
X478906Y34500D01*
X481094D01*
X483115Y35337D01*
X484663Y36885D01*
X485500Y38906D01*
Y39444D01*
X486770Y39829D01*
X487318Y39008D01*
X489237Y37727D01*
X491500Y37276D01*
X499100D01*
X501363Y37727D01*
X503282Y39008D01*
X504563Y40927D01*
X505014Y43190D01*
Y50790D01*
X504563Y53053D01*
X503282Y54972D01*
X501363Y56253D01*
X499100Y56704D01*
D02*
G37*
G36*
X877564Y56590D02*
X875036D01*
X872595Y55936D01*
X870406Y54672D01*
X868618Y52884D01*
X867354Y50696D01*
X866700Y48254D01*
Y45726D01*
X867354Y43285D01*
X868618Y41095D01*
X870406Y39308D01*
X872595Y38044D01*
X875036Y37390D01*
X877564D01*
X880005Y38044D01*
X882195Y39308D01*
X883982Y41095D01*
X885246Y43285D01*
X885900Y45726D01*
Y48254D01*
X885246Y50696D01*
X883982Y52884D01*
X882195Y54672D01*
X880005Y55936D01*
X877564Y56590D01*
D02*
G37*
G36*
X852164D02*
X849636D01*
X847195Y55936D01*
X845005Y54672D01*
X843218Y52884D01*
X841954Y50696D01*
X841300Y48254D01*
Y45726D01*
X841954Y43285D01*
X843218Y41095D01*
X845005Y39308D01*
X847195Y38044D01*
X849636Y37390D01*
X852164D01*
X854605Y38044D01*
X856795Y39308D01*
X858582Y41095D01*
X859846Y43285D01*
X860500Y45726D01*
Y48254D01*
X859846Y50696D01*
X858582Y52884D01*
X856795Y54672D01*
X854605Y55936D01*
X852164Y56590D01*
D02*
G37*
G36*
X826764D02*
X824236D01*
X821795Y55936D01*
X819605Y54672D01*
X817818Y52884D01*
X816554Y50696D01*
X815900Y48254D01*
Y45726D01*
X816554Y43285D01*
X817818Y41095D01*
X819605Y39308D01*
X821795Y38044D01*
X824236Y37390D01*
X826764D01*
X829205Y38044D01*
X831395Y39308D01*
X833182Y41095D01*
X834446Y43285D01*
X835100Y45726D01*
Y48254D01*
X834446Y50696D01*
X833182Y52884D01*
X831395Y54672D01*
X829205Y55936D01*
X826764Y56590D01*
D02*
G37*
G36*
X801364D02*
X798836D01*
X796395Y55936D01*
X794205Y54672D01*
X792418Y52884D01*
X791154Y50696D01*
X790500Y48254D01*
Y45726D01*
X791154Y43285D01*
X792418Y41095D01*
X794205Y39308D01*
X796395Y38044D01*
X798836Y37390D01*
X801364D01*
X803805Y38044D01*
X805994Y39308D01*
X807782Y41095D01*
X809046Y43285D01*
X809700Y45726D01*
Y48254D01*
X809046Y50696D01*
X807782Y52884D01*
X805994Y54672D01*
X803805Y55936D01*
X801364Y56590D01*
D02*
G37*
G36*
X775964D02*
X773436D01*
X770994Y55936D01*
X768805Y54672D01*
X767018Y52884D01*
X765754Y50696D01*
X765100Y48254D01*
Y45726D01*
X765754Y43285D01*
X767018Y41095D01*
X768805Y39308D01*
X770994Y38044D01*
X773436Y37390D01*
X775964D01*
X778406Y38044D01*
X780594Y39308D01*
X782382Y41095D01*
X783646Y43285D01*
X784300Y45726D01*
Y48254D01*
X783646Y50696D01*
X782382Y52884D01*
X780594Y54672D01*
X778406Y55936D01*
X775964Y56590D01*
D02*
G37*
G36*
X750564D02*
X748036D01*
X745594Y55936D01*
X743406Y54672D01*
X741618Y52884D01*
X740354Y50696D01*
X739700Y48254D01*
Y45726D01*
X740354Y43285D01*
X741618Y41095D01*
X743406Y39308D01*
X745594Y38044D01*
X748036Y37390D01*
X750564D01*
X753006Y38044D01*
X755194Y39308D01*
X756982Y41095D01*
X758246Y43285D01*
X758900Y45726D01*
Y48254D01*
X758246Y50696D01*
X756982Y52884D01*
X755194Y54672D01*
X753006Y55936D01*
X750564Y56590D01*
D02*
G37*
G36*
X725164D02*
X722636D01*
X720194Y55936D01*
X718006Y54672D01*
X716218Y52884D01*
X714954Y50696D01*
X714300Y48254D01*
Y45726D01*
X714954Y43285D01*
X716218Y41095D01*
X718006Y39308D01*
X720194Y38044D01*
X722636Y37390D01*
X725164D01*
X727606Y38044D01*
X729794Y39308D01*
X731582Y41095D01*
X732846Y43285D01*
X733500Y45726D01*
Y48254D01*
X732846Y50696D01*
X731582Y52884D01*
X729794Y54672D01*
X727606Y55936D01*
X725164Y56590D01*
D02*
G37*
G36*
X699764D02*
X697236D01*
X694794Y55936D01*
X692606Y54672D01*
X690818Y52884D01*
X689554Y50696D01*
X688900Y48254D01*
Y45726D01*
X689554Y43285D01*
X690818Y41095D01*
X692606Y39308D01*
X694794Y38044D01*
X697236Y37390D01*
X699764D01*
X702206Y38044D01*
X704395Y39308D01*
X706182Y41095D01*
X707446Y43285D01*
X708100Y45726D01*
Y48254D01*
X707446Y50696D01*
X706182Y52884D01*
X704395Y54672D01*
X702206Y55936D01*
X699764Y56590D01*
D02*
G37*
G36*
X674364D02*
X671836D01*
X669395Y55936D01*
X667206Y54672D01*
X665418Y52884D01*
X664154Y50696D01*
X663500Y48254D01*
Y45726D01*
X664154Y43285D01*
X665418Y41095D01*
X667206Y39308D01*
X669395Y38044D01*
X671836Y37390D01*
X674364D01*
X676805Y38044D01*
X678995Y39308D01*
X680782Y41095D01*
X682046Y43285D01*
X682700Y45726D01*
Y48254D01*
X682046Y50696D01*
X680782Y52884D01*
X678995Y54672D01*
X676805Y55936D01*
X674364Y56590D01*
D02*
G37*
G36*
X648964D02*
X646436D01*
X643995Y55936D01*
X641805Y54672D01*
X640018Y52884D01*
X638754Y50696D01*
X638100Y48254D01*
Y45726D01*
X638754Y43285D01*
X640018Y41095D01*
X641805Y39308D01*
X643995Y38044D01*
X646436Y37390D01*
X648964D01*
X651405Y38044D01*
X653595Y39308D01*
X655382Y41095D01*
X656646Y43285D01*
X657300Y45726D01*
Y48254D01*
X656646Y50696D01*
X655382Y52884D01*
X653595Y54672D01*
X651405Y55936D01*
X648964Y56590D01*
D02*
G37*
G36*
X623564D02*
X621036D01*
X618595Y55936D01*
X616405Y54672D01*
X614618Y52884D01*
X613354Y50696D01*
X612700Y48254D01*
Y45726D01*
X613354Y43285D01*
X614618Y41095D01*
X616405Y39308D01*
X618595Y38044D01*
X621036Y37390D01*
X623564D01*
X626006Y38044D01*
X628195Y39308D01*
X629982Y41095D01*
X631246Y43285D01*
X631900Y45726D01*
Y48254D01*
X631246Y50696D01*
X629982Y52884D01*
X628195Y54672D01*
X626006Y55936D01*
X623564Y56590D01*
D02*
G37*
G36*
X598164D02*
X595636D01*
X593195Y55936D01*
X591006Y54672D01*
X589218Y52884D01*
X587954Y50696D01*
X587300Y48254D01*
Y45726D01*
X587954Y43285D01*
X589218Y41095D01*
X591006Y39308D01*
X593195Y38044D01*
X595636Y37390D01*
X598164D01*
X600606Y38044D01*
X602794Y39308D01*
X604582Y41095D01*
X605846Y43285D01*
X606500Y45726D01*
Y48254D01*
X605846Y50696D01*
X604582Y52884D01*
X602794Y54672D01*
X600606Y55936D01*
X598164Y56590D01*
D02*
G37*
G36*
X521964D02*
X519436D01*
X516995Y55936D01*
X514805Y54672D01*
X513018Y52884D01*
X511754Y50696D01*
X511100Y48254D01*
Y45726D01*
X511754Y43285D01*
X513018Y41095D01*
X514805Y39308D01*
X516995Y38044D01*
X519436Y37390D01*
X521964D01*
X524406Y38044D01*
X526595Y39308D01*
X528382Y41095D01*
X529646Y43285D01*
X530300Y45726D01*
Y48254D01*
X529646Y50696D01*
X528382Y52884D01*
X526595Y54672D01*
X524406Y55936D01*
X521964Y56590D01*
D02*
G37*
G36*
X441094Y45500D02*
X438906D01*
X436884Y44663D01*
X435337Y43116D01*
X434500Y41094D01*
Y38906D01*
X435337Y36885D01*
X436884Y35337D01*
X438906Y34500D01*
X441094D01*
X443115Y35337D01*
X444663Y36885D01*
X445500Y38906D01*
Y41094D01*
X444663Y43116D01*
X443115Y44663D01*
X441094Y45500D01*
D02*
G37*
G36*
X401094D02*
X398906D01*
X396884Y44663D01*
X395337Y43116D01*
X394500Y41094D01*
Y38906D01*
X395337Y36885D01*
X396884Y35337D01*
X398906Y34500D01*
X401094D01*
X403115Y35337D01*
X404663Y36885D01*
X405500Y38906D01*
Y41094D01*
X404663Y43116D01*
X403115Y44663D01*
X401094Y45500D01*
D02*
G37*
G36*
X161094D02*
X158906D01*
X156884Y44663D01*
X155337Y43116D01*
X154500Y41094D01*
Y38906D01*
X155337Y36885D01*
X156884Y35337D01*
X158906Y34500D01*
X161094D01*
X163116Y35337D01*
X164663Y36885D01*
X165500Y38906D01*
Y41094D01*
X164663Y43116D01*
X163116Y44663D01*
X161094Y45500D01*
D02*
G37*
G36*
X182704Y38520D02*
X180516D01*
X178494Y37683D01*
X176947Y36135D01*
X176110Y34114D01*
Y31926D01*
X176947Y29904D01*
X178494Y28357D01*
X180516Y27520D01*
X182704D01*
X184725Y28357D01*
X186273Y29904D01*
X187110Y31926D01*
Y34114D01*
X186273Y36135D01*
X184725Y37683D01*
X182704Y38520D01*
D02*
G37*
G36*
X952912Y87000D02*
X947088D01*
X941336Y86089D01*
X935797Y84289D01*
X930608Y81645D01*
X925896Y78222D01*
X921778Y74104D01*
X918355Y69392D01*
X915711Y64203D01*
X913911Y58664D01*
X913000Y52912D01*
Y47088D01*
X913911Y41336D01*
X915711Y35797D01*
X918355Y30608D01*
X921778Y25896D01*
X925896Y21778D01*
X930608Y18355D01*
X935797Y15711D01*
X941336Y13911D01*
X947088Y13000D01*
X952912D01*
X958664Y13911D01*
X964203Y15711D01*
X969392Y18355D01*
X974104Y21778D01*
X978222Y25896D01*
X981645Y30608D01*
X984289Y35797D01*
X986089Y41336D01*
X987000Y47088D01*
Y52912D01*
X986089Y58664D01*
X984289Y64203D01*
X981645Y69392D01*
X978836Y73259D01*
X979504Y74500D01*
X981094D01*
X983115Y75337D01*
X984662Y76884D01*
X985500Y78906D01*
Y81094D01*
X984662Y83116D01*
X983115Y84663D01*
X981094Y85500D01*
X978906D01*
X976884Y84663D01*
X975337Y83116D01*
X974500Y81094D01*
Y79504D01*
X973259Y78836D01*
X969392Y81645D01*
X964203Y84289D01*
X958664Y86089D01*
X952912Y87000D01*
D02*
G37*
G36*
X52912Y87000D02*
X47088D01*
X41336Y86089D01*
X35797Y84289D01*
X30608Y81645D01*
X25896Y78222D01*
X21778Y74104D01*
X18355Y69392D01*
X15711Y64203D01*
X13911Y58664D01*
X13000Y52912D01*
Y47088D01*
X13911Y41336D01*
X15711Y35797D01*
X18355Y30608D01*
X21778Y25896D01*
X25896Y21778D01*
X30608Y18355D01*
X35797Y15711D01*
X41336Y13911D01*
X47088Y13000D01*
X52912D01*
X58664Y13911D01*
X64203Y15711D01*
X69392Y18355D01*
X74104Y21778D01*
X78222Y25896D01*
X81645Y30608D01*
X84289Y35797D01*
X86089Y41336D01*
X87000Y47088D01*
Y52912D01*
X86089Y58664D01*
X84289Y64203D01*
X81645Y69392D01*
X78222Y74104D01*
X74104Y78222D01*
X69392Y81645D01*
X64203Y84289D01*
X58664Y86089D01*
X52912Y87000D01*
D02*
G37*
%LPD*%
D88*
X283600Y80000D02*
D03*
X309000Y105400D02*
D03*
X334400Y80000D02*
D03*
X424450D02*
D03*
X399050Y105400D02*
D03*
X373650Y80000D02*
D03*
X193600D02*
D03*
X219000Y105400D02*
D03*
X244400Y80000D02*
D03*
D89*
X876300Y46990D02*
D03*
X850900D02*
D03*
X825500D02*
D03*
X800100D02*
D03*
X749300D02*
D03*
X698500D02*
D03*
X673100D02*
D03*
X622300D02*
D03*
X596900D02*
D03*
X571500D02*
D03*
X520700D02*
D03*
X546100D02*
D03*
X647700D02*
D03*
X723900D02*
D03*
X774700D02*
D03*
D90*
X495300D02*
D03*
D91*
X972820Y454660D02*
D03*
Y480060D02*
D03*
X947420Y454660D02*
D03*
Y480060D02*
D03*
X972820Y505460D02*
D03*
X947420D02*
D03*
Y530860D02*
D03*
X946150Y213360D02*
D03*
Y187960D02*
D03*
X971550D02*
D03*
X946150Y162560D02*
D03*
Y137160D02*
D03*
X971550Y162560D02*
D03*
Y137160D02*
D03*
X323850Y624840D02*
D03*
X349250D02*
D03*
X298450D02*
D03*
D92*
X972820Y530860D02*
D03*
X971550Y213360D02*
D03*
D93*
X27940Y279400D02*
D03*
Y322580D02*
D03*
D94*
X53340Y279400D02*
D03*
Y322580D02*
D03*
D95*
X36830Y401320D02*
D03*
Y426720D02*
D03*
X27940Y231140D02*
D03*
Y205740D02*
D03*
Y180340D02*
D03*
Y154940D02*
D03*
D97*
X938530Y289660D02*
D03*
Y365660D02*
D03*
D98*
X50000Y650000D02*
D03*
X950000Y650000D02*
D03*
X50000Y50000D02*
D03*
X950000Y50000D02*
D03*
D99*
X138250Y547370D02*
D03*
X80250D02*
D03*
D100*
X108250Y499370D02*
D03*
D101*
X27940Y129540D02*
D03*
D102*
X673100Y154940D02*
D03*
X960000Y600000D02*
D03*
X980000Y560000D02*
D03*
X960000Y520000D02*
D03*
Y440000D02*
D03*
X980000Y400000D02*
D03*
X960000Y360000D02*
D03*
X980000Y320000D02*
D03*
X960000Y280000D02*
D03*
X980000Y240000D02*
D03*
X960000Y120000D02*
D03*
X980000Y80000D02*
D03*
X920000Y680000D02*
D03*
Y600000D02*
D03*
X940000Y560000D02*
D03*
X920000Y520000D02*
D03*
X940000Y400000D02*
D03*
X920000Y360000D02*
D03*
X940000Y320000D02*
D03*
Y240000D02*
D03*
X920000Y200000D02*
D03*
Y120000D02*
D03*
X880000Y680000D02*
D03*
X900000Y640000D02*
D03*
X880000Y600000D02*
D03*
Y520000D02*
D03*
Y360000D02*
D03*
X900000Y320000D02*
D03*
X880000Y280000D02*
D03*
Y200000D02*
D03*
X900000Y80000D02*
D03*
X840000Y680000D02*
D03*
X860000Y640000D02*
D03*
X840000Y600000D02*
D03*
X860000Y560000D02*
D03*
X840000Y520000D02*
D03*
X860000Y320000D02*
D03*
Y240000D02*
D03*
X840000Y200000D02*
D03*
Y120000D02*
D03*
X860000Y80000D02*
D03*
X800000Y680000D02*
D03*
X820000Y640000D02*
D03*
X800000Y600000D02*
D03*
X820000Y560000D02*
D03*
X800000Y440000D02*
D03*
X820000Y320000D02*
D03*
X800000Y200000D02*
D03*
X820000Y80000D02*
D03*
X760000Y680000D02*
D03*
X780000Y640000D02*
D03*
X760000Y600000D02*
D03*
X780000Y560000D02*
D03*
X760000Y520000D02*
D03*
Y440000D02*
D03*
X780000Y80000D02*
D03*
X720000Y680000D02*
D03*
X740000Y640000D02*
D03*
X720000Y600000D02*
D03*
X740000Y560000D02*
D03*
Y320000D02*
D03*
X720000Y200000D02*
D03*
X680000Y680000D02*
D03*
X700000Y640000D02*
D03*
X680000Y600000D02*
D03*
X700000Y320000D02*
D03*
Y80000D02*
D03*
X640000Y680000D02*
D03*
X660000Y640000D02*
D03*
X640000Y600000D02*
D03*
Y520000D02*
D03*
Y440000D02*
D03*
X660000Y320000D02*
D03*
Y240000D02*
D03*
X600000Y680000D02*
D03*
X620000Y640000D02*
D03*
X600000Y600000D02*
D03*
Y520000D02*
D03*
X560000Y680000D02*
D03*
X580000Y640000D02*
D03*
X560000Y600000D02*
D03*
Y520000D02*
D03*
X580000Y480000D02*
D03*
X560000Y440000D02*
D03*
X580000Y400000D02*
D03*
Y160000D02*
D03*
X560000Y120000D02*
D03*
X580000Y80000D02*
D03*
X560000Y40000D02*
D03*
X520000Y680000D02*
D03*
X540000Y640000D02*
D03*
X520000Y600000D02*
D03*
X540000Y160000D02*
D03*
X520000Y120000D02*
D03*
X540000Y80000D02*
D03*
X480000Y680000D02*
D03*
X500000Y640000D02*
D03*
X480000Y600000D02*
D03*
Y520000D02*
D03*
Y440000D02*
D03*
X500000Y400000D02*
D03*
X480000Y360000D02*
D03*
Y200000D02*
D03*
X500000Y160000D02*
D03*
X480000Y120000D02*
D03*
Y40000D02*
D03*
X440000Y680000D02*
D03*
X460000Y640000D02*
D03*
X440000Y520000D02*
D03*
X460000Y480000D02*
D03*
X440000Y440000D02*
D03*
X460000Y400000D02*
D03*
Y320000D02*
D03*
X440000Y120000D02*
D03*
Y40000D02*
D03*
X400000Y680000D02*
D03*
Y520000D02*
D03*
X420000Y480000D02*
D03*
X400000Y440000D02*
D03*
Y360000D02*
D03*
Y120000D02*
D03*
Y40000D02*
D03*
X360000Y680000D02*
D03*
X380000Y640000D02*
D03*
X360000Y600000D02*
D03*
Y520000D02*
D03*
X380000Y480000D02*
D03*
X360000Y440000D02*
D03*
X380000Y320000D02*
D03*
X360000Y280000D02*
D03*
X380000Y240000D02*
D03*
Y160000D02*
D03*
X320000Y680000D02*
D03*
X340000Y640000D02*
D03*
X320000Y600000D02*
D03*
X340000Y480000D02*
D03*
Y400000D02*
D03*
Y320000D02*
D03*
Y160000D02*
D03*
X320000Y120000D02*
D03*
X280000Y680000D02*
D03*
X300000Y640000D02*
D03*
X280000Y600000D02*
D03*
X300000Y480000D02*
D03*
X280000Y440000D02*
D03*
X300000Y400000D02*
D03*
X280000Y360000D02*
D03*
X300000Y320000D02*
D03*
X280000Y120000D02*
D03*
X300000Y80000D02*
D03*
X240000Y680000D02*
D03*
X260000Y640000D02*
D03*
X240000Y600000D02*
D03*
Y440000D02*
D03*
Y360000D02*
D03*
X260000Y320000D02*
D03*
X240000Y120000D02*
D03*
X200000Y680000D02*
D03*
X220000Y640000D02*
D03*
X200000Y520000D02*
D03*
X220000Y480000D02*
D03*
X200000Y440000D02*
D03*
X220000Y400000D02*
D03*
Y320000D02*
D03*
X200000Y280000D02*
D03*
X220000Y160000D02*
D03*
X200000Y120000D02*
D03*
X160000Y680000D02*
D03*
Y600000D02*
D03*
X180000Y480000D02*
D03*
X160000Y440000D02*
D03*
X180000Y320000D02*
D03*
X160000Y280000D02*
D03*
X180000Y240000D02*
D03*
X160000Y200000D02*
D03*
X180000Y80000D02*
D03*
X160000Y40000D02*
D03*
X120000Y680000D02*
D03*
Y600000D02*
D03*
Y520000D02*
D03*
X140000Y480000D02*
D03*
X120000Y360000D02*
D03*
Y280000D02*
D03*
X140000Y240000D02*
D03*
X120000Y200000D02*
D03*
X140000Y160000D02*
D03*
X120000Y120000D02*
D03*
X80000Y680000D02*
D03*
X100000Y640000D02*
D03*
X80000Y600000D02*
D03*
X100000Y560000D02*
D03*
X80000Y520000D02*
D03*
X100000Y480000D02*
D03*
Y400000D02*
D03*
X80000Y360000D02*
D03*
Y280000D02*
D03*
Y200000D02*
D03*
Y120000D02*
D03*
X40000Y600000D02*
D03*
X60000Y560000D02*
D03*
X40000Y520000D02*
D03*
X60000Y480000D02*
D03*
Y400000D02*
D03*
X40000Y360000D02*
D03*
X779780Y129540D02*
D03*
X789940Y114300D02*
D03*
X641510Y149860D02*
D03*
X674370Y135890D02*
D03*
X397510Y241300D02*
D03*
X279400Y181610D02*
D03*
X218487Y213360D02*
D03*
X585470Y356870D02*
D03*
X619500Y247650D02*
D03*
X548640Y300990D02*
D03*
X568960Y299720D02*
D03*
X106680Y46990D02*
D03*
X549910Y146050D02*
D03*
X181610Y33020D02*
D03*
X128270Y265430D02*
D03*
X494030Y261190D02*
D03*
X457200Y239420D02*
D03*
X132080Y294640D02*
D03*
X233680Y213360D02*
D03*
X494030Y234950D02*
D03*
Y247650D02*
D03*
X429260Y217170D02*
D03*
X426720Y207010D02*
D03*
X631190Y146050D02*
D03*
X426720Y628650D02*
D03*
X234950Y267970D02*
D03*
X309880Y331470D02*
D03*
X889000Y115570D02*
D03*
X787400Y99060D02*
D03*
X574040Y238675D02*
D03*
X494030Y337820D02*
D03*
X563880Y284480D02*
D03*
X554990Y276860D02*
D03*
X514350Y358140D02*
D03*
X609290Y218833D02*
D03*
X494030Y355600D02*
D03*
X601980Y207010D02*
D03*
X619763Y200753D02*
D03*
X262890Y104140D02*
D03*
X283210Y143510D02*
D03*
X595630Y435610D02*
D03*
X687070D02*
D03*
X783590Y430530D02*
D03*
X867410Y469900D02*
D03*
X543560Y436880D02*
D03*
X562610Y265430D02*
D03*
X50000Y677500D02*
D03*
X70000Y670000D02*
D03*
X77500Y650000D02*
D03*
X70000Y630000D02*
D03*
X50000Y622500D02*
D03*
X30000Y630000D02*
D03*
X22500Y650000D02*
D03*
X30000Y670000D02*
D03*
X950000Y677500D02*
D03*
X970000Y670000D02*
D03*
X977500Y650000D02*
D03*
X970000Y630000D02*
D03*
X950000Y622500D02*
D03*
X930000Y630000D02*
D03*
X922500Y650000D02*
D03*
X930000Y670000D02*
D03*
X50000Y77500D02*
D03*
X70000Y70000D02*
D03*
X77500Y50000D02*
D03*
X70000Y30000D02*
D03*
X50000Y22500D02*
D03*
X30000Y30000D02*
D03*
X22500Y50000D02*
D03*
X30000Y70000D02*
D03*
X950000Y77500D02*
D03*
X970000Y70000D02*
D03*
X977500Y50000D02*
D03*
X970000Y30000D02*
D03*
X950000Y22500D02*
D03*
X930000Y30000D02*
D03*
X922500Y50000D02*
D03*
X930000Y70000D02*
D03*
M02*
